<?xml version="1.0" encoding="utf-8"?>
<!-- Generator: Adobe Illustrator 24.0.3, SVG Export Plug-In . SVG Version: 6.00 Build 0)  -->
<svg version="1.1" id="Layer_1" xmlns="http://www.w3.org/2000/svg" xmlns:xlink="http://www.w3.org/1999/xlink" x="0px" y="0px"
	 viewBox="0 0 967 446" style="enable-background:new 0 0 967 446;" xml:space="preserve">
<style type="text/css">
	.st0{enable-background:new    ;}
	.st1{fill:#FFFFFF;}
	.st2{fill-rule:evenodd;clip-rule:evenodd;fill:#FFFFFF;}
</style>
<title>building-with-the-american-spirit</title>
<desc>Created with Sketch.</desc>
<g id="Page-1">
	<g id="Barton-Malow" transform="translate(-237.000000, -3488.000000)">
		<g id="building-with-the-american-spirit" transform="translate(237.000000, 3488.000000)">
			<g class="st0">
				<path class="st1" d="M2.4,421.4h10.1c2.6,0,3.9,1.3,3.9,3.9v4.8c0,2.6-1.3,3.9-3.9,3.9H5.7v6.9H2.4V421.4z M12,431
					c0.7,0,1-0.3,1-1v-4.5c0-0.7-0.3-1-1-1H5.7v6.5H12z"/>
				<path class="st1" d="M19.7,421.4h12.9v3.1h-9.5v5H31v3h-7.9v5.4h9.5v3.1H19.7V421.4z"/>
				<path class="st1" d="M35.7,437.1v-11.8c0-2.7,1.3-3.9,3.9-3.9h6.9c2.7,0,3.9,1.3,3.9,3.9v11.8c0,2.7-1.3,3.9-3.9,3.9h-6.9
					C37,441,35.7,439.7,35.7,437.1z M46,437.9c0.8,0,1-0.3,1-1v-11.4c0-0.8-0.3-1-1-1h-5.9c-0.8,0-1.1,0.3-1.1,1v11.4
					c0,0.8,0.3,1,1.1,1H46z"/>
				<path class="st1" d="M54.7,421.4h10.1c2.6,0,3.9,1.3,3.9,3.9v4.8c0,2.6-1.3,3.9-3.9,3.9h-6.7v6.9h-3.4V421.4z M64.3,431
					c0.7,0,1-0.3,1-1v-4.5c0-0.7-0.3-1-1-1h-6.2v6.5H64.3z"/>
				<path class="st1" d="M72.3,421.4h3.4v16.5h8.8v3.1H72.3V421.4z"/>
				<path class="st1" d="M87.8,421.4h12.9v3.1h-9.5v5h7.9v3h-7.9v5.4h9.5v3.1H87.8V421.4z"/>
				<path class="st1" d="M111.9,430.9c0-2.2,0.8-2.9,2.9-2.9c2.2,0,2.9,0.7,2.9,2.9s-0.8,2.9-2.9,2.9
					C112.7,433.8,111.9,433,111.9,430.9z"/>
				<path class="st1" d="M130,421.4h10.1c2.6,0,3.9,1.3,3.9,3.9v4.8c0,2.6-1.3,3.9-3.9,3.9h-6.7v6.9H130V421.4z M139.6,431
					c0.7,0,1-0.3,1-1v-4.5c0-0.7-0.3-1-1-1h-6.2v6.5H139.6z"/>
				<path class="st1" d="M147.6,421.4h3.4v16.5h8.8v3.1h-12.2V421.4z"/>
				<path class="st1" d="M173.6,436.2h-7.3l-1.5,4.8h-3.5l6.4-19.6h4.7l6.4,19.6h-3.7L173.6,436.2z M172.6,433.1l-2.7-8.7l-2.7,8.7
					H172.6z"/>
				<path class="st1" d="M180.8,437.1v-11.8c0-2.7,1.3-3.9,3.9-3.9h6.3c2.7,0,3.9,1.3,3.9,3.9v2.8h-3.4v-2.6c0-0.8-0.3-1-1-1h-5.3
					c-0.8,0-1.1,0.3-1.1,1v11.4c0,0.8,0.3,1,1.1,1h5.3c0.8,0,1-0.3,1-1v-2.6h3.4v2.8c0,2.6-1.3,3.9-3.9,3.9h-6.3
					C182.1,441,180.8,439.7,180.8,437.1z"/>
				<path class="st1" d="M198.8,421.4h12.9v3.1h-9.5v5h7.9v3h-7.9v5.4h9.5v3.1h-12.9V421.4z"/>
				<path class="st1" d="M214.6,437.1v-2.3h3.3v2.2c0,0.8,0.3,1.1,1,1.1h5.3c0.8,0,1-0.3,1-1.1v-2.4c0-0.9-0.4-1.2-1.3-1.4l-5.3-1.2
					c-2.4-0.5-4-1.4-4-4v-2.7c0-2.7,1.3-3.9,3.9-3.9h5.9c2.7,0,3.9,1.3,3.9,3.9v2.1h-3.3v-2c0-0.8-0.3-1.1-1.1-1.1h-4.9
					c-0.8,0-1.1,0.3-1.1,1.1v2.1c0,0.9,0.4,1.2,1.3,1.4l5.3,1.1c2.4,0.5,4,1.4,4,4v3c0,2.7-1.3,3.9-3.9,3.9h-6.2
					C215.9,441,214.6,439.7,214.6,437.1z"/>
				<path class="st1" d="M240.2,430.9c0-2.2,0.8-2.9,2.9-2.9c2.2,0,2.9,0.7,2.9,2.9s-0.8,2.9-2.9,2.9
					C240.9,433.8,240.2,433,240.2,430.9z"/>
				<path class="st1" d="M257.7,437.1v-11.8c0-2.7,1.3-3.9,3.9-3.9h6.3c2.7,0,3.9,1.3,3.9,3.9v2.8h-3.4v-2.6c0-0.8-0.3-1-1-1h-5.3
					c-0.8,0-1.1,0.3-1.1,1v11.4c0,0.8,0.3,1,1.1,1h5.3c0.8,0,1-0.3,1-1v-2.6h3.4v2.8c0,2.6-1.3,3.9-3.9,3.9h-6.3
					C259,441,257.7,439.7,257.7,437.1z"/>
				<path class="st1" d="M275.3,437.1v-11.8c0-2.7,1.3-3.9,3.9-3.9h6.9c2.7,0,3.9,1.3,3.9,3.9v11.8c0,2.7-1.3,3.9-3.9,3.9h-6.9
					C276.5,441,275.3,439.7,275.3,437.1z M285.6,437.9c0.8,0,1-0.3,1-1v-11.4c0-0.8-0.3-1-1-1h-5.9c-0.8,0-1.1,0.3-1.1,1v11.4
					c0,0.8,0.3,1,1.1,1H285.6z"/>
				<path class="st1" d="M294.2,421.4h3.8l5.7,12.5l5.7-12.5h3.8V441h-3.3v-13.9l-4.9,11.2h-2.6l-4.9-11.2V441h-3.2V421.4z"/>
				<path class="st1" d="M317.9,421.4h3.8l5.7,12.5l5.7-12.5h3.8V441h-3.3v-13.9l-4.9,11.2H326l-4.9-11.2V441h-3.2V421.4z"/>
				<path class="st1" d="M341.3,437.1v-15.7h3.4v15.5c0,0.8,0.3,1,1.1,1h5.5c0.8,0,1-0.3,1-1v-15.5h3.4v15.7c0,2.7-1.3,3.9-3.9,3.9
					h-6.5C342.5,441,341.3,439.7,341.3,437.1z"/>
				<path class="st1" d="M360.1,421.4h3.5l8.4,13.9v-13.9h3.2V441H372l-8.6-14.3V441h-3.2V421.4z"/>
				<path class="st1" d="M380,421.4h3.4V441H380V421.4z"/>
				<path class="st1" d="M392.1,424.5h-5.6v-3.1H401v3.1h-5.5V441h-3.4V424.5z"/>
				<path class="st1" d="M404.1,421.4h3.4V441h-3.4V421.4z"/>
				<path class="st1" d="M412.2,421.4h12.9v3.1h-9.5v5h7.9v3h-7.9v5.4h9.5v3.1h-12.9V421.4z"/>
				<path class="st1" d="M428,437.1v-2.3h3.3v2.2c0,0.8,0.3,1.1,1,1.1h5.3c0.8,0,1-0.3,1-1.1v-2.4c0-0.9-0.4-1.2-1.3-1.4l-5.3-1.2
					c-2.4-0.5-4-1.4-4-4v-2.7c0-2.7,1.3-3.9,3.9-3.9h5.9c2.7,0,3.9,1.3,3.9,3.9v2.1h-3.3v-2c0-0.8-0.3-1.1-1.1-1.1h-4.9
					c-0.8,0-1.1,0.3-1.1,1.1v2.1c0,0.9,0.4,1.2,1.3,1.4l5.3,1.1c2.4,0.5,4,1.4,4,4v3c0,2.7-1.3,3.9-3.9,3.9h-6.2
					C429.3,441,428,439.7,428,437.1z"/>
			</g>
			<path id="Fill-1" class="st2" d="M779,209h11v-11h-11V209z M840,173h11v-11h-11V173z M853,201h11v-11h-11V201z M711,180h11v-11
				h-11V180z M766,157h11v-11h-11V157z M747,175h11v-11h-11V175z M740,228h11v-11h-11V228z M729,265h11v-11h-11V265z M821,239h11
				v-11h-11V239z M848,248h11v-11h-11V248z M804,282h11v-11h-11V282z M824,379h11v-11h-11V379z M840,402h11v-11h-11V402z M601.3,446
				c1.7,0,3.1-1.4,3.1-3.1v-18.1l46.7-46.7h37.5l19,19c0.6,0.6,1.3,0.9,2.2,0.9c0.8,0,1.6-0.3,2.2-0.9l11.6-11.6
				c1.2-1.2,1.2-3.1,0-4.3l-11.7-11.7h83.4l24.9,24.9v25.1c0,0.8,0.3,1.6,0.9,2.2l20.1,20.1c0.6,0.6,1.3,0.9,2.2,0.9h16.3
				c1.7,0,3.1-1.4,3.1-3.1v-52.2c0-0.8-0.3-1.6-0.9-2.2l-31.8-31.8v-27.3l21.4-21.4h12.4c0.8,0,1.6-0.3,2.2-0.9l30.8-30.8
				c0.6-0.6,0.9-1.3,0.9-2.2v-27.2c0-0.8-0.3-1.6-0.9-2.2l-23.2-23.2v-9.5l11.9,11.9c0.6,0.6,1.3,0.9,2.2,0.9c0.8,0,1.6-0.3,2.2-0.9
				l10.5-10.5c0.6-0.6,0.9-1.3,0.9-2.2s-0.3-1.6-0.9-2.2l-8.8-8.8h4.4c1.7,0,3.1-1.4,3.1-3.1V165l13.9-13.9h14.6
				c0.8,0,1.6-0.3,2.2-0.9l15-15c0.6-0.6,0.9-1.3,0.9-2.2s-0.3-1.6-0.9-2.2l-11.7-11.7l14.9-14.9c0.6-0.6,0.9-1.3,0.9-2.2V86.6h6.5
				c0.8,0,1.6-0.3,2.2-0.9l8.9-8.9c0.6-0.6,0.9-1.3,0.9-2.2c0-0.8-0.3-1.6-0.9-2.2l-10-10V47.9c0-0.8-0.3-1.6-0.9-2.2l-11.6-11.6
				c-0.6-0.6-1.4-0.9-2.2-0.9H927c-1.7,0-3.1,1.4-3.1,3.1v31.4l-20.7,20.8H879c-0.8,0-1.6,0.3-2.2,0.9l-10.2,10.2
				c-0.6,0.6-0.9,1.3-0.9,2.2v20h-9.5c-0.8,0-1.6,0.3-2.2,0.9l-19.6,19.6h-15.9c-0.8,0-1.6,0.3-2.2,0.9l-30.2,30.2l-8.7-8.7
				l12.4-12.4c0.6-0.6,0.9-1.3,0.9-2.2v-15.4c0-1.7-1.4-3.1-3.1-3.1H776l7.4-7.4c0.6-0.6,0.9-1.3,0.9-2.2c0-0.8-0.3-1.6-0.9-2.2
				l-20.1-20.1c-0.6-0.6-1.3-0.9-2.2-0.9c-0.8,0-1.6,0.3-2.2,0.9l-27,27c-0.6,0.6-0.9,1.3-0.9,2.2c0,0.8,0.3,1.6,0.9,2.2l9.1,9.1
				v21.5l-6.9,6.9l-8.6-8.6v-35c0-0.8-0.3-1.6-0.9-2.2l-4.6-4.6l22-22h26.1c1.2,0,2.4-0.7,2.8-1.9c0.5-1.1,0.2-2.5-0.7-3.3L758.3,79
				c-0.6-0.6-1.3-0.9-2.2-0.9H735c-0.8,0-1.6,0.3-2.2,0.9l-7.6,7.6l-6.5-6.5v-6.8c0-1.7-1.4-3.1-3.1-3.1h-7.6
				c-0.8,0-1.6,0.3-2.2,0.9l-9.1,9.1h-18.1l10.1-10.1c0.9-0.9,1.1-2.2,0.7-3.3c-0.5-1.1-1.6-1.9-2.8-1.9h-9.5l-5.7-5.7
				c-0.5-0.5-1.1-0.8-1.8-0.9L500.2,37.5L325.4,0.1C325.2,0,325,0,324.8,0c-0.7,0-1.4,0.2-1.9,0.7c-0.7,0.6-1.1,1.4-1.1,2.4v13.8
				l-4.1-4.1c-0.6-0.6-1.3-0.9-2.2-0.9h-14.9c-1.7,0-3.1,1.4-3.1,3.1v31l-26.6,26.6c-0.6,0.6-0.9,1.3-0.9,2.2v23.8h6.1V75.9
				l26.6-26.6c0.6-0.6,0.9-1.3,0.9-2.2V17.9h10.5l8.5,8.5c0.6,0.6,1.3,0.9,2.2,0.9c0.4,0,0.8-0.1,1.2-0.2c1.1-0.5,1.9-1.6,1.9-2.8
				V6.8L499,43.5c0.1,0,0.2,0,0.3,0l168.6,20.6l5.9,5.9c0.6,0.6,1.3,0.9,2.2,0.9h3.4l-10.1,10.1c-0.9,0.9-1.1,2.2-0.7,3.3
				s1.6,1.9,2.8,1.9h26.8c0.8,0,1.6-0.3,2.2-0.9l9.1-9.1h3.3v5c0,0.8,0.3,1.6,0.9,2.2l9.6,9.6c0.6,0.6,1.3,0.9,2.2,0.9
				c0.8,0,1.6-0.3,2.2-0.9l8.8-8.8h18.6l6,6h-20c-0.8,0-1.6,0.3-2.2,0.9l-25.1,25.1c-1.2,1.2-1.2,3.1,0,4.3l5.9,5.9v35
				c0,0.8,0.3,1.6,0.9,2.2l11.7,11.7c0.6,0.6,1.3,0.9,2.2,0.9c0.8,0,1.6-0.3,2.2-0.9l9.9-9.9c0.6-0.6,0.9-1.3,0.9-2.2v-24
				c0-0.8-0.3-1.6-0.9-2.2l-7.8-7.8l22.7-22.7l15.7,15.7l-10.4,10.4c-0.9,0.9-1.1,2.2-0.7,3.3c0.5,1.1,1.6,1.9,2.8,1.9h16.1v11
				L771,162.4c-1.2,1.2-1.2,3.1,0,4.3l13.1,13.1c0.6,0.6,1.3,0.9,2.2,0.9c0.8,0,1.6-0.3,2.2-0.9l31.4-31.4h15.9
				c0.8,0,1.6-0.3,2.2-0.9l19.6-19.6h11.3c1.7,0,3.1-1.4,3.1-3.1v-21.8l8.4-8.4h24.2c0.8,0,1.6-0.3,2.2-0.9l22.5-22.5
				c0.6-0.6,0.9-1.3,0.9-2.2V39.3h10.1l9.8,9.8v14.6c0,0.8,0.3,1.6,0.9,2.2l8.7,8.7l-5.9,5.9h-8.3c-1.7,0-3.1,1.4-3.1,3.1v17.4
				l-16.2,16.2c-0.6,0.6-0.9,1.3-0.9,2.2c0,0.8,0.3,1.6,0.9,2.2l11.7,11.7L925.9,145h-14.6c-0.8,0-1.6,0.3-2.2,0.9l-15.7,15.7
				c-0.6,0.6-0.9,1.3-0.9,2.2v27.3h-8.7c-1.2,0-2.3,0.7-2.8,1.9c-0.5,1.1-0.2,2.5,0.7,3.3l11.9,11.9l-6.2,6.2l-15-15
				c-0.6-0.6-1.3-0.9-2.2-0.9c-0.4,0-0.8,0.1-1.2,0.2c-1.1,0.5-1.9,1.6-1.9,2.8v18.2c0,0.8,0.3,1.6,0.9,2.2l23.2,23.2v24.6l-29,29
				H850c-0.8,0-1.6,0.3-2.2,0.9l-23.2,23.2c-0.6,0.6-0.9,1.3-0.9,2.2v29.8c0,0.8,0.3,1.6,0.9,2.2l31.8,31.8v47.9h-11.9l-18.3-18.3
				v-25.1c0-0.8-0.3-1.6-0.9-2.2l-26.7-26.7c-0.6-0.6-1.3-0.9-2.2-0.9h-92.1c-1.2,0-2.4,0.7-2.8,1.9c-0.5,1.1-0.2,2.5,0.7,3.3
				l14.8,14.8l-7.3,7.3L692,372.9c-0.6-0.6-1.4-0.9-2.2-0.9h-40c-0.8,0-1.6,0.3-2.2,0.9l-48.5,48.5c-0.6,0.6-0.9,1.3-0.9,2.2v16.3
				h-21.6l-16.1-16.1v-19.4c0-0.8-0.3-1.6-0.9-2.2l-31.3-31.3c-0.6-0.6-1.3-0.9-2.2-0.9c-0.8,0-1.6,0.3-2.2,0.9l-12.4,12.4
				L490.3,362v-23.9c0-1.7-1.4-3.1-3.1-3.1h-82.6l-7-7v8.6l3.6,3.6c0.6,0.6,1.4,0.9,2.2,0.9h80.8v22.1c0,0.8,0.3,1.6,0.9,2.2
				l24.4,24.4c0.6,0.6,1.3,0.9,2.2,0.9c0.8,0,1.6-0.3,2.2-0.9l12.4-12.4l28.2,28.2V425c0,0.8,0.3,1.6,0.9,2.2l17.9,17.9
				c0.6,0.6,1.3,0.9,2.2,0.9H601.3z M613.5,176.4v-3.2h-7.2v5.4h8.8v4.5h-8.8v5.8h7.2v-3.2h4.5v7.4h-20v-4h3.1V173H598v-4h20v7.4
				H613.5z M591.9,173V189h3.1v4h-11.1v-4h3v-5.9h-8.8v5.9h3v4H570v-4h3.1V173H570v-4h11.1v4h-3v5.6h8.8V173h-3v-4H595v4H591.9z
				 M563.7,177.4v-4.3H560V189h3.7v4h-12.4v-4h3.7v-15.8h-3.7v4.3H547V169h21v8.4H563.7z M615.8,147V159h2.2v3h-8v-3h2.2v-4.4h-6.3
				v4.4h2.2v3h-8v-3h2.2V147H600v-3h8v3h-2.2v4.2h6.3V147H610v-3h8v3H615.8z M594.9,150.3v-3.2h-2.6V159h2.7v3h-8.9v-3h2.7v-11.9
				h-2.6v3.2H583V144h15v6.3H594.9z M578.8,147V159h2.2v3h-8v-3h2.2V147H573v-3h8v3H578.8z M571,147h-2l-3.7,15h-3.8l-3-11.7
				l-3,11.7h-4l-3.6-15h-2v-3h7.7v3h-2.1l2.1,10.2L557,144h3.1l3.3,13.2l2.1-10.2h-2.1v-3h7.5V147z M354.3,329.6h-8.5V373h9.4v15
				h-38.5v-15h9.4v-43.3h-8.5v12.5H302V314h68v28.1h-15.7V329.6z M287.5,373h9.5v15h-39v-15h9.5v-44H258v-15h39v15h-9.5V373z
				 M227.1,345c1.5,0,1.9-0.4,1.9-1.9v-11.3c0-1.4-0.4-1.9-1.9-1.9H211v15H227.1z M254,388h-21.9l-12.3-27.8h-8.2V373h6.9v15H183
				v-15h8.8v-44H183v-15h52c9.7,0,14.3,4.7,14.3,14.4v14.9c0,8.5-3.5,13.1-10.7,14.2l6.9,15.5h8.5V388z M167.5,373h9.5v15h-39v-15
				h9.5v-44H138v-15h39v15h-9.5V373z M114,331.8c0-1.4-0.4-1.8-1.9-1.8H96v15h16.1c1.5,0,1.9-0.4,1.9-1.8V331.8z M119.7,314
				c9.7,0,14.3,4.7,14.3,14.4v18.8c0,9.7-4.6,14.4-14.3,14.4H96.5V373h10.9v15H68v-15h8.8v-44H68v-15H119.7z M40.3,331.8
				c0-1.5-0.4-1.9-1.9-1.9H24.7c-1.5,0-1.9,0.4-1.9,1.9v5.7c0,1.2,0.3,1.5,2.2,2l20.9,5.3c10.2,2.6,15,4.7,15,15.2v13.6
				c0,9.7-4.6,14.4-14.2,14.4H17.2C7.6,388,3,383.3,3,373.6v-10.1h19.6v6.8c0,1.5,0.4,1.9,1.9,1.9h14.9c1.5,0,1.9-0.4,1.9-1.9v-6.4
				c0-1.2-0.5-1.5-2.2-1.9l-20.9-5.4c-10.2-2.6-15-4.7-15-15.2v-12.9c0-9.7,4.6-14.4,14.2-14.4h28.3c9.6,0,14.2,4.7,14.2,14.4v9.4
				H40.3V331.8z M598.1,231v59h-19.5l-26.5-47.7V275h8.5v15H525v-15h8.9v-44H525v-15h31.6l23.4,43.6V231h-8.5v-15H607v15H598.1z
				 M480.6,231l-6.6,23h13L480.6,231z M521,290h-34.2v-15h6l-2.3-7.8h-20.8l-2.3,7.8h6v15H440v-15h8.1l14.4-44H454v-15h39.4l19.5,59
				h8.1V290z M392.3,290c-9.7,0-14.3-4.7-14.3-14.4v-45.2c0-9.7,4.8-14.4,14.5-14.4h29.4c9.7,0,14.1,4.7,14.1,14.4v13.8h-19.8v-9.8
				c0-1.5-0.4-1.9-1.9-1.9h-14.7c-1.5,0-1.9,0.4-1.9,1.9v37.2c0,1.5,0.4,1.9,1.9,1.9h14.7c1.5,0,1.9-0.4,1.9-1.9v-9.8H436v13.8
				c0,9.7-4.6,14.4-14.3,14.4H392.3z M361.5,275h9.5v15h-39v-15h9.5v-44H332v-15h39v15h-9.5V275z M302.1,247c1.5,0,1.9-0.4,1.9-1.9
				v-11.3c0-1.4-0.4-1.9-1.9-1.9H286v15H302.1z M328,290h-21.9l-12.3-27.8h-8.2V275h6.9v15H257v-15h8.8v-44H257v-15h52
				c9.7,0,14.3,4.7,14.3,14.4v14.9c0,8.5-3.5,13.1-10.7,14.2l6.9,15.5h8.5V290z M234.1,232.1h-17.4v12.5h24.4v15.6h-24.4v13.7h17.4
				v-7.8H250V290h-62v-15h8.9v-44H188v-15h62v23.9h-15.9V232.1z M173.2,275h8.8v15h-33.6v-15h6.1v-33.9l-13.8,35.7h-14.1l-13.8-35.7
				V275h6.3v15H86v-15h8.8v-44H86v-15h34.8l13.9,35.7l13.9-35.7H182v15h-8.8V275z M40.6,231L34,254h13L40.6,231z M81,290H46.8v-15h6
				l-2.3-7.8H29.7l-2.3,7.8h6v15H0v-15h8.1l14.4-44H14v-15h39.4l19.5,59H81V290z M511.3,136.2c0-1.5-0.4-1.9-1.9-1.9h-16.5
				c-1.5,0-1.9,0.4-1.9,1.9v37.6c0,1.5,0.4,1.9,1.9,1.9h16.5c1.5,0,1.9-0.4,1.9-1.9v-9.3h-11.9v-15.6H531v28.8
				c0,9.7-4.7,14.4-14.4,14.4h-31.2c-9.8,0-14.4-4.7-14.4-14.4v-45.2c0-9.7,4.7-14.4,14.4-14.4h31.2c9.8,0,14.4,4.7,14.4,14.4v10
				h-19.7V136.2z M456.1,133v59h-19.5l-26.5-47.7V177h8.5v15H383v-15h8.9v-44H383v-15h31.6l23.4,43.6V133h-8.5v-15H465v15H456.1z
				 M367.5,177h9.5v15h-39v-15h9.5v-44H338v-15h39v15h-9.5V177z M310.1,176c1.5,0,1.9-0.4,1.9-1.9v-37.2c0-1.5-0.4-1.9-1.9-1.9H293
				v41H310.1z M273.8,177v-44H265v-15h52.7c9.7,0,14.3,4.7,14.3,14.4v45.2c0,9.7-4.6,14.4-14.3,14.4H265v-15H273.8z M198,192v-15
				h8.9v-44H198v-15h38.3v15h-9.5v42.8h16.4v-12.9H259V192H198z M183.5,177h9.5v15h-39v-15h9.5v-44H154v-15h39v15h-9.5V177z
				 M139.2,133v44.6c0,9.3-5,14.4-14.2,14.4H96c-9.2,0-14.2-5.1-14.2-14.4V133H73v-15h34.8v15h-6.3v40c0,1.3,0.6,1.9,1.9,1.9h14.2
				c1.3,0,1.9-0.6,1.9-1.9v-40h-6.3v-15H148v15H139.2z M46.1,177c1.5,0,1.9-0.6,1.9-8s-0.4-8-1.9-8H30v16H46.1z M45.1,148
				c1.5,0,1.9-0.6,1.9-7c0-6.4-0.4-7-1.9-7H30v14H45.1z M2,133v-15h50.9c9.7,0,14.3,4.7,14.3,18.5c0,11.8-1.5,16.3-8.5,17.7
				c7.6,0.7,9.3,6.9,9.3,18.5c0,14.7-4.6,19.3-14.3,19.3H2v-15h8.8v-44H2z"/>
		</g>
	</g>
</g>
</svg>
