<?xml version="1.0" encoding="utf-8"?>
<!-- Generator: Adobe Illustrator 24.0.1, SVG Export Plug-In . SVG Version: 6.00 Build 0)  -->
<svg version="1.1" id="Layer_1" xmlns="http://www.w3.org/2000/svg" xmlns:xlink="http://www.w3.org/1999/xlink" x="0px" y="0px"
	 viewBox="0 0 356 367" style="enable-background:new 0 0 356 367;" xml:space="preserve">
<style type="text/css">
	.st0{fill-rule:evenodd;clip-rule:evenodd;fill:#D1A27F;}
</style>
<title>transcend/alt-mark</title>
<desc>Created with Sketch.</desc>
<g id="transcend_x2F_alt-mark">
	<g id="Group-4-Copy">
		<path id="Fill-47" class="st0" d="M302,49c3,0,5.5,2.5,5.5,5.5S305,60,302,60s-5.5-2.5-5.5-5.5C296.5,51.4,299,49,302,49 M302,65
			c5.8,0,10.5-4.7,10.5-10.5S307.8,44,302,44s-10.5,4.7-10.5,10.5S296.2,65,302,65"/>
		<path id="Fill-48" class="st0" d="M199,5c3,0,5.5,2.5,5.5,5.5S202,16,199,16s-5.5-2.5-5.5-5.5S196,5,199,5 M199,21
			c5.8,0,10.5-4.7,10.5-10.5S204.8,0,199,0s-10.5,4.7-10.5,10.5S193.2,21,199,21"/>
		<path id="Fill-49" class="st0" d="M52,316c-3,0-5.5-2.5-5.5-5.5S49,305,52,305s5.5,2.5,5.5,5.5S55.1,316,52,316 M52,300
			c-5.8,0-10.5,4.7-10.5,10.5S46.2,321,52,321s10.5-4.7,10.5-10.5S57.8,300,52,300"/>
		<path id="Fill-50" class="st0" d="M155,362c-3,0-5.5-2.5-5.5-5.5s2.5-5.5,5.5-5.5s5.5,2.5,5.5,5.5S158,362,155,362 M155,346
			c-5.8,0-10.5,4.7-10.5,10.5S149.2,367,155,367s10.5-4.7,10.5-10.5S160.8,346,155,346"/>
		<path id="Fill-51" class="st0" d="M265.5,278.5c0-3,2.5-5.5,5.5-5.5s5.5,2.5,5.5,5.5S274,284,271,284S265.5,281.5,265.5,278.5
			 M281.5,278.5c0-5.8-4.7-10.5-10.5-10.5s-10.5,4.7-10.5,10.5S265.2,289,271,289S281.5,284.3,281.5,278.5"/>
		<path id="Fill-52" class="st0" d="M350.7,211.8c-4.9-2.5-9-6.3-11.7-11.1c-2.7-4.6-4-10-3.8-15.3c0-0.1,0-0.3,0-0.4
			c4.9,2.5,8.9,6.3,11.7,11.1C349.6,200.9,350.9,206.3,350.7,211.8 M318.2,235.7c-3.6,4.1-8.4,7.1-13.7,8.6
			c0.8-5.4,3.2-10.5,6.8-14.6c3.6-4.1,8.4-7.1,13.7-8.6C324.2,226.5,321.8,231.6,318.2,235.7 M298.1,301.9
			c-0.9,5.4-3.4,10.5-7.1,14.5c-2.1-5-2.8-10.6-1.9-16.1c0.7-4,2.2-7.8,4.5-11.2c0.9-1,1.8-2,2.7-3
			C298.4,291.1,299,296.6,298.1,301.9 M253.6,311.4c-5.4,0.8-11,0-16-2.2c4.1-3.6,9.2-6,14.6-6.8c5.4-0.8,11,0,16,2.2
			C264.1,308.2,259,310.6,253.6,311.4 M197.9,350.4c-4.2,3.6-9.3,5.8-14.7,6.5c1.6-5.2,4.7-10,8.8-13.5c4.2-3.6,9.3-5.8,14.7-6.5
			C205.1,342.1,202.1,346.8,197.9,350.4 M175.2,333.7L175.2,333.7c-4-0.5-7.8-1.8-11.2-3.9c-4.7-2.9-8.4-7.1-10.8-12
			c5.5-0.1,10.9,1.3,15.6,4.2c4.6,2.8,8.3,7,10.7,11.8C178,333.7,176.6,333.7,175.2,333.7 M313.1,147c-2.8-4.7-4.3-10.1-4.2-15.6
			c0.1-5.5,1.9-10.9,5-15.4c2.8,4.7,4.3,10.1,4.2,15.6C317.9,137.1,316.2,142.4,313.1,147 M298.7,83.4c5.3-1.2,10.9-0.9,16.1,0.9
			c5.2,1.9,9.7,5.2,13,9.5c-5.3,1.2-10.9,0.9-16.1-0.9C306.6,91.1,302,87.8,298.7,83.4 M335,179.7c-0.6-26-7.7-51.5-21.1-74.6
			c-1.6-2.8-3.4-5.5-5.2-8.2c0.4,0.2,0.9,0.4,1.3,0.5c3.6,1.3,7.4,2,11.2,2c3.8,0,7.5-0.6,11.1-1.9l2.8-1l-1.5-2.5
			c-3.9-6.6-10.1-11.6-17.3-14.2c-6.8-2.5-14.3-2.6-21.2-0.4c-5.6-6.2-11.6-11.9-18.2-17.2c3.3-11,6.8-22.9,6.8-23.1l-4.6-1.4
			C279,38,270,68.6,267.4,76.8c-1.2,3.7,0.5,10.9,3.9,24.4c4.4,17.4,10.4,41.1,6.9,56.7c-2.4,10.7-8.4,17.2-13.1,20.8
			c2.8-6.2,4.5-11.3,4.6-11.6l-4.5-1.6c0,0.1-4.2,12.1-9.7,21.6c-2.8,4.8-7.9,7.7-12,9.4l0,0l10.8-22.9l-4.3-2.1l-10.8,22.9
			c-1.9,4-5,7.3-8.8,9.5l-4.4,2.5l12-30.3l-4.5-1.8L221,206l-37.5,39.9c-0.4-0.4-0.9-0.9-1.3-1.7c-0.5-0.9-1.4-2.7-0.9-4.5
			c1.1-4.2,18.7-25.8,29.5-38.4l0.4-0.5l11.2-69.2l-4.7-0.8l-2.1,13.1c-6,9.3-12.5,15.1-12.6,15.2l-0.6,0.5l-0.2,0.7
			c-1.2,4.8-5.5,17.9-10.7,21c-0.9,0.5-1.7,0.7-2.3,0.5l-1.1-0.4l17.7-70.5c0.2-0.9,0.6-1.8,1.1-2.7c2.6-4.4,9.2-15.3,15.9-21.5
			l0.6-0.5l0.2-0.7c0.5-2.5,13-61.3,15.5-79.1L234.5,6c-2.3,16.6-13.8,71.1-15.2,78.1c-6.9,6.7-13.6,17.6-16.2,22.1
			c-0.7,1.2-1.2,2.5-1.6,3.9l-18.8,74.8l5.5,1.9c0.6,0.2,1.3,0.3,1.9,0.3c1.4,0,2.9-0.4,4.2-1.2c7.2-4.3,11.7-19.4,12.7-23.3
			c1.1-1.1,3.9-3.8,7.1-7.8l-7.2,44.2c-5.7,6.6-28.5,33.5-30.1,39.8c-0.7,2.7-0.2,5.6,1.4,8.3c1.4,2.3,3.4,4,5.3,4.5l1.4,0.4
			l33.6-35.7l0.2,0.3l14.3-8.1c2.5-1.4,4.6-3.2,6.5-5.2c3.2-0.7,15.1-4,20.4-13.4c0.5-0.9,1.1-1.9,1.6-2.9
			c2.7-1.2,17.3-8.6,21.6-27.8c3.7-16.7-2.4-41.1-6.9-58.9c-2.4-9.4-4.9-19.2-4-21.7c0.8-2.3,2-6.5,3.4-11.2
			c13.7,11.3,25.2,24.8,34.3,40.4c0.7,1.1,1.2,2.3,1.9,3.4c-4.7,5.7-7.3,12.9-7.5,20.3c-0.2,7.7,2.3,15.2,6.9,21.3l1.8,2.3l1.9-2.2
			c4.2-4.8,6.8-10.8,7.7-17.1c8.7,25.7,10.2,53.3,4.2,80.2c-7.3,1.3-14.1,5.1-19,10.7c-5.1,5.7-8,13.1-8.3,20.8l-0.1,2.9l2.9-0.5
			c6-1,11.6-3.6,16.2-7.5c-5.8,13.8-13.6,26.6-23.2,38c-2,1.8-3.7,3.7-5.2,5.9c-5.2,5.6-10.9,10.8-17,15.5
			c-6.5-3.7-14.1-5.2-21.4-4.1c-7.6,1.1-14.6,4.9-19.7,10.6l-2,2.2l2.5,1.5c5.2,3.1,11.1,4.7,17,4.7c0.2,0,0.5,0,0.7,0
			c-20.3,10.7-42.7,16.6-65.5,17.2c-2.7-6.6-7.4-12.2-13.4-15.9c-6.5-4-14.3-5.7-21.9-4.6l-2.9,0.4l1,2.8c2.5,7.2,7.5,13.4,14,17.5
			c5.3,3.2,11.3,4.9,17.4,4.9c1.4,0,2.8-0.1,4.3-0.3c2.5,0,5.1-0.1,7.6-0.3c-0.6,0.5-1.3,0.9-1.9,1.5c-5.8,5-9.8,11.8-11.2,19.4
			l-0.5,2.9l2.9-0.1c7.6-0.1,15.1-2.9,20.9-7.9c5.7-4.8,9.6-11.5,11.1-18.8c16.2-3.4,31.9-9.4,46.4-17.9
			c9.6-5.6,18.4-12.1,26.4-19.4c-0.1,0.5-0.3,1.1-0.4,1.6c-1.3,7.6,0.1,15.4,3.8,22.1l1.4,2.6l2.2-1.9c5.8-5,9.7-12,10.9-19.5
			c1.2-7,0.1-14.2-3.1-20.6c14.1-17.1,24.4-37.2,30.2-59.3c1.8-7,3.2-14.1,4-21.2c0.3,0.5,0.5,1,0.8,1.5c3.9,6.6,9.9,11.8,17.1,14.4
			l2.8,1l0.5-2.9c1.2-7.6-0.3-15.4-4.1-22C347.3,187.4,341.7,182.5,335,179.7"/>
		<path id="Fill-54" class="st0" d="M41.2,281.7c-5.2-1.9-9.7-5.2-13-9.5c5.3-1.2,10.9-0.9,16.1,0.9c5.2,1.9,9.7,5.2,13,9.5
			C52,283.8,46.4,283.5,41.2,281.7 M37.9,234.4c0.1-5.5,1.9-10.9,5-15.4c2.8,4.7,4.3,10.1,4.2,15.6s-1.9,10.9-5,15.4
			C39.3,245.4,37.8,239.9,37.9,234.4 M20.9,181c-4.9-2.5-8.9-6.3-11.7-11.1s-4.1-10.2-3.9-15.7c4.9,2.5,9,6.3,11.7,11.1
			c2.7,4.6,4,10,3.8,15.3C20.9,180.7,20.9,180.8,20.9,181 M37.8,130.3c3.6-4.1,8.4-7.1,13.7-8.6c-0.8,5.4-3.2,10.5-6.8,14.6
			c-3.6,4.1-8.4,7.1-13.7,8.6C31.8,139.5,34.2,134.4,37.8,130.3 M57.9,64.1c0.9-5.4,3.4-10.5,7.1-14.5c2.1,5,2.8,10.6,1.9,16.1
			c-0.7,4-2.2,7.8-4.5,11.2c-0.9,1-1.8,2-2.7,3C57.6,74.9,57,69.4,57.9,64.1 M102.4,54.6c5.4-0.8,11,0,16,2.2
			c-4.1,3.6-9.2,6-14.6,6.8c-5.4,0.8-11,0-16-2.2C91.9,57.8,97,55.4,102.4,54.6 M158.1,15.6c4.2-3.6,9.3-5.8,14.7-6.5
			c-1.6,5.2-4.7,10-8.8,13.5c-4.2,3.6-9.3,5.8-14.7,6.5C150.9,23.9,153.9,19.2,158.1,15.6 M180.8,32.3L180.8,32.3
			c4,0.5,7.8,1.8,11.2,3.9c4.7,2.9,8.4,7.1,10.8,12c-5.5,0.1-10.9-1.3-15.6-4.2c-4.6-2.8-8.3-7-10.7-11.8
			C178,32.3,179.4,32.3,180.8,32.3 M154.5,256l18.8-74.8l-5.5-1.9c-2-0.5-4.2-0.2-6.1,1c-7.2,4.3-11.7,19.4-12.7,23.3
			c-1.1,1.1-3.9,3.8-7.1,7.8l7.2-44.3c5.7-6.6,28.5-33.5,30.1-39.8c0.7-2.7,0.2-5.6-1.4-8.3c-1.4-2.3-3.4-4-5.3-4.5l-1.4-0.4
			l-33.6,35.8l-0.2-0.3l-14.3,8.1c-2.5,1.4-4.6,3.2-6.5,5.2c-3.2,0.7-15.1,4-20.4,13.4c-0.5,0.9-1.1,1.9-1.6,2.9
			c-2.7,1.2-17.3,8.6-21.6,27.8c-3.7,16.7,2.4,41.1,6.9,58.9c2.4,9.4,4.9,19.2,4,21.7c-0.8,2.3-2,6.5-3.4,11.2
			c-13.7-11.3-25.2-24.8-34.3-40.4c-0.6-1.1-1.2-2.3-1.9-3.4c4.7-5.7,7.3-12.9,7.5-20.3c0.2-7.7-2.3-15.2-6.9-21.3l-1.8-2.3
			l-1.9,2.2c-4.2,4.8-6.8,10.8-7.7,17.1c-8.7-25.7-10.2-53.3-4.2-80.2c7.3-1.3,14.1-5.1,19-10.7c5.1-5.7,8-13.1,8.3-20.8l0.1-2.9
			l-2.9,0.5c-6,1-11.6,3.6-16.2,7.5c5.8-13.8,13.6-26.6,23.2-38c2-1.8,3.7-3.7,5.3-5.9c5.2-5.6,10.9-10.8,17-15.5
			c5,2.9,10.8,4.4,16.5,4.4c1.6,0,3.3-0.1,4.9-0.4c7.6-1.1,14.6-4.9,19.7-10.6l2-2.2l-2.5-1.5c-5.4-3.2-11.6-4.8-17.8-4.7
			c20.3-10.7,42.7-16.6,65.5-17.3c2.7,6.5,7.4,12.1,13.4,15.9c5.2,3.2,11.3,4.9,17.4,4.9c1.5,0,3-0.1,4.4-0.3l2.9-0.4l-1-2.8
			c-2.5-7.2-7.5-13.4-14-17.5c-6.4-3.9-13.9-5.5-21.3-4.7c-2.7,0-5.3,0.1-8,0.3c0.7-0.5,1.3-1,1.9-1.5c5.8-5,9.8-11.9,11.2-19.4
			l0.5-2.9l-2.9,0.1C168.3,4.2,160.9,7,155,12c-5.7,4.8-9.6,11.5-11.1,18.8c-16.2,3.4-31.9,9.4-46.4,17.9
			c-9.6,5.6-18.4,12.1-26.4,19.4c0.1-0.5,0.3-1.1,0.4-1.6c1.3-7.6-0.1-15.4-3.8-22.1l-1.4-2.6l-2.2,1.9c-5.8,5-9.7,12-11,19.5
			c-1.2,7-0.1,14.3,3.1,20.6c-14,17.2-24.4,37.3-30.2,59.4c-1.8,7-3.2,14.1-4,21.2c-0.3-0.5-0.5-1-0.8-1.5
			c-3.9-6.6-9.9-11.8-17.1-14.4l-2.8-1l-0.5,2.9c-1.2,7.6,0.3,15.4,4.1,22c3.6,6.3,9.3,11.1,15.9,13.9c0.6,26,7.7,51.5,21.1,74.6
			c1.6,2.8,3.4,5.5,5.2,8.2c-0.4-0.2-0.9-0.4-1.3-0.5c-7.2-2.6-15.1-2.6-22.3,0l-2.8,1l1.5,2.5c3.9,6.6,10.1,11.6,17.3,14.2
			c3.6,1.3,7.4,2,11.2,2c3.4,0,6.8-0.5,10-1.6c5.6,6.2,11.6,11.9,18.2,17.2c-3.3,11-6.8,22.9-6.8,23.1l4.6,1.4
			c0.1-0.3,9.1-30.9,11.7-39.1c1.2-3.7-0.5-10.9-3.9-24.4c-4.4-17.4-10.4-41.1-6.9-56.7C80,197.5,86,191,90.7,187.4
			c-2.8,6.2-4.5,11.3-4.6,11.6l4.5,1.6c0-0.1,4.2-12.1,9.7-21.6c2.8-4.8,7.9-7.7,12-9.4l0,0l-10.8,22.9l4.3,2.1l10.8-22.9
			c1.9-4,5-7.3,8.9-9.5l4.4-2.5l-12,30.3l4.5,1.8l12.5-31.7l37.5-39.9c0.4,0.4,0.9,0.9,1.3,1.7c0.5,0.9,1.4,2.7,0.9,4.5
			c-1.1,4.2-18.7,25.8-29.5,38.4l-0.4,0.5l-11.2,69.2l4.7,0.8l2.1-13.1c6-9.3,12.5-15.1,12.6-15.2l0.6-0.5l0.2-0.7
			c1.2-4.8,5.5-17.9,10.7-21c0.9-0.5,1.7-0.7,2.3-0.5l1.1,0.4l-17.7,70.5c-0.2,1-0.6,1.9-1.1,2.7c-2.6,4.4-9.2,15.3-15.9,21.5
			l-0.6,0.5l-0.2,0.7c-0.5,2.5-13,61.3-15.5,79.1l4.8,0.7c2.3-16.6,13.8-71.1,15.2-78.1c6.9-6.7,13.6-17.6,16.2-22.1
			C153.7,258.7,154.2,257.4,154.5,256"/>
		<path id="Fill-56" class="st0" d="M90.5,86.5c0,3-2.5,5.5-5.5,5.5s-5.5-2.5-5.5-5.5S82,81,85,81S90.5,83.5,90.5,86.5 M74.5,86.5
			C74.5,92.3,79.2,97,85,97s10.5-4.7,10.5-10.5S90.8,76,85,76S74.5,80.7,74.5,86.5"/>
	</g>
</g>
</svg>
