<?xml version="1.0" encoding="UTF-8"?>
<svg width="419px" height="419px" viewBox="0 0 419 419" version="1.1" xmlns="http://www.w3.org/2000/svg" xmlns:xlink="http://www.w3.org/1999/xlink">
    <!-- Generator: Sketch 57.1 (83088) - https://sketch.com -->
    <title>transcend/seal</title>
    <desc>Created with Sketch.</desc>
    <defs>
        <polygon id="path-1" points="0.00621363409 0.68 29.2055618 0.68 29.2055618 37.7083136 0.00621363409 37.7083136"></polygon>
        <polygon id="path-3" points="0.454349246 0.174706363 38.395 0.174706363 38.395 33.6586156 0.454349246 33.6586156"></polygon>
    </defs>
    <g id="transcend/seal" stroke="none" stroke-width="1" fill="none" fill-rule="evenodd">
        <g id="Group-47-Copy">
            <path d="M162.717,152.8865 C162.717,154.5135 162.804,156.1275 162.969,157.7245 C163.034,158.3655 163.113,159.0045 163.205,159.6395 C163.543,161.9655 161.58,163.9275 159.254,163.5885 C158.628,163.4975 158.001,163.4195 157.373,163.3545 C153.182,162.9185 148.944,163.0505 144.781,163.7485 C143.109,164.0295 141.875,165.4715 141.875,167.1665 L141.875,169.4875 C141.875,170.8865 141.983,172.2615 142.189,173.6045 C142.482,175.5145 144.286,176.8585 146.185,176.4955 C148.254,176.1025 150.375,175.8995 152.528,175.8995 C155.883,175.8995 159.163,176.3875 162.287,177.3285 C167.53,178.9085 172.334,181.7665 176.318,185.7445 C176.323,185.7495 176.328,185.7555 176.333,185.7615 C176.339,185.7665 176.344,185.7715 176.35,185.7765 C178.783,188.2075 181.445,190.3245 184.277,192.1315 C186.275,193.4065 188.36,194.5205 190.517,195.4675 C190.553,195.4845 190.589,195.4995 190.625,195.5155 C193.445,196.7455 196.366,193.8295 195.142,191.0085 C195.125,190.9705 195.11,190.9335 195.093,190.8965 C194.154,188.7475 193.046,186.6575 191.767,184.6445 C189.979,181.8295 187.87,179.1615 185.418,176.7065 C185.412,176.7015 185.407,176.6965 185.403,176.6905 C185.397,176.6855 185.392,176.6805 185.387,176.6755 C181.408,172.6925 178.552,167.8885 176.972,162.6455 C176.03,159.5215 175.542,156.2405 175.542,152.8865 C175.542,149.6165 176.01,146.4215 176.905,143.3695 C177.51,141.3035 178.315,139.3055 179.307,137.3975 C180.88,134.3675 182.92,131.5635 185.403,129.0805 L187.635,126.8475 L192.462,122.0215 L206.769,107.7135 C208.115,106.3665 210.3,106.3665 211.648,107.7135 L224.251,120.3185 C225.245,121.3115 226.747,121.6175 228.032,121.0525 C229.89,120.2355 231.803,119.5225 233.764,118.9205 C236.272,118.1505 237.098,115.0275 235.242,113.1715 L211.648,89.5765 C210.3,88.2295 208.115,88.2295 206.769,89.5765 L178.852,117.4935 L176.333,120.0115 C175.31,121.0355 174.345,122.1025 173.43,123.2015 C170.249,127.0215 167.739,131.2765 165.948,135.8215 C165.128,137.9025 164.459,140.0435 163.948,142.2335 C163.142,145.6865 162.717,149.2525 162.717,152.8865 L162.717,152.8865 Z M224.834,129.9695 C220.4,132.7235 216.461,136.1995 213.185,140.2375 C212.78,140.7355 212.386,141.2415 212.003,141.7565 C210.598,143.6435 207.819,143.6435 206.413,141.7565 C206.03,141.2415 205.636,140.7355 205.232,140.2375 C202.57,136.9575 199.471,134.0475 196.025,131.5945 C194.653,130.6165 192.769,130.7825 191.578,131.9735 L189.937,133.6155 C188.953,134.5985 188.055,135.6445 187.244,136.7435 C186.095,138.3025 186.411,140.5405 188.012,141.6295 C192.51,144.6895 196.231,148.8085 198.815,153.6255 C201.35,158.3505 202.792,163.7455 202.795,169.4725 L202.795,169.4885 L202.795,169.5025 C202.796,172.9815 203.194,176.3665 203.922,179.6295 C204.443,181.9565 205.137,184.2175 205.992,186.3995 C206.002,186.4225 206.011,186.4455 206.02,186.4685 C207.146,189.3255 211.27,189.3255 212.396,186.4685 C212.405,186.4455 212.413,186.4225 212.423,186.3995 C213.279,184.2175 213.973,181.9565 214.493,179.6295 C215.222,176.3665 215.619,172.9815 215.62,169.5025 C215.62,169.4975 215.621,169.4915 215.621,169.4875 C215.621,169.4825 215.62,169.4775 215.62,169.4725 C215.623,163.7455 217.067,158.3505 219.601,153.6255 C222.7,147.8495 227.434,143.0755 233.182,139.9315 C235.054,138.9075 237.034,138.0585 239.1,137.4005 C242.316,136.3775 245.737,135.8215 249.286,135.8215 L252.445,135.8215 L259.27,135.8215 L279.503,135.8215 C281.408,135.8215 282.953,137.3655 282.953,139.2715 L282.953,157.0685 C282.953,158.4725 283.797,159.7515 285.105,160.2605 C287.004,160.9995 288.86,161.8505 290.662,162.8085 C292.982,164.0405 295.779,162.4165 295.779,159.7905 L295.779,126.4465 C295.779,124.5405 294.234,122.9955 292.328,122.9955 L252.848,122.9955 L249.286,122.9955 C247.834,122.9955 246.4,123.0725 244.982,123.2025 C239.978,123.6645 235.203,124.9215 230.781,126.8485 C228.717,127.7475 226.731,128.7915 224.834,129.9695 L224.834,129.9695 Z M291.925,231.1405 C291.026,229.0755 289.982,227.0895 288.804,225.1935 C286.05,220.7585 282.573,216.8205 278.536,213.5425 C278.038,213.1385 277.532,212.7445 277.018,212.3625 C275.13,210.9565 275.13,208.1775 277.018,206.7725 C277.532,206.3885 278.038,205.9945 278.536,205.5905 C281.817,202.9285 284.727,199.8295 287.18,196.3825 C288.156,195.0105 287.991,193.1275 286.8,191.9365 L285.158,190.2955 C284.175,189.3115 283.129,188.4125 282.029,187.6025 C280.471,186.4535 278.234,186.7695 277.144,188.3705 C274.085,192.8685 269.965,196.5895 265.149,199.1735 C260.423,201.7085 255.029,203.1515 249.302,203.1545 C249.296,203.1545 249.291,203.1535 249.285,203.1535 C249.28,203.1535 249.276,203.1545 249.271,203.1545 C245.798,203.1555 242.418,203.5505 239.161,204.2775 C236.834,204.7965 234.572,205.4905 232.39,206.3455 C232.363,206.3565 232.335,206.3665 232.307,206.3775 C229.448,207.5035 229.448,211.6285 232.307,212.7545 C232.334,212.7655 232.363,212.7775 232.39,212.7875 C234.572,213.6425 236.833,214.3365 239.161,214.8565 C242.418,215.5825 245.798,215.9785 249.271,215.9795 L249.286,215.9795 L249.302,215.9795 C255.029,215.9825 260.423,217.4245 265.149,219.9595 C270.929,223.0615 275.704,227.7985 278.849,233.5525 C279.872,235.4245 280.72,237.4045 281.376,239.4685 C282.398,242.6815 282.952,246.0995 282.952,249.6455 L282.952,252.8035 L282.952,259.6575 L282.952,279.8615 C282.952,281.7675 281.407,283.3115 279.502,283.3115 L261.677,283.3115 C260.273,283.3115 258.993,284.1575 258.485,285.4665 C257.749,287.3575 256.901,289.2135 255.94,291.0265 C254.71,293.3445 256.335,296.1365 258.959,296.1365 L292.327,296.1365 C294.233,296.1365 295.778,294.5925 295.778,292.6875 L295.778,253.2215 L295.778,249.6455 C295.778,248.1935 295.701,246.7595 295.571,245.3405 C295.109,240.3365 293.852,235.5615 291.925,231.1405 L291.925,231.1405 Z M301.28,179.2095 L298.762,176.6925 C297.736,175.6645 296.667,174.7045 295.571,173.7935 C291.706,170.5825 287.442,168.0955 282.953,166.3305 C280.857,165.5075 278.714,164.8405 276.54,164.3325 C271.457,163.1445 266.214,162.8185 261.042,163.3565 C260.404,163.4215 259.768,163.5015 259.133,163.5945 C256.806,163.9355 254.84,161.9705 255.181,159.6435 C255.276,158.9945 255.357,158.3445 255.424,157.6925 C255.855,153.5135 255.721,149.2885 255.026,145.1395 C254.744,143.4665 253.302,142.2345 251.607,142.2345 L249.286,142.2345 C247.885,142.2345 246.508,142.3415 245.163,142.5485 C243.251,142.8425 241.898,144.6475 242.259,146.5475 C243.274,151.8825 242.993,157.4165 241.421,162.6425 C239.874,167.7815 237.078,172.6215 233.029,176.6765 C233.024,176.6815 233.018,176.6865 233.012,176.6925 C233.007,176.6975 233.002,176.7025 232.997,176.7075 C230.545,179.1615 228.436,181.8295 226.649,184.6445 C225.369,186.6575 224.261,188.7475 223.322,190.8965 C223.306,190.9335 223.289,190.9715 223.273,191.0095 C222.048,193.8295 224.97,196.7455 227.789,195.5165 C227.825,195.5005 227.862,195.4845 227.899,195.4685 C230.056,194.5205 232.141,193.4075 234.139,192.1315 C236.974,190.3235 239.639,188.2035 242.074,185.7695 L242.083,185.7605 C242.086,185.7585 242.088,185.7555 242.09,185.7525 C246.075,181.7715 250.882,178.9105 256.127,177.3305 C259.252,176.3895 262.532,175.9005 265.887,175.9005 C269.156,175.9005 272.352,176.3685 275.404,177.2635 C277.47,177.8685 279.468,178.6735 281.377,179.6645 C284.405,181.2385 287.21,183.2795 289.693,185.7615 L291.926,187.9935 L296.752,192.8215 L311.06,207.1275 C312.406,208.4745 312.406,210.6585 311.06,212.0065 L298.455,224.6105 C297.462,225.6035 297.155,227.1065 297.722,228.3915 C298.539,230.2485 299.252,232.1615 299.854,234.1225 C300.623,236.6315 303.747,237.4565 305.603,235.6015 L329.197,212.0065 C330.544,210.6585 330.544,208.4745 329.197,207.1275 L301.28,179.2095 Z M255.423,261.4415 C255.357,260.7895 255.275,260.1395 255.18,259.4905 C254.839,257.1625 256.805,255.1995 259.132,255.5385 C259.767,255.6325 260.404,255.7115 261.041,255.7785 C262.653,255.9455 264.27,256.0365 265.887,256.0365 C268.484,256.0365 271.079,255.8175 273.646,255.3835 C275.314,255.1025 276.539,253.6575 276.539,251.9665 L276.539,249.6455 C276.539,248.2455 276.432,246.8705 276.226,245.5285 C275.933,243.6175 274.128,242.2745 272.23,242.6365 C270.161,243.0305 268.04,243.2335 265.887,243.2335 C262.531,243.2335 259.251,242.7445 256.126,241.8035 C250.884,240.2235 246.08,237.3655 242.098,233.3875 C242.092,233.3825 242.087,233.3765 242.081,233.3705 L242.067,233.3565 C239.612,230.9045 236.944,228.7945 234.129,227.0075 C232.115,225.7285 230.026,224.6195 227.877,223.6815 C227.85,223.6685 227.822,223.6575 227.795,223.6455 C224.978,222.4195 222.061,225.3365 223.285,228.1545 C223.298,228.1815 223.31,228.2095 223.321,228.2375 C224.261,230.3845 225.368,232.4745 226.648,234.4885 C228.436,237.3025 230.544,239.9715 232.997,242.4255 C233.002,242.4315 233.007,242.4365 233.012,242.4425 C233.018,242.4475 233.023,242.4515 233.028,242.4565 C237.011,246.4455 239.87,251.2555 241.448,256.5055 C242.386,259.6245 242.873,262.8975 242.873,266.2455 C242.873,269.5145 242.405,272.7105 241.51,275.7625 C240.905,277.8285 240.1,279.8265 239.109,281.7355 C237.535,284.7645 235.495,287.5695 233.012,290.0515 L230.78,292.2835 L225.953,297.1115 L211.647,311.4175 C210.299,312.7655 208.114,312.7655 206.767,311.4175 L194.163,298.8145 C193.17,297.8215 191.668,297.5145 190.382,298.0795 C188.525,298.8975 186.612,299.6105 184.651,300.2125 C182.143,300.9825 181.317,304.1065 183.172,305.9605 L206.767,329.5555 C208.114,330.9035 210.299,330.9035 211.647,329.5555 L239.564,301.6385 L242.081,299.1205 C243.109,298.0935 244.07,297.0265 244.98,295.9305 C248.192,292.0655 250.679,287.7995 252.443,283.3115 C253.267,281.2155 253.933,279.0735 254.442,276.8995 C255.626,271.8295 255.954,266.6005 255.423,261.4415 L255.423,261.4415 Z M135.462,252.8015 C137.558,253.6245 139.7,254.2915 141.874,254.7995 C145.375,255.6175 148.95,256.0345 152.528,256.0345 C154.146,256.0345 155.762,255.9445 157.372,255.7765 C158.011,255.7095 158.647,255.6305 159.282,255.5375 C161.61,255.1975 163.575,257.1625 163.235,259.4905 C163.142,260.1255 163.062,260.7625 162.995,261.4005 C162.56,265.5915 162.692,269.8305 163.39,273.9915 C163.67,275.6645 165.113,276.8985 166.809,276.8985 L169.128,276.8985 C170.529,276.8985 171.904,276.7905 173.247,276.5845 C175.161,276.2905 176.516,274.4835 176.155,272.5815 C175.14,267.2405 175.422,261.7005 177,256.4715 C178.548,251.3395 181.341,246.5055 185.386,242.4555 C185.392,242.4505 185.397,242.4465 185.403,242.4405 C185.407,242.4355 185.412,242.4305 185.417,242.4245 C187.869,239.9705 189.979,237.3025 191.767,234.4875 C193.045,232.4745 194.154,230.3835 195.092,228.2365 C195.105,228.2085 195.116,228.1815 195.128,228.1545 C196.354,225.3365 193.437,222.4195 190.618,223.6455 C190.592,223.6575 190.565,223.6685 190.537,223.6805 C188.389,224.6195 186.299,225.7275 184.285,227.0065 C181.471,228.7945 178.803,230.9035 176.348,233.3555 C176.343,233.3615 176.337,233.3655 176.332,233.3705 C176.327,233.3755 176.322,233.3815 176.317,233.3865 C172.334,237.3655 167.529,240.2225 162.287,241.8015 C159.163,242.7425 155.883,243.2325 152.528,243.2325 C149.259,243.2325 146.063,242.7635 143.011,241.8685 C140.945,241.2635 138.947,240.4585 137.038,239.4675 C134.009,237.8945 131.204,235.8535 128.722,233.3705 L126.489,231.1385 L121.662,226.3125 L107.356,212.0045 C106.008,210.6575 106.008,208.4735 107.356,207.1255 L119.959,194.5225 C120.952,193.5295 121.259,192.0265 120.694,190.7405 C119.876,188.8835 119.163,186.9705 118.562,185.0095 C117.791,182.5005 114.668,181.6755 112.813,183.5315 L89.218,207.1255 C87.87,208.4735 87.87,210.6575 89.218,212.0045 L117.135,239.9225 L119.654,242.4405 C120.68,243.4675 121.748,244.4275 122.844,245.3385 C126.708,248.5495 130.974,251.0365 135.462,252.8015 L135.462,252.8015 Z M193.58,289.1625 C198.015,286.4085 201.953,282.9325 205.231,278.8955 C205.635,278.3975 206.029,277.8905 206.412,277.3755 C207.818,275.4895 210.597,275.4895 212.002,277.3755 C212.385,277.8905 212.779,278.3975 213.183,278.8955 C215.845,282.1745 218.945,285.0855 222.391,287.5375 C223.763,288.5155 225.646,288.3495 226.837,287.1585 L228.479,285.5175 C229.462,284.5335 230.361,283.4885 231.171,282.3885 C232.321,280.8295 232.004,278.5915 230.403,277.5025 C225.905,274.4435 222.185,270.3245 219.6,265.5065 C217.065,260.7825 215.622,255.3875 215.619,249.6595 C215.619,249.6555 215.62,249.6505 215.62,249.6445 C215.62,249.6395 215.619,249.6345 215.619,249.6295 C215.618,246.1515 215.222,242.7655 214.492,239.5025 C213.974,237.1815 213.28,234.9255 212.428,232.7485 C212.417,232.7205 212.406,232.6935 212.396,232.6655 C211.27,229.8065 207.145,229.8065 206.019,232.6655 C206.008,232.6935 205.997,232.7205 205.987,232.7485 C205.134,234.9255 204.441,237.1815 203.922,239.5025 C203.193,242.7655 202.795,246.1515 202.794,249.6295 L202.794,249.6455 L202.794,249.6595 C202.792,255.3865 201.349,260.7825 198.814,265.5065 C195.714,271.2825 190.981,276.0565 185.233,279.2005 C183.361,280.2255 181.38,281.0745 179.315,281.7325 C176.099,282.7545 172.678,283.3115 169.128,283.3115 L165.971,283.3115 L159.145,283.3115 L138.912,283.3115 C137.007,283.3115 135.462,281.7665 135.462,279.8615 L135.462,262.0365 C135.462,260.6315 134.616,259.3525 133.307,258.8435 C131.416,258.1085 129.56,257.2595 127.747,256.2985 C125.429,255.0695 122.637,256.6945 122.637,259.3185 L122.637,292.6865 C122.637,294.5915 124.181,296.1365 126.087,296.1365 L165.567,296.1365 L169.128,296.1365 C170.58,296.1365 172.015,296.0605 173.433,295.9295 C178.437,295.4675 183.212,294.2105 187.633,292.2835 C189.697,291.3845 191.684,290.3405 193.58,289.1625 L193.58,289.1625 Z M122.844,173.7915 C122.713,172.3735 122.638,170.9395 122.638,169.4875 L122.638,165.9255 L122.638,126.4455 C122.638,124.5395 124.182,122.9945 126.087,122.9945 L159.455,122.9945 C162.079,122.9945 163.704,125.7875 162.475,128.1065 C161.514,129.9175 160.665,131.7755 159.93,133.6655 C159.421,134.9755 158.142,135.8215 156.738,135.8215 L138.913,135.8215 C137.007,135.8215 135.463,137.3655 135.463,139.2705 L135.463,159.5025 L135.463,166.3285 L135.463,169.4875 C135.463,173.0325 136.018,176.4505 137.038,179.6625 C137.695,181.7285 138.543,183.7075 139.566,185.5795 C142.71,191.3335 147.487,196.0715 153.267,199.1725 C157.992,201.7075 163.387,203.1505 169.113,203.1535 L169.128,203.1535 L169.144,203.1535 C172.616,203.1545 175.996,203.5495 179.253,204.2765 C181.581,204.7955 183.842,205.4905 186.026,206.3445 C186.053,206.3565 186.08,206.3665 186.108,206.3775 C188.967,207.5035 188.967,211.6285 186.108,212.7545 C186.08,212.7655 186.053,212.7765 186.025,212.7865 C183.842,213.6415 181.58,214.3365 179.252,214.8555 C175.996,215.5815 172.616,215.9775 169.144,215.9785 C169.139,215.9785 169.134,215.9795 169.129,215.9795 C169.124,215.9795 169.118,215.9785 169.113,215.9785 C163.387,215.9815 157.992,217.4235 153.267,219.9585 C148.449,222.5425 144.33,226.2635 141.271,230.7615 C140.182,232.3635 137.944,232.6785 136.385,231.5305 C135.286,230.7195 134.239,229.8215 133.256,228.8365 L131.614,227.1955 C130.424,226.0045 130.259,224.1215 131.236,222.7495 C133.689,219.3025 136.599,216.2035 139.878,213.5415 C140.376,213.1375 140.883,212.7435 141.398,212.3605 C143.284,210.9545 143.284,208.1755 141.398,206.7705 C140.883,206.3875 140.376,205.9935 139.878,205.5895 C135.841,202.3125 132.364,198.3735 129.611,193.9395 C128.433,192.0425 127.389,190.0565 126.489,187.9915 C124.564,183.5715 123.306,178.7955 122.844,173.7915 L122.844,173.7915 Z" id="Fill-1" fill="#ECDFD5"></path>
            <path d="M82.2912,68.3299 C84.0722,66.7439 85.0682,64.9919 85.2832,63.0699 C85.4962,61.1499 84.8422,59.3379 83.3202,57.6309 C81.4082,55.4859 79.2602,54.4029 76.8792,54.3819 C74.4962,54.3609 72.3672,55.1879 70.4902,56.8619 L68.6622,58.4929 C67.9302,59.1439 67.9982,59.9589 68.8692,60.9339 L76.5642,69.5649 C77.8482,71.0039 79.0862,71.1889 80.2812,70.1249 L82.2912,68.3299 Z M101.0662,67.7389 C101.4822,68.1559 102.1132,68.3499 102.9592,68.3159 C103.8072,68.2839 104.3382,68.3899 104.5572,68.6339 L104.6522,68.7439 C104.9592,69.0849 104.8532,69.4819 104.3422,69.9389 L98.7462,74.9299 C98.2342,75.3859 97.8262,75.4439 97.5212,75.1019 L97.4242,74.9919 C97.2072,74.7489 97.1352,74.2889 97.2092,73.6089 C97.2812,72.9319 97.1232,72.3729 96.7302,71.9339 C95.2052,70.3199 93.4592,69.1729 91.4962,68.4939 C89.5352,67.8139 87.6002,67.7789 85.6892,68.3869 C85.1972,68.9139 84.7792,69.3299 84.4392,69.6329 L80.0862,73.5159 L86.3482,80.5369 C86.8262,81.0719 87.5062,81.3319 88.3872,81.3119 C89.2662,81.2939 89.8052,81.3929 90.0002,81.6129 L90.0982,81.7229 C90.4022,82.0639 90.2852,82.4749 89.7502,82.9509 L84.0082,88.0719 C83.4962,88.5289 83.0882,88.5879 82.7832,88.2439 L82.6862,88.1349 C82.4902,87.9159 82.4282,87.3919 82.4982,86.5619 C82.5682,85.7339 82.3652,85.0519 81.8872,84.5149 L64.1462,64.6199 C63.6682,64.0839 63.0122,63.8029 62.1822,63.7779 C61.3502,63.7549 60.8362,63.6329 60.6412,63.4139 L60.5412,63.3029 C60.2382,62.9629 60.3422,62.5619 60.8542,62.1059 L69.1192,54.7359 C72.4592,51.7579 75.7502,50.0599 78.9882,49.6439 C82.2292,49.2279 85.0452,50.3389 87.4392,52.9739 C88.6582,54.3389 89.3792,55.9939 89.6032,57.9379 C89.8262,59.8829 89.5102,61.8729 88.6522,63.9059 C90.9042,63.3869 93.1212,63.4789 95.3012,64.1829 C97.4822,64.8859 99.4042,66.0709 101.0662,67.7389 L101.0662,67.7389 Z" id="Fill-3" fill="#D1A27E"></path>
            <path d="M116.4338,61.4295 L116.3598,61.3025 C116.2268,61.0775 116.2738,60.5665 116.5038,59.7655 C116.7368,58.9675 116.6678,58.2575 116.3028,57.6385 L102.7428,34.6325 C102.3788,34.0135 101.7888,33.6115 100.9788,33.4255 C100.1678,33.2405 99.6878,33.0195 99.5388,32.7665 L99.4628,32.6405 C99.2328,32.2455 99.4128,31.8745 100.0018,31.5275 L106.5878,27.6445 C107.1778,27.2965 107.5898,27.3205 107.8228,27.7135 L107.8968,27.8395 C108.0448,28.0935 107.9848,28.6325 107.7108,29.4565 C107.4398,30.2815 107.4868,31.0025 107.8498,31.6205 L121.4108,54.6275 C121.7758,55.2475 122.3848,55.6375 123.2388,55.7975 C124.0898,55.9585 124.5838,56.1515 124.7168,56.3765 L124.7908,56.5025 C125.0238,56.8965 124.8438,57.2695 124.2518,57.6165 L117.6678,61.4975 C117.0768,61.8475 116.6638,61.8245 116.4338,61.4295" id="Fill-5" fill="#D1A27E"></path>
            <path d="M151.258,45.9744 C147.106,47.4604 143.529,47.7424 140.529,46.8204 C137.528,45.8984 135.682,44.4684 134.988,42.5314 C134.746,41.8544 134.746,41.2214 134.987,40.6314 C135.225,40.0444 135.705,39.6384 136.424,39.4154 C137.082,39.2144 137.729,39.2344 138.371,39.4734 C139.01,39.7124 139.586,40.0874 140.1,40.5994 C140.612,41.1104 141.217,41.6394 141.916,42.1874 C142.615,42.7354 143.344,43.2204 144.102,43.6424 C144.862,44.0664 145.811,44.2984 146.953,44.3404 C148.096,44.3824 149.344,44.1624 150.697,43.6774 C152.574,43.0064 153.914,41.9544 154.721,40.5224 C155.528,39.0884 155.633,37.5424 155.039,35.8804 C154.533,34.4664 153.762,33.4234 152.725,32.7534 C151.686,32.0834 150.529,31.7364 149.252,31.7054 C147.975,31.6774 146.6,31.7614 145.127,31.9564 C143.654,32.1554 142.164,32.3064 140.658,32.4114 C139.153,32.5164 137.727,32.4624 136.385,32.2474 C135.041,32.0354 133.791,31.4234 132.633,30.4144 C131.475,29.4064 130.561,27.9644 129.889,26.0874 C128.932,23.4124 129.203,20.8264 130.705,18.3294 C132.205,15.8314 134.803,13.9244 138.492,12.6034 C142.184,11.2844 145.465,11.0214 148.332,11.8184 C151.201,12.6134 152.967,13.9854 153.631,15.9334 C154.192,17.5024 153.672,18.5734 152.072,19.1444 C151.397,19.3864 150.75,19.4004 150.137,19.1864 C149.522,18.9724 148.987,18.6174 148.531,18.1204 C148.076,17.6244 147.533,17.0984 146.901,16.5444 C146.27,15.9904 145.625,15.4994 144.971,15.0754 C144.317,14.6504 143.481,14.4024 142.467,14.3314 C141.453,14.2594 140.346,14.4394 139.147,14.8694 C137.209,15.5604 135.889,16.6234 135.186,18.0534 C134.483,19.4844 134.412,20.9844 134.973,22.5524 C135.457,23.9064 136.209,24.8954 137.233,25.5184 C138.252,26.1424 139.401,26.4684 140.678,26.4974 C141.953,26.5274 143.334,26.4584 144.819,26.2914 C146.303,26.1244 147.803,26.0034 149.321,25.9304 C150.838,25.8574 152.274,25.9414 153.629,26.1864 C154.983,26.4304 156.237,27.0584 157.397,28.0644 C158.555,29.0744 159.465,30.4994 160.123,32.3454 C161.137,35.1754 160.756,37.8534 158.988,40.3744 C157.219,42.8994 154.643,44.7654 151.258,45.9744" id="Fill-7" fill="#D1A27E"></path>
            <g id="Group-11" transform="translate(173.000000, 0.320000)">
                <mask id="mask-2" fill="white">
                    <use xlink:href="#path-1"></use>
                </mask>
                <g id="Clip-10"></g>
                <path d="M4.9982,37.6895 C4.2832,37.7715 3.9002,37.5855 3.8482,37.1305 L3.8322,36.9855 C3.7972,36.6935 4.0572,36.2275 4.6072,35.5875 C5.1582,34.9495 5.3912,34.2565 5.3032,33.5095 L2.2562,7.1275 C2.1702,6.3805 1.7832,5.7525 1.1002,5.2385 C0.4162,4.7265 0.0592,4.3395 0.0292,4.0805 L0.0122,3.9335 C-0.0408,3.4795 0.2582,3.2145 0.9062,3.1405 L22.0822,0.6935 C22.8592,0.6035 23.3612,0.9575 23.5842,1.7515 L25.3612,6.8745 C25.6072,7.6035 25.3932,8.0055 24.7112,8.0845 L24.4672,8.1135 C24.0452,8.1625 23.5532,7.9465 22.9882,7.4695 C22.4222,6.9925 21.9002,6.4535 21.4202,5.8495 C20.9372,5.2485 20.3672,4.7135 19.7052,4.2485 C19.0412,3.7815 18.3872,3.5855 17.7382,3.6615 L9.5602,4.6055 C8.4572,4.7345 7.9782,5.4305 8.1252,6.6955 L9.4352,18.0375 L16.9322,17.1715 C17.4182,17.1155 17.8202,16.8965 18.1392,16.5135 C18.4552,16.1325 18.6802,15.7365 18.8142,15.3265 C18.9472,14.9165 19.1172,14.5265 19.3202,14.1585 C19.5252,13.7885 19.7402,13.5915 19.9692,13.5645 L20.2602,13.5315 C20.7462,13.4745 21.0252,13.7555 21.0962,14.3715 L21.8962,21.2835 C21.9672,21.9005 21.7602,22.2365 21.2712,22.2935 L20.9802,22.3265 C20.7522,22.3525 20.5002,22.2175 20.2192,21.9215 C19.9372,21.6255 19.6862,21.3005 19.4652,20.9485 C19.2422,20.5955 18.9342,20.2775 18.5412,19.9945 C18.1462,19.7105 17.7052,19.5975 17.2192,19.6545 L9.7212,20.5195 L10.9902,31.9165 C11.0722,32.6295 11.3282,33.2165 11.7602,33.6755 C12.1912,34.1365 12.7642,34.3255 13.4782,34.2425 L22.6782,33.1795 C23.3262,33.1035 23.9122,32.7575 24.4322,32.1385 C24.9532,31.5195 25.3522,30.8485 25.6312,30.1255 C25.9082,29.4025 26.2602,28.7385 26.6822,28.1285 C27.1052,27.5215 27.5432,27.1915 27.9982,27.1385 L28.3382,27.0995 C28.5982,27.0705 28.8142,27.1605 28.9862,27.3705 C29.1582,27.5805 29.2282,27.8355 29.1992,28.1345 L28.7032,33.6675 C28.6052,34.5345 28.1842,35.0095 27.4372,35.0965 L4.9982,37.6895 Z" id="Fill-9" fill="#D1A27E" mask="url(#mask-2)"></path>
            </g>
            <path d="M267.1349,31.9998 C265.3639,31.4238 264.0899,30.4508 263.3169,29.0838 C262.5409,27.7158 262.4119,26.2398 262.9259,24.6538 C263.4509,23.0408 264.4319,21.8978 265.8689,21.2318 C267.3029,20.5638 268.9079,20.5198 270.6799,21.0948 C272.4179,21.6598 273.6579,22.6298 274.3969,24.0038 C275.1349,25.3778 275.2419,26.8728 274.7149,28.4878 C274.2009,30.0718 273.2419,31.1948 271.8439,31.8558 C270.4439,32.5178 268.8729,32.5648 267.1349,31.9998" id="Fill-12" fill="#D1A27E"></path>
            <path d="M328.8752,83.9236 C325.6722,80.8926 323.8032,77.8306 323.2682,74.7356 C322.7302,71.6446 323.1722,69.3496 324.5862,67.8556 C325.0782,67.3336 325.6432,67.0456 326.2772,66.9936 C326.9102,66.9416 327.4882,67.1866 328.0142,67.7266 C328.4882,68.2226 328.7642,68.8086 328.8402,69.4876 C328.9182,70.1676 328.8442,70.8516 328.6212,71.5396 C328.3962,72.2276 328.1992,73.0076 328.0272,73.8776 C327.8542,74.7496 327.7502,75.6186 327.7172,76.4866 C327.6822,77.3536 327.9042,78.3066 328.3852,79.3456 C328.8632,80.3826 329.6252,81.3966 330.6702,82.3846 C332.1172,83.7536 333.6622,84.4736 335.3052,84.5446 C336.9472,84.6146 338.3752,84.0096 339.5862,82.7286 C340.6192,81.6366 341.1992,80.4766 341.3282,79.2476 C341.4572,78.0206 341.2442,76.8306 340.6912,75.6796 C340.1412,74.5266 339.4432,73.3386 338.6022,72.1146 C337.7602,70.8896 336.9492,69.6286 336.1762,68.3326 C335.4002,67.0366 334.8032,65.7416 334.3872,64.4486 C333.9692,63.1536 333.9492,61.7636 334.3242,60.2736 C334.6992,58.7846 335.5722,57.3166 336.9412,55.8686 C338.8952,53.8046 341.3242,52.8766 344.2302,53.0856 C347.1352,53.2946 350.0142,54.7466 352.8592,57.4416 C355.7072,60.1366 357.4262,62.9426 358.0142,65.8606 C358.6022,68.7786 358.1782,70.9736 356.7382,72.4466 C355.5942,73.6556 354.4042,73.6776 353.1702,72.5116 C352.6482,72.0166 352.3442,71.4466 352.2562,70.8026 C352.1702,70.1576 352.2442,69.5206 352.4802,68.8906 C352.7172,68.2596 352.9412,67.5366 353.1502,66.7226 C353.3592,65.9076 353.5042,65.1126 353.5862,64.3356 C353.6702,63.5606 353.5122,62.7026 353.1172,61.7666 C352.7212,60.8316 352.0622,59.9236 351.1372,59.0486 C349.6432,57.6336 348.0962,56.9376 346.5042,56.9576 C344.9082,56.9786 343.5412,57.5936 342.3952,58.8026 C341.4062,59.8476 340.8652,60.9646 340.7712,62.1576 C340.6762,63.3516 340.9042,64.5236 341.4572,65.6756 C342.0082,66.8266 342.6952,68.0276 343.5142,69.2756 C344.3342,70.5236 345.1212,71.8066 345.8732,73.1266 C346.6272,74.4456 347.1992,75.7656 347.5942,77.0836 C347.9882,78.4016 347.9982,79.8046 347.6232,81.2936 C347.2482,82.7826 346.3872,84.2396 345.0412,85.6626 C342.9752,87.8466 340.4162,88.7196 337.3652,88.2826 C334.3142,87.8476 331.4842,86.3946 328.8752,83.9236" id="Fill-14" fill="#D1A27E"></path>
            <path d="M351.9982,110.0056 C351.6192,109.4356 351.6192,109.0226 352.0002,108.7696 L352.1212,108.6876 C352.3672,108.5256 352.9042,108.5506 353.7322,108.7636 C354.5612,108.9776 355.2752,108.8846 355.8732,108.4856 L379.2462,92.9296 L376.2872,88.4826 C375.8522,87.8296 375.0962,87.5196 374.0182,87.5506 C372.9392,87.5816 371.9002,87.6736 370.9042,87.8266 C369.9082,87.9796 369.2832,87.8656 369.0312,87.4846 L368.7032,86.9956 C368.3422,86.4506 368.5002,86.0136 369.1822,85.6776 L374.4822,83.2076 C375.2172,82.8376 375.8102,82.9916 376.2622,83.6716 L389.8932,104.1486 C390.3462,104.8276 390.2682,105.4486 389.6602,106.0096 L385.4042,110.1386 C385.1682,110.3746 384.9222,110.4786 384.6702,110.4506 C384.4162,110.4236 384.2072,110.2866 384.0452,110.0426 L383.7192,109.5526 C383.5192,109.2536 383.5492,108.7826 383.8092,108.1406 C384.0662,107.4966 384.4002,106.8626 384.8092,106.2376 C385.2172,105.6126 385.5142,104.9236 385.6992,104.1726 C385.8852,103.4206 385.8072,102.7866 385.4632,102.2696 L382.5042,97.8236 L359.1312,113.3806 C358.5332,113.7786 358.1762,114.4086 358.0622,115.2696 C357.9492,116.1296 357.7692,116.6426 357.5252,116.8046 L357.4022,116.8866 C357.0212,117.1396 356.6332,116.9666 356.2342,116.3686 L351.9982,110.0056 Z" id="Fill-16" fill="#D1A27E"></path>
            <path d="M379.5529,135.4431 L384.1919,147.4641 L397.1819,135.2581 L379.5529,135.4431 Z M366.0299,132.5191 C365.7829,131.8791 365.8729,131.4771 366.2989,131.3121 L366.4379,131.2591 C366.7399,131.1421 367.2679,131.3061 368.0179,131.7521 C368.7679,132.1991 369.5449,132.4231 370.3539,132.4271 L398.6979,132.5191 C399.3279,132.5211 399.8709,132.0681 400.3259,131.1561 C400.7799,130.2461 401.1139,129.7501 401.3259,129.6681 L401.4629,129.6151 C401.8909,129.4511 402.2149,129.6571 402.4379,130.2361 L405.1919,137.3681 C405.4139,137.9471 405.3129,138.3191 404.8849,138.4841 L404.7479,138.5371 C404.5039,138.6311 404.1579,138.5521 403.7129,138.3041 C403.2679,138.0561 402.8049,137.8771 402.3239,137.7641 C401.8419,137.6541 401.4079,137.7761 401.0219,138.1361 L380.4259,158.5311 C379.8619,159.0631 379.4419,159.7501 379.1719,160.5891 C378.9009,161.4291 378.6119,161.9081 378.3069,162.0271 L378.1699,162.0801 C377.7439,162.2441 377.4069,162.0051 377.1599,161.3671 L374.1599,153.5931 C373.9139,152.9541 374.0039,152.5511 374.4319,152.3861 L374.5669,152.3341 C374.7819,152.2521 375.0409,152.2921 375.3499,152.4531 C375.6569,152.6151 375.9489,152.7821 376.2269,152.9551 C376.5019,153.1291 376.8259,153.2401 377.1959,153.2911 C377.5649,153.3401 377.9119,153.1981 378.2389,152.8611 L382.0589,149.2871 L376.7329,135.4811 L371.5529,135.5351 C370.9509,135.5231 370.5329,135.7271 370.2929,136.1521 C370.0549,136.5771 369.8729,137.0331 369.7439,137.5191 C369.6169,138.0061 369.4319,138.2971 369.1879,138.3901 L369.0509,138.4441 C368.6249,138.6081 368.2819,138.3551 368.0239,137.6851 L366.0299,132.5191 Z" id="Fill-18" fill="#D1A27E"></path>
            <g id="Group-22" transform="translate(380.000000, 170.320000)">
                <mask id="mask-4" fill="white">
                    <use xlink:href="#path-3"></use>
                </mask>
                <g id="Clip-21"></g>
                <path d="M38.3771,30.9278 C38.4571,31.6408 38.2701,32.0258 37.8151,32.0738 L37.6701,32.0918 C37.4101,32.1198 36.9491,31.8268 36.2891,31.2108 C35.6271,30.5938 34.9391,30.3258 34.2271,30.4068 L5.3501,33.6388 C4.2461,33.7628 3.6351,33.3048 3.5201,32.2658 L3.3241,30.5138 C3.2501,29.8638 3.6331,29.1628 4.4691,28.4118 L28.7681,5.8708 L5.0531,8.5278 C4.3711,8.6028 3.7621,9.0318 3.2251,9.8158 C2.6881,10.5988 2.2731,11.0058 1.9811,11.0398 L1.8361,11.0568 C1.3791,11.1078 1.1131,10.7738 1.0331,10.0608 L0.4731,5.0448 C0.3911,4.3298 0.5781,3.9488 1.0331,3.8968 L1.1801,3.8808 C1.4731,3.8478 1.9611,4.1138 2.6501,4.6778 C3.3361,5.2418 4.0221,5.4868 4.7031,5.4088 L31.0491,2.4598 C31.7621,2.3798 32.3771,1.9908 32.8891,1.2928 C33.4041,0.5938 33.8071,0.2288 34.0981,0.1968 L34.2441,0.1798 C34.6991,0.1288 34.9651,0.4608 35.0471,1.1748 L36.0121,9.7928 C36.0801,10.4098 35.8871,10.7438 35.4341,10.7948 L35.2871,10.8118 C35.0921,10.8328 34.8031,10.6758 34.4221,10.3408 C34.0371,10.0058 33.6841,9.7828 33.3591,9.6718 C33.0351,9.5598 32.5531,9.7368 31.9161,10.2018 L10.5041,29.9068 L33.8771,27.2898 C34.5921,27.2098 35.2031,26.7958 35.7111,26.0488 C36.2191,25.3018 36.6021,24.9138 36.8631,24.8848 L37.0101,24.8678 C37.4631,24.8168 37.7311,25.1488 37.8111,25.8638 L38.3771,30.9278 Z" id="Fill-20" fill="#D1A27E" mask="url(#mask-4)"></path>
            </g>
            <path d="M384.4123,231.5877 L383.9413,234.6387 C383.3713,238.3177 384.0533,241.5057 385.9823,244.2007 C387.9123,246.8947 390.8143,248.5427 394.6893,249.1417 C399.4983,249.8847 403.7233,249.0177 407.3633,246.5387 C411.0023,244.0607 413.1603,240.6247 413.8403,236.2357 L414.0513,234.8797 C414.2193,233.7817 413.7053,233.1407 412.5123,232.9567 L388.2993,229.2127 C387.2013,229.0427 386.3143,229.1717 385.6373,229.5957 C384.9613,230.0187 384.5533,230.6837 384.4123,231.5877 L384.4123,231.5877 Z M383.4023,221.7617 C383.5123,221.0517 383.7933,220.7327 384.2443,220.8027 L384.3893,220.8237 C384.6803,220.8687 385.0603,221.2417 385.5313,221.9427 C386.0003,222.6427 386.5923,223.0497 387.3033,223.1587 L413.6443,227.2317 C414.3533,227.3417 415.0393,227.1327 415.6993,226.6077 C416.3593,226.0797 416.8343,225.8397 417.1253,225.8847 L417.2713,225.9077 C417.7233,225.9777 417.8943,226.3667 417.7853,227.0777 L416.1373,237.7307 C415.2193,243.6707 412.8423,248.3037 409.0063,251.6267 C405.1703,254.9507 400.8123,256.2357 395.9393,255.4827 C390.6783,254.6697 386.7363,252.3167 384.1153,248.4237 C381.4943,244.5307 380.5943,239.9217 381.4183,234.5957 L383.4023,221.7617 Z" id="Fill-23" fill="#D1A27E"></path>
            <path d="M362.8908,315.701 C363.9498,314.17 365.2458,313.229 366.7798,312.88 C368.3128,312.53 369.7638,312.83 371.1328,313.777 C372.5318,314.743 373.3438,316.01 373.5688,317.577 C373.7968,319.143 373.3788,320.693 372.3208,322.224 C371.2798,323.728 369.9958,324.638 368.4688,324.951 C366.9398,325.265 365.4768,324.937 364.0798,323.972 C362.7108,323.024 361.9088,321.785 361.6778,320.254 C361.4458,318.722 361.8498,317.205 362.8908,315.701" id="Fill-25" fill="#D1A27E"></path>
            <path d="M299.6447,358.3181 C300.2387,357.9741 300.6507,358.0001 300.8787,358.3961 L300.9537,358.5231 C301.0997,358.7781 301.0407,359.3121 300.7757,360.1271 C300.5097,360.9401 300.5587,361.6571 300.9157,362.2811 L314.9707,386.5861 L319.5937,383.9141 C320.2737,383.5211 320.6327,382.7851 320.6697,381.7081 C320.7057,380.6301 320.6797,379.5881 320.5897,378.5841 C320.4997,377.5801 320.6527,376.9631 321.0467,376.7341 L321.5567,376.4391 C322.1237,376.1131 322.5507,376.2981 322.8417,376.9981 L324.9727,382.4451 C325.2967,383.2011 325.1057,383.7831 324.3987,384.1921 L303.1017,396.5061 C302.3967,396.9141 301.7817,396.7971 301.2597,396.1561 L297.4087,391.6471 C297.1877,391.3971 297.0997,391.1461 297.1427,390.8951 C297.1877,390.6431 297.3337,390.4451 297.5897,390.2971 L298.0977,390.0041 C298.4107,389.8231 298.8767,389.8821 299.5037,390.1811 C300.1287,390.4801 300.7407,390.8531 301.3377,391.2991 C301.9377,391.7461 302.6057,392.0861 303.3437,392.3191 C304.0817,392.5521 304.7187,392.5131 305.2557,392.2031 L309.8807,389.5291 L295.8267,365.2221 C295.4667,364.6001 294.8617,364.2051 294.0097,364.0391 C293.1587,363.8701 292.6587,363.6601 292.5117,363.4041 L292.4377,363.2771 C292.2087,362.8801 292.4067,362.5041 293.0277,362.1441 L299.6447,358.3181 Z" id="Fill-27" fill="#D1A27E"></path>
            <path d="M263.6193,391.5164 C261.3323,392.1874 259.6803,393.3434 258.6623,394.9864 C257.6463,396.6284 257.4593,398.5474 258.1033,400.7424 C258.9103,403.4994 260.3873,405.3994 262.5293,406.4394 C264.6723,407.4804 266.9513,407.6464 269.3653,406.9384 L271.7173,406.2484 C272.6563,405.9744 272.9433,405.2084 272.5763,403.9544 L269.3223,392.8584 C268.7813,391.0074 267.7423,390.3084 266.2053,390.7584 L263.6193,391.5164 Z M246.4043,384.0014 C246.2093,383.4474 245.7213,383.0014 244.9413,382.6694 C244.1643,382.3344 243.7263,382.0114 243.6353,381.6994 L243.5943,381.5574 C243.4653,381.1194 243.7303,380.8014 244.3893,380.6094 L251.5843,378.5004 C252.2423,378.3084 252.6353,378.4294 252.7643,378.8694 L252.8053,379.0114 C252.8963,379.3244 252.7653,379.7714 252.4063,380.3534 C252.0493,380.9334 251.9553,381.5064 252.1193,382.0714 C252.8073,384.1834 253.8903,385.9684 255.3733,387.4234 C256.8553,388.8784 258.5883,389.7404 260.5743,390.0094 C261.2463,389.7444 261.8013,389.5484 262.2383,389.4194 L267.8343,387.7794 L265.1893,378.7504 C264.9863,378.0604 264.4823,377.5374 263.6803,377.1754 C262.8773,376.8164 262.4333,376.4944 262.3493,376.2124 L262.3083,376.0724 C262.1803,375.6324 262.4613,375.3124 263.1503,375.1104 L270.5333,372.9464 C271.1913,372.7534 271.5843,372.8754 271.7153,373.3154 L271.7543,373.4564 C271.8383,373.7384 271.6703,374.2384 271.2503,374.9564 C270.8323,375.6754 270.7233,376.3794 270.9243,377.0704 L278.4223,402.6504 C278.6253,403.3384 279.0963,403.8724 279.8383,404.2514 C280.5783,404.6284 280.9903,404.9604 281.0723,405.2424 L281.1133,405.3834 C281.2423,405.8224 280.9763,406.1384 280.3183,406.3314 L269.6913,409.4474 C265.3983,410.7054 261.6973,410.8284 258.5923,409.8164 C255.4863,408.8014 253.4183,406.5904 252.3853,403.1834 C251.8693,401.4284 251.9283,399.6234 252.5603,397.7714 C253.1913,395.9174 254.3303,394.2574 255.9743,392.7874 C253.7193,392.2904 251.7563,391.2574 250.0883,389.6874 C248.4203,388.1174 247.1913,386.2214 246.4043,384.0014 L246.4043,384.0014 Z" id="Fill-29" fill="#D1A27E"></path>
            <path d="M224.4533,394.6677 L211.5763,395.1877 L218.9473,411.4157 L224.4533,394.6677 Z M231.5763,382.8067 C232.2623,382.7807 232.6133,382.9937 232.6313,383.4507 L232.639571,383.5987 C232.6503,383.9237 232.3263,384.3707 231.6623,384.9377 C230.9983,385.5037 230.5353,386.1677 230.2713,386.9307 L221.0533,413.7327 C220.8483,414.3297 221.1013,414.9897 221.8183,415.7127 C222.5353,416.4367 222.8963,416.9117 222.9063,417.1407 L222.9123,417.2877 C222.9303,417.7447 222.6293,417.9857 222.0103,418.0107 L214.3713,418.3177 C213.7523,418.3427 213.4323,418.1267 213.4123,417.6697 L213.4063,417.5227 C213.3963,417.2627 213.5803,416.9597 213.9593,416.6187 C214.3383,416.2757 214.6583,415.8957 214.9183,415.4767 C215.1803,415.0567 215.2033,414.6067 214.9863,414.1247 L202.3143,388.0567 C201.9923,387.3497 201.4763,386.7317 200.7693,386.2047 C200.0603,385.6777 199.7013,385.2497 199.6873,384.9257 L199.6823,384.7767 C199.6643,384.3207 199.9963,384.0777 200.6823,384.0507 L209.0063,383.7157 C209.6913,383.6887 210.0433,383.9027 210.0603,384.3597 L210.0663,384.5077 C210.0763,384.7347 209.9553,384.9687 209.7033,385.2087 C209.4513,385.4467 209.1993,385.6697 208.9453,385.8757 C208.6913,386.0817 208.4823,386.3527 208.3163,386.6867 C208.1503,387.0197 208.1743,387.3947 208.3853,387.8127 L210.5393,392.5797 L225.3243,391.9837 L226.9413,387.0637 C227.1483,386.4997 227.0883,386.0367 226.7643,385.6737 C226.4373,385.3107 226.0663,384.9917 225.6443,384.7127 C225.2263,384.4357 225.0123,384.1667 225.0003,383.9057 L224.9943,383.7587 C224.9763,383.3017 225.3263,383.0587 226.0453,383.0297 L231.5763,382.8067 Z" id="Fill-31" fill="#D1A27E"></path>
            <path d="M149.6701,410.2927 C148.9691,410.1397 148.6661,409.8387 148.7641,409.3927 L148.7951,409.2487 C148.8521,408.9917 149.2771,408.6517 150.0721,408.2237 C150.8691,407.7957 151.3441,407.2297 151.4961,406.5287 L157.7051,378.1427 C157.9411,377.0577 158.5701,376.6267 159.5921,376.8497 L161.3151,377.2267 C161.9531,377.3667 162.4941,377.9527 162.9361,378.9857 L176.4841,409.2337 L181.5841,385.9237 C181.7291,385.2517 181.5201,384.5367 180.9491,383.7767 C180.3811,383.0177 180.1251,382.4937 180.1901,382.2067 L180.2211,382.0627 C180.3181,381.6157 180.7191,381.4707 181.4201,381.6227 L186.3501,382.7007 C187.0531,382.8557 187.3561,383.1557 187.2581,383.6027 L187.2271,383.7457 C187.1621,384.0327 186.7541,384.4117 186.0001,384.8817 C185.2441,385.3517 184.7931,385.9217 184.6471,386.5927 L178.9841,412.4897 C178.8301,413.1907 179.0021,413.8977 179.4981,414.6087 C179.9961,415.3187 180.2131,415.8177 180.1501,416.1047 L180.1191,416.2487 C180.0201,416.6947 179.6191,416.8417 178.9181,416.6887 L170.4451,414.8357 C169.8401,414.7037 169.5861,414.4127 169.6821,413.9667 L169.7151,413.8227 C169.7561,413.6317 169.9981,413.4077 170.4381,413.1537 C170.8791,412.8987 171.2031,412.6357 171.4121,412.3627 C171.6231,412.0917 171.6091,411.5797 171.3731,410.8257 L159.5841,384.2207 L154.5611,407.1987 C154.4061,407.8997 154.6021,408.6117 155.1471,409.3337 C155.6911,410.0547 155.9361,410.5417 155.8791,410.7987 L155.8481,410.9407 C155.7521,411.3887 155.3521,411.5347 154.6491,411.3807 L149.6701,410.2927 Z" id="Fill-33" fill="#D1A27E"></path>
            <path d="M130.9397,364.4744 C134.8827,366.4494 137.5587,368.8394 138.9667,371.6454 C140.3757,374.4514 140.6177,376.7734 139.6957,378.6134 C139.3757,379.2554 138.9187,379.6954 138.3267,379.9274 C137.7347,380.1614 137.1097,380.0954 136.4537,379.7294 C135.8537,379.3934 135.4197,378.9114 135.1507,378.2824 C134.8807,377.6544 134.7527,376.9784 134.7677,376.2554 C134.7837,375.5314 134.7467,374.7284 134.6607,373.8444 C134.5727,372.9604 134.4197,372.0994 134.2017,371.2574 C133.9827,370.4174 133.4947,369.5704 132.7347,368.7154 C131.9767,367.8614 130.9537,367.1114 129.6687,366.4674 C127.8867,365.5764 126.1997,365.3334 124.6077,365.7414 C123.0137,366.1484 121.8227,367.1414 121.0337,368.7184 C120.3597,370.0624 120.1387,371.3394 120.3737,372.5534 C120.6057,373.7654 121.1527,374.8434 122.0137,375.7874 C122.8757,376.7284 123.8867,377.6644 125.0467,378.5934 C126.2097,379.5214 127.3477,380.4944 128.4627,381.5094 C129.5827,382.5264 130.5277,383.5934 131.2987,384.7104 C132.0727,385.8294 132.4967,387.1564 132.5687,388.6894 C132.6407,390.2234 132.2287,391.8804 131.3357,393.6634 C130.0647,396.2044 128.0077,397.7954 125.1647,398.4354 C122.3247,399.0764 119.1507,398.5194 115.6447,396.7654 C112.1407,395.0094 109.6837,392.8204 108.2757,390.1974 C106.8677,387.5734 106.6387,385.3494 107.5897,383.5234 C108.3357,382.0334 109.4687,381.6694 110.9867,382.4294 C111.6287,382.7514 112.0857,383.2084 112.3557,383.8004 C112.6257,384.3924 112.7387,385.0234 112.6957,385.6964 C112.6507,386.3674 112.6467,387.1244 112.6817,387.9644 C112.7187,388.8044 112.8087,389.6084 112.9537,390.3744 C113.0997,391.1414 113.4987,391.9154 114.1467,392.6994 C114.7967,393.4804 115.6897,394.1564 116.8307,394.7274 C118.6697,395.6484 120.3497,395.8694 121.8697,395.3884 C123.3887,394.9064 124.5217,393.9214 125.2677,392.4314 C125.9127,391.1464 126.1077,389.9204 125.8517,388.7504 C125.5957,387.5814 125.0397,386.5254 124.1757,385.5834 C123.3167,384.6404 122.3127,383.6904 121.1667,382.7324 C120.0197,381.7754 118.8947,380.7734 117.7937,379.7284 C116.6917,378.6834 115.7597,377.5864 115.0007,376.4394 C114.2427,375.2914 113.8267,373.9514 113.7557,372.4174 C113.6837,370.8824 114.0857,369.2404 114.9627,367.4874 C116.3087,364.8004 118.5057,363.2244 121.5527,362.7584 C124.5997,362.2924 127.7267,362.8654 130.9397,364.4744" id="Fill-35" fill="#D1A27E"></path>
            <path d="M106.7111,350.5916 C107.2661,351.0486 107.3971,351.4536 107.1061,351.8076 L107.0121,351.9196 C106.8241,352.1476 106.3111,352.2826 105.4671,352.3296 C104.6251,352.3746 103.9751,352.6756 103.5181,353.2306 L86.5551,373.7926 C86.1001,374.3476 85.9281,375.0426 86.0431,375.8786 C86.1581,376.7146 86.1211,377.2466 85.9361,377.4736 L85.8421,377.5866 C85.5511,377.9396 85.1521,377.9076 84.6491,377.4916 L68.1311,363.8666 C67.5511,363.3886 67.4691,362.7696 67.8831,362.0106 L70.3421,357.1796 C70.6951,356.4956 71.1481,356.3846 71.7011,356.8416 L71.8541,356.9656 C72.2581,357.2986 72.4361,358.0056 72.3891,359.0896 C72.3421,360.1736 72.3321,361.2876 72.3611,362.4336 C72.3911,363.5786 72.7191,364.4126 73.3501,364.9316 L79.6621,370.1386 C80.5181,370.8456 81.3321,370.7326 82.1021,369.8006 L90.3321,359.8206 L84.3971,354.9256 C83.8691,354.4896 83.0081,354.4806 81.8181,354.8946 C80.6291,355.3116 79.9081,355.4146 79.6561,355.2066 L79.3911,354.9876 C79.0141,354.6776 79.0221,354.2816 79.4161,353.8026 L83.8441,348.4356 C84.2401,347.9566 84.6251,347.8726 85.0041,348.1856 L85.2681,348.4036 C85.5201,348.6116 85.5701,349.3206 85.4201,350.5296 C85.2701,351.7386 85.4591,352.5616 85.9861,352.9976 L91.9221,357.8936 L98.9061,349.4256 C99.3631,348.8706 99.5161,348.1616 99.3631,347.2946 C99.2111,346.4276 99.2271,345.8806 99.4141,345.6536 L99.5081,345.5406 C99.7991,345.1876 100.2211,345.2396 100.7751,345.6956 L106.7111,350.5916 Z" id="Fill-37" fill="#D1A27E"></path>
            <path d="M66.8635,313.4002 C65.2185,311.2012 63.0335,310.0232 60.3025,309.8612 C57.5725,309.7012 55.0175,310.5102 52.6365,312.2912 C48.1875,315.6162 45.1835,319.4132 43.6215,323.6792 C42.0605,327.9472 42.4435,331.6382 44.7715,334.7522 C46.4355,336.9742 48.5805,338.1662 51.2055,338.3222 C53.8325,338.4802 56.4275,337.6002 58.9905,335.6832 C63.4125,332.3772 66.4065,328.6082 67.9745,324.3772 C69.5435,320.1452 69.1725,316.4862 66.8635,313.4002 M69.9225,313.0702 C72.9535,317.1272 74.0415,321.5132 73.1855,326.2322 C72.3305,330.9512 69.9395,334.7782 66.0135,337.7122 C61.8535,340.8222 57.4685,342.1032 52.8575,341.5542 C48.2465,341.0042 44.4335,338.7162 41.4205,334.6872 C38.4275,330.6842 37.3965,326.3452 38.3285,321.6732 C39.2595,317.0002 41.7155,313.1762 45.6895,310.2032 C49.6935,307.2102 54.0235,305.9912 58.6795,306.5462 C63.3385,307.1032 67.0865,309.2772 69.9225,313.0702" id="Fill-39" fill="#D1A27E"></path>
            <path d="M33.4572,281.5584 C32.5642,279.3474 31.2522,277.8174 29.5182,276.9664 C27.7832,276.1174 25.8552,276.1214 23.7342,276.9764 C21.0682,278.0524 19.3242,279.7074 18.5002,281.9434 C17.6762,284.1774 17.7362,286.4624 18.6762,288.7944 L19.5942,291.0664 C19.9612,291.9754 20.7502,292.1844 21.9612,291.6954 L32.6862,287.3664 C34.4732,286.6444 35.0662,285.5414 34.4672,284.0564 L33.4572,281.5584 Z M39.2422,263.6874 C39.7752,263.4374 40.1702,262.9084 40.4242,262.0994 C40.6802,261.2924 40.9592,260.8284 41.2622,260.7054 L41.3982,260.6504 C41.8222,260.4794 42.1622,260.7104 42.4202,261.3474 L45.2272,268.2994 C45.4822,268.9354 45.4002,269.3384 44.9752,269.5104 L44.8402,269.5654 C44.5372,269.6874 44.0782,269.6004 43.4652,269.3014 C42.8522,269.0034 42.2712,268.9634 41.7272,269.1844 C39.6912,270.0774 38.0212,271.3314 36.7192,272.9494 C35.4182,274.5674 34.7302,276.3764 34.6582,278.3784 C34.9882,279.0214 35.2382,279.5544 35.4102,279.9784 L37.5922,285.3844 L46.3162,281.8634 C46.9822,281.5934 47.4552,281.0424 47.7342,280.2064 C48.0142,279.3714 48.2892,278.8984 48.5622,278.7884 L48.6992,278.7344 C49.1232,278.5624 49.4712,278.8114 49.7382,279.4774 L52.6192,286.6104 C52.8752,287.2464 52.7932,287.6504 52.3692,287.8224 L52.2322,287.8764 C51.9592,287.9864 51.4452,287.8694 50.6872,287.5214 C49.9322,287.1754 49.2212,287.1364 48.5552,287.4064 L23.8362,297.3864 C23.1702,297.6544 22.6862,298.1774 22.3812,298.9514 C22.0782,299.7264 21.7892,300.1674 21.5162,300.2774 L21.3812,300.3324 C20.9572,300.5034 20.6152,300.2714 20.3592,299.6344 L16.2132,289.3674 C14.5372,285.2164 14.0512,281.5464 14.7542,278.3564 C15.4552,275.1654 17.4532,272.8904 20.7422,271.5274 C22.4372,270.8414 24.2382,270.7224 26.1452,271.1674 C28.0512,271.6134 29.8162,272.5834 31.4412,274.0764 C31.7132,271.7834 32.5492,269.7284 33.9452,267.9124 C35.3462,266.0974 37.1092,264.6894 39.2422,263.6874 L39.2422,263.6874 Z" id="Fill-41" fill="#D1A27E"></path>
            <path d="M30.0158,209.8748 C30.7168,209.6678 31.3268,209.2398 31.8478,208.5918 C32.3698,207.9418 32.7908,207.6018 33.1178,207.5658 L33.2638,207.5498 C33.7188,207.4998 33.9828,207.8158 34.0568,208.4978 L34.8638,215.9018 C34.9378,216.5838 34.7458,216.9508 34.2928,216.9998 L34.1468,217.0158 C33.8868,217.0438 33.4138,216.7828 32.7308,216.2318 C32.0448,215.6838 31.3538,215.5138 30.6528,215.7208 L8.6208,222.0628 L34.9768,228.2618 C35.7868,228.4688 36.2288,228.8978 36.2988,229.5468 C36.3808,230.2948 36.0648,230.8538 35.3498,231.2288 L10.3768,243.6088 L33.8108,244.7038 C34.5018,244.7268 35.1308,244.3718 35.6898,243.6368 C36.2518,242.9018 36.6618,242.5208 36.9218,242.4918 L37.0688,242.4758 C37.5238,242.4268 37.7888,242.7598 37.8678,243.4738 L38.4028,248.3928 C38.4808,249.1078 38.2928,249.4898 37.8378,249.5388 L37.6918,249.5558 C37.3678,249.5898 36.8638,249.3418 36.1798,248.8088 C35.4978,248.2748 34.8268,247.9938 34.1658,247.9678 L7.3848,246.4488 C6.6608,246.4298 6.0298,246.7528 5.4948,247.4198 C4.9588,248.0858 4.5608,248.4328 4.3008,248.4608 L4.1548,248.4768 C3.6678,248.5298 3.3928,248.2648 3.3288,247.6798 L2.4748,239.8368 C2.4068,239.2208 2.6178,238.8848 3.1058,238.8318 L3.2498,238.8158 C3.4458,238.7948 3.7228,238.9218 4.0798,239.1928 C4.4378,239.4668 4.8338,239.6948 5.2638,239.8788 C5.6958,240.0618 6.1588,240.0268 6.6568,239.7748 L28.1778,229.6438 L4.7208,224.2628 C4.0508,224.1388 3.4458,224.4018 2.9108,225.0518 C2.3728,225.7018 2.0218,226.0348 1.8598,226.0538 L1.7128,226.0698 C1.2268,226.1218 0.9518,225.8568 0.8868,225.2708 L0.0118,217.2338 C-0.0522,216.6498 0.1448,216.3328 0.5978,216.2828 L0.7448,216.2678 C1.0058,216.2388 1.4948,216.5148 2.2148,217.0938 C2.9358,217.6718 3.7088,217.8338 4.5358,217.5798 L30.0158,209.8748 Z" id="Fill-43" fill="#D1A27E"></path>
            <path d="M35.1897,141.701 C34.5137,143.437 33.4707,144.652 32.0627,145.348 C30.6527,146.044 29.1697,146.09 27.6177,145.485 C26.0357,144.869 24.9517,143.826 24.3677,142.353 C23.7837,140.883 23.8287,139.279 24.5037,137.543 C25.1667,135.838 26.2057,134.656 27.6197,133.998 C29.0337,133.338 30.5317,133.316 32.1137,133.931 C33.6667,134.537 34.7327,135.556 35.3127,136.991 C35.8947,138.426 35.8537,139.996 35.1897,141.701" id="Fill-45" fill="#D1A27E"></path>
        </g>
    </g>
</svg>