<svg xmlns="http://www.w3.org/2000/svg" viewBox="0 0 318.91 318.91"><defs><style>.cls-1{fill:#1d1d1d;}.cls-2{fill:#8c383d;}.cls-3{fill:#9b7d49;}.cls-4{fill:#e8e7dd;}</style></defs><title>Asset 1</title><g id="Layer_2" data-name="Layer 2"><g id="Layer_1-2" data-name="Layer 1"><circle class="cls-1" cx="159.45" cy="159.45" r="159.45"/><circle class="cls-2" cx="159.45" cy="159.45" r="147.94"/><path class="cls-3" d="M116.42,279.55c0-.94.07-1.88.08-2.81s0-1.86,0-2.78,0-1.94,0-2.88,0-1.85-.08-2.75h.91c.4,0,.88,0,1.44,0l1.08,0a4,4,0,0,1,2.48.69,2.21,2.21,0,0,1,.92,1.86,2.6,2.6,0,0,1-.53,1.62,4.11,4.11,0,0,1-1.61,1.16,3.57,3.57,0,0,1,1.8,1.05,2.51,2.51,0,0,1,.65,1.72,2.87,2.87,0,0,1-1.14,2.34,4.59,4.59,0,0,1-3,.92l-.95,0-.85,0Zm2-5.35.55-.51.5-.51.27,0,.41.07a1.64,1.64,0,0,0,.89-.67,2.19,2.19,0,0,0,.3-1.19,1.72,1.72,0,0,0-.6-1.4,2.6,2.6,0,0,0-1.69-.49h-.34l-.29,0Zm0,4.16,1,.23a4.6,4.6,0,0,0,.63.07,1.21,1.21,0,0,0,1-.56,2.23,2.23,0,0,0,.41-1.35,1.9,1.9,0,0,0-.83-1.56,3.17,3.17,0,0,0-2-.63l-.23,0h0Z"/><path class="cls-3" d="M134.71,279.77c-.64-1-1.24-1.89-1.8-2.72s-1.13-1.63-1.7-2.43q0,1,0,2.16c0,.76,0,1.66.08,2.69l-2.21.08c0-.94.06-1.88.08-2.81s0-1.86,0-2.78,0-1.94,0-2.88-.05-1.85-.08-2.75h.69c.48,0,1,0,1.7,0l1.22,0a3.13,3.13,0,0,1,2.13.71,2.34,2.34,0,0,1,.82,1.86,2.78,2.78,0,0,1-.68,1.84,4.11,4.11,0,0,1-1.9,1.21l2.13,3.11c.11.17.31.45.59.85l.66.93Zm-3.5-5.73a7.15,7.15,0,0,0,.73-.5,6.61,6.61,0,0,0,.6-.5l.2.1.18.07a2.21,2.21,0,0,0,.6-.78,2.1,2.1,0,0,0,.21-.92,2,2,0,0,0-.61-1.52,2.1,2.1,0,0,0-1.56-.59l-.31,0h0Z"/><path class="cls-3" d="M141.57,279.47c0-.87.06-1.76.08-2.68s0-1.86,0-2.83,0-1.89,0-2.82,0-1.84-.08-2.75h5.87L147,269.6h-3.26q0,.64,0,1.53c0,.59,0,1.26,0,2h3.8l-.46,1.27h-3.34c0,.63,0,1.26,0,1.88s0,1.26.06,1.89h1.12c.39,0,.81,0,1.25,0l1.45-.05-.55,1.35Z"/><path class="cls-3" d="M157,279.47l-1.42.08Q155,277,152.2,268.62c0-.1-.06-.18-.07-.23l2.07-.06,2.68,9,1.61-3.55q-.8-2.46-1.66-4.95l-.14-.42,2.06-.06,1,3,1.29-2.83,1.29-.08-2.07,4.47,1.41,4.45,3.2-8.84,1.22-.08-4.12,11.08-1.56.08c-.14-.54-.32-1.18-.56-1.93s-.5-1.54-.79-2.38Z"/><path class="cls-3" d="M173.43,268.33c0,.88-.06,1.79-.08,2.71s0,1.87,0,2.86,0,2,0,2.87.05,1.82.09,2.7l-2.33.08c0-.86.06-1.75.08-2.68s0-1.9,0-2.91,0-2,0-2.89-.05-1.82-.08-2.67Z"/><path class="cls-3" d="M179.54,279.55c.12-2.48.2-4.47.26-5.95s.08-2.81.1-4l-.78-1.11,2.06-.4,5.49,7.9-.08-7.63,1.29-.06c0,.91,0,2,0,3.14s0,2.43,0,3.77v.82q0,1,0,1.8c0,.54,0,1.08.07,1.61l-1.26.22c-.3-.53-.83-1.38-1.6-2.55s-2.12-3.2-4.06-6.08l-.11,8.41Z"/><path class="cls-3" d="M202.49,273.18v4.58c-.55.35-1.11.73-1.69,1.13s-.9.61-1,.64a1.56,1.56,0,0,1-.53.18,4.38,4.38,0,0,1-.77.06,4.78,4.78,0,0,1-3.63-1.47,5.39,5.39,0,0,1-1.4-3.86,5.62,5.62,0,0,1,.39-2.18,5.43,5.43,0,0,1,1.23-1.79,9.3,9.3,0,0,1,2.31-1.73,4.88,4.88,0,0,1,2.16-.63,3.35,3.35,0,0,1,1.33.28,4.86,4.86,0,0,1,1.3.82l-1.7,1.43a3.47,3.47,0,0,0-1.08-.59,4,4,0,0,0-1.27-.19A3.69,3.69,0,0,0,197,270a2.74,2.74,0,0,0-.94.51,4.1,4.1,0,0,0-.56,1.24,5.19,5.19,0,0,0-.19,1.45,5,5,0,0,0,1.24,3.55,4.3,4.3,0,0,0,3.29,1.34l.35,0,.26-.07v-3.53h-3l1.68-1.38Z"/><path class="cls-1" d="M252,129.06a.55.55,0,0,0-.4.66.54.54,0,0,0,.66.39,6.21,6.21,0,0,1,5.45,1.35.52.52,0,0,0,.38.16.55.55,0,0,0,.39-.93A7.28,7.28,0,0,0,252,129.06Z"/><path class="cls-1" d="M174.7,91.22a.55.55,0,0,0-.75.19l-3.25,5.43a.53.53,0,0,0,.18.74.6.6,0,0,0,.28.08.54.54,0,0,0,.47-.26L174.89,92A.55.55,0,0,0,174.7,91.22Z"/><path class="cls-1" d="M270.31,149.12a32.37,32.37,0,0,1-7.62-15.91,6.44,6.44,0,0,1,.65-4.35,3.65,3.65,0,0,0,.47-1.51c0-9.26-5.52-18.7-8.29-22.85L258,103a.52.52,0,0,0,.24-.6,17.14,17.14,0,0,0-1.29-3.17,25.32,25.32,0,0,0-1.47-2.58l3.47-15.06a5.21,5.21,0,0,0-2.25-5.54l-12.18-7.85a4.15,4.15,0,0,1-1.66-2.12l-2.5-7.28A5.25,5.25,0,0,0,236,55.33l-26.13-3a5.18,5.18,0,0,0-4.3,1.54C198,46.63,188,40.45,178.07,40.45h-.41c-8.5.15-13.46,1.75-14.74,4.74-1.19,2.8,1.3,5.67,1.58,6,4.64,6.18,11.52,7.85,18.81,9.62a59.54,59.54,0,0,1,12.77,4.15l-2.74,3.2-4.49,5.09a.22.22,0,0,0,0,.08l-3.23,5.37-17.16,7.74a5.34,5.34,0,0,0-3.1,4.38l-3.15,35.91a10.68,10.68,0,0,0,.84,5.21l2.94,6.8a9,9,0,0,0,6.77,5.33l2.2.39a4.19,4.19,0,0,1,2.38,1.29l3.46,3.72c-5.77,4.21-11.9,5-21.25,5h-.77c-9.31,0-14.77-1-20.71-6l1.24-1.39L87.63,95.88a.54.54,0,0,1,0-.77.55.55,0,0,1,.77,0L140,146.26l.42-.47a4.18,4.18,0,0,1,2.44-1.36l2.15-.38a9,9,0,0,0,6.77-5.33l2.93-6.8a10.8,10.8,0,0,0,.85-5.21L152.4,90.8a5.33,5.33,0,0,0-3.11-4.38l-15.74-7.11,8,16.12a.54.54,0,0,1-.48.78.54.54,0,0,1-.49-.3l-9-18.1a.28.28,0,0,1,0-.13l-2.63-4.37-.06-.08-4.48-5.08L122,65.31a60.63,60.63,0,0,1,13-4.22c7.43-1.8,14.45-3.51,19.18-9.81.28-.31,2.82-3.24,1.61-6.09-1.3-3-6.35-4.67-15-4.83h-.4c-7.77,0-16.65,3.9-25.06,11-1,.85-2,1.74-3,2.65a5.22,5.22,0,0,0-4.48-1.71l-26.13,3a5.24,5.24,0,0,0-4.32,3.48l-2.5,7.28a4.15,4.15,0,0,1-1.66,2.12L61,76.06a5.23,5.23,0,0,0-2.25,5.54l3.61,15.64a.57.57,0,0,0,.17.28l0,.1a20,20,0,0,0-2,4.42.55.55,0,0,0,.25.61l2.69,1.63c-2.71,4-8.43,13.65-8.43,23.07a3.65,3.65,0,0,0,.47,1.51,6.44,6.44,0,0,1,.65,4.35,32.37,32.37,0,0,1-7.62,15.91c-1.25,1.51-2.07,2.5-2.07,3.57,0,2.25,3,3.9,4.27,3.9a4.36,4.36,0,0,0,.88-.13,6,6,0,0,1,1.9-.18,6.93,6.93,0,0,1,1.2,6.31,2,2,0,0,0,.47,2c.45.42,1.09,1,1.77,1.54a3.74,3.74,0,0,0-1,3.65,2.53,2.53,0,0,0,1.18,1.63,1.18,1.18,0,0,1,.5,1.23,33.2,33.2,0,0,0-.72,5.9.57.57,0,0,0,0,.13v.06c0,.33,0,.64,0,.91A20.37,20.37,0,0,1,54.27,188a2.24,2.24,0,0,0,1.95,3.33,2.21,2.21,0,0,0,.51,0L58,191a111,111,0,0,0,22.21-6.63,16.55,16.55,0,0,0,.81,1.53A22,22,0,0,1,84.14,196a160.06,160.06,0,0,0-9.79,13.26,1.51,1.51,0,0,0,2.1,2.08c22.08-15,39.92-17.62,44.79-18.07,10.78,5,23.3,7.51,37.47,7.57h.8A90.78,90.78,0,0,0,195.82,194c5.1.5,22.79,3.24,44.63,18.07a1.51,1.51,0,0,0,2.1-2.09c-2.08-3.12-4.82-7-8-11,.3-7.8,2.05-10.83,3.34-13.05.32-.56.59-1,.82-1.54,2.33,1,4.39,1.77,6.1,2.37a25.69,25.69,0,0,0,8.32,1.68,9.44,9.44,0,0,0,5.57-1.55c2.92-2.06,3.23-5.57,3.23-7a38,38,0,0,0-.76-7.25,1.17,1.17,0,0,1,.5-1.23,2.51,2.51,0,0,0,1.17-1.59,3.77,3.77,0,0,0-1-3.69c.68-.55,1.32-1.12,1.77-1.54a2,2,0,0,0,.47-2,6.88,6.88,0,0,1,1.2-6.31,6.07,6.07,0,0,1,1.9.18,4.36,4.36,0,0,0,.88.13c1.28,0,4.27-1.65,4.27-3.9C272.38,151.62,271.56,150.63,270.31,149.12Zm-127-57.9a.55.55,0,0,1,.75.19l3.26,5.43a.54.54,0,0,1-.19.74.57.57,0,0,1-.28.08.53.53,0,0,1-.46-.26L143.12,92A.55.55,0,0,1,143.3,91.22ZM57.44,190l-.95.22a1.15,1.15,0,0,1-1.19-.45,1.1,1.1,0,0,1-.08-1.24,24,24,0,0,0,2.12-5A31,31,0,0,1,57.44,190ZM169.55,49.1a.55.55,0,0,1-.54-.55.54.54,0,0,1,.54-.54c26.7,0,40.65,16.55,46.59,26.42a.54.54,0,0,1-.18.74.5.5,0,0,1-.28.08.54.54,0,0,1-.47-.26C209.39,65.32,195.71,49.1,169.55,49.1Zm10.15,97.63L229.35,97.5a.54.54,0,0,0-.77-.77L179,145.93l-.87-.94a5.3,5.3,0,0,0-3-1.62l-2.2-.39a7.92,7.92,0,0,1-5.95-4.69l-2.94-6.8a9.64,9.64,0,0,1-.76-4.68l3.15-35.92a4.22,4.22,0,0,1,2.47-3.48l15.73-7.1-7.74,12.91a.54.54,0,0,0,.93.56L189.7,73.91l4.46-5.06,2.91-3.4a26.23,26.23,0,0,1,9.24,8.39c.19.34,2.1,3.55,5.23,4.18a5.55,5.55,0,0,0,1.07.11,6.48,6.48,0,0,0,3.68-1.26,37.81,37.81,0,0,1,2.17,4.51.54.54,0,0,0,.51.35.63.63,0,0,0,.19,0,.55.55,0,0,0,.32-.7,43.75,43.75,0,0,0-2.34-4.83c.82-.89,1.38-2.63.17-6-1.52-4.29-5.54-10.15-11-15.53a4.12,4.12,0,0,1,3.41-1.22l26.13,3a4.14,4.14,0,0,1,3.42,2.75l2.5,7.28a5.21,5.21,0,0,0,2.1,2.68L256.09,77a4.13,4.13,0,0,1,1.78,4.38l-3.26,14.11a24.75,24.75,0,0,0-9.28-7.6l1.39-1.35a.53.53,0,0,0,0-.74L237,74.53a.57.57,0,0,0-.42-.19.58.58,0,0,0-.41.2l-31.38,38.89a.54.54,0,1,0,.84.68l31-38.38,9,10.37-64.27,62.37Zm73.14-41.88-.93.57a39.82,39.82,0,0,0-11.69-12.59l.8-.78A40.56,40.56,0,0,1,252.84,104.85Zm-93.69,67.92a.54.54,0,0,1,.54-.54c15.92-.12,26.93-5.55,33.38-10.12,9-6.37,20.92-25.27,26.54-49.28l1.33-1.29a.48.48,0,0,1,0,.29c-4.19,18.82-14.9,42.44-27.25,51.17-6.58,4.66-17.8,10.19-34,10.32a.55.55,0,0,1-.55-.55Zm0,9a.54.54,0,0,1,.54-.54c14.48-.09,27.55-3.91,37.84-11.06,9.52-6.62,17.28-18.14,23.07-34.22A146.06,146.06,0,0,0,228,104.71l1.22-1.18h0a146.11,146.11,0,0,1-7.57,32.84c-5.86,16.3-13.76,28-23.47,34.74-10.47,7.27-23.76,11.16-38.45,11.26a.55.55,0,0,1-.55-.55Zm0-18.1a.54.54,0,0,1,.54-.54A50.51,50.51,0,0,0,188.62,154c5.45-3.94,14.76-17.11,20.53-31l1.82-1.77a.49.49,0,0,1,0,.24,111.43,111.43,0,0,1-11,21c-3.84,5.72-7.83,10.37-10.66,12.41a51.59,51.59,0,0,1-29.56,9.38.55.55,0,0,1-.55-.55Zm-24.33-16.81a.76.76,0,0,0,.12.19c6.4,6.39,11.67,8.09,20.36,8.42a3.72,3.72,0,0,1,3.58,3.72h0a3.73,3.73,0,0,1-4,3.72,49.8,49.8,0,0,1-24.72-9c-5.37-3.88-14.49-16.73-20.27-30.43Zm-34-31.72,7.09,6.62a112,112,0,0,0,10.88,20.67c3.84,5.73,7.83,10.37,10.66,12.41a51,51,0,0,0,25.75,9.2,4,4,0,0,1,3.65,4h0a4,4,0,0,1-4.27,4,56.79,56.79,0,0,1-29-9.93C114,153.89,103.83,132,99.37,113.83Zm-2.91-2.66c4.3,18.71,14.9,41.85,27.09,50.47,6.05,4.28,16,9.29,30.13,10.18a4,4,0,0,1,3.72,4h0a4,4,0,0,1-4.25,4c-12.72-.76-24.19-4.5-33.42-10.91-9.52-6.62-17.29-18.13-23.08-34.22a147.75,147.75,0,0,1-7.2-29.87ZM89.7,105a148.53,148.53,0,0,0,7.41,31.37c5.87,16.3,13.77,28,23.48,34.74,9.52,6.62,21.37,10.43,34.5,11.14a4,4,0,0,1,3.79,4h0a4,4,0,0,1-4.17,4c-14.72-.71-27.47-4.7-37.95-11.89-12.59-8.64-21.85-22.88-27.53-42.33a149.81,149.81,0,0,1-5.51-33.41c0-.36,0-.65,0-.83V99.49Zm8.37-23.28a43.61,43.61,0,0,1,3-6c-.58-1-.5-2.6.26-4.74,2-5.48,7.84-13,14.66-18.81,8.22-7,16.85-10.76,24.36-10.76h.38c10.22.18,13.28,2.36,14.05,4.16,1,2.31-1.4,4.92-1.42,5l0,0c-4.5,6-11.34,7.68-18.59,9.44-8.66,2.1-17.61,4.27-24.12,13.77l0,0s-1.81,3.19-4.62,3.75a5.21,5.21,0,0,1-4.08-1.08,42.35,42.35,0,0,0-2.76,5.57.54.54,0,0,1-.51.35.63.63,0,0,1-.19,0A.55.55,0,0,1,98.07,81.72ZM70.49,85.81,81,74.51a.55.55,0,0,1,.82,0l31.37,38.89a.53.53,0,0,1-.08.76.54.54,0,0,1-.76-.08l-31-38.4L71.28,86.55a.54.54,0,1,1-.79-.74Zm-8.73,16.13A23.5,23.5,0,0,1,72.64,89.42l3.63,3.31a40.76,40.76,0,0,0-10.36,11.73ZM57.81,170.5l-.06,0a1.46,1.46,0,0,1-.66-.93,2.74,2.74,0,0,1,1-2.88h3.33a2.89,2.89,0,0,0,1.7.74.54.54,0,1,0,0-1.08,2,2,0,0,1-1.1-.59.57.57,0,0,0-.39-.16H58.06c-.78-.6-1.55-1.28-2.07-1.77a1,1,0,0,1-.16-.94,8.36,8.36,0,0,0-.71-6.26,11.19,11.19,0,0,1,3.17,1.75.57.57,0,0,0,.33.11c1.09,0,3.15-.5,3.15-2.41a.54.54,0,1,0-1.08,0c0,1.09-1.4,1.28-1.9,1.32-3.72-2.74-6-2.25-7.34-2a3.63,3.63,0,0,1-.65.11c-.9,0-3.19-1.34-3.19-2.81,0-.68.77-1.6,1.83-2.88a33.37,33.37,0,0,0,7.85-16.39,7.58,7.58,0,0,0-.74-5,3.19,3.19,0,0,1-.37-1.06c0-9.16,5.64-18.58,8.28-22.5l6.51,4a.54.54,0,0,0,.72-.13l3.67-4.8a133.2,133.2,0,0,0,2,25.21,113.82,113.82,0,0,0,8.08,26.77A14.14,14.14,0,0,1,76.34,160a.55.55,0,0,0,0,1.09h0a15.18,15.18,0,0,0,9.57-4.17q1,2.12,2.1,4.22c-3.47,5.61-9.26,12.61-17.41,14.67a16.79,16.79,0,0,1-8.24.12,12,12,0,0,1-.88-4.57.54.54,0,0,0-.17-.43.57.57,0,0,0-.45-.14,9.55,9.55,0,0,1-2.55.08h-.12A2.51,2.51,0,0,0,57.81,170.5Zm23.9.21a42.51,42.51,0,0,0,6.92-8.47q1.34,2.43,2.86,4.83A66.26,66.26,0,0,1,81.71,170.71ZM92.09,168a78.45,78.45,0,0,0,4.84,6.56l-2.15,1.33c-12,2-19.14,1.14-22.24.5a24.68,24.68,0,0,0,7.28-4.05A64.82,64.82,0,0,0,92.09,168ZM58.57,189.81c.34-2.77-.41-9-.52-9.95v-.12c0-.49,0-.84,0-1a34,34,0,0,1,.67-5.75,1.89,1.89,0,0,0,.07-1h.32c-.12,1.66-.48,9.87,3.34,14.06a7.24,7.24,0,0,0,3.24,2.08C62.3,189.07,59.77,189.58,58.57,189.81Zm9.69-2.39h-.08a6.34,6.34,0,0,1-4.89-2.08c-3.59-3.93-3.14-12.19-3.06-13.37l.2,0a13,13,0,0,0,3.46,8.36c2.62,2.78,6.51,4.37,11.58,4.74C72.86,186,70.43,186.78,68.26,187.42ZM78,184.07a.47.47,0,0,0-.17,0c-5.93,0-10.36-1.5-13.17-4.47A10.87,10.87,0,0,1,63,177.18a16,16,0,0,0,3.12.29,19.52,19.52,0,0,0,4.38-.51c.75.26,4,1.24,10.44,1.24a82.54,82.54,0,0,0,11.34-.85A111.45,111.45,0,0,1,78,184.07Zm7.06,10.78a22.49,22.49,0,0,0-3.15-9.49c-.29-.51-.55-1-.75-1.4a107.68,107.68,0,0,0,16.45-8.58c.72.85,1.46,1.69,2.24,2.51s1.43,1.48,2.16,2.19C96.21,183,90.26,188.76,85.09,194.85Zm73.79.63a4.17,4.17,0,0,1-4.33,4.17c-22.57-.91-40.69-8.46-53.88-22.5-14-14.86-19.79-34.43-22.22-48.23a127.25,127.25,0,0,1-2-26.7.54.54,0,0,0-1-.36l-4.41,5.76L66.84,105A40.58,40.58,0,0,1,77.08,93.48l5.51,5v3.29c0,.21,0,.5,0,.85a149.77,149.77,0,0,0,5.55,33.66c5.75,19.69,15.15,34.13,28,42.92,10.71,7.34,23.73,11.4,38.75,12.09a4.17,4.17,0,0,1,4,4.17Zm.27-4.61a.54.54,0,0,1,.54-.54c16.57-.08,30.79-4.12,42.29-12,12.58-8.64,21.85-22.88,27.53-42.33a149.59,149.59,0,0,0,5.5-33.41q0-.54.06-.87V97.83l.71-.69a.55.55,0,0,1,.38.52v4.09c0,.25,0,.54-.05.89a151.08,151.08,0,0,1-5.55,33.66c-5.75,19.69-15.16,34.13-28,42.91-11.68,8-26.11,12.12-42.89,12.21a.55.55,0,0,1-.55-.55Zm109-35.37a3.63,3.63,0,0,1-.65-.11c-1.36-.28-3.62-.77-7.34,2-.49,0-1.9-.23-1.9-1.32a.54.54,0,0,0-1.08,0c0,1.91,2.06,2.41,3.15,2.41a.57.57,0,0,0,.33-.11,11.19,11.19,0,0,1,3.17-1.75,8.36,8.36,0,0,0-.71,6.26,1,1,0,0,1-.16.94c-.52.49-1.29,1.17-2.07,1.77h-3.54a.57.57,0,0,0-.39.16,2,2,0,0,1-1.1.59.54.54,0,1,0,0,1.08,2.89,2.89,0,0,0,1.7-.74h3.33a2.76,2.76,0,0,1,1,2.91,1.46,1.46,0,0,1-.65.9l-.06,0a2.24,2.24,0,0,0-.94,2.48,37.92,37.92,0,0,1,.7,6.91c0,1.24-.27,4.32-2.77,6.1-2.67,1.89-7,1.8-12.9-.28A128.62,128.62,0,0,1,222.56,175a.54.54,0,0,0-.55.94A138.94,138.94,0,0,0,237.73,184c-.2.44-.46.89-.76,1.41-1.2,2.08-3,5.14-3.42,12.32-5.07-6.24-11.07-12.48-17-16A68.51,68.51,0,0,1,202,192a.57.57,0,0,1-.25.06.52.52,0,0,1-.48-.29.54.54,0,0,1,.22-.73,67.7,67.7,0,0,0,14.35-10.17c1-1,2-1.92,2.94-2.94a79.37,79.37,0,0,0,14-21.23,15.1,15.1,0,0,0,9.82,4.43h0a.55.55,0,0,0,0-1.09,14.07,14.07,0,0,1-9.19-4.24.46.46,0,0,0-.18-.13,113.77,113.77,0,0,0,7.95-26.55,134.18,134.18,0,0,0,2-25.08l3.84,5a.54.54,0,0,0,.43.21.51.51,0,0,0,.29-.08l6.75-4.1c2.7,4,8.14,13.29,8.14,22.29a3.19,3.19,0,0,1-.37,1.06,7.58,7.58,0,0,0-.74,5,33.37,33.37,0,0,0,7.85,16.39c1.06,1.28,1.83,2.2,1.83,2.88C271.3,154.16,269,155.5,268.11,155.5Z"/><path class="cls-1" d="M261.18,140.52l-.35-1.32a.54.54,0,0,0-1.05.28c.11.42.23.86.36,1.33a.53.53,0,0,0,.52.4l.14,0A.54.54,0,0,0,261.18,140.52Z"/><path class="cls-1" d="M257.65,134.38c-1.61-1.61-1.77-1.61-5.89-1.61-1.09,0-2.21.88-3.19,1.66a7.07,7.07,0,0,1-1.45,1,.54.54,0,0,0-.35.68.56.56,0,0,0,.52.38.51.51,0,0,0,.17,0,2.73,2.73,0,0,0,.52-.25,4.94,4.94,0,0,0,1.59,2,.57.57,0,0,0,.33.11.54.54,0,0,0,.32-1c-.33-.25-1.27-1.11-1.27-1.8v0l.29-.23a5.62,5.62,0,0,1,2.52-1.42c1.12,0,1.91,0,2.51,0h0a3.53,3.53,0,0,1,.63,2,3.07,3.07,0,0,1-.83,2.08h-.49a.54.54,0,1,0,0,1.08h1.66a7,7,0,0,1-.31,1.53.54.54,0,0,0,.34.68.57.57,0,0,0,.18,0A.54.54,0,0,0,256,141a8.34,8.34,0,0,0,.4-2.41.54.54,0,0,0-.54-.54h-.41a3.94,3.94,0,0,0,.58-2.08,4.68,4.68,0,0,0-.36-1.78,4.09,4.09,0,0,1,1.25,1l0,.05a.54.54,0,1,0,.77-.77Z"/><path class="cls-1" d="M261.76,142.5a.56.56,0,0,0-.68-.36.55.55,0,0,0-.36.68,24.46,24.46,0,0,0,3.13,7.2.55.55,0,0,0,.43.21.54.54,0,0,0,.33-.12.53.53,0,0,0,.09-.76A24.06,24.06,0,0,1,261.76,142.5Z"/><path class="cls-1" d="M260.13,136.33l0-.16a.54.54,0,0,0-1.06.23l0,.16a.54.54,0,0,0,.53.43h.12A.55.55,0,0,0,260.13,136.33Z"/><path class="cls-1" d="M59.46,135.76a.55.55,0,0,0-.65.41l0,.16a.55.55,0,0,0,.41.65h.12a.54.54,0,0,0,.53-.43l0-.16A.54.54,0,0,0,59.46,135.76Z"/><path class="cls-1" d="M66.69,130.11a.53.53,0,0,0,.65-.39.54.54,0,0,0-.39-.66,7.28,7.28,0,0,0-6.48,1.63.55.55,0,0,0,.39.93.52.52,0,0,0,.38-.16A6.21,6.21,0,0,1,66.69,130.11Z"/><path class="cls-1" d="M64,140.61a7,7,0,0,1-.31-1.53h1.66a.54.54,0,0,0,0-1.08h-.49a3.07,3.07,0,0,1-.83-2.08,3.53,3.53,0,0,1,.63-2h0c.6,0,1.39,0,2.51,0a5.62,5.62,0,0,1,2.52,1.42l.29.23v0c0,.69-.94,1.55-1.27,1.8a.54.54,0,0,0,.32,1,.57.57,0,0,0,.33-.11,4.94,4.94,0,0,0,1.59-2,2.73,2.73,0,0,0,.52.25.47.47,0,0,0,.17,0,.53.53,0,0,0,.51-.38.53.53,0,0,0-.34-.68,7.07,7.07,0,0,1-1.45-1c-1-.78-2.1-1.66-3.19-1.66-4.12,0-4.28,0-5.89,1.61l0,0a.54.54,0,1,0,.77.77l0-.05a4.09,4.09,0,0,1,1.25-1,4.49,4.49,0,0,0-.36,1.78A3.94,3.94,0,0,0,63.5,138h-.41a.54.54,0,0,0-.53.43.41.41,0,0,0,0,.11A8.34,8.34,0,0,0,63,141a.54.54,0,0,0,.51.37.57.57,0,0,0,.18,0A.54.54,0,0,0,64,140.61Z"/><path class="cls-1" d="M58.74,138.82a.53.53,0,0,0-.66.38l-.35,1.32a.54.54,0,0,0,.38.67l.14,0a.53.53,0,0,0,.52-.4c.13-.47.25-.91.36-1.33A.54.54,0,0,0,58.74,138.82Z"/><path class="cls-1" d="M57.83,142.14a.56.56,0,0,0-.68.36,24.06,24.06,0,0,1-2.94,6.85.53.53,0,0,0,.09.76.54.54,0,0,0,.33.12.55.55,0,0,0,.43-.21,24.46,24.46,0,0,0,3.13-7.2A.55.55,0,0,0,57.83,142.14Z"/><path class="cls-1" d="M254,164a31.26,31.26,0,0,1,6.84-1.51.67.67,0,0,0,.59-.56l.34-2a.67.67,0,0,0-.78-.77,17,17,0,0,0-7.56,3.86A.58.58,0,0,0,254,164Z"/><path class="cls-1" d="M104.76,72a58.17,58.17,0,0,1,5.18-6.34C117,58.12,129.58,49.16,149,49.16a.54.54,0,0,0,.54-.54.55.55,0,0,0-.54-.55c-19.81,0-32.6,9.15-39.85,16.82a60.48,60.48,0,0,0-5.28,6.47.54.54,0,0,0,.1.72A.53.53,0,0,0,104.76,72Z"/><path class="cls-1" d="M256.13,127.28c2.26,0,2.69,0,3-.25a.83.83,0,0,0,.11-.15,7.81,7.81,0,0,0,.68-2.36.63.63,0,0,0-.2-.46c-.55-.51-4.33-.54-11.24-.08a.67.67,0,0,0-.19,0,9.64,9.64,0,0,0-5,7.32.55.55,0,0,0,.36.59.57.57,0,0,0,.18,0,.54.54,0,0,0,.46-.26,11.06,11.06,0,0,1,4.94-4C250.69,127.16,254,127.23,256.13,127.28Z"/><path class="cls-1" d="M59.47,127c.28.29.71.3,3,.25s5.43-.12,6.89.46a11,11,0,0,1,4.93,4,.56.56,0,0,0,.47.26.57.57,0,0,0,.18,0,.54.54,0,0,0,.35-.59,9.59,9.59,0,0,0-5-7.32.59.59,0,0,0-.19,0c-6.91-.46-10.68-.43-11.23.08a.6.6,0,0,0-.21.46,7.76,7.76,0,0,0,.69,2.36A.53.53,0,0,0,59.47,127Zm10.46-2a8.48,8.48,0,0,1,3.62,4.12,13.08,13.08,0,0,0-3.82-2.45,15.73,15.73,0,0,0-5.07-.57c-.78,0-1.55,0-2.25,0s-1.77,0-2.16,0a8.32,8.32,0,0,1-.45-1.36A78.52,78.52,0,0,1,69.93,125.06Z"/><path class="cls-4" d="M99.85,180h29.52v12.19h-.05l-8.09-11.07h-1.82v31.29l2.43,2.94v.05H107.38v-.05l2.43-2.94V181.16H108L99.9,192.23h-.05Z"/><path class="cls-4" d="M130.49,180h15.67v.05l-2.58,2.79,9.35,19.76,5.67-12.08L153.29,180H169v.05l-2.58,2.79,9.36,19.76,5.81-12.38-5.21-10.17V180h11.38v.05l-16.69,35.35H171L159.3,192l-11.07,23.46h0L131.9,182.88l-1.41-2.79Z"/><path class="cls-4" d="M185.59,197.74c0-10.31,7.54-18.1,16.74-18.1s16.73,7.79,16.73,18.1-7.53,18.1-16.73,18.1S185.59,208.05,185.59,197.74Zm10.62,0c0,9.61,2.78,16.89,6.12,16.89s6.12-7.28,6.12-16.89-2.79-16.89-6.12-16.89S196.21,188.13,196.21,197.74Z"/><path class="cls-4" d="M78.69,256.79l2.43-2.93V224.43l-2.43-2.93v-.05H94.77a21.27,21.27,0,0,1,6.11.76c4.2,1.21,6.22,3.89,6.22,7.68,0,4-2.27,6.78-6.82,7.89,6.27,1,9.35,4.3,9.35,9.3a8.49,8.49,0,0,1-5.76,8.39,21.45,21.45,0,0,1-8.24,1.37H78.69Zm12.08-19.42c4.2,0,6.42-2.83,6.42-7.48A7.65,7.65,0,0,0,94.87,224a6.06,6.06,0,0,0-4.1-1.42h0v14.81Zm0,18.36a7,7,0,0,0,5.51-2.43,9.81,9.81,0,0,0,2-6.22c0-4.85-2.63-8.59-7.49-8.59h-.1v17.24Z"/><path class="cls-4" d="M109.07,256.79l6.42-7.08,8-24.67-1.26-3.54v-.05h10.21l12.95,35.29v.1H131.22v0L133.8,254l-3.49-9.61H118.48l-1.67,5.31,6.22,7.08v0h-14ZM130,243.29l-5.81-16.43-5.26,16.43Z"/><path class="cls-4" d="M148,256.79l2.43-3.09V224.58L148,221.5v-.05h14.87c8.84,0,13.24,3.79,13.24,10.06,0,7.48-5.25,10.21-15.77,10.21H160c0,1.62,1.66,2.63,3.53,2.63h12.39v12.44a16.67,16.67,0,0,1-10.82-4,16.08,16.08,0,0,1-5.1-7.73v8.75l2.42,2.93v0H148ZM160,240.56c3.48,0,5.41-4.75,5.41-9.05s-1.93-8.9-5.41-8.9h0v17.95Z"/><path class="cls-4" d="M180.82,256.79l2.42-2.93V224.43l-2.42-2.93v-.05h16.93c9.1,0,13.75,10,13.45,18.6-.3,9-4.8,16.79-13.45,16.79H180.82ZM193,255.68c5.36,0,8.19-7.18,8.39-15.58.2-7.83-2.68-17.24-8.44-17.24h-.05v32.82Z"/><path class="cls-4" d="M214,255.68V243.79l4.3.05,9.2,11.94a5.83,5.83,0,0,0,1.26.15,5.27,5.27,0,0,0,5.46-5.11c0-4.24-4.9-5.66-9.8-7.83s-9.46-5-9.46-12c0-5.46,4.85-9.81,12.64-9.81,1.62,0,4.55.31,11.48,1.12l.1,9.86h-6.62l-7.39-9.71h-.05a5,5,0,0,0-3.59,4.85c0,3.74,3.69,5.31,7.84,7.18,5.11,2.28,10.87,5,10.87,12.64,0,6-5.36,10-11.88,10A103.49,103.49,0,0,1,214,255.68Z"/></g></g></svg>