<?xml version="1.0" encoding="UTF-8"?>
<svg width="500px" height="500px" viewBox="0 0 500 500" version="1.1" xmlns="http://www.w3.org/2000/svg" xmlns:xlink="http://www.w3.org/1999/xlink">
    <!-- Generator: Sketch 57.1 (83088) - https://sketch.com -->
    <title>transcend</title>
    <desc>Created with Sketch.</desc>
    <g id="transcend" stroke="none" stroke-width="1" fill="none" fill-rule="evenodd">
        <path d="M219.997282,492 C216.138087,492 213,488.858696 213,484.998188 C213,481.139493 216.138087,478 219.997282,478 C223.856477,478 227,481.139493 227,484.998188 C227,488.858696 223.856477,492 219.997282,492 M219.497035,471 C211.502419,471 205,477.278198 205,484.997138 C205,492.717985 211.502419,499 219.497035,499 C227.491651,499 234,492.717985 234,484.997138 C234,477.278198 227.491651,471 219.497035,471 M369,379.999094 C369,376.138087 372.138087,373 375.997282,373 C379.856477,373 383,376.138087 383,379.999094 C383,383.856477 379.856477,387 375.997282,387 C372.138087,387 369,383.856477 369,379.999094 M391,379.999046 C391,372.278198 384.494071,366 376.498024,366 C368.501976,366 362,372.278198 362,379.999046 C362,387.716077 368.501976,394 376.498024,394 C384.494071,394 391,387.716077 391,379.999046 M401,149.997282 C401,146.138087 404.138087,143 407.997282,143 C411.856477,143 415,146.138087 415,149.997282 C415,153.856477 411.856477,157 407.997282,157 C404.138087,157 401,153.856477 401,149.997282 M423,149.998092 C423,142.279678 416.494071,136 408.498024,136 C400.503953,136 394,142.279678 394,149.998092 C394,157.718414 400.503953,164 408.498024,164 C416.494071,164 423,157.718414 423,149.998092 M419.002718,69 C422.861913,69 426,72.1380872 426,75.9990941 C426,79.8582891 422.861913,83 419.002718,83 C415.141711,83 412,79.8582891 412,75.9990941 C412,72.1380872 415.141711,69 419.002718,69 M419.501976,90 C427.496047,90 434,83.7165054 434,75.9980919 C434,68.2777702 427.496047,62 419.501976,62 C411.505929,62 405,68.2777702 405,75.9980919 C405,83.7165054 411.505929,90 419.501976,90 M469.185959,273.68048 C465.559404,267.275493 463.805517,259.930622 464.017097,252.562781 C464.020809,252.375188 464.035656,252.187594 464.039368,252 C470.564941,255.418801 476.067876,260.740338 479.783518,267.300378 C483.502872,273.871902 485.290166,281.438822 484.96166,289 C478.415672,285.577371 472.905312,280.252005 469.185959,273.68048 M412.425722,413.308748 C411.101226,420.301248 407.545586,426.805112 402.277168,432 C399.214271,425.51397 398.256377,418.307467 399.580873,411.320316 C400.562419,406.132562 402.785679,401.214093 406.01808,396.900178 C407.334691,395.623302 408.592174,394.303626 409.869366,393 C412.798236,399.391513 413.724595,406.453564 412.425722,413.308748 M422,333 C423.164141,325.541985 426.515929,318.494275 431.66276,312.816794 C436.813498,307.135496 443.561999,303.03626 451,301 C449.833906,308.456107 446.482118,315.503817 441.335287,321.181298 C436.186502,326.862595 429.438001,330.961832 422,333 M215,433.011285 C222.301642,432.826293 229.520415,434.918889 235.76318,439.052362 C241.910186,443.120193 246.839945,449.04391 250,456 C248.125329,455.984087 246.252499,455.960217 244.375987,455.884629 L244.374145,455.916455 C239.100021,455.168531 233.973219,453.292754 229.393349,450.257297 C223.150584,446.123824 218.149006,440.100649 215,433.011285 M332,424.305998 C337.63299,419.077902 344.621614,415.629201 352.07286,414.456282 C359.526002,413.263347 367.174431,414.432263 374,417.69682 C368.370802,422.920913 361.382178,426.373618 353.925244,427.546536 C346.473998,428.731465 338.831257,427.574558 332,424.305998 M277.004683,478.880033 C271.321705,483.851923 264.338797,487.013744 257,488 C259.148443,480.684301 263.316085,474.093791 268.995317,469.123835 C274.678295,464.15001 281.65933,460.990124 289,460 C286.85343,467.315699 282.683915,473.906209 277.004683,478.880033 M433.374248,202 C429.029971,195.663421 426.791241,188.293256 427.015325,180.838678 C427.235182,173.3841 429.913624,166.126485 434.627853,160 C438.97213,166.338455 441.208746,173.710496 440.984662,181.16695 C440.764805,188.621527 438.088477,195.873515 433.374248,202 M436.56266,115.235547 C443.486908,117.723404 449.556494,122.187839 454,128.002719 C446.872261,129.660673 439.354188,129.253131 432.43549,126.767126 C425.511242,124.282974 419.441656,119.818539 415,114.00366 C422.127739,112.336443 429.640262,112.745838 436.56266,115.235547 M485.770736,265.157783 C480.769466,256.645806 473.040056,249.994413 463.915297,246.201687 C463.128516,210.884519 453.383811,176.151137 434.956081,144.80183 C432.713282,140.986506 430.324502,137.286057 427.869367,133.640219 C428.470354,133.885033 429.061861,134.152444 429.674223,134.372776 C434.643264,136.141083 439.864455,137.024295 445.091332,137.024295 C450.261334,137.024295 455.431337,136.159915 460.352981,134.429272 L464.156071,133.092214 L462.076315,129.657292 C456.661748,120.719717 448.238455,113.855524 438.347769,110.333977 C428.967068,106.995098 418.693419,106.846326 409.200863,109.814219 C401.554872,101.386986 393.235851,93.5755529 384.258968,86.4477145 C388.769212,71.5310414 393.582793,55.3564036 393.662419,55.0984079 L387.343528,53.2397087 C387.218401,53.6615411 374.84983,95.2327518 371.215472,106.416961 C369.586931,111.428105 371.956752,121.239475 376.637623,139.594836 C382.666448,163.194855 390.915322,195.519649 386.139658,216.665883 C382.83518,231.277481 374.578722,240.115248 368.182101,245.000218 C371.960544,236.565452 374.400512,229.673011 374.555972,229.228581 L368.337561,227.076105 C368.282581,227.238059 362.51728,243.542636 355.04002,256.493269 C351.259681,263.033555 344.203301,266.980701 338.601044,269.219803 C338.606731,269.208504 338.614315,269.197205 338.620002,269.185906 L353.475938,238.062581 L347.524843,235.258525 L332.668907,266.385616 C330.046937,271.878854 325.84003,276.362707 320.516464,279.353198 L314.472472,282.741039 L330.894385,241.533282 L324.772663,239.120928 L307.594302,282.226931 L256.097138,336.503961 C255.51511,335.967254 254.857248,335.215865 254.261949,334.257327 C253.516877,333.042675 252.367988,330.632204 253.037225,328.103092 C254.536848,322.42342 278.710921,293.042037 293.59719,275.859898 L294.201968,275.161238 L309.583056,181.028575 L303.084059,179.981526 L300.164439,197.849143 C291.907981,210.46457 282.98987,218.436073 282.900765,218.515167 L282.142422,219.183696 L281.897856,220.155417 C280.229502,226.684404 274.348554,244.529423 267.231507,248.698784 C266.014366,249.410627 264.924249,249.598945 264.036987,249.382379 L262.484281,248.856972 L286.847939,153.046395 C287.174026,151.760182 287.672637,150.541765 288.322916,149.425039 C291.843522,143.444057 301.009991,128.615893 310.140438,120.186777 L310.900677,119.484351 L311.118701,118.4712 C311.848606,115.081475 329.013695,35.1687081 332.356091,10.8850949 L325.830551,10 C322.71945,32.6000498 306.917481,106.650475 304.894602,116.117224 C295.384983,125.222402 286.207139,140.058098 282.635345,146.133239 C281.670354,147.777256 280.936657,149.56816 280.460797,151.445691 L254.614578,253.097894 L262.137339,255.642071 C263.013225,255.86617 263.900486,255.981044 264.787747,255.981044 C266.746167,255.981044 268.714067,255.427389 270.57959,254.333261 C280.508193,248.51235 286.616644,227.917887 288.029058,222.718426 C289.587452,221.26461 293.362104,217.582992 297.830639,212.129301 L288.002516,272.293154 C280.212439,281.302289 248.932695,317.869889 246.66525,326.442127 C245.709738,330.052184 246.413101,334.040761 248.64642,337.662117 C250.566923,340.79008 253.332979,343.140289 255.865844,343.799402 L257.756013,344.292796 L303.874631,295.689789 L304.096446,296.077724 L323.756483,285.049819 C327.134901,283.14969 330.120875,280.744868 332.680282,277.946462 C337.12038,276.942726 353.390624,272.485238 360.750341,259.745522 C361.489726,258.468725 362.202568,257.158032 362.902139,255.845455 C366.657832,254.17884 386.661019,244.1961 392.560926,218.097101 C397.683532,195.431139 389.212843,162.2269 383.02287,137.982833 C379.746829,125.148958 376.358932,111.880068 377.483175,108.426315 C378.516417,105.251272 380.251127,99.6299784 382.198172,93.2309309 C401.018344,108.578852 416.867709,126.986942 429.272301,148.097396 C430.163354,149.613357 430.972885,151.159448 431.824125,152.692357 C425.425608,160.460477 421.73627,170.179571 421.468954,180.228223 C421.190263,190.651627 424.576264,200.941326 430.999427,209.195306 L433.467833,212.360933 L436.101178,209.325246 C441.803916,202.749179 445.447753,194.645853 446.683852,186.107512 C458.572772,221.053694 460.652527,258.510155 452.490862,295.151199 C442.433341,296.964702 433.196725,302.092603 426.417141,309.693119 C419.45745,317.502669 415.394628,327.543788 414.973748,337.969075 L414.810704,341.970834 L418.790108,341.330553 C427.002961,340.001027 434.675494,336.417335 440.979219,331.118065 C432.97491,349.940454 422.265214,367.310912 409.17053,382.768058 C406.442391,385.15593 404.036549,387.856411 401.973856,390.78664 C394.811308,398.383391 387.021232,405.432135 378.681357,411.914043 C369.791683,406.86147 359.377741,404.889779 349.240593,406.377492 C338.856985,407.919817 329.244989,413.015704 322.175339,420.732977 L319.460471,423.697104 L322.924202,425.746004 C330.020395,429.937964 338.140351,432.128103 346.332349,432.128103 C346.65654,432.128103 346.980732,432.101738 347.304923,432.092323 C319.422554,446.67379 288.715358,454.709321 257.3958,455.536037 C253.729213,446.62671 247.294674,439.018661 239.017362,433.977386 C230.070813,428.525579 219.425576,426.29401 208.994571,427.69133 L205,428.228036 L206.328996,432.009463 C209.788935,441.858497 216.621604,450.291379 225.577632,455.743187 C232.787576,460.132881 241.100909,462.436011 249.499556,462.436011 C251.444705,462.436011 253.397438,462.294772 255.338795,462.044309 C258.817693,461.985931 262.294695,461.929435 265.75653,461.70157 C264.876852,462.338085 264.006654,462.989666 263.170581,463.692092 C255.162481,470.437645 249.696725,479.802702 247.785701,490.060386 L247.052004,494 L251.080701,493.926556 C261.579957,493.734472 271.775876,489.919148 279.791559,483.175478 C287.574052,476.620127 292.926057,467.58651 294.97927,457.671564 C317.225256,453.046473 338.720483,444.901717 358.636461,433.350287 C371.765271,425.736588 383.843776,416.851742 394.826475,406.923614 C394.661536,407.656172 394.473846,408.386846 394.344928,409.134468 C392.570405,419.416634 394.443512,430.081086 399.621098,439.159899 L401.60606,442.640017 L404.647015,440.011097 C412.567905,433.161969 417.906639,423.727235 419.681161,413.446952 C421.326765,403.918058 419.798704,394.076557 415.447712,385.455356 C434.794933,362.184894 449.011965,334.835463 456.961293,304.776135 C459.490366,295.211461 461.295222,285.577109 462.46307,275.929575 C462.828971,276.632002 463.174017,277.343844 463.577834,278.027438 C468.863483,287.034691 477.197671,294.006225 487.040961,297.657712 L490.817508,299.064448 L491.446932,295.107886 C493.081161,284.797472 491.065865,274.161269 485.770736,265.157783 M280.000906,8 C283.859102,8 287,11.1394928 287,14.9981884 C287,18.8568841 283.859102,22 280.000906,22 C276.140898,22 273,18.8568841 273,14.9981884 C273,11.1394928 276.140898,8 280.000906,8 M280.5,29 C288.492982,29 295,22.7194656 295,14.9980916 C295,7.27862595 288.492982,1 280.5,1 C272.505042,1 266,7.27862595 266,14.9980916 C266,22.7194656 272.505042,29 280.5,29 M131,119.998188 C131,123.857882 127.859102,127 123.999094,127 C120.142709,127 117,123.857882 117,119.998188 C117,116.138493 120.142709,113 123.999094,113 C127.859102,113 131,116.138493 131,119.998188 M109,119.998092 C109,127.718414 115.505042,134 123.498024,134 C131.492982,134 138,127.718414 138,119.998092 C138,112.279678 131.492982,106 123.498024,106 C115.505042,106 109,112.279678 109,119.998092 M99,349.996377 C99,353.856884 95.8591021,357 91.9990943,357 C88.1427093,357 85,353.856884 85,349.996377 C85,346.139493 88.1427093,343 91.9990943,343 C95.8591021,343 99,346.139493 99,349.996377 M77,349.996184 C77,357.716505 83.5054855,364 91.4990119,364 C99.4945145,364 106,357.716505 106,349.996184 C106,342.27777 99.4945145,336 91.4990119,336 C83.5054855,336 77,342.27777 77,349.996184 M81.0027177,431 C77.1417109,431 74,427.858289 74,423.999094 C74,420.139899 77.1417109,417 81.0027177,417 C84.8601009,417 88,420.139899 88,423.999094 C88,427.858289 84.8601009,431 81.0027177,431 M80.5039526,410 C72.5079051,410 66,416.279678 66,423.998092 C66,431.718414 72.5079051,438 80.5039526,438 C88.4980237,438 95,431.718414 95,423.998092 C95,416.279678 88.4980237,410 80.5039526,410 M63.4373399,384.765192 C56.5167916,382.280962 50.450906,377.816389 46,372.003181 C53.1277393,370.33406 60.636562,370.749025 67.56451,373.238812 C74.4887582,375.721189 80.5527939,380.187615 85,386.000823 C77.8759605,387.664386 70.3541884,387.249422 63.4373399,384.765192 M20.2176426,232.704242 C16.4984996,226.127315 14.7113067,218.556958 15.037938,211 C21.5816995,214.424366 27.0954589,219.747543 30.8183137,226.318727 C34.4409519,232.725297 36.1928836,240.071702 35.9831714,247.437248 C35.9794597,247.626746 35.9646128,247.810502 35.9609011,248 C29.4301305,244.575634 23.931218,239.262028 20.2176426,232.704242 M87.573523,86.6886145 C88.8980785,79.7 92.4538792,73.1946502 97.7284482,68 C100.78557,74.4857339 101.743507,81.6919067 100.418951,88.678738 C99.4413034,93.8662551 97.2179425,98.782716 93.9853964,103.098217 C92.6687252,104.375034 91.4092149,105.69465 90.131965,107 C87.2049339,100.608779 86.2745914,93.5452675 87.573523,86.6886145 M78,167 C76.8357023,174.455662 73.4815089,181.502952 68.335938,187.182003 C63.1884136,192.859145 56.435096,196.969587 49,199 C50.1623442,191.544338 53.514584,184.500865 58.6660155,178.819906 C63.8115864,173.138947 70.560997,169.036138 78,167 M285,66.996996 C277.599695,67.0885224 270.479272,65.0888701 264.239005,60.952276 C258.088963,56.8793524 253.159722,50.9560043 250,44 C251.874474,44.0159176 253.748948,44.0378044 255.627104,44.1134131 L255.628946,44.0915264 C260.931976,44.8416447 266.012205,46.6940589 270.6008,49.742285 C276.842908,53.8768895 281.847643,59.9037021 285,66.996996 M168,75.6887696 C162.367518,80.9190222 155.377629,84.3691467 147.923264,85.5425495 C140.476483,86.7339738 132.832536,85.5785926 126,82.3046787 C131.632482,77.0764285 138.620475,73.6243016 146.076736,72.4508988 C153.527309,71.2734912 161.165568,72.4188605 168,75.6887696 M222.997659,21.1231609 C228.676226,16.1486496 235.656444,12.9883263 243,12 C240.853681,19.3128411 236.686527,25.9023278 231.002341,30.8768391 C225.323774,35.8494163 218.343556,39.0116737 211,40 C213.146319,32.6871589 217.313473,26.0957381 222.997659,21.1231609 M66.6277896,298 C70.9727829,304.340614 73.2086792,311.71486 72.9846669,319.167895 C72.7648813,326.62093 70.0873003,333.875117 65.370362,340 C61.027482,333.663138 58.7894724,326.290768 59.015598,318.833981 C59.2353836,311.37907 61.9108513,304.121131 66.6277896,298 M219.539039,348.555091 L245.384665,246.894564 L237.856389,244.361667 C235.058169,243.629104 232.129137,244.084837 229.416228,245.668604 C219.491644,251.485794 213.383333,272.080417 211.972848,277.283685 C210.410697,278.737512 206.636133,282.419159 202.1677,287.865359 L211.993702,227.706688 C219.787391,218.691833 251.06073,182.133364 253.333811,173.55541 C254.289301,169.945325 253.585954,165.958601 251.352686,162.329684 C249.426539,159.209229 246.662443,156.859002 244.129636,156.198 L242.23951,155.70272 L196.121951,204.309871 L195.900141,203.918167 L176.244346,214.951807 C172.866007,216.850068 169.8801,219.256792 167.318856,222.051453 C162.876965,223.057079 146.610886,227.514603 139.251338,240.252535 C138.51197,241.533108 137.797249,242.841928 137.097693,244.156399 C133.347774,245.81926 113.341254,255.802078 107.441483,281.905046 C102.313307,304.571184 110.789489,337.775682 116.975529,362.023703 C120.251495,374.855795 123.637418,388.122906 122.515096,391.572919 C121.481878,394.74987 119.747208,400.371207 117.798312,406.774071 C98.9861546,391.427913 83.1390495,373.017797 70.7271585,351.901529 C69.838022,350.385557 69.0266138,348.839454 68.1772893,347.308416 C74.5775557,339.542119 78.2668088,329.821065 78.5341185,319.774219 C78.8128031,309.3545 75.4268802,299.064721 69.003864,290.805027 L66.5393065,287.63561 L63.9022299,290.67132 C58.1939354,297.245555 54.5520777,305.348944 53.3160073,313.891117 C41.4273608,278.944664 39.3476534,241.491677 47.5091305,204.854115 C57.5664212,203.038714 66.8047204,197.912657 73.5822536,190.304548 C80.541785,182.494938 84.6045133,172.451858 85.0253839,162.028372 L85.1884239,158.024699 L81.2091113,158.668752 C72.9945514,159.996405 65.3221942,163.580125 59.0186143,168.883203 C67.0265305,150.056901 77.735981,132.682542 90.8341565,117.227158 C93.5660238,114.835501 95.9774985,112.129349 98.0420394,109.191565 C105.206319,101.600405 112.996216,94.551605 121.3359,88.0715303 C128.266994,92.0130579 136.117558,94.1090541 144.057225,94.1090541 C146.290493,94.1090541 148.53324,93.9470993 150.75703,93.6194234 C161.146088,92.0770865 170.755966,86.9792771 177.825455,79.2657095 L180.54026,76.2996771 L177.074713,74.2526439 C169.692415,69.8911638 161.193483,67.7386716 152.660426,67.9232248 C180.547843,53.3359947 211.252439,45.3135831 242.601611,44.4680285 C246.268114,53.3736586 252.702505,60.9780009 260.981523,66.0230808 C268.18751,70.414692 276.500652,72.7140734 284.899106,72.7140734 C286.935209,72.7140734 288.975105,72.5784833 291.003625,72.30542 L295,71.7687094 L293.669139,67.9872534 C290.205488,58.1381425 283.367288,49.7089607 274.420944,44.2552274 C265.692619,38.9370842 255.343373,36.7243298 245.170438,37.90321 C241.500143,37.9634722 237.837431,38.0952959 234.184199,38.3401113 C235.086606,37.6904089 235.975742,37.0218746 236.826963,36.3043773 C244.840566,29.558772 250.302405,20.1936423 252.209593,9.93964437 L252.943273,6 L248.912774,6.07344461 C238.409967,6.26553052 228.216178,10.080884 220.202574,16.824606 C212.418364,23.3800086 207.068378,32.4174624 205.0209,42.3287187 C182.769736,46.9481966 161.275003,55.0986654 141.361378,66.6501848 C128.232869,74.263943 116.154642,83.1526244 105.172194,93.0808295 C105.33713,92.3445002 105.524815,91.6119373 105.653731,90.8643088 C107.428212,80.5839461 105.555148,69.9250613 100.381473,60.8405276 L98.3946607,57.3547333 L95.3556717,59.985557 C87.4330671,66.8385043 82.0925604,76.2714291 80.318079,86.5555581 C78.6763045,96.0882923 80.2043302,105.931754 84.5533264,114.545489 C65.2065496,137.816132 50.9898441,165.162009 43.0369065,195.223454 C40.5097871,204.782553 38.7049726,214.415097 37.5371515,224.060823 C37.1750511,223.360274 36.8281173,222.652193 36.4262048,221.970476 C31.1311977,212.965036 22.7972015,205.993448 12.9598253,202.338166 L9.18336477,200.933302 L8.55205887,204.889895 C6.91976345,215.19474 8.9350132,225.829143 14.2281245,234.843998 C19.2292805,243.346625 26.9566164,249.999953 36.0830626,253.796475 C36.8698252,289.113918 46.6162024,323.849453 65.0435096,355.197121 C67.286257,359.016241 69.6787736,362.716719 72.1357479,366.366352 C71.5309834,366.121536 70.9394896,365.850356 70.3233502,365.630022 C60.4423702,362.117863 49.5452342,362.087732 39.6471919,365.57541 L35.84419,366.912478 L37.9238975,370.345543 C43.3459241,379.283187 51.7709193,386.149317 61.6518993,389.665243 C66.6208264,391.43168 71.8418968,392.318665 77.0667588,392.318665 C81.7096061,392.318665 86.3391827,391.580452 90.8000319,390.186888 C98.4458477,398.617953 106.766573,406.427563 115.741354,413.55734 C111.229318,428.472246 106.419639,444.64701 106.340015,444.906891 L112.658762,446.763721 C112.783885,446.341886 125.146485,404.766585 128.782655,393.584172 C130.411159,388.576756 128.041392,378.765309 123.358733,360.415455 C117.335733,336.80772 109.083257,304.482674 113.864499,283.336275 C117.167006,268.724563 125.421378,259.888611 131.817853,255.00172 C128.039496,263.436551 125.60148,270.330929 125.447919,270.77348 L131.662396,272.927855 C131.723062,272.7659 137.480648,256.459313 144.961528,243.504813 C148.74178,236.964476 155.796102,233.017299 161.398231,230.780063 C161.392543,230.791362 161.386856,230.798895 161.381169,230.810194 L146.525574,261.937528 L152.476533,264.737839 L167.332127,233.614272 C169.950246,228.124758 174.151368,223.64087 179.484292,220.650356 L185.526249,217.258721 L169.106609,258.470565 L175.22819,260.881055 L192.406157,217.770951 L243.898347,163.491615 C244.480362,164.028326 245.140105,164.783487 245.731599,165.743917 C246.478549,166.954811 247.631204,169.369067 246.961982,171.894432 C245.458602,177.579798 221.283188,206.953877 206.399156,224.138034 L205.794391,224.834816 L190.417448,318.975744 L196.916297,320.020917 L199.83585,302.147512 C208.092117,289.530104 217.006233,281.566071 217.099127,281.486977 L217.857453,280.818443 L218.105804,279.842948 C219.770329,273.31956 225.64735,255.466869 232.764234,251.297475 C233.973763,250.58751 235.04869,250.378476 235.962472,250.621408 L237.513247,251.144936 L213.155835,346.944959 C212.820276,348.24813 212.319782,349.470324 211.671413,350.577643 C208.152783,356.560554 198.990317,371.388833 189.860079,379.816132 L189.101754,380.52233 L188.881839,381.531723 C188.153847,384.921474 170.983464,464.836746 167.644936,489.113015 L174.168431,490 C177.277565,467.399774 193.07917,393.354422 195.107691,383.885717 C204.611404,374.780468 213.789037,359.946539 217.356958,353.873235 C218.31624,352.238621 219.049919,350.453352 219.539039,348.555091" id="Fill-1" fill="#8CEAA0"></path>
    </g>
</svg>