<?xml version="1.0" encoding="UTF-8"?>
<svg width="417px" height="416px" viewBox="0 0 417 416" version="1.1" xmlns="http://www.w3.org/2000/svg" xmlns:xlink="http://www.w3.org/1999/xlink">
    <!-- Generator: Sketch 56.3 (81716) - https://sketch.com -->
    <title>transcend-logo</title>
    <desc>Created with Sketch.</desc>
    <g id="Page-1" stroke="none" stroke-width="1" fill="none" fill-rule="evenodd">
        <g id="transcend-logo">
            <path d="M162.880555,151.780336 C162.880555,153.393679 162.96701,154.994131 163.130975,156.577725 C163.195568,157.213345 163.274072,157.846981 163.365496,158.47665 C163.701376,160.783126 161.750684,162.728656 159.439268,162.392502 C158.817193,162.302266 158.194124,162.224921 157.570061,162.160466 C153.405338,161.728126 149.193909,161.859018 145.057011,162.551159 C143.395494,162.8298 142.169231,164.259696 142.169231,165.940468 L142.169231,168.241985 C142.169231,169.629241 142.276554,170.9927 142.481262,172.324426 C142.772425,174.218393 144.565114,175.551112 146.452208,175.191159 C148.508236,174.801458 150.615937,174.600162 152.755438,174.600162 C156.089403,174.600162 159.348838,175.084065 162.453251,176.017166 C167.663379,177.583904 172.437258,180.417913 176.39628,184.362521 C176.401248,184.367479 176.406217,184.373429 176.411185,184.379379 C176.417148,184.384337 176.422117,184.389295 176.428079,184.394253 C178.845824,186.804846 181.491134,188.904076 184.305378,190.695908 C186.290851,191.960205 188.362778,193.064854 190.506254,194.003905 C190.542029,194.020762 190.577803,194.035636 190.613577,194.051502 C193.415896,195.271177 196.318582,192.379655 195.102257,189.582334 C195.085363,189.544653 195.070457,189.507964 195.053564,189.471275 C194.120451,187.340314 193.019398,185.267857 191.748417,183.271755 C189.971628,180.480384 187.875851,177.83478 185.439224,175.400388 C185.433262,175.39543 185.428293,175.390471 185.424318,175.384522 C185.418356,175.379564 185.413387,175.374606 185.408419,175.369648 C181.454366,171.420082 178.616273,166.656407 177.046179,161.457418 C176.110085,158.359641 175.625145,155.106182 175.625145,151.780336 C175.625145,148.537785 176.090211,145.369604 176.979599,142.343223 C177.580806,140.294566 178.380759,138.313337 179.366539,136.421353 C180.929677,133.416787 182.956886,130.636325 185.424318,128.174167 L187.642324,125.959911 L192.43906,121.174422 L206.656357,106.986525 C207.993918,105.650832 210.165219,105.650832 211.504767,106.986525 L224.028749,119.485717 C225.016516,120.470381 226.509099,120.773813 227.786042,120.213556 C229.632393,119.403414 231.533399,118.696399 233.482104,118.099452 C235.974379,117.335915 236.7952,114.23913 234.950837,112.39871 L211.504767,89.0017698 C210.165219,87.6660767 207.993918,87.6660767 206.656357,89.0017698 L178.914392,116.68443 L176.411185,119.181294 C175.3946,120.196698 174.43565,121.254742 173.526387,122.344517 C170.365331,126.132451 167.871068,130.351734 166.091298,134.858582 C165.276439,136.922114 164.611633,139.045142 164.103837,141.216759 C163.302891,144.640774 162.880555,148.176841 162.880555,151.780336 L162.880555,151.780336 Z M224.519857,128.87615 C220.112987,131.603661 216.198088,135.046226 212.942133,139.045386 C212.539611,139.538596 212.148022,140.039729 211.767365,140.549775 C210.370962,142.418625 207.608966,142.418625 206.211568,140.549775 C205.830912,140.039729 205.439323,139.538596 205.037795,139.045386 C202.392082,135.796935 199.312044,132.914926 195.887129,130.48552 C194.523524,129.516927 192.651051,129.68133 191.467339,130.860875 L189.836379,132.487081 C188.8584,133.460626 187.965895,134.496565 187.159857,135.584994 C186.017887,137.128998 186.331954,139.345472 187.923158,140.423997 C192.393636,143.454564 196.091869,147.533945 198.660058,152.304612 C201.179547,156.984164 202.612724,162.327271 202.615706,167.999185 L202.615706,168.015031 L202.615706,168.028896 C202.6167,171.474433 203.012264,174.826874 203.73581,178.058488 C204.253622,180.363106 204.943376,182.602358 205.793144,184.76337 C205.803083,184.786149 205.812028,184.808928 205.820973,184.831707 C206.940083,187.661226 211.03885,187.661226 212.157961,184.831707 C212.166905,184.808928 212.174857,184.786149 212.184795,184.76337 C213.035558,182.602358 213.725311,180.363106 214.24213,178.058488 C214.966669,174.826874 215.36124,171.474433 215.362234,168.028896 C215.362234,168.023945 215.363228,168.018002 215.363228,168.014041 C215.363228,168.009089 215.362234,168.004137 215.362234,167.999185 C215.365216,162.327271 216.80038,156.984164 219.318876,152.304612 C222.398914,146.584169 227.103948,141.856088 232.816778,138.742329 C234.677324,137.728179 236.645209,136.887345 238.698568,136.235674 C241.894891,135.222514 245.294959,134.671862 248.822244,134.671862 L251.961915,134.671862 L258.745155,134.671862 L278.854356,134.671862 C280.7477,134.671862 282.283247,136.201011 282.283247,138.088678 L282.283247,155.714495 C282.283247,157.10499 283.122083,158.371688 284.42208,158.875792 C286.30946,159.607684 288.154104,160.450498 289.945078,161.399284 C292.250883,162.619433 295.030769,161.011054 295.030769,158.410313 L295.030769,125.387037 C295.030769,123.49937 293.495223,121.969231 291.600885,121.969231 L252.362449,121.969231 L248.822244,121.969231 C247.379128,121.969231 245.953902,122.04549 244.544578,122.17424 C239.571196,122.631796 234.825413,123.876705 230.430469,125.78517 C228.379098,126.675523 226.40525,127.709481 224.519857,128.87615 L224.519857,128.87615 Z M291.214801,229.431866 C290.324441,227.379482 289.290475,225.405615 288.123797,223.521199 C285.396266,219.113295 281.952684,215.199354 277.954484,211.941381 C277.46127,211.53985 276.960133,211.148257 276.451073,210.768591 C274.581219,209.371181 274.581219,206.609159 276.451073,205.212743 C276.960133,204.831089 277.46127,204.439496 277.954484,204.037965 C281.20395,201.392228 284.085981,198.312162 286.515405,194.886221 C287.482025,193.522604 287.318611,191.651108 286.139058,190.467384 L284.512839,188.83641 C283.539287,187.858422 282.50334,186.964914 281.413912,186.159863 C279.870886,185.017883 277.655386,185.331952 276.575862,186.923171 C273.546263,191.39369 269.465861,195.091957 264.696148,197.660169 C260.01557,200.179682 254.673412,201.613866 249.001455,201.616847 C248.995512,201.616847 248.99056,201.615853 248.984618,201.615853 C248.979666,201.615853 248.975705,201.616847 248.970753,201.616847 C245.531132,201.617841 242.183617,202.010428 238.957921,202.732986 C236.653286,203.248815 234.413026,203.938575 232.251998,204.788352 C232.225257,204.799285 232.197526,204.809223 232.169795,204.820156 C229.338273,205.939277 229.338273,210.039075 232.169795,211.158196 C232.196536,211.169128 232.225257,211.181055 232.251998,211.190994 C234.413026,212.04077 236.652295,212.73053 238.957921,213.247353 C242.183617,213.968918 245.531132,214.362499 248.970753,214.363492 L248.985608,214.363492 L249.001455,214.363492 C254.673412,214.366474 260.01557,215.799664 264.696148,218.319176 C270.420595,221.402225 275.149702,226.110284 278.264476,231.829129 C279.277643,233.689692 280.117493,235.657595 280.767188,237.708985 C281.779366,240.902355 282.328041,244.299473 282.328041,247.823808 L282.328041,250.962514 L282.328041,257.774639 L282.328041,277.855202 C282.328041,279.749557 280.79789,281.284124 278.911199,281.284124 L261.257517,281.284124 C259.867011,281.284124 258.599313,282.124956 258.096196,283.425958 C257.36727,285.305405 256.52742,287.150066 255.575656,288.951989 C254.357478,291.255827 255.96686,294.030769 258.56564,294.030769 L291.612937,294.030769 C293.500618,294.030769 295.030769,292.496202 295.030769,290.602841 L295.030769,251.377961 L295.030769,247.823808 C295.030769,246.380679 294.954509,244.95544 294.825759,243.54511 C294.368199,238.571682 293.12328,233.825855 291.214801,229.431866 L291.214801,229.431866 Z M300.310899,177.912596 L297.813628,175.411364 C296.796075,174.389804 295.735876,173.435818 294.648899,172.530525 C290.815718,169.339641 286.586822,166.868221 282.134779,165.114278 C280.056034,164.296434 277.930677,163.633612 275.774575,163.128795 C270.733422,161.948237 265.533585,161.624279 260.404165,162.158909 C259.771417,162.223502 259.140653,162.303001 258.510881,162.395418 C256.203038,162.734282 254.253224,160.781592 254.591416,158.46917 C254.685634,157.824235 254.765968,157.178307 254.832416,156.530392 C255.259868,152.377572 255.126971,148.17904 254.437693,144.056032 C254.158014,142.393513 252.727886,141.169231 251.04684,141.169231 L248.744948,141.169231 C247.355482,141.169231 245.989818,141.27556 244.655891,141.481264 C242.759632,141.773422 241.417771,143.567114 241.775799,145.455211 C242.782443,150.75679 242.503756,156.256121 240.944698,161.449382 C239.410434,166.556188 236.637453,171.365867 232.621787,175.395464 C232.616828,175.400433 232.610877,175.405401 232.604927,175.411364 C232.599968,175.416333 232.595009,175.421301 232.59005,175.42627 C230.158237,177.864896 228.066599,180.516182 226.294311,183.313547 C225.024849,185.313937 223.925971,187.390844 222.994701,189.526381 C222.978833,189.563149 222.961973,189.600911 222.946105,189.638673 C221.73119,192.441007 224.629134,195.338739 227.424926,194.117438 C227.460629,194.101539 227.497325,194.085639 227.53402,194.069739 C229.673262,193.127678 231.741097,192.02165 233.722648,190.753644 C236.534309,188.956971 239.177369,186.850252 241.592322,184.4315 L241.601248,184.422556 C241.604223,184.420569 241.606207,184.417587 241.60819,184.414606 C245.560383,180.458546 250.327809,177.615469 255.529628,176.045367 C258.628901,175.110262 261.881898,174.624325 265.209277,174.624325 C268.451365,174.624325 271.621053,175.089394 274.647927,175.978787 C276.696918,176.579997 278.67847,177.379954 280.571753,178.364745 C283.574825,179.928885 286.356732,181.957099 288.819291,184.42355 L291.033907,186.641567 L295.820176,191.439321 L310.010383,205.6557 C311.345302,206.994261 311.345302,209.164579 310.010383,210.504134 L297.509156,223.029175 C296.524331,224.015954 296.219858,225.509538 296.78219,226.786488 C297.592464,228.631855 298.299594,230.532871 298.896638,232.481586 C299.659307,234.974868 302.757589,235.794699 304.598309,233.95132 L327.998067,210.504134 C329.333978,209.164579 329.333978,206.994261 327.998067,205.6557 L300.310899,177.912596 Z M254.846995,259.436097 C254.781409,258.78939 254.699922,258.144666 254.605517,257.500934 C254.266652,255.191831 256.220341,253.244765 258.53277,253.581013 C259.163794,253.67425 259.796805,253.752609 260.429816,253.819065 C262.031722,253.984709 263.638596,254.074971 265.245471,254.074971 C267.826209,254.074971 270.404959,253.857748 272.955885,253.427271 C274.61344,253.148552 275.830769,251.715281 275.830769,250.038007 L275.830769,247.735847 C275.830769,246.347211 275.724439,244.983372 275.519729,243.652266 C275.228564,241.756777 273.434867,240.424679 271.548752,240.78374 C269.492708,241.174542 267.384989,241.375894 265.245471,241.375894 C261.910486,241.375894 258.651025,240.890864 255.545593,239.957502 C250.336418,238.390327 245.5625,235.555526 241.605435,231.609816 C241.599473,231.604856 241.594504,231.598905 241.588542,231.592954 L241.574629,231.579067 C239.135002,229.146971 236.483709,227.054098 233.686336,225.281603 C231.684948,224.012985 229.609029,222.912987 227.473486,221.982601 C227.446655,221.969706 227.41883,221.958796 227.391999,221.946893 C224.592639,220.730845 221.693905,223.624167 222.91024,226.419293 C222.923159,226.446074 222.935084,226.473846 222.946015,226.501619 C223.880129,228.631192 224.980197,230.704227 226.252181,232.701879 C228.028985,235.493037 230.123785,238.140373 232.561425,240.574453 C232.566393,240.580404 232.571362,240.585364 232.576331,240.591315 C232.582293,240.596274 232.587262,240.600242 232.592231,240.605201 C236.550289,244.561822 239.391387,249.332779 240.959505,254.540164 C241.891632,257.633846 242.375582,260.880279 242.375582,264.201103 C242.375582,267.443568 241.910513,270.613625 241.021117,273.640852 C240.419906,275.690082 239.619946,277.671864 238.635152,279.565368 C237.071008,282.569781 235.043783,285.352013 232.576331,287.813866 L230.358307,290.027749 L225.561534,294.816559 L211.345116,309.006435 C210.005557,310.343493 207.834239,310.343493 206.495674,309.006435 L193.970599,296.505736 C192.983817,295.520796 191.491223,295.216288 190.213275,295.776702 C188.367904,296.588062 186.466883,297.295274 184.518162,297.892388 C182.025867,298.656138 181.20504,301.75478 183.048424,303.59373 L206.495674,326.997206 C207.834239,328.334265 210.005557,328.334265 211.345116,326.997206 L239.087303,299.306813 L241.588542,296.809252 C242.610104,295.790588 243.565087,294.732249 244.469388,293.645145 C247.661275,289.811518 250.132702,285.580146 251.885656,281.128576 C252.704496,279.049589 253.366326,276.924976 253.872138,274.768623 C255.048724,269.739777 255.37467,264.553221 254.846995,259.436097 L254.846995,259.436097 Z M135.871426,250.884919 C137.950413,251.702757 140.075026,252.365573 142.231379,252.870386 C145.703961,253.683256 149.249943,254.09764 152.7989,254.09764 C154.403766,254.09764 156.006649,254.008204 157.603581,253.841258 C158.237394,253.774678 158.868231,253.696174 159.498077,253.603757 C161.80718,253.26589 163.75623,255.218564 163.41899,257.531962 C163.326745,258.162979 163.247394,258.795983 163.180938,259.429981 C162.749469,263.594693 162.880398,267.807104 163.572732,271.942004 C163.850459,273.60451 165.281746,274.830769 166.963979,274.830769 L169.264156,274.830769 C170.653784,274.830769 172.017623,274.723447 173.349722,274.518739 C175.248185,274.226583 176.592187,272.430917 176.234117,270.540848 C175.227356,265.23335 175.507067,259.7281 177.072258,254.531899 C178.607693,249.43209 181.378022,244.628411 185.390188,240.603815 C185.396139,240.598846 185.401099,240.594871 185.40705,240.588909 C185.411018,240.58394 185.415977,240.578972 185.420936,240.573009 C187.853033,238.134402 189.945906,235.483137 191.719393,232.685795 C192.987019,230.685421 194.087017,228.607537 195.017403,226.474004 C195.030298,226.44618 195.041209,226.419349 195.053111,226.392519 C196.26916,223.592195 193.375837,220.693492 190.579719,221.911802 C190.55393,221.923726 190.52715,221.934657 190.499377,221.946582 C188.368812,222.879692 186.295777,223.980742 184.298125,225.25172 C181.506966,227.028504 178.860623,229.124276 176.42555,231.560895 C176.420591,231.566858 176.41464,231.570832 176.40968,231.575801 C176.404721,231.58077 176.399761,231.586732 176.394802,231.591701 C172.444132,235.545742 167.678135,238.384822 162.478685,239.953917 C159.380043,240.889015 156.126667,241.375941 152.7989,241.375941 C149.556435,241.375941 146.386377,240.909883 143.35915,240.020497 C141.30992,239.419292 139.328138,238.619341 137.434634,237.634557 C134.43022,236.071424 131.647989,234.043226 129.186136,231.575801 L126.971261,229.357801 L122.183442,224.562073 L107.993566,210.343821 C106.656507,209.00527 106.656507,206.834969 107.993566,205.495424 L120.494266,192.971477 C121.479205,191.984706 121.783713,190.491134 121.2233,189.2132 C120.411939,187.367848 119.704727,185.466848 119.108605,183.518148 C118.343864,181.024886 115.246213,180.205061 113.406271,182.049419 L90.0027936,205.495424 C88.6657355,206.834969 88.6657355,209.00527 90.0027936,210.343821 L117.693188,238.086703 L120.191741,240.588909 C121.209413,241.609467 122.268744,242.563445 123.355848,243.468731 C127.188483,246.65959 131.419856,249.13099 135.871426,250.884919 L135.871426,250.884919 Z M193.478523,287.123797 C197.886409,284.396266 201.800334,280.953674 205.058295,276.955474 C205.459825,276.462261 205.851416,275.960133 206.232074,275.450083 C207.629479,273.58221 210.39149,273.58221 211.7879,275.450083 C212.168559,275.960133 212.56015,276.462261 212.96168,276.955474 C215.607406,280.202959 218.688454,283.085981 222.113387,285.514415 C223.477,286.483015 225.348488,286.318611 226.532207,285.139058 L228.164168,283.513829 C229.141159,282.539287 230.034663,281.50433 230.839711,280.414903 C231.982681,278.870886 231.667618,276.654396 230.076406,275.575862 C225.605905,272.546263 221.908647,268.466851 219.33945,263.695157 C216.819948,259.01656 215.385769,253.673412 215.382788,248.000464 C215.382788,247.996503 215.383782,247.991551 215.383782,247.985608 C215.383782,247.980656 215.382788,247.975705 215.382788,247.970753 C215.381794,244.52618 214.988215,241.172723 214.262678,237.941084 C213.747844,235.642392 213.058087,233.408074 212.211296,231.251998 C212.200363,231.224267 212.18943,231.197526 212.179491,231.169795 C211.060375,228.338273 206.960593,228.338273 205.841477,231.169795 C205.830544,231.197526 205.819612,231.224267 205.809673,231.251998 C204.961888,233.408074 204.273124,235.642392 203.757297,237.941084 C203.032754,241.172723 202.637187,244.52618 202.636193,247.970753 L202.636193,247.986599 L202.636193,248.000464 C202.634205,253.672421 201.200027,259.01656 198.680525,263.695157 C195.599476,269.415643 190.895412,274.14376 185.182552,277.257543 C183.321996,278.272691 181.353107,279.113532 179.300731,279.765207 C176.104392,280.777385 172.704306,281.329032 169.176009,281.329032 L166.038309,281.329032 L159.25404,281.329032 L139.144734,281.329032 C137.25138,281.329032 135.715825,279.798881 135.715825,277.91219 L135.715825,260.258508 C135.715825,258.867011 134.874997,257.600304 133.574,257.096196 C131.694561,256.36826 129.849907,255.52742 128.047991,254.575656 C125.744162,253.358468 122.969231,254.96785 122.969231,257.566631 L122.969231,290.613928 C122.969231,292.500618 124.503792,294.030769 126.398139,294.030769 L165.636779,294.030769 L169.176009,294.030769 C170.619132,294.030769 172.04536,293.9555 173.454691,293.825759 C178.428099,293.368199 183.173907,292.12328 187.567879,290.214801 C189.619261,289.324441 191.594114,288.290475 193.478523,287.123797 L193.478523,287.123797 Z M123.173254,172.455189 C123.043511,171.045872 122.969231,169.620652 122.969231,168.177543 L122.969231,164.637354 L122.969231,125.399099 C122.969231,123.50477 124.498415,121.969231 126.385134,121.969231 L159.432935,121.969231 C162.031755,121.969231 163.641161,124.745129 162.423955,127.049929 C161.472177,128.84984 160.631324,130.696463 159.903377,132.57489 C159.399261,133.876868 158.132534,134.717688 156.742007,134.717688 L139.088056,134.717688 C137.200346,134.717688 135.671162,136.252234 135.671162,138.145569 L135.671162,158.253684 L135.671162,165.037887 L135.671162,168.177543 C135.671162,171.700836 136.220836,175.097907 137.231048,178.290239 C137.881744,180.343589 138.721606,182.310471 139.73479,184.171008 C142.84862,189.889775 147.57978,194.598763 153.304315,197.680775 C157.983974,200.200253 163.327203,201.634417 168.998256,201.637399 L169.013113,201.637399 L169.028959,201.637399 C172.467642,201.638392 175.815207,202.030974 179.040953,202.753522 C181.346613,203.269344 183.585917,203.960089 185.748959,204.808859 C185.7757,204.820786 185.802441,204.830725 185.830172,204.841657 C188.661737,205.960762 188.661737,210.060504 185.830172,211.179609 C185.802441,211.190542 185.7757,211.201475 185.747969,211.211413 C183.585917,212.061178 181.345623,212.751922 179.039963,213.267744 C175.815207,213.989299 172.467642,214.382874 169.028959,214.383868 C169.024007,214.383868 169.019055,214.384862 169.014103,214.384862 C169.009151,214.384862 169.003208,214.383868 168.998256,214.383868 C163.327203,214.38685 157.983974,215.82002 153.304315,218.339498 C148.532548,220.907675 144.453074,224.605891 141.423428,229.076348 C140.344878,230.668539 138.128354,230.98161 136.584315,229.84064 C135.495861,229.034605 134.458908,228.142104 133.48534,227.163136 L131.859097,225.532184 C130.680516,224.348477 130.5171,222.477007 131.484724,221.113408 C133.914185,217.687514 136.796261,214.60749 140.043796,211.96179 C140.537017,211.560264 141.039152,211.168677 141.54921,210.788022 C143.417112,209.390631 143.417112,206.628648 141.54921,205.232251 C141.039152,204.851596 140.537017,204.460009 140.043796,204.058482 C136.045535,200.801548 132.6019,196.886668 129.875318,192.479818 C128.708622,190.594434 127.67464,188.620594 126.783277,186.568239 C124.876749,182.175304 123.630821,177.428548 123.173254,172.455189 L123.173254,172.455189 Z" id="mark" fill="#8EECA1"></path>
            <path d="M35.0217301,140.704536 C34.3489568,142.43223 33.3109353,143.641416 31.9096561,144.334086 C30.5063864,145.026756 29.0304652,145.072536 27.4858733,144.470431 C25.9114246,143.857378 24.8325988,142.819368 24.2513864,141.353416 C23.670174,139.89045 23.7149592,138.294124 24.3867372,136.566431 C25.0465726,134.869589 26.0806131,133.693244 27.4878637,133.038392 C28.8951143,132.38155 30.385964,132.359656 31.9604126,132.971713 C33.5059998,133.574813 34.5669115,134.588938 35.144143,136.017072 C35.7233649,137.445206 35.6825606,139.007694 35.0217301,140.704536 L35.0217301,140.704536 Z M29.872427,208.552344 C30.5700809,208.346335 31.1771692,207.920383 31.6956823,207.275483 C32.2151907,206.628593 32.6351764,206.289225 32.9596203,206.254392 L33.1049234,206.238469 C33.5577516,206.188708 33.8204914,206.503196 33.8941382,207.181933 L34.6972862,214.550507 C34.7709329,215.229244 34.5808446,215.594488 34.1300069,215.643254 L33.9837086,215.658182 C33.7249496,215.687043 33.2552026,215.427292 32.5744675,214.878928 C31.891742,214.332555 31.2040403,214.164364 30.5063864,214.370373 L8.5805463,220.682029 L34.8097468,226.851368 C35.6168757,227.057378 36.0557706,227.484325 36.1254365,228.13022 C36.2070451,228.874641 35.8925535,229.429971 35.1809663,229.803177 L10.3281644,242.124938 L33.6493124,243.214699 C34.3380093,243.236593 34.9630117,242.884287 35.5193434,242.152804 C36.0786609,241.421321 36.487699,241.041148 36.7454628,241.013282 L36.8917611,240.996364 C37.3445893,240.948593 37.6093196,241.28 37.6869473,241.989589 L38.2193936,246.885053 C38.2970212,247.597627 38.1109138,247.977799 37.6570905,248.026565 L37.5117874,248.042488 C37.1893339,248.077321 36.6877396,247.830507 36.0070045,247.299062 C35.3292551,246.768612 34.6604628,246.488957 34.0036131,246.463081 L7.34945084,244.951349 C6.62890668,244.93244 6.00091862,245.253895 5.46847232,245.917703 C4.93602601,246.580517 4.53893055,246.924861 4.2801716,246.953722 L4.1348685,246.968651 C3.65118831,247.022392 3.37650573,246.757665 3.31281122,246.176459 L2.46288759,238.370986 C2.39521217,237.757933 2.60520501,237.423541 3.09087566,237.370794 L3.23518353,237.354871 C3.42925274,237.333971 3.70493055,237.460364 4.06122172,237.730067 C4.41651766,238.002756 4.81162267,238.229665 5.23857494,238.412785 C5.66851289,238.593914 6.12930286,238.560077 6.62492578,238.309282 L28.0432002,228.225761 L4.69816683,222.871502 C4.03136492,222.748096 3.42925274,223.009837 2.89680644,223.656727 C2.36236969,224.303617 2.01204988,224.635024 1.85082315,224.653933 L1.70452482,224.669856 C1.22084463,224.721608 0.947157279,224.457876 0.882467542,223.874679 L0.0116441527,215.876134 C-0.052050358,215.294928 0.144009308,214.979445 0.594847017,214.929684 L0.741145346,214.913761 C1.00089952,214.885895 1.48756539,215.159579 2.20412864,215.736804 C2.92168711,216.312038 3.6919926,216.473263 4.51404988,216.220478 L29.872427,208.552344 Z M33.2979974,279.892364 C32.4092599,277.691943 31.1025272,276.169263 29.3768041,275.32333 C27.6510809,274.477397 25.7322838,274.481378 23.6214079,275.332287 C20.9681334,276.404134 19.232458,278.051215 18.4123912,280.275522 C17.5913291,282.499828 17.6520379,284.773895 18.5865558,287.094737 L19.500174,289.354871 C19.8654222,290.259522 20.6516513,290.467522 21.8558757,289.980861 L32.5296823,285.672574 C34.3081525,284.954029 34.8993172,283.857301 34.3021811,282.378411 L33.2979974,279.892364 Z M39.055384,262.106871 C39.5858399,261.858067 39.9779592,261.331598 40.2307468,260.526469 C40.4855248,259.724325 40.7641883,259.26155 41.0647468,259.140134 L41.2010928,259.084402 C41.623069,258.91422 41.9614461,259.14511 42.2172193,259.778067 L45.0108208,266.697799 C45.2655988,267.329761 45.1839902,267.731828 44.7600236,267.903005 L44.625668,267.956746 C44.3251095,268.078163 43.8683005,267.991579 43.2572313,267.695005 C42.6471573,267.398431 42.0699258,267.358622 41.5275272,267.577569 C39.5022408,268.466297 37.8402122,269.715292 36.5434317,271.324555 C35.249637,272.934813 34.564921,274.736153 34.4932647,276.728574 C34.8216895,277.367502 35.0704962,277.898947 35.2416752,278.319923 L37.4122647,283.701053 L46.0956179,280.195904 C46.7584389,279.928191 47.2291811,279.379828 47.5068494,278.547828 C47.7845177,277.716823 48.0592002,277.245091 48.3308971,277.136612 L48.4672432,277.081876 C48.8892193,276.910699 49.234563,277.158507 49.5012838,277.821321 L52.368532,284.920191 C52.62331,285.554144 52.5417014,285.955215 52.1197253,286.126392 L51.9833792,286.181129 C51.7116823,286.289608 51.2001358,286.173167 50.4457539,285.826833 C49.6933625,285.483483 48.9857563,285.44467 48.3229353,285.712383 L23.7219258,295.645627 C23.0591048,295.911349 22.577415,296.432842 22.2738709,297.202144 C21.9733124,297.973435 21.6856919,298.413321 21.4129998,298.521799 L21.2786442,298.577531 C20.8576632,298.747713 20.5172957,298.515828 20.2625177,297.882871 L16.1353124,287.664 C14.4683076,283.533856 13.9836322,279.881416 14.6832766,276.705684 C15.3819258,273.530947 17.3703888,271.265837 20.6436895,269.909359 C22.3305988,269.227636 24.1230021,269.108211 26.0199043,269.552077 C27.9168064,269.994947 29.6743768,270.961301 31.2916203,272.446163 C31.5613267,270.164134 32.3933363,268.118967 33.783668,266.311656 C35.1769854,264.50534 36.9325654,263.104077 39.055384,262.106871 L39.055384,262.106871 Z M66.5445415,311.58201 C64.9073936,309.393531 62.7328232,308.221167 60.0148589,308.059943 C57.29789,307.900708 54.7550857,308.706833 52.3854508,310.478316 C47.9576871,313.787407 44.968026,317.566239 43.4134819,321.812823 C41.8599329,326.059407 42.2411048,329.732746 44.5579926,332.831847 C46.2140499,335.043215 48.3488112,336.229512 50.9612814,336.384766 C53.575742,336.54201 56.1583554,335.66622 58.7091215,333.758392 C63.1100141,330.468211 66.0897229,326.717244 67.6502384,322.506488 C69.2117492,318.294737 68.8415248,314.653244 66.5445415,311.58201 L66.5445415,311.58201 Z M69.5879449,311.253589 C72.6054723,315.291177 73.688279,319.656191 72.8363649,324.352612 C71.9854461,329.049033 69.6058589,332.857722 65.6985988,335.778679 C61.5584556,338.872804 57.1943864,340.147675 52.6053959,339.602297 C48.0164055,339.054928 44.221606,336.777876 41.2219926,332.767158 C38.2442742,328.783311 37.2181955,324.466067 38.1457468,319.816421 C39.0723029,315.164785 41.5155845,311.360077 45.4716107,308.400306 C49.4564986,305.421627 53.7658303,304.208459 58.399606,304.761799 C63.0353721,305.315139 66.7654819,307.478737 69.5879449,311.253589 L69.5879449,311.253589 Z M106.201341,348.596057 C106.753692,349.050871 106.884067,349.453933 106.594456,349.805244 L106.500904,349.917703 C106.314797,350.143617 105.80325,350.278967 104.963279,350.325742 C104.126293,350.370526 103.478401,350.670086 103.023582,351.221435 L86.1415511,371.686048 C85.6887229,372.237397 85.5175439,372.930067 85.6329902,373.762067 C85.7474413,374.594067 85.7106179,375.123522 85.5255057,375.34844 L85.4319544,375.461895 C85.1423434,375.812211 84.7462432,375.781359 84.2446489,375.367349 L67.8054938,361.807541 C67.2282623,361.330833 67.1466537,360.714794 67.5586776,359.960421 L70.0059401,355.152536 C70.3582504,354.471809 70.8090881,354.36134 71.3594484,354.816153 L71.5107229,354.93956 C71.9127945,355.270967 72.0899449,355.974584 72.0431692,357.053397 C71.9963936,358.132211 71.9874365,359.24088 72.0162981,360.380402 C72.0451597,361.520919 72.371594,362.350928 72.9995821,362.86645 L79.2824484,368.048536 C80.1333673,368.753148 80.9444771,368.639694 81.7098064,367.713148 L89.9015177,357.7809 L83.9938518,352.909321 C83.4693673,352.475407 82.6114819,352.465455 81.4281573,352.877474 C80.2438375,353.292478 79.5272742,353.395981 79.2764771,353.188976 L79.0117468,352.971024 C78.6365463,352.662507 78.6445081,352.268402 79.0376227,351.791694 L83.4434914,346.449378 C83.8385964,345.973665 84.2217587,345.890067 84.5979544,346.200574 L84.8606943,346.417531 C85.1114914,346.624536 85.162248,347.330144 85.0119687,348.533359 C84.8626847,349.737569 85.0517778,350.555636 85.5762623,350.990545 L91.4829329,355.862124 L98.4345916,347.435636 C98.8894103,346.883292 99.0406847,346.177684 98.8894103,345.314833 C98.7371406,344.451981 98.7530642,343.907598 98.9401668,343.680689 L99.0327229,343.569225 C99.3223339,343.216919 99.7423196,343.269665 100.29467,343.723483 L106.201341,348.596057 Z M130.314689,362.411636 C134.238868,364.377187 136.902095,366.756746 138.303374,369.548325 C139.705649,372.3409 139.946494,374.651789 139.028895,376.482986 C138.710422,377.122909 138.255604,377.559809 137.666429,377.791694 C137.077255,378.023579 136.455238,377.95889 135.80237,377.593646 C135.205234,377.259254 134.773305,376.77956 134.505589,376.153569 C134.236878,375.528574 134.109489,374.855809 134.124417,374.137263 C134.140341,373.415732 134.103518,372.616574 134.017928,371.737799 C133.930348,370.858029 133.778079,370.000153 133.561119,369.163177 C133.343164,368.327196 132.857494,367.483254 132.101121,366.63334 C131.34674,365.782431 130.328623,365.036019 129.049756,364.396096 C127.276262,363.508364 125.597315,363.267522 124.012914,363.672574 C122.426522,364.077627 121.241207,365.065876 120.455974,366.636325 C119.785191,367.9729 119.565246,369.244785 119.799124,370.452976 C120.030016,371.658182 120.574405,372.732019 121.431296,373.670507 C122.289181,374.607005 123.295355,375.539522 124.449818,376.464077 C125.607267,377.386641 126.739835,378.354986 127.849513,379.366124 C128.964167,380.377263 129.904656,381.440153 130.671976,382.551809 C131.442281,383.665455 131.864258,384.98511 131.935914,386.510775 C132.00757,388.037435 131.597537,389.687502 130.708799,391.461971 C129.443866,393.990813 127.396685,395.574201 124.567255,396.210144 C121.740811,396.848077 118.581962,396.293742 115.092697,394.548134 C111.605422,392.801531 109.16015,390.62201 107.758871,388.01156 C106.357592,385.400115 106.129685,383.186756 107.076145,381.369493 C107.818584,379.886622 108.946176,379.525359 110.456931,380.281722 C111.095866,380.602182 111.550685,381.056995 111.819396,381.646163 C112.088107,382.234335 112.200568,382.862316 112.157773,383.532096 C112.112988,384.199885 112.109007,384.954258 112.14384,385.790239 C112.180663,386.62622 112.270234,387.425378 112.414542,388.188708 C112.559845,388.951043 112.95694,389.722335 113.601847,390.501589 C114.248744,391.278852 115.137482,391.951617 116.273036,392.519885 C118.103258,393.436478 119.775238,393.656421 121.287983,393.177722 C122.799732,392.698029 123.927324,391.718737 124.669763,390.234871 C125.311685,388.956019 125.505754,387.73688 125.250976,386.572478 C124.996198,385.409072 124.442852,384.357129 123.582976,383.420632 C122.728076,382.481148 121.728868,381.535694 120.588339,380.582278 C119.446814,379.629856 118.327184,378.632651 117.231439,377.592651 C116.134699,376.552651 115.207148,375.461895 114.451771,374.319388 C113.697389,373.177876 113.283374,371.843292 113.212713,370.317627 C113.141057,368.789971 113.541138,367.154833 114.413952,365.41022 C115.753527,362.737072 117.94004,361.167617 120.972496,360.704842 C124.004952,360.241072 127.117026,360.810335 130.314689,362.411636 L130.314689,362.411636 Z M148.955286,408.011407 C148.257632,407.858144 147.957074,407.559579 148.053611,407.114718 L148.084463,406.972402 C148.141191,406.716632 148.565157,406.378258 149.356363,405.951311 C150.149558,405.526354 150.621296,404.963062 150.773565,404.265416 L156.952928,376.014239 C157.187802,374.934431 157.813799,374.506488 158.829926,374.727426 L160.544701,375.102622 C161.180651,375.242947 161.719069,375.826144 162.157964,376.854201 L175.642291,406.957474 L180.717947,383.759005 C180.86126,383.09022 180.653258,382.378641 180.085978,381.622278 C179.519694,380.865914 179.265911,380.345416 179.329606,380.059789 L179.360458,379.915483 C179.45799,379.471617 179.856081,379.327311 180.553735,379.478584 L185.460203,380.551426 C186.159847,380.704689 186.461401,381.004249 186.363868,381.448115 L186.333016,381.591426 C186.269322,381.877053 185.862274,382.254239 185.112868,382.72199 C184.360477,383.188746 183.91163,383.757014 183.765332,384.424804 L178.130358,410.197895 C177.977093,410.895541 178.147277,411.599158 178.641904,412.306756 C179.137527,413.013359 179.352496,413.509971 179.290792,413.795598 L179.25994,413.938909 C179.160417,414.382775 178.762327,414.529072 178.064673,414.376804 L169.632117,412.53267 C169.029009,412.401301 168.776222,412.111694 168.871763,411.667828 L168.904606,411.524517 C168.94541,411.334431 169.18725,411.111502 169.624155,410.858718 C170.06305,410.604938 170.386499,410.343196 170.594501,410.071502 C170.804494,409.801799 170.790561,409.292249 170.555687,408.541856 L158.822959,382.064153 L153.82294,404.932211 C153.669675,405.629856 153.863744,406.33845 154.406143,407.056995 C154.948542,407.774545 155.191377,408.259215 155.134649,408.514986 L155.103797,408.656306 C155.00925,409.101167 154.610164,409.247464 153.91052,409.094201 L148.955286,408.011407 Z M223.382322,392.461167 L210.566787,392.977684 L217.902604,409.129033 L223.382322,392.461167 Z M230.471322,380.655923 C231.153052,380.631043 231.503372,380.843024 231.520291,381.297837 L231.528573,381.444134 C231.540195,381.768574 231.217742,382.213435 230.556911,382.776727 C229.896081,383.341014 229.435291,384.001837 229.172551,384.760191 L219.997556,411.434947 C219.793534,412.029091 220.046322,412.685933 220.7599,413.405474 C221.473477,414.125014 221.832754,414.598737 221.842706,414.825646 L221.848678,414.972938 C221.865596,415.427751 221.566033,415.667598 220.949988,415.692478 L213.348446,415.99801 C212.731405,416.02289 212.412933,415.807923 212.394024,415.35311 L212.388052,415.206813 C212.3781,414.948057 212.561222,414.646507 212.938413,414.307139 C213.314608,413.96578 213.634076,413.586603 213.892835,413.169608 C214.152589,412.751617 214.176475,412.304766 213.960511,411.825072 L201.348997,385.880804 C201.028534,385.177187 200.514997,384.563139 199.811372,384.03866 C199.105756,383.514182 198.74847,383.08823 198.734537,382.76578 L198.728565,382.617493 C198.711647,382.163675 199.042062,381.921837 199.723792,381.894967 L208.008059,381.561569 C208.690785,381.534699 209.041105,381.747675 209.058024,382.202488 L209.063995,382.34978 C209.073947,382.575694 208.953525,382.808574 208.702728,383.047426 C208.451931,383.284287 208.201133,383.50622 207.948346,383.711234 C207.695558,383.916249 207.487556,384.184957 207.322348,384.517359 C207.157141,384.848766 207.180031,385.221971 207.390024,385.637971 L209.534737,390.383158 L224.249164,389.79001 L225.858446,384.89355 C226.064458,384.332249 226.003749,383.871464 225.681296,383.510201 C225.356852,383.147943 224.987623,382.831464 224.567637,382.553799 C224.151632,382.277129 223.937658,382.010411 223.926711,381.75066 L223.92074,381.604364 C223.902826,381.14955 224.251155,380.906718 224.965728,380.878852 L230.471322,380.655923 Z M262.361372,389.324249 C260.085289,389.992038 258.440179,391.143502 257.428033,392.777646 C256.416883,394.412785 256.230775,396.322603 256.871701,398.506105 C257.674849,401.250909 259.143804,403.140823 261.276575,404.175847 C263.408351,405.211866 265.677468,405.377072 268.079945,404.672459 L270.419723,403.986756 C271.355236,403.713072 271.640866,402.951732 271.275618,401.703732 L268.03715,390.659828 C267.498732,388.818679 266.464692,388.122029 264.935028,388.570871 L262.361372,389.324249 Z M245.228544,381.846201 C245.034475,381.293856 244.547809,380.850986 243.772527,380.520574 C242.999236,380.187177 242.563327,379.865722 242.471766,379.55422 L242.430962,379.4129 C242.302577,378.976995 242.567308,378.661512 243.222167,378.469435 L250.383818,376.371522 C251.038678,376.179445 251.428806,376.300861 251.557191,376.737761 L251.597995,376.880077 C251.689556,377.190584 251.559181,377.635445 251.201895,378.21466 C250.845604,378.791885 250.753047,379.363139 250.916265,379.92444 C251.599985,382.026335 252.678811,383.803789 254.154732,385.251828 C255.629658,386.699866 257.353391,387.556746 259.330907,387.825455 C259.999699,387.560727 260.551055,387.36666 260.986964,387.238278 L266.556253,385.605129 L263.923878,376.620325 C263.721847,375.932632 263.220253,375.412134 262.421086,375.052861 C261.621919,374.694584 261.181033,374.374124 261.097434,374.094469 L261.05663,373.954144 C260.928246,373.517244 261.207904,373.19778 261.894611,372.996746 L269.24237,370.8431 C269.897229,370.652019 270.288353,370.773435 270.417732,371.210335 L270.456546,371.351656 C270.540145,371.631311 270.372947,372.128919 269.955947,372.844478 C269.539942,373.560038 269.430468,374.26067 269.630508,374.947368 L277.092718,400.404976 C277.295744,401.090679 277.763501,401.622124 278.501959,401.999311 C279.239422,402.374507 279.649456,402.704919 279.731064,402.984574 L279.771868,403.125895 C279.900253,403.561799 279.635522,403.876287 278.980663,404.069359 L268.404389,407.169455 C264.13188,408.422431 260.448546,408.543847 257.357372,407.536689 C254.267193,406.527541 252.209064,404.32712 251.18,400.935426 C250.667458,399.189818 250.725181,397.393455 251.35516,395.549321 C251.983148,393.705187 253.116711,392.053129 254.752864,390.589167 C252.507632,390.095541 250.554002,389.067483 248.893964,387.504 C247.233926,385.941512 246.011787,384.055579 245.228544,381.846201 L245.228544,381.846201 Z M298.214415,356.285091 C298.80558,355.942737 299.215613,355.968612 299.442525,356.362718 L299.517167,356.48911 C299.66247,356.74289 299.604747,357.274335 299.340016,358.085435 C299.075286,358.894545 299.124052,359.608115 299.480343,360.229129 L313.46726,384.417837 L318.068193,381.758622 C318.744947,381.367502 319.102234,380.635024 319.139057,379.563177 C319.174885,378.49133 319.149009,377.453321 319.059439,376.454124 C318.970864,375.454928 319.122138,374.84088 319.514258,374.612976 L320.021823,374.319388 C320.586117,373.994947 321.011079,374.180057 321.300689,374.875713 L323.421518,380.296651 C323.743971,381.049033 323.553883,381.628249 322.850258,382.035292 L301.654914,394.290373 C300.953279,394.696421 300.341215,394.580976 299.821706,393.942048 L295.989088,389.454622 C295.769143,389.205818 295.681563,388.956019 295.724358,388.70622 C295.769143,388.455426 295.915441,388.258373 296.169224,388.112077 L296.674799,387.819483 C296.986305,387.639349 297.450081,387.699062 298.074088,387.995636 C298.696105,388.293206 299.305184,388.664421 299.899334,389.109282 C300.49647,389.553148 301.161281,389.891522 301.895759,390.123407 C302.631231,390.356287 303.264195,390.316478 303.798632,390.007962 L308.401556,387.346756 L294.414639,363.156057 C294.056358,362.537033 293.454246,362.143923 292.606312,361.978718 C291.759374,361.810526 291.261761,361.601531 291.115463,361.346756 L291.041816,361.220364 C290.814904,360.826258 291.010964,360.451062 291.629,360.092785 L298.214415,356.285091 Z M361.158525,313.872 C362.21247,312.348325 363.503279,311.411828 365.028962,311.064498 C366.554644,310.716172 367.998718,311.014737 369.361184,311.957206 C370.753506,312.918584 371.56163,314.179522 371.785556,315.739024 C372.012468,317.297531 371.596463,318.840115 370.543513,320.363789 C369.507482,321.860593 368.230606,322.766239 366.7099,323.077742 C365.188198,323.390239 363.732181,323.063809 362.342845,322.103426 C360.979384,321.159962 360.181212,319.92689 359.951315,318.403215 C359.720422,316.878545 360.122494,315.368804 361.158525,313.872 L361.158525,313.872 Z M382.577795,230.161455 L382.109043,233.197856 C381.541763,236.859254 382.219513,240.032 384.1403,242.714105 C386.061088,245.39422 388.949236,247.03533 392.80574,247.630469 C397.591785,248.370909 401.795623,247.507062 405.419243,245.040919 C409.039878,242.57378 411.188573,239.155215 411.864332,234.787215 L412.074324,233.437703 C412.241522,232.344957 411.730971,231.706029 410.54267,231.523904 L386.445246,227.797818 C385.353482,227.628632 384.470716,227.757014 383.795952,228.178986 C383.123179,228.598967 382.717126,229.260785 382.577795,230.161455 L382.577795,230.161455 Z M381.572616,220.382469 C381.681095,219.675866 381.961749,219.357397 382.410596,219.428057 L382.553909,219.448957 C382.84352,219.493742 383.222701,219.864957 383.691453,220.562603 C384.158215,221.258258 384.746394,221.664306 385.454,221.772785 L411.670262,225.825301 C412.375878,225.93577 413.058604,225.72777 413.715453,225.204287 C414.372303,224.679809 414.845036,224.440957 415.134647,224.485742 L415.27995,224.508632 C415.728797,224.577301 415.899976,224.965435 415.791496,225.673033 L414.150367,236.274067 C413.236749,242.186641 410.871095,246.797474 407.053405,250.104574 C403.235716,253.41267 398.899513,254.691522 394.049773,253.941129 C388.81289,253.133014 384.890701,250.790278 382.282212,246.9169 C379.673723,243.042526 378.777024,238.455579 379.598086,233.155062 L381.572616,220.382469 Z M416.379675,199.966622 C416.460289,200.676211 416.273186,201.059368 415.820358,201.107139 L415.67605,201.125053 C415.418286,201.152919 414.959487,200.861321 414.302637,200.248268 C413.642802,199.63422 412.959081,199.367502 412.249484,199.44712 L383.510322,202.664651 C382.412587,202.788057 381.803508,202.332249 381.689057,201.29822 L381.494988,199.554603 C381.421341,198.906718 381.801518,198.210067 382.633527,197.46266 L406.816542,175.029512 L383.21474,177.672804 C382.53699,177.74844 381.929902,178.174392 381.395465,178.955636 C380.861028,179.73489 380.449005,180.139943 380.157403,180.17378 L380.013095,180.190699 C379.558277,180.241455 379.294542,179.909053 379.214923,179.199464 L378.656601,174.207464 C378.574993,173.495885 378.762095,173.116708 379.214923,173.064957 L379.360226,173.049033 C379.651828,173.016191 380.137499,173.279923 380.824205,173.84222 C381.505935,174.403522 382.188661,174.646354 382.867405,174.569722 L409.086654,171.634833 C409.79625,171.555215 410.408315,171.167081 410.917871,170.473416 C411.431408,169.777761 411.831489,169.414507 412.1211,169.381665 L412.267398,169.365742 C412.720226,169.314986 412.983962,169.645397 413.06557,170.355981 L414.025964,178.932746 C414.094635,179.546794 413.901561,179.879196 413.450723,179.929952 L413.30542,179.946871 C413.110355,179.96777 412.822735,179.811522 412.443553,179.478124 C412.061386,179.144727 411.709076,178.922794 411.386623,178.812325 C411.064169,178.700861 410.583475,178.876019 409.950511,179.339789 L388.639721,198.949512 L411.901155,196.346029 C412.612742,196.266411 413.221821,195.854392 413.726401,195.110967 C414.231976,194.367541 414.613148,193.981397 414.873897,193.952536 L415.0192,193.935617 C415.470038,193.884861 415.736759,194.215273 415.816377,194.925856 L416.379675,199.966622 Z M377.740993,134.476478 L382.357849,146.440957 L395.285845,134.293359 L377.740993,134.476478 Z M364.282542,131.566469 C364.037716,130.929531 364.127286,130.529455 364.550258,130.365244 L364.688594,130.313493 C364.990148,130.196057 365.514632,130.359273 366.261052,130.803139 C367.007472,131.248 367.780763,131.471923 368.585902,131.475904 L396.794608,131.566469 C397.422596,131.568459 397.963005,131.117627 398.415833,130.20999 C398.86667,129.304344 399.199076,128.810718 399.411059,128.72911 L399.54641,128.676364 C399.972367,128.513148 400.294821,128.718163 400.516756,129.294392 L403.257611,136.392268 C403.479546,136.968498 403.378033,137.338718 402.952076,137.502928 L402.816725,137.555675 C402.572895,137.649225 402.229542,137.571598 401.78567,137.324785 C401.342795,137.076976 400.882005,136.898833 400.404296,136.786373 C399.923601,136.6769 399.492668,136.798316 399.107515,137.157589 L378.609826,157.45401 C378.048518,157.983464 377.630522,158.667177 377.361811,159.503158 C377.092105,160.339139 376.804484,160.814852 376.50094,160.933282 L376.364594,160.986029 C375.941623,161.149244 375.605236,160.912383 375.36041,160.27644 L372.37473,152.540632 C372.129904,151.903694 372.218479,151.503617 372.644437,151.339407 L372.778792,151.28666 C372.992766,151.205053 373.251525,151.244861 373.558055,151.405091 C373.863589,151.566316 374.155191,151.732517 374.430868,151.904689 C374.704556,152.077856 375.028005,152.188325 375.395243,152.239081 C375.762482,152.288842 376.108821,152.146526 376.433265,151.811139 L380.235031,148.254239 L374.934453,134.514297 L369.779179,134.568038 C369.181047,134.556096 368.765043,134.75912 368.526188,135.182086 C368.288329,135.605053 368.108193,136.058871 367.979809,136.542545 C367.853415,137.027215 367.668303,137.316823 367.425468,137.409378 L367.289121,137.46312 C366.86615,137.626335 366.523792,137.374545 366.267024,136.707751 L364.282542,131.566469 Z M350.318515,109.161187 C349.941324,108.592919 349.941324,108.181895 350.320506,107.930105 L350.440928,107.848498 C350.685754,107.687273 351.220191,107.713148 352.044238,107.924134 C352.868286,108.13711 353.579873,108.04555 354.175019,107.648459 L377.436453,92.16689 L374.491577,87.7401722 C374.057658,87.0912919 373.305267,86.7817799 372.232413,86.8136268 C371.159558,86.8444785 370.125518,86.9360383 369.134272,87.0883062 C368.143026,87.2395789 367.521009,87.1271196 367.270212,86.7479426 L366.943778,86.2612823 C366.583506,85.71889 366.741747,85.2829856 367.419496,84.9495885 L372.695193,82.4914067 C373.425689,82.123177 374.016854,82.2764402 374.465701,82.9531866 L388.031637,103.331215 C388.482475,104.007962 388.404847,104.62599 387.800744,105.184306 L383.565059,109.29355 C383.330186,109.528421 383.084365,109.630928 382.833568,109.604057 C382.581775,109.577187 382.373773,109.440842 382.211551,109.19801 L381.887107,108.710354 C381.689057,108.412785 381.717919,107.944038 381.976678,107.304115 C382.233446,106.664191 382.565852,106.033225 382.971904,105.411215 C383.377957,104.789206 383.673539,104.103502 383.858651,103.356096 C384.042768,102.607694 383.965141,101.976727 383.622783,101.461206 L380.677907,97.0374737 L357.416472,112.520038 C356.822322,112.916134 356.466031,113.54312 356.35357,114.399005 C356.24111,115.255885 356.061969,115.765435 355.819133,115.927656 L355.696721,116.009263 C355.317539,116.260057 354.930396,116.08888 354.534296,115.493742 L350.318515,109.161187 Z M327.305888,83.2039809 C324.117181,80.186488 322.257102,77.140134 321.724656,74.0599426 C321.190219,70.9827368 321.629114,68.6987177 323.036365,67.211866 C323.527012,66.6933589 324.08832,66.4067368 324.720289,66.3549856 C325.350267,66.3022392 325.925508,66.546067 326.448002,67.0834833 C326.920735,67.57711 327.194422,68.1603062 327.270059,68.8370526 C327.348682,69.513799 327.27404,70.1935311 327.0531,70.8792344 C326.829174,71.5629474 326.633114,72.3402105 326.461935,73.2060478 C326.288766,74.0738756 326.186258,74.9387177 326.15242,75.8015694 C326.117587,76.6644211 326.339522,77.6128612 326.817231,78.6478852 C327.293945,79.6799234 328.052308,80.6880766 329.091324,81.6723445 C330.532413,83.0347943 332.070038,83.7503541 333.7042,83.8220096 C335.339358,83.8916746 336.760542,83.2895694 337.964766,82.0137033 C338.99383,80.9279234 339.571062,79.7724785 339.699446,78.5503541 C339.82783,77.3282297 339.615847,76.1449187 339.065487,74.9994258 C338.517117,73.8509474 337.823444,72.6696268 336.985463,71.4514833 C336.147482,70.2313493 335.341348,68.977378 334.571043,67.6875789 C333.799742,66.3977799 333.204596,65.1089761 332.790582,63.8221627 C332.374577,62.5333589 332.355668,61.1490144 332.728878,59.6661435 C333.102088,58.1852632 333.970921,56.7232919 335.333386,55.2832153 C337.277064,53.2290909 339.695465,52.3055311 342.587594,52.5135311 C345.477732,52.7215311 348.34299,54.1665837 351.175405,56.8476938 C354.009811,59.5307943 355.719611,62.3223732 356.304804,65.2264115 C356.889997,68.131445 356.468021,70.3149474 355.03589,71.7818947 C353.896355,72.98511 352.713031,73.0070048 351.483926,71.8465837 C350.965413,71.3529569 350.661868,70.7866794 350.574289,70.1457608 C350.488699,69.5038469 350.563341,68.8688995 350.798215,68.2419139 C351.033088,67.6149282 351.257014,66.8953876 351.465016,66.0842871 C351.673019,65.2741818 351.816332,64.4829856 351.89794,63.7097033 C351.981539,62.9374163 351.824293,62.0845167 351.432174,61.152 C351.037069,60.2224689 350.38221,59.3188134 349.46063,58.448 C347.973761,57.0397703 346.434145,56.3461053 344.849744,56.3670048 C343.262358,56.3869091 341.901883,56.9999617 340.760358,58.203177 C339.777074,59.2421818 339.238656,60.3548325 339.145105,61.5421244 C339.049563,62.7294163 339.27747,63.8958086 339.82783,65.0432919 C340.375205,66.1887847 341.059921,67.3830431 341.874016,68.6250718 C342.691098,69.8671005 343.474341,71.1439617 344.222752,72.4586411 C344.972157,73.7713301 345.542422,75.0840191 345.934542,76.3967081 C346.327656,77.7074067 346.337608,79.104689 345.964398,80.5865646 C345.591188,82.0684402 344.733303,83.5184689 343.394723,84.9346603 C341.337589,87.1082105 338.791799,87.9770335 335.755363,87.5421244 C332.718926,87.1082105 329.902434,85.6621627 327.305888,83.2039809 L327.305888,83.2039809 Z M265.859594,31.5284211 C264.097047,30.955177 262.829129,29.9868325 262.059818,28.6263732 C261.288518,27.2649187 261.160133,25.7959809 261.670685,24.2175694 C262.194174,22.6122871 263.169496,21.474756 264.600632,20.8119426 C266.026792,20.1471388 267.625126,20.1023541 269.387673,20.6755981 C271.118372,21.2378947 272.352453,22.2032536 273.086931,23.5706794 C273.821408,24.9381053 273.928892,26.4259522 273.403413,28.0332249 C272.892861,29.6096459 271.938439,30.7272727 270.546117,31.38511 C269.152799,32.0429474 267.590293,32.0907177 265.859594,31.5284211 L265.859594,31.5284211 Z M177.149064,37.5096651 C176.437477,37.5912727 176.056305,37.4061627 176.003558,36.9533397 L175.98863,36.8080383 C175.952802,36.5174354 176.211561,36.0546603 176.759931,35.4177225 C177.3083,34.7817799 177.539193,34.0930909 177.451613,33.3496651 L174.419157,7.09289952 C174.333568,6.3504689 173.94941,5.72447847 173.268675,5.2129378 C172.588935,4.70438278 172.232644,4.31923445 172.203783,4.06047847 L172.185868,3.91517703 C172.134117,3.46334928 172.430694,3.19961722 173.076596,3.12597129 L194.151518,0.690679426 C194.924809,0.601110048 195.424413,0.952421053 195.646348,1.74361722 L197.414866,6.84111005 C197.659692,7.56761722 197.445718,7.96769378 196.766974,8.04532057 L196.524138,8.07418182 C196.104153,8.12294737 195.614501,7.90798086 195.053193,7.43425837 C194.4889,6.95854545 193.970386,6.4221244 193.491682,5.82200957 C193.011983,5.22288995 192.444704,4.69144498 191.785864,4.22767464 C191.125033,3.76290909 190.47316,3.56884211 189.828253,3.64348325 L181.689289,4.58396172 C180.591553,4.7123445 180.11484,5.40501435 180.261138,6.66296651 L181.564885,17.9506986 L189.025105,17.0898373 C189.50978,17.03311 189.909861,16.8161531 190.226343,16.4349856 C190.54183,16.0558086 190.764761,15.6607081 190.899117,15.2526699 C191.031482,14.8446316 191.20067,14.4574928 191.402701,14.0902584 C191.606723,13.7220287 191.820697,13.5269665 192.047608,13.5000957 L192.337219,13.4662584 C192.821895,13.4105263 193.099563,13.6901818 193.169229,14.3022392 L193.966405,21.1811675 C194.036071,21.7962105 193.830059,22.1296077 193.344389,22.1863349 L193.054778,22.219177 C192.826871,22.2460478 192.577069,22.1116938 192.296415,21.81711 C192.016756,21.5215311 191.765959,21.1990813 191.546014,20.8477703 C191.325074,20.4974545 191.017549,20.1799809 190.62742,19.8983349 C190.234305,19.616689 189.79541,19.5042297 189.310735,19.5599617 L181.848525,20.4218182 L183.112463,31.7632919 C183.194071,32.4738756 183.448849,33.058067 183.877792,33.5148708 C184.30773,33.9736651 184.877,34.1607656 185.588587,34.0781627 L194.743678,33.021244 C195.38958,32.9456077 195.972783,32.6012632 196.489305,31.9852249 C197.008814,31.3691866 197.404914,30.7013971 197.682582,29.9808612 C197.959255,29.2613206 198.30858,28.6004976 198.728565,27.9944115 C199.150542,27.3903158 199.586451,27.0618947 200.039279,27.0091483 L200.376661,26.9703349 C200.63542,26.9404785 200.851384,27.0300478 201.022563,27.2390431 C201.193742,27.4480383 201.263408,27.7018182 201.234546,28.0003828 L200.740914,33.5059139 C200.643382,34.3687656 200.223396,34.842488 199.480957,34.9290718 L177.149064,37.5096651 Z M150.535706,45.4355598 C146.403525,46.915445 142.844594,47.1951005 139.858914,46.277512 C136.871243,45.3599234 135.034055,43.9377608 134.344363,42.0090335 C134.103518,41.3352727 134.103518,40.7062967 134.342372,40.1191196 C134.579236,39.5349282 135.05794,39.1298756 135.772513,38.9089378 C136.428367,38.7088995 137.071284,38.7278086 137.711215,38.9656651 C138.346169,39.2045167 138.91942,39.5777225 139.430966,40.0862775 C139.940522,40.5948325 140.542635,41.1213014 141.239293,41.6666794 C141.934957,42.2120574 142.659482,42.6957321 143.413864,43.1147177 C144.170236,43.536689 145.114706,43.7685742 146.25225,43.8103732 C147.388799,43.8521722 148.630842,43.6322297 149.978379,43.1505455 C151.84642,42.482756 153.180024,41.4357895 153.982176,40.0096459 C154.785324,38.5835024 154.889823,37.0448995 154.299654,35.3908517 C153.796069,33.9836172 153.027754,32.9456077 151.995704,32.2788134 C150.961663,31.6120191 149.811181,31.2656842 148.540277,31.2358278 C147.268377,31.2079617 145.89994,31.2915598 144.434966,31.4856268 C142.968997,31.6826794 141.48611,31.8329569 139.987298,31.9374545 C138.488487,32.0419522 137.069293,31.9892057 135.733699,31.7752344 C134.39711,31.5632536 133.153076,30.955177 131.999608,29.9510048 C130.847136,28.9468325 129.937499,27.5127273 129.268706,25.6447081 C128.316274,22.981512 128.586976,20.4078852 130.081806,17.9238278 C131.574647,15.4377799 134.15925,13.5399043 137.831637,12.2242297 C141.505019,10.9115407 144.770358,10.649799 147.624668,11.4429856 C150.479974,12.2341818 152.236549,13.5996172 152.897379,15.5382967 C153.455701,17.1007847 152.938184,18.1656651 151.346816,18.733933 C150.674043,18.9757703 150.031126,18.9887081 149.420057,18.7757321 C148.807993,18.562756 148.275546,18.2094545 147.822718,17.7158278 C147.36989,17.222201 146.829482,16.6977225 146.199503,16.1473684 C145.571515,15.5950239 144.930589,15.1073684 144.278716,14.6844019 C143.627837,14.2614354 142.795828,14.014622 141.786668,13.9449569 C140.778503,13.8733014 139.675792,14.051445 138.482515,14.4793876 C136.554761,15.1670813 135.240067,16.2259904 134.540422,17.6491483 C133.840778,19.0723062 133.771112,20.5651292 134.328439,22.126622 C134.811124,23.4731483 135.559534,24.4574163 136.577651,25.0774354 C137.592783,25.6984498 138.735303,26.0238852 140.006207,26.0527464 C141.276117,26.0816077 142.650525,26.013933 144.127441,25.8477321 C145.604358,25.6815311 147.097198,25.56111 148.607952,25.4874641 C150.117711,25.4148134 151.546857,25.4984115 152.895389,25.7422392 C154.242926,25.9850718 155.49094,26.610067 156.645403,27.6112536 C157.797876,28.6164211 158.703532,30.0355981 159.359386,31.8727656 C160.367551,34.6892249 159.98837,37.3534163 158.229804,39.8633493 C156.468253,42.3752727 153.904549,44.2323445 150.535706,45.4355598 L150.535706,45.4355598 Z M115.877931,60.8176077 L115.804284,60.6912153 C115.671919,60.4672919 115.718694,59.9577416 115.947596,59.1605742 C116.179484,58.3673876 116.111809,57.6607847 115.747556,57.0437512 L102.252281,34.148823 C101.890019,33.5317895 101.30383,33.1317129 100.496701,32.9475981 C99.6905678,32.762488 99.2118637,32.5425455 99.0645702,32.290756 L98.9879377,32.1653589 C98.7590356,31.773244 98.9381764,31.4040191 99.5253601,31.0576842 L106.078928,27.1932632 C106.666112,26.8479234 107.076145,26.8708134 107.308033,27.2629282 L107.38168,27.3883254 C107.528974,27.64111 107.46926,28.1775311 107.196568,28.9975885 C106.926861,29.8176459 106.973637,30.5361914 107.334904,31.1512344 L120.831174,54.0481531 C121.194432,54.6651866 121.800525,55.0533206 122.650448,55.212555 C123.497386,55.3727847 123.990024,55.563866 124.121394,55.7887847 L124.196036,55.9141818 C124.426928,56.3053014 124.247787,56.6765167 123.659608,57.0228517 L117.107036,60.8852823 C116.517861,61.2326124 116.107828,61.2097225 115.877931,60.8176077 L115.877931,60.8176077 Z M81.8988995,67.6845933 C83.6713983,66.1061818 84.6626442,64.3625646 84.8766179,62.4497608 C85.0886012,60.5389474 84.4367277,58.7356172 82.9229878,57.0367847 C81.0201143,54.9020478 78.8813721,53.8242297 76.5117372,53.8033301 C74.1411072,53.7824306 72.0222695,54.6054737 70.1542289,56.2714641 L68.3349544,57.8946603 C67.6054532,58.5425455 67.6741239,59.3536459 68.5409663,60.3229856 L76.199236,68.9136842 C77.4761119,70.345799 78.7082026,70.5299139 79.8984938,69.4710048 L81.8988995,67.6845933 Z M100.584281,67.0964211 C100.998296,67.5114258 101.626284,67.7035024 102.468246,67.6706603 C103.311203,67.6388134 103.839668,67.743311 104.057623,67.9871388 L104.153164,68.0966124 C104.458699,68.4359809 104.353205,68.8310813 103.843649,69.2858947 L98.2753554,74.2530144 C97.7657993,74.7068325 97.3597468,74.764555 97.0562026,74.4241914 L96.9586704,74.3147177 C96.7437014,74.0728804 96.6710499,73.6150813 96.7456919,72.9383349 C96.8173482,72.2635789 96.6601024,71.7082488 96.2689783,71.2703541 C94.7512575,69.6650718 93.0135916,68.5235598 91.0599616,67.8478086 C89.108322,67.1710622 87.181563,67.1362297 85.28068,67.7413206 C84.7910284,68.265799 84.3750236,68.6798086 84.0366465,68.9813589 L79.7034294,72.8447847 L85.9355391,79.8331866 C86.4122527,80.3656268 87.0880117,80.6243828 87.9648064,80.6044785 C88.8396107,80.5865646 89.3760379,80.6840957 89.5711024,80.9040383 L89.6676394,81.0125167 C89.9711835,81.3528804 89.854742,81.7609187 89.3222957,82.2356364 L83.6067086,87.332134 C83.0981477,87.7869474 82.6911,87.8456651 82.3885511,87.503311 L82.2910189,87.3948325 C82.0969496,87.1768804 82.0342504,86.6553876 82.1049115,85.8293589 C82.1745773,85.0053206 81.9725463,84.3265837 81.4958327,83.7911579 L63.8405105,63.9923445 C63.3647921,63.4589091 62.7109282,63.1792536 61.88489,63.1543732 C61.0568613,63.1314833 60.5453148,63.010067 60.3512456,62.7921148 L60.2527181,62.6816459 C59.9511644,62.3432727 60.0536728,61.9441914 60.5632289,61.4903732 L68.789773,54.1556364 C72.1138303,51.1918852 75.3891215,49.5020096 78.6116656,49.088 C81.8362002,48.6739904 84.6387587,49.7796746 87.0223267,52.4010718 C88.2355081,53.7605359 88.9520714,55.4076172 89.1759974,57.3423158 C89.3979329,59.2780096 89.0824461,61.258488 88.2295368,63.2817608 C90.4707874,62.765244 92.677205,62.8568038 94.8458041,63.5564402 C97.0173888,64.2570718 98.9302146,65.4364019 100.584281,67.0964211 L100.584281,67.0964211 Z" id="text" fill="#FFFFFF"></path>
        </g>
    </g>
</svg>