<svg id="Layer_1" data-name="Layer 1" xmlns="http://www.w3.org/2000/svg" viewBox="0 0 485 485"><defs><style>.cls-1{fill:#8eeca3;}</style></defs><title>Artboard 1</title><path class="cls-1" d="M414,71A242.5,242.5,0,1,0,71,414,242.5,242.5,0,1,0,414,71ZM242.5,455C125.33,455,30,359.67,30,242.5S125.33,30,242.5,30,455,125.33,455,242.5,359.67,455,242.5,455Z"/><path class="cls-1" d="M318.51,231.49a35,35,0,1,0-35-35A35,35,0,0,0,318.51,231.49Z"/><path class="cls-1" d="M166.49,231.49a35,35,0,1,0-35-35A35.05,35.05,0,0,0,166.49,231.49Z"/><path class="cls-1" d="M242.5,355a113,113,0,0,1-105.6-73.7l-28.15,10.37a142.5,142.5,0,0,0,267.5,0L348.1,281.3A113,113,0,0,1,242.5,355Z"/></svg>