<?xml version="1.0" encoding="UTF-8"?>
<svg width="967px" height="446px" viewBox="0 0 967 446" version="1.1" xmlns="http://www.w3.org/2000/svg" xmlns:xlink="http://www.w3.org/1999/xlink">
    <!-- Generator: Sketch 62 (91390) - https://sketch.com -->
    <title>building-with-the-american-spirit</title>
    <desc>Created with Sketch.</desc>
    <g id="Page-1" stroke="none" stroke-width="1" fill="none" fill-rule="evenodd">
        <g id="Barton-Malow" transform="translate(-237.000000, -3488.000000)" fill="#FEFEFE">
            <g id="building-with-the-american-spirit" transform="translate(237.000000, 3488.000000)">
                <text id="PEOPLE-•-PLACES-•-CO" font-family="Industry-Ultra, Industry" font-size="28" font-weight="600">
                    <tspan x="0" y="441">PEOPLE • PLACES • COMMUNITIES</tspan>
                </text>
                <path d="M779,209 L790,209 L790,198 L779,198 L779,209 Z M840,173 L851,173 L851,162 L840,162 L840,173 Z M853,201 L864,201 L864,190 L853,190 L853,201 Z M711,180 L722,180 L722,169 L711,169 L711,180 Z M766,157 L777,157 L777,146 L766,146 L766,157 Z M747,175 L758,175 L758,164 L747,164 L747,175 Z M740,228 L751,228 L751,217 L740,217 L740,228 Z M729,265 L740,265 L740,254 L729,254 L729,265 Z M821,239 L832,239 L832,228 L821,228 L821,239 Z M848,248 L859,248 L859,237 L848,237 L848,248 Z M804,282 L815,282 L815,271 L804,271 L804,282 Z M824,379 L835,379 L835,368 L824,368 L824,379 Z M840,402 L851,402 L851,391 L840,391 L840,402 Z M601.257079,446 C602.94364,446 604.31466,444.628799 604.31466,442.942013 L604.31466,424.879098 L651.041832,378.145725 L688.55101,378.145725 L707.523911,397.11992 C708.101182,397.698491 708.869246,398.016521 709.686232,398.016521 C710.503217,398.016521 711.271282,397.698491 711.84733,397.11992 L723.43923,385.527704 C724.630464,384.33509 724.630464,382.395103 723.43923,381.203711 L711.733588,369.495292 L795.183529,369.495292 L820.083243,394.399535 L820.083243,419.538631 C820.083243,420.355725 820.401232,421.122668 820.979726,421.701239 L841.072924,441.79588 C841.651418,442.374451 842.41826,442.692482 843.235245,442.692482 L859.485675,442.692482 C861.172237,442.692482 862.543256,441.321281 862.543256,439.634495 L862.543256,387.426102 C862.543256,386.610232 862.225268,385.842065 861.647997,385.264717 L829.816135,353.428631 L829.816135,326.178301 L851.230207,304.761387 L863.623194,304.761387 C864.427949,304.761387 865.215582,304.43357 865.785515,303.864785 L896.565569,273.079423 C897.144063,272.502075 897.463275,271.733909 897.463275,270.918038 L897.463275,243.759448 C897.463275,242.943577 897.144063,242.176634 896.565569,241.598063 L873.398891,218.427087 L873.398891,208.916749 L885.322233,220.841673 C885.899504,221.419021 886.667569,221.737052 887.484554,221.737052 C888.30154,221.737052 889.069604,221.419021 889.645652,220.841673 L900.145385,210.340547 C900.723879,209.763199 901.041867,208.995033 901.041867,208.177939 C901.041867,207.360845 900.723879,206.592679 900.145385,206.016554 L891.297969,197.166741 L895.65441,197.166741 C897.340972,197.166741 898.711991,195.79554 898.711991,194.108755 L898.711991,165.04565 L912.637437,151.11958 L927.197636,151.11958 C928.013399,151.11958 928.781463,150.801549 929.358735,150.224201 L944.32865,135.253522 C944.907144,134.676174 945.225133,133.908008 945.225133,133.090914 C945.225133,132.27382 944.907144,131.505654 944.32865,130.928306 L932.670706,119.270038 L947.568463,104.369081 C948.146957,103.791733 948.466168,103.023567 948.466168,102.20525 L948.466168,86.6266432 L955.01306,86.6266432 C955.817816,86.6266432 956.604225,86.3000502 957.174158,85.7312647 L966.10474,76.8007208 C966.683235,76.2233729 967,75.4552067 967,74.6381127 C967,73.8222418 966.683235,73.0540756 966.10474,72.4767278 L956.129689,62.5003524 L956.129689,47.9015246 C956.129689,47.0844306 955.8117,46.3162644 955.233206,45.7389165 L943.61073,34.114898 C943.040797,33.5461125 942.254387,33.2182964 941.449632,33.2182964 L927.030081,33.2182964 C925.343519,33.2182964 923.9725,34.5907207 923.9725,36.2762829 L923.9725,67.657341 L903.22498,88.4088377 L879.02484,88.4088377 C878.218861,88.4088377 877.431229,88.7354307 876.862519,89.3042162 L866.65876,99.5093289 C866.081489,100.086677 865.7635,100.85362 865.7635,101.670714 L865.7635,121.707865 L856.255647,121.707865 C855.450892,121.707865 854.664482,122.034458 854.094549,122.603243 L834.467326,142.233071 L818.588698,142.233071 C817.771712,142.233071 817.003648,142.552324 816.426377,143.129672 L786.252947,173.305884 L777.522942,164.57472 L789.895137,152.200884 C790.472408,151.623536 790.790396,150.85537 790.790396,150.038276 L790.790396,134.683513 C790.790396,132.996728 789.419377,131.625527 787.732816,131.625527 L775.958684,131.625527 L783.331122,124.253333 C783.908394,123.675985 784.226382,122.907819 784.226382,122.090725 C784.226382,121.273631 783.908394,120.505465 783.331122,119.928117 L763.266054,99.861609 C762.688783,99.2842611 761.921942,98.9650073 761.104956,98.9650073 C760.287971,98.9650073 759.519906,99.2842611 758.942635,99.861609 L731.961319,126.846506 C731.382825,127.425077 731.064837,128.19202 731.064837,129.009114 C731.064837,129.824984 731.382825,130.593151 731.961319,131.171722 L741.042334,140.253942 L741.042334,161.763819 L734.182346,168.625941 L725.583206,160.024436 L725.583206,125.047186 C725.583206,124.230092 725.265217,123.461926 724.686723,122.884578 L720.09546,118.292706 L742.102703,96.2837647 L768.211997,96.2837647 C769.454598,96.2837647 770.563888,95.5425088 771.037202,94.3963754 C771.511738,93.2490188 771.252455,91.9402006 770.374318,91.06317 L758.294428,78.9816768 C757.714711,78.4043289 756.947869,78.0875215 756.132107,78.0875215 L735.028684,78.0875215 C734.212922,78.0875215 733.44608,78.4043289 732.866363,78.9829 L725.312916,86.5373499 L718.801492,80.0250618 L718.801492,73.2204301 C718.801492,71.5348679 717.430472,70.1624435 715.743911,70.1624435 L708.147657,70.1624435 C707.330671,70.1624435 706.562607,70.4804741 705.985336,71.057822 L696.889645,80.1547204 L678.744737,80.1547204 L688.840869,70.0572488 C689.719006,69.1789951 689.978289,67.8714 689.503752,66.7240435 C689.027993,65.5779101 687.919926,64.8378773 686.678548,64.8378773 L677.178033,64.8378773 L671.476256,59.1341208 C670.994381,58.6546285 670.358405,58.3439371 669.68696,58.2632063 L500.211372,37.5153791 L325.443724,0.0684988989 C325.233362,0.0232406978 325.016886,0 324.800409,0 C324.104503,0 323.423274,0.240969341 322.880248,0.68009621 C322.157436,1.26233685 321.744051,2.12958184 321.744051,3.05798656 L321.744051,16.8287116 L317.597972,12.6820818 C317.019477,12.104734 316.251413,11.7854802 315.43565,11.7854802 L300.578254,11.7854802 C298.891692,11.7854802 297.520673,13.1579046 297.520673,14.8434667 L297.520673,45.8306561 L270.89526,72.4583798 C270.319211,73.0369509 270,73.8051171 270,74.6209879 L270,98.3864363 L276.115162,98.3864363 L276.115162,75.8869944 L302.739352,49.2592706 C303.316623,48.6819228 303.635835,47.9137566 303.635835,47.0966625 L303.635835,17.9014533 L314.168589,17.9014533 L322.639311,26.3732993 C323.216582,26.9506471 323.983423,27.2699009 324.801632,27.2699009 C325.206456,27.2699009 325.600272,27.1916165 325.970851,27.0362707 C327.118055,26.5628944 327.859213,25.4534569 327.859213,24.2119144 L327.859213,6.84010433 L499.01647,43.5127023 C499.104528,43.5322734 499.192586,43.5469517 499.281868,43.5579605 L667.897664,64.2054857 L673.749873,70.0572488 C674.328368,70.6345967 675.093986,70.9538505 675.910971,70.9538505 L679.297548,70.9538505 L669.200193,81.0513221 C668.322056,81.9295758 668.06155,83.238394 668.53731,84.3845274 C669.013069,85.5306608 670.122359,86.2706935 671.363737,86.2706935 L698.155483,86.2706935 C698.972469,86.2706935 699.740533,85.9526629 700.317804,85.3753151 L709.413495,76.2784166 L712.68633,76.2784166 L712.68633,81.2910682 C712.68633,82.106939 713.004318,82.8738821 713.580367,83.4536763 L723.150594,93.023951 C723.727866,93.6012989 724.49593,93.9193295 725.312916,93.9193295 C726.129901,93.9193295 726.896742,93.6012989 727.475237,93.023951 L736.294523,84.2034946 L754.866268,84.2034946 L760.830997,90.1677916 L740.835642,90.1677916 C740.018656,90.1677916 739.251815,90.4858222 738.674544,91.06317 L713.610942,116.131321 C712.418486,117.322712 712.418486,119.262699 713.610942,120.455314 L719.468044,126.313193 L719.468044,161.290443 C719.468044,162.107537 719.786033,162.87448 720.363304,163.453051 L732.020025,175.111319 C732.598519,175.68989 733.36536,176.007921 734.182346,176.007921 C734.999331,176.007921 735.767396,175.68989 736.344667,175.111319 L746.262236,165.192434 C746.84073,164.615086 747.157496,163.848143 747.157496,163.031049 L747.157496,138.987935 C747.157496,138.170841 746.84073,137.402675 746.262236,136.825327 L738.445837,129.009114 L761.104956,106.34821 L776.845382,122.090725 L766.415362,132.520905 C765.538448,133.399159 765.277942,134.707977 765.752479,135.852888 C766.227016,137.000244 767.335083,137.7415 768.577684,137.7415 L784.675235,137.7415 L784.675235,148.772269 L771.038425,162.413336 C769.845968,163.604727 769.845968,165.544714 771.038425,166.737329 L784.091848,179.792485 C784.667897,180.369833 785.435961,180.687863 786.252947,180.687863 C787.069932,180.687863 787.836773,180.371056 788.416491,179.792485 L819.854536,148.349044 L835.733165,148.349044 C836.53792,148.349044 837.325553,148.022451 837.895486,147.453665 L857.522709,127.823838 L868.821081,127.823838 C870.507643,127.823838 871.878662,126.451414 871.878662,124.765851 L871.878662,102.93672 L880.290678,94.5248108 L904.490818,94.5248108 C905.295574,94.5248108 906.08443,94.1969947 906.65314,93.6282092 L929.191179,71.0859555 C929.769673,70.5086076 930.087662,69.7404414 930.087662,68.9233474 L930.087662,39.3342695 L940.183794,39.3342695 L950.014527,49.167531 L950.014527,63.7663589 C950.014527,64.5846761 950.332516,65.3528423 950.91101,65.9289669 L959.619,74.6381127 L953.745999,80.51067 L945.408588,80.51067 C943.722026,80.51067 942.351007,81.8830944 942.351007,83.5686566 L942.351007,100.939243 L926.184966,117.106207 C925.607694,117.684778 925.289706,118.452944 925.289706,119.270038 C925.289706,120.087132 925.607694,120.854075 926.184966,121.431423 L937.84291,133.090914 L925.931798,145.003607 L911.370375,145.003607 C910.56562,145.003607 909.777987,145.330199 909.208054,145.900208 L893.493312,161.617036 C892.914818,162.194384 892.596829,162.96255 892.596829,163.779644 L892.596829,191.050768 L883.916969,191.050768 C882.675591,191.050768 881.567524,191.792024 881.091764,192.938157 C880.616005,194.085514 880.876511,195.393109 881.754648,196.271363 L893.659644,208.177939 L887.484554,214.353849 L872.503631,199.372161 C871.925137,198.79359 871.157073,198.475559 870.340087,198.475559 C869.936487,198.475559 869.54267,198.553844 869.170868,198.70919 C868.024887,199.183789 867.283729,200.292003 867.283729,201.533546 L867.283729,219.693093 C867.283729,220.510187 867.601718,221.278354 868.180212,221.855701 L891.348113,245.026677 L891.348113,269.650808 L862.357355,298.645413 L849.964369,298.645413 C849.147383,298.645413 848.380542,298.963444 847.802048,299.540792 L824.597456,322.749687 C824.018961,323.327035 823.700973,324.095201 823.700973,324.911072 L823.700973,354.695861 C823.700973,355.511731 824.018961,356.279898 824.597456,356.857246 L856.428095,388.692109 L856.428095,436.576509 L844.501084,436.576509 L826.198405,418.271401 L826.198405,393.133528 C826.198405,392.316434 825.88164,391.549491 825.303145,390.972144 L798.611688,364.275921 C798.034417,363.698573 797.266353,363.379319 796.449367,363.379319 L704.351365,363.379319 C703.109987,363.379319 702.000697,364.120575 701.527383,365.266709 C701.051624,366.415288 701.312129,367.724107 702.190267,368.599914 L716.952267,383.365096 L709.686232,390.633319 L691.97917,372.92513 C691.41046,372.356345 690.622827,372.029752 689.818072,372.029752 L649.775994,372.029752 C648.959008,372.029752 648.192167,372.347782 647.614896,372.92513 L599.095981,421.450484 C598.517487,422.027832 598.199498,422.795998 598.199498,423.613092 L598.199498,439.884027 L576.631323,439.884027 L560.519096,423.769661 L560.519096,404.372241 C560.519096,403.55637 560.201107,402.788204 559.622613,402.210856 L528.325216,370.908082 C527.746722,370.330734 526.979881,370.01148 526.162895,370.01148 C525.345909,370.01148 524.579068,370.330734 524.000574,370.908082 L511.588019,383.321061 L490.287688,362.017904 L490.287688,338.122797 C490.287688,336.437234 488.916669,335.06481 487.230107,335.06481 L404.594706,335.06481 L397.609969,328.080369 L397.609969,336.729578 L401.165323,340.284182 C401.73281,340.852967 402.520443,341.180783 403.327645,341.180783 L484.172527,341.180783 L484.172527,363.28391 C484.172527,364.101004 484.490515,364.86917 485.067786,365.446518 L509.425698,389.807662 C510.002969,390.38501 510.771033,390.703041 511.588019,390.703041 C512.405004,390.703041 513.171846,390.38501 513.75034,389.807662 L526.162895,377.39346 L554.403934,405.638247 L554.403934,425.035667 C554.403934,425.841753 554.730484,426.62949 555.299194,427.198275 L573.203164,445.103398 C573.780435,445.681969 574.548499,446 575.365485,446 L601.257079,446 Z M613.492958,176.405378 L613.492958,173.183145 L606.300469,173.183145 L606.300469,178.59952 L615.066667,178.59952 L615.066667,183.056183 L606.300469,183.056183 L606.300469,188.816855 L613.492958,188.816855 L613.492958,185.593422 L618,185.593422 L618,193 L598,193 L598,188.953614 L601.147418,188.953614 L601.147418,173.045186 L598,173.045186 L598,169 L618,169 L618,176.405378 L613.492958,176.405378 Z M591.919873,173.045186 L591.919873,188.953614 L595,188.953614 L595,193 L583.865474,193 L583.865474,188.953614 L586.876991,188.953614 L586.876991,183.056183 L578.123009,183.056183 L578.123009,188.953614 L581.134526,188.953614 L581.134526,193 L570,193 L570,188.953614 L573.081353,188.953614 L573.081353,173.045186 L570,173.045186 L570,169 L581.134526,169 L581.134526,173.045186 L578.123009,173.045186 L578.123009,178.59952 L586.876991,178.59952 L586.876991,173.045186 L583.865474,173.045186 L583.865474,169 L595,169 L595,173.045186 L591.919873,173.045186 Z M563.661486,177.43347 L563.661486,173.113566 L559.978205,173.113566 L559.978205,188.953614 L563.695211,188.953614 L563.695211,193 L551.303585,193 L551.303585,188.953614 L555.020591,188.953614 L555.020591,173.113566 L551.338514,173.113566 L551.338514,177.43347 L547,177.43347 L547,169 L568,169 L568,177.43347 L563.661486,177.43347 Z M615.782008,147.034616 L615.782008,158.965384 L618,158.965384 L618,162 L609.984013,162 L609.984013,158.965384 L612.150793,158.965384 L612.150793,154.542804 L605.847988,154.542804 L605.847988,158.965384 L608.015987,158.965384 L608.015987,162 L600,162 L600,158.965384 L602.217992,158.965384 L602.217992,147.034616 L600,147.034616 L600,144 L608.015987,144 L608.015987,147.034616 L605.847988,147.034616 L605.847988,151.199751 L612.150793,151.199751 L612.150793,147.034616 L609.984013,147.034616 L609.984013,144 L618,144 L618,147.034616 L615.782008,147.034616 Z M594.902006,150.325434 L594.902006,147.085608 L592.271387,147.085608 L592.271387,158.965384 L594.925791,158.965384 L594.925791,162 L586.075398,162 L586.075398,158.965384 L588.729803,158.965384 L588.729803,147.085608 L586.099183,147.085608 L586.099183,150.325434 L583,150.325434 L583,144 L598,144 L598,150.325434 L594.902006,150.325434 Z M578.756083,147.034616 L578.756083,158.965384 L581,158.965384 L581,162 L573,162 L573,158.965384 L575.243917,158.965384 L575.243917,147.034616 L573,147.034616 L573,144 L581,144 L581,147.034616 L578.756083,147.034616 Z M571,147.034616 L569.01753,147.034616 L565.353664,162 L561.538047,162 L558.575875,150.274442 L555.613704,162 L551.62327,162 L547.98247,147.034616 L546,147.034616 L546,144 L553.681008,144 L553.681008,147.034616 L551.62327,147.034616 L553.730782,157.216748 L557.045015,144 L560.106735,144 L563.420968,157.216748 L565.528481,147.034616 L563.470742,147.034616 L563.470742,144 L571,144 L571,147.034616 Z M354.306757,329.645862 L345.834108,329.645862 L345.834108,372.987982 L355.248838,372.987982 L355.248838,388 L316.751162,388 L316.751162,372.987982 L326.165892,372.987982 L326.165892,329.645862 L317.692027,329.645862 L317.692027,342.120049 L302,342.120049 L302,314 L370,314 L370,342.120049 L354.306757,342.120049 L354.306757,329.645862 Z M287.460892,372.987982 L297,372.987982 L297,388 L258,388 L258,372.987982 L267.537876,372.987982 L267.537876,329.01079 L258,329.01079 L258,314 L297,314 L297,329.01079 L287.460892,329.01079 L287.460892,372.987982 Z M227.09419,345 C228.57676,345 229,344.585303 229,343.13687 L229,331.861928 C229,330.413495 228.57676,330 227.09419,330 L211,330 L211,345 L227.09419,345 Z M254,388 L232.121503,388 L219.815765,360.196873 L211.610718,360.196873 L211.610718,372.987982 L218.551946,372.987982 L218.551946,388 L183,388 L183,372.987982 L191.835735,372.987982 L191.835735,329.01079 L183,329.01079 L183,314 L234.962041,314 C244.638692,314 249.2674,318.650642 249.2674,328.376946 L249.2674,343.282096 C249.2674,351.739484 245.796175,356.391355 238.538381,357.447761 L245.480831,372.987982 L254,372.987982 L254,388 Z M167.461194,372.987982 L177,372.987982 L177,388 L138,388 L138,372.987982 L147.537575,372.987982 L147.537575,329.01079 L138,329.01079 L138,314 L177,314 L177,329.01079 L167.461194,329.01079 L167.461194,372.987982 Z M114,331.849184 C114,330.410665 113.574257,330 112.081683,330 L96,330 L96,345 L112.081683,345 C113.574257,345 114,344.588142 114,343.150816 L114,331.849184 Z M119.72973,314 C129.383865,314 134,318.650642 134,328.376946 L134,347.194482 C134,356.919558 129.383865,361.571429 119.72973,361.571429 L96.5405405,361.571429 L96.5405405,372.987982 L107.454176,372.987982 L107.454176,388 L68,388 L68,372.987982 L76.8140622,372.987982 L76.8140622,329.01079 L68,329.01079 L68,314 L119.72973,314 Z M40.3078324,331.759902 C40.3078324,330.279705 39.8901032,329.857143 38.4268367,329.857143 L24.7377049,329.857143 C23.2744384,329.857143 22.8567092,330.279705 22.8567092,331.759902 L22.8567092,337.468178 C22.8567092,338.631453 23.1700061,338.948375 25.0510018,339.476578 L45.9508197,344.762292 C56.1924712,347.405763 61,349.414163 61,359.985591 L61,373.621825 C61,383.348129 56.4025501,388 46.7874924,388 L17.2125076,388 C7.59744991,388 3,383.348129 3,373.621825 L3,363.474187 L22.6466302,363.474187 L22.6466302,370.240098 C22.6466302,371.720295 23.0655738,372.141629 24.5288403,372.141629 L39.4711597,372.141629 C40.9356406,372.141629 41.3533698,371.720295 41.3533698,370.240098 L41.3533698,363.791109 C41.3533698,362.627834 40.8312083,362.310913 39.1590771,361.88835 L18.2580449,356.496995 C8.01639344,353.853524 3.2088646,351.845125 3.2088646,341.273696 L3.2088646,328.376946 C3.2088646,318.650642 7.80752884,314 17.4213722,314 L45.7431694,314 C55.3570128,314 59.955677,318.650642 59.955677,328.376946 L59.955677,337.7851 L40.3078324,337.7851 L40.3078324,331.759902 Z M598.122591,231.01079 L598.122591,290 L578.573874,290 L552.052154,242.322931 L552.052154,274.987982 L560.504724,274.987982 L560.504724,290 L525,290 L525,274.987982 L533.876181,274.987982 L533.876181,231.01079 L525,231.01079 L525,216 L556.595226,216 L579.947846,259.553401 L579.947846,231.01079 L571.495276,231.01079 L571.495276,216 L607,216 L607,231.01079 L598.122591,231.01079 Z M480.551961,231 L474,254 L487,254 L480.551961,231 Z M521,290 L486.794636,290 L486.794636,274.987982 L492.775941,274.987982 L490.46803,267.165665 L469.693173,267.165665 L467.385261,274.987982 L473.364129,274.987982 L473.364129,290 L440,290 L440,274.987982 L448.078299,274.987982 L462.453671,231.01079 L453.955974,231.01079 L453.955974,216 L493.405039,216 L512.921701,274.987982 L521,274.987982 L521,290 Z M392.288776,290 C382.622516,290 378,285.348129 378,275.621825 L378,230.376946 C378,220.650642 382.832519,216 392.5,216 L421.920007,216 C431.586266,216 436,220.650642 436,230.376946 L436,244.22569 L416.246253,244.22569 L416.246253,234.393745 C416.246253,232.913549 415.825025,232.490986 414.355002,232.490986 L399.643777,232.490986 C398.173754,232.490986 397.753747,232.913549 397.753747,234.393745 L397.753747,271.605026 C397.753747,273.085223 398.173754,273.507785 399.643777,273.507785 L414.355002,273.507785 C415.825025,273.507785 416.246253,273.085223 416.246253,271.605026 L416.246253,261.77431 L436,261.77431 L436,275.621825 C436,285.348129 431.377484,290 421.711224,290 L392.288776,290 Z M361.462425,274.987982 L371,274.987982 L371,290 L332,290 L332,274.987982 L341.537575,274.987982 L341.537575,231.01079 L332,231.01079 L332,216 L371,216 L371,231.01079 L361.462425,231.01079 L361.462425,274.987982 Z M302.09542,247 C303.57799,247 304,246.585303 304,245.13687 L304,233.861928 C304,232.413495 303.57799,232 302.09542,232 L286,232 L286,247 L302.09542,247 Z M328,290 L306.12188,290 L293.815132,262.196873 L285.610226,262.196873 L285.610226,274.987982 L292.552556,274.987982 L292.552556,290 L257,290 L257,274.987982 L265.836805,274.987982 L265.836805,231.01079 L257,231.01079 L257,216 L308.962369,216 C318.638854,216 323.267481,220.650642 323.267481,230.376946 L323.267481,245.282096 C323.267481,253.739484 319.796316,258.391355 312.538647,259.447761 L319.479756,274.987982 L328,274.987982 L328,290 Z M234.130872,232.068424 L216.777855,232.068424 L216.777855,244.542611 L241.218378,244.542611 L241.218378,260.188473 L216.777855,260.188473 L216.777855,273.930348 L234.130872,273.930348 L234.130872,266.108031 L250,266.108031 L250,290 L188,290 L188,274.987982 L196.88858,274.987982 L196.88858,231.01079 L188,231.01079 L188,216 L250,216 L250,239.891969 L234.130872,239.891969 L234.130872,232.068424 Z M173.177197,274.987982 L182,274.987982 L182,290 L148.389382,290 L148.389382,274.987982 L154.480765,274.987982 L154.480765,241.054015 L140.722368,276.7851 L126.647868,276.7851 L112.88825,241.054015 L112.88825,274.987982 L119.189555,274.987982 L119.189555,290 L86,290 L86,274.987982 L94.8228025,274.987982 L94.8228025,231.01079 L86,231.01079 L86,216 L120.765186,216 L134.629764,251.731085 L148.494343,216 L182,216 L182,231.01079 L173.177197,231.01079 L173.177197,274.987982 Z M40.5519613,231 L34,254 L47,254 L40.5519613,231 Z M81,290 L46.7951504,290 L46.7951504,274.987982 L52.7751471,274.987982 L50.4672707,267.165665 L29.6927257,267.165665 L27.3848493,274.987982 L33.3648459,274.987982 L33.3648459,290 L0,290 L0,274.987982 L8.07939614,274.987982 L22.4533331,231.01079 L13.9557639,231.01079 L13.9557639,216 L53.4054546,216 L72.9206039,274.987982 L81,274.987982 L81,290 Z M511.281667,136.182464 C511.281667,134.702268 510.859166,134.279705 509.37364,134.279705 L492.838226,134.279705 C491.353931,134.279705 490.928967,134.702268 490.928967,136.182464 L490.928967,173.816308 C490.928967,175.296504 491.353931,175.720295 492.838226,175.720295 L509.37364,175.720295 C510.859166,175.720295 511.281667,175.296504 511.281667,173.816308 L511.281667,164.513794 L499.409772,164.513794 L499.409772,148.867933 L531,148.867933 L531,177.621825 C531,187.348129 526.335249,192 516.583248,192 L485.416752,192 C475.663519,192 471,187.348129 471,177.621825 L471,132.376946 C471,122.650642 475.663519,118 485.416752,118 L516.583248,118 C526.335249,118 531,122.650642 531,132.376946 L531,142.420172 L511.281667,142.420172 L511.281667,136.182464 Z M456.123686,133.01079 L456.123686,192 L436.574676,192 L410.051331,144.322931 L410.051331,176.987982 L418.505256,176.987982 L418.505256,192 L383,192 L383,176.987982 L391.876314,176.987982 L391.876314,133.01079 L383,133.01079 L383,118 L414.594472,118 L437.948669,161.553401 L437.948669,133.01079 L429.494744,133.01079 L429.494744,118 L465,118 L465,133.01079 L456.123686,133.01079 Z M367.462124,176.987982 L377,176.987982 L377,192 L338,192 L338,176.987982 L347.537876,176.987982 L347.537876,133.01079 L338,133.01079 L338,118 L377,118 L377,133.01079 L367.462124,133.01079 L367.462124,176.987982 Z M310.055592,176 C311.567212,176 312,175.577611 312,174.09802 L312,136.90198 C312,135.422389 311.567212,135 310.055592,135 L293,135 L293,176 L310.055592,176 Z M273.847971,176.987982 L273.847971,133.01079 L265,133.01079 L265,118 L317.672848,118 C327.365465,118 332,122.650642 332,132.376946 L332,177.621825 C332,187.348129 327.365465,192 317.672848,192 L265,192 L265,176.987982 L273.847971,176.987982 Z M198,192 L198,176.987982 L206.879249,176.987982 L206.879249,133.01079 L198,133.01079 L198,118 L236.269957,118 L236.269957,133.01079 L226.755599,133.01079 L226.755599,175.825935 L243.141916,175.825935 L243.141916,162.927957 L259,162.927957 L259,192 L198,192 Z M183.462425,176.987982 L193,176.987982 L193,192 L154,192 L154,176.987982 L163.538806,176.987982 L163.538806,133.01079 L154,133.01079 L154,118 L193,118 L193,133.01079 L183.462425,133.01079 L183.462425,176.987982 Z M139.199955,133.01079 L139.199955,177.621825 C139.199955,186.925567 134.173096,192 124.954348,192 L96.0444343,192 C86.826904,192 81.7988283,186.925567 81.7988283,177.621825 L81.7988283,133.01079 L73,133.01079 L73,118 L107.776611,118 L107.776611,133.01079 L101.491212,133.01079 L101.491212,172.971183 C101.491212,174.240098 102.120482,174.873942 103.376588,174.873942 L117.622194,174.873942 C118.879518,174.873942 119.508788,174.240098 119.508788,172.971183 L119.508788,133.01079 L113.223389,133.01079 L113.223389,118 L148,118 L148,133.01079 L139.199955,133.01079 Z M46.0841584,177 C47.575495,177 48,176.350554 48,168.999372 C48,161.64819 47.575495,161 46.0841584,161 L30,161 L30,177 L46.0841584,177 Z M45.0995237,148 C46.5779446,148 47,147.364029 47,140.999384 C47,134.635971 46.5779446,134 45.0995237,134 L30,134 L30,148 L45.0995237,148 Z M2,133.01079 L2,118 L52.8899357,118 C62.5426735,118 67.1611616,122.650642 67.1611616,136.499386 C67.1611616,148.33973 65.6919752,152.779091 58.6618266,154.153647 C66.2162492,154.894359 68,161.025198 68,172.654261 C68,187.348129 63.3827311,192 53.7299933,192 L2,192 L2,176.987982 L10.8151186,176.987982 L10.8151186,133.01079 L2,133.01079 Z" id="Fill-1"></path>
            </g>
        </g>
    </g>
</svg>