<?xml version="1.0" encoding="UTF-8"?>
<svg width="92px" height="56px" viewBox="0 0 92 56" version="1.1" xmlns="http://www.w3.org/2000/svg" xmlns:xlink="http://www.w3.org/1999/xlink">
    <!-- Generator: Sketch 51.3 (57544) - http://www.bohemiancoding.com/sketch -->
    <title>icons/folder</title>
    <desc>Created with Sketch.</desc>
    <defs></defs>
    <g id="icons/folder" stroke="none" stroke-width="1" fill="none" fill-rule="evenodd">
        <path d="M0,56 L0,12.1459459 C0,9.01800238 1.55133584,7.45405405 4.65405405,7.45405405 L6.81081081,7.45405405 C7.89550092,7.45405405 8.66486259,7.28378549 9.11891892,6.94324324 C9.57297524,6.602701 9.92612486,5.94054546 10.1783784,4.95675676 L10.5567568,3.44324324 C10.9603624,1.85404611 11.4774743,0.882884649 12.1081081,0.52972973 C12.7135165,0.176574811 14.176565,0 16.4972973,0 L30.9513514,0 C33.0450555,0 34.3819791,0.163962324 34.9621622,0.491891892 C35.5423452,0.819821459 36.0468447,1.70269551 36.4756757,3.14054054 L36.8918919,4.54054054 C37.3207229,5.97838557 37.7180162,6.82342216 38.0837838,7.07567568 C38.4495514,7.32792919 39.4648565,7.45405405 41.1297297,7.45405405 L67.2756757,7.45405405 C69.0666756,7.45405405 70.2837806,7.78828495 70.927027,8.45675676 C71.5702735,9.12522857 71.8918919,10.380171 71.8918919,12.2216216 L71.8918919,15.8540541 L86.9135135,15.8540541 C89.6378515,15.8540541 91.0378375,16.3333285 91.1135135,17.2918919 C91.1387389,17.4936947 90.6973018,18.5153061 89.7891892,20.3567568 L71.8918919,56 L0,56 Z M1.85405405,52.1405405 L18.1243243,20.4324324 C19.3099158,18.1369255 20.2306274,16.8000019 20.8864865,16.4216216 C21.5423456,16.0432414 23.2450313,15.8540541 25.9945946,15.8540541 L70.0378378,15.8540541 L70.0378378,12.2216216 C70.0378378,10.2792696 69.0919014,9.30810811 67.2,9.30810811 L40.9027027,9.30810811 C38.5315197,9.30810811 37.0684712,9.16937076 36.5135135,8.89189189 C35.9585558,8.61441303 35.5045063,7.75676395 35.1513514,6.31891892 L34.6972973,4.57837838 C34.3693677,3.34233616 33.9972994,2.57928073 33.5810811,2.28918919 C33.1648628,1.99909765 32.237845,1.85405405 30.8,1.85405405 L16.8,1.85405405 C15.1855775,1.85405405 14.1009037,2.00540389 13.5459459,2.30810811 C12.9909882,2.63603768 12.5621637,3.34233692 12.2594595,4.42702703 L11.8054054,6.16756757 C11.4017998,7.60541259 10.9540565,8.48828665 10.4621622,8.81621622 C9.97026781,9.14414578 8.87928773,9.30810811 7.18918919,9.30810811 L4.84324324,9.30810811 C3.63242638,9.30810811 2.83153349,9.49098916 2.44054054,9.85675676 C2.04954759,10.2225244 1.85405405,10.9981923 1.85405405,12.1837838 L1.85405405,52.1405405 Z M2.98918919,54.1459459 L70.6810811,54.1459459 L87.4432432,20.5459459 C87.998201,19.3351291 88.2756757,18.6540548 88.2756757,18.5027027 C88.1999996,17.9729703 87.4180255,17.7081081 85.9297297,17.7081081 L24.8594595,17.7081081 C23.3963891,17.7081081 22.3873902,17.8720704 21.8324324,18.2 C21.2774747,18.5279296 20.7099128,19.2720663 20.1297297,20.4324324 L2.98918919,54.1459459 Z" id="1" fill="#FFFFFF"></path>
    </g>
</svg>