<?xml version="1.0" encoding="UTF-8"?>
<svg width="32px" height="56px" viewBox="0 0 32 56" version="1.1" xmlns="http://www.w3.org/2000/svg" xmlns:xlink="http://www.w3.org/1999/xlink">
    <!-- Generator: Sketch 51.3 (57544) - http://www.bohemiancoding.com/sketch -->
    <title>icons/hourglass</title>
    <desc>Created with Sketch.</desc>
    <defs></defs>
    <g id="icons/hourglass" stroke="none" stroke-width="1" fill="none" fill-rule="evenodd">
        <path d="M0,49.2972973 L0,46.5585586 C0,44.2282166 0.294291351,42.3843912 0.882882883,41.027027 C1.47147441,39.6696629 2.69068144,38.0060159 4.54054054,36.036036 L9.2972973,31.027027 C10.8108184,29.4174094 11.5675676,28.3723748 11.5675676,27.8918919 C11.5675676,27.3633607 10.6426519,26.1621715 8.79279279,24.2882883 L4.03603604,19.3873874 C2.42641838,17.7537456 1.35135405,16.2402472 0.810810811,14.8468468 C0.270267568,13.4534465 0,11.5315438 0,9.08108108 L0,6.12612613 C0,4.08407387 1.33332,2.55255766 4,1.53153153 C6.66668,0.510505405 10.66664,0 16,0 C26.66672,0 32,2.04202162 32,6.12612613 L32,9.08108108 C32,11.5315438 31.7297324,13.4534465 31.1891892,14.8468468 C30.6486459,16.2402472 29.5735816,17.7537456 27.963964,19.3873874 L23.2072072,24.2882883 C21.3813723,26.1621715 20.4684685,27.3633607 20.4684685,27.8918919 C20.4684685,28.3723748 21.2132058,29.4174094 22.7027027,31.027027 L27.4594595,36.036036 C29.3093186,38.0060159 30.5285256,39.6696629 31.1171171,41.027027 C31.7057086,42.3843912 32,44.2282166 32,46.5585586 L32,49.2972973 C32,51.5075186 30.6426562,53.1771715 27.9279279,54.3063063 C25.2131996,55.4354411 21.2372634,56 16,56 C10.7627366,56 6.78680036,55.4354411 4.07207207,54.3063063 C1.35734378,53.1771715 0,51.5075186 0,49.2972973 Z M16,8.43243243 C19.3153319,8.43243243 22.3783643,8.06006378 25.1891892,7.31531532 C28.0000141,6.57056685 29.3813816,5.76577009 29.3333333,4.9009009 C29.285285,4.01200757 27.9940067,3.26727027 25.4594595,2.66666667 C22.9249123,2.06606306 19.7717906,1.76576577 16,1.76576577 C12.2041852,1.76576577 9.03304577,2.07206901 6.48648649,2.68468468 C3.93992721,3.29730036 2.66666667,4.0600555 2.66666667,4.97297297 C2.66666667,5.81381802 4.07806396,6.60059694 6.9009009,7.33333333 C9.72373784,8.06606973 12.7567405,8.43243243 16,8.43243243 Z M1.76576577,7.06306306 L1.76576577,10.5225225 C1.76576577,12.1801885 2.0060036,13.459455 2.48648649,14.3603604 C2.96696937,15.2612658 4.20419423,16.7807701 6.1981982,18.9189189 L10.2702703,23.2432432 C12.3123225,25.4774886 13.3333333,27.0510465 13.3333333,27.963964 C13.3333333,28.9009056 12.3964058,30.3783683 10.5225225,32.3963964 L5.83783784,37.4054054 C4.01200288,39.3513611 2.8768791,40.8048 2.43243243,41.7657658 C1.98798577,42.7267315 1.76576577,44.1801705 1.76576577,46.1261261 L1.76576577,48.7207207 C1.76576577,50.2822901 2.33032468,51.3633604 3.45945946,51.963964 C6.22223604,53.477485 10.4023744,54.2342342 16,54.2342342 C21.6216497,54.2342342 25.8017881,53.477485 28.5405405,51.963964 C29.6696753,51.3633604 30.2342342,50.2822901 30.2342342,48.7207207 L30.2342342,46.1261261 C30.2342342,44.1801705 30.0120142,42.7267315 29.5675676,41.7657658 C29.1231209,40.8048 27.9879971,39.3513611 26.1621622,37.4054054 L21.4774775,32.3963964 C19.6035942,30.3783683 18.6666667,28.852858 18.6666667,27.8198198 C18.6666667,27.0029989 19.6996894,25.4774886 21.7657658,23.2432432 L25.8018018,18.9189189 C27.7958058,16.7807701 29.0330306,15.2612658 29.5135135,14.3603604 C29.9939964,13.459455 30.2342342,12.1801885 30.2342342,10.5225225 L30.2342342,7.06306306 C26.9429265,9.1531636 22.1982292,10.1981982 16,10.1981982 C12.9008854,10.1981982 10.16818,9.93393658 7.8018018,9.40540541 C5.4354236,8.87687423 3.42343171,8.09610126 1.76576577,7.06306306 Z M5.58558559,14.1981982 C9.14115892,16.4564677 12.6125957,17.5855856 16,17.5855856 C19.3874043,17.5855856 22.870853,16.4564677 26.4504505,14.1981982 C25.8498468,15.159164 24.5285387,16.7447337 22.4864865,18.954955 L19.4954955,22.2342342 C18.1501434,23.699707 17.3333348,24.7147119 17.045045,25.2792793 C16.7567553,25.8438467 16.5165175,26.918911 16.3243243,28.5045045 C16.276276,28.9849874 16.168169,29.7057009 16,30.6666667 C15.831831,29.7057009 15.723724,28.9849874 15.6756757,28.5045045 C15.4834825,26.918911 15.2432447,25.8438467 14.954955,25.2792793 C14.6666652,24.7147119 13.8498566,23.699707 12.5045045,22.2342342 L9.51351351,18.954955 C7.47146126,16.7447337 6.16216505,15.159164 5.58558559,14.1981982 Z M3.56756757,49.4054054 C3.95195387,47.9639568 5.3933809,46.5946011 7.89189189,45.2972973 L11.0630631,43.6756757 C13.057067,42.6426375 14.2522503,41.9459477 14.6486486,41.5855856 C15.045047,41.2252234 15.495493,40.4204267 16,39.1711712 C16.5285312,40.4204267 16.9849831,41.2252234 17.3693694,41.5855856 C17.7537557,41.9459477 18.942933,42.6426375 20.9369369,43.6756757 L24.1081081,45.2972973 C26.6066191,46.5946011 28.0480461,47.9639568 28.4324324,49.4054054 C25.3813661,50.9429506 21.2372634,51.7117117 16,51.7117117 C10.7627366,51.7117117 6.61863387,50.9429506 3.56756757,49.4054054 Z" id="6AJ" fill="#FFFFFF"></path>
    </g>
</svg>