<?xml version="1.0" encoding="UTF-8"?>
<svg width="69px" height="56px" viewBox="0 0 69 56" version="1.1" xmlns="http://www.w3.org/2000/svg" xmlns:xlink="http://www.w3.org/1999/xlink">
    <!-- Generator: Sketch 51.3 (57544) - http://www.bohemiancoding.com/sketch -->
    <title>icons/keyboard</title>
    <desc>Created with Sketch.</desc>
    <defs></defs>
    <g id="icons/keyboard" stroke="none" stroke-width="1" fill="none" fill-rule="evenodd">
        <path d="M12.7356625,20.4878049 L59.2116018,20.4878049 C63.6168095,20.4878049 66.2377458,20.9061703 67.0744891,21.7429136 C67.9112325,22.579657 68.3295979,25.1882884 68.3295979,29.568886 L68.3295979,46.882004 C68.3295979,51.1887713 67.8804703,53.7850977 66.9822017,54.6710613 C66.0839331,55.5570249 63.4937591,56 59.2116018,56 L9.11799604,56 C4.98349943,56 2.43023997,55.5139578 1.45814107,54.5418589 C0.486042162,53.56976 0,51.0165006 0,46.882004 L0,29.568886 C0,25.4836095 0.381450811,22.9365025 1.14436388,21.9274885 C1.90727694,20.9184744 3.85144559,20.413975 6.97692815,20.413975 L9.11799604,20.4878049 L9.11799604,19.7864206 C9.11799604,16.0456855 10.256196,12.9017926 12.5326302,10.3546473 C14.8090643,7.8075021 17.6330308,6.53394858 21.0046144,6.53394858 C22.6042708,6.53394858 24.3761713,6.80465561 26.3203691,7.34607779 L27.9446276,7.82597231 C30.0857062,8.44122479 31.9314359,8.74884641 33.4818721,8.74884641 C37.9609101,8.74884641 41.0125166,6.78006803 42.6367831,2.84245221 C43.3996962,0.947474595 44.1749027,0 44.9624258,0 C46.0944904,0 46.6605142,0.529109189 46.6605142,1.58734344 C46.6605142,3.45771096 45.6515153,5.52492825 43.6334871,7.78905735 C40.9263763,10.8653197 37.5917579,12.4034278 33.629532,12.4034278 C32.2759765,12.4034278 30.1472349,12.0711965 27.2432432,11.4067238 L25.2867502,10.9637442 C23.1456716,10.4469322 21.6198683,10.18853 20.7092947,10.18853 C18.5189959,10.18853 16.642504,11.1236997 15.0797627,12.9940672 C13.5170214,14.8644348 12.7356625,17.0916153 12.7356625,19.6756757 L12.7356625,20.4878049 Z M59.2116018,22.2966381 L9.11799604,22.2966381 C5.52492161,22.2966381 3.40848485,22.6165646 2.76862228,23.2564272 C2.12875971,23.8962897 1.80883322,26.0004216 1.80883322,29.568886 L1.80883322,46.845089 C1.80883322,50.4381634 2.12875971,52.5546002 2.76862228,53.1944628 C3.40848485,53.8343253 5.52492161,54.1542518 9.11799604,54.1542518 L59.2116018,54.1542518 C62.8046763,54.1542518 64.9149606,53.8343253 65.5425181,53.1944628 C66.1700756,52.5546002 66.4838497,50.4381634 66.4838497,46.845089 L66.4838497,29.568886 C66.4838497,26.0004216 66.1639232,23.8962897 65.5240606,23.2564272 C64.8841981,22.6165646 62.7800662,22.2966381 59.2116018,22.2966381 Z M9.11799604,27.7600527 L13.6585366,27.7600527 L13.6585366,32.2636783 L18.1990771,32.2636783 L18.1990771,27.7600527 L22.7765326,27.7600527 L22.7765326,32.2636783 L27.3170732,32.2636783 L27.3170732,27.7600527 L31.8945287,27.7600527 L31.8945287,32.2636783 L36.4350692,32.2636783 L36.4350692,27.7600527 L40.9756098,27.7600527 L40.9756098,32.2636783 L45.5530653,32.2636783 L45.5530653,27.7600527 L50.0936058,27.7600527 L50.0936058,32.2636783 L54.6341463,32.2636783 L54.6341463,27.7600527 L59.2116018,27.7600527 L59.2116018,32.3005933 L54.7079763,32.3005933 L54.7079763,36.8780488 L59.2116018,36.8780488 L59.2116018,41.4185893 L54.6341463,41.4185893 L54.6341463,36.9149637 L50.0936058,36.9149637 L50.0936058,41.4185893 L45.5530653,41.4185893 L45.5530653,36.9149637 L40.9756098,36.9149637 L40.9756098,41.4185893 L36.4350692,41.4185893 L36.4350692,36.9149637 L31.8945287,36.9149637 L31.8945287,41.4185893 L27.3170732,41.4185893 L27.3170732,36.9149637 L22.7765326,36.9149637 L22.7765326,41.4185893 L18.1990771,41.4185893 L18.1990771,36.9149637 L13.6585366,36.9149637 L13.6585366,41.4185893 L9.11799604,41.4185893 L9.11799604,36.8780488 L13.5847067,36.8780488 L13.5847067,32.3005933 L9.11799604,32.3005933 L9.11799604,27.7600527 Z M18.2729071,36.8411338 L22.7396177,36.8411338 L22.7396177,32.3744232 L18.2729071,32.3744232 L18.2729071,36.8411338 Z M27.3539881,36.8411338 L31.8576137,36.8411338 L31.8576137,32.3744232 L27.3539881,32.3744232 L27.3539881,36.8411338 Z M36.4719842,36.8411338 L40.9386948,36.8411338 L40.9386948,32.3744232 L36.4719842,32.3744232 L36.4719842,36.8411338 Z M45.5899802,36.8411338 L50.0566908,36.8411338 L50.0566908,32.3744232 L45.5899802,32.3744232 L45.5899802,36.8411338 Z M18.1990771,48.7277521 L18.1990771,44.1502966 L50.0936058,44.1502966 L50.0936058,48.7277521 L18.1990771,48.7277521 Z" id="7" fill="#FFFFFF"></path>
    </g>
</svg>