<?xml version="1.0" encoding="UTF-8"?>
<svg width="100px" height="56px" viewBox="0 0 100 56" version="1.1" xmlns="http://www.w3.org/2000/svg" xmlns:xlink="http://www.w3.org/1999/xlink">
    <!-- Generator: Sketch 51.3 (57544) - http://www.bohemiancoding.com/sketch -->
    <title>icons/mail</title>
    <desc>Created with Sketch.</desc>
    <defs></defs>
    <g id="icons/mail" stroke="none" stroke-width="1" fill="none" fill-rule="evenodd">
        <path d="M54.8238482,56 L20.8672087,56 L6.79132791,44.3143631 C2.26375333,40.5455999 0,37.0045333 0,33.6910569 C0,31.3134479 0.904236667,29.4038012 2.71273713,27.9620596 C4.52123759,26.520318 6.91778092,25.799458 9.90243902,25.799458 C12.8870971,25.799458 16.6178638,26.8744247 21.0948509,29.0243902 L21.0948509,27.9241192 C21.0948509,23.9783001 22.2709909,20.5510534 24.6233062,17.6422764 C26.9756215,14.7334995 30.1372882,12.7732661 34.1084011,11.7615176 L75.8807588,1.02439024 C78.5618924,0.34146 80.7624124,0 82.4823848,0 C86.8834908,0 90.7407242,1.70097667 94.0542005,5.10298103 C97.3676769,8.50498539 99.0243902,12.4697154 99.0243902,16.99729 L99.0243902,44.9214092 L54.8238482,56 Z M49.5121951,54.1409214 L28.7208672,36.9918699 C21.259222,30.7949103 15.075002,27.696477 10.1680217,27.696477 C7.68923783,27.696477 5.68474117,28.2213136 4.15447154,29.2710027 C2.62420192,30.3206918 1.85907859,31.6802085 1.85907859,33.3495935 C1.85907859,36.4860139 4.69193192,40.3432472 10.3577236,44.9214092 L21.8157182,54.1409214 L49.5121951,54.1409214 Z M22.0813008,40.5203252 L20.7533875,41.9620596 L15.0623306,41.9620596 L10.7371274,38.3197832 L11.7235772,36.6883469 L13.6585366,38.2059621 L16.5799458,38.2059621 L17.7940379,36.9918699 L22.0813008,40.5203252 Z M52.9268293,54.1409214 L52.9268293,27.9241192 C52.9268293,23.7253629 51.4787859,20.1842963 48.5826558,17.300813 C45.6865257,14.4173298 42.1264891,12.9756098 37.902439,12.9756098 C33.7795638,12.9756098 30.2637905,14.4362998 27.3550136,17.3577236 C24.4462366,20.2791474 22.9918699,23.8012441 22.9918699,27.9241192 L22.9918699,30.0867209 C24.5347864,31.0731757 26.9629464,32.9322357 30.2764228,35.6639566 L52.9268293,54.1409214 Z M97.1653117,43.3658537 L97.1653117,16.7696477 C97.1653117,12.6214788 95.7046217,9.06144214 92.7831978,6.08943089 C89.861774,3.11741965 86.3649707,1.63143631 82.2926829,1.63143631 C80.9521162,1.63143631 79.6495095,1.79584298 78.3848238,2.12466125 L41.7344173,11.5718157 C45.9584674,12.8617951 49.196014,14.9105551 51.4471545,17.7181572 C53.6982949,20.5257593 54.8238482,23.9277126 54.8238482,27.9241192 L54.8238482,54.1409214 L97.1653117,43.3658537 Z M78.4607046,44.4281843 L78.4607046,32.7425474 L58.5420054,37.7127371 L58.5420054,31.9078591 L93.1815718,23.1815718 L93.1815718,40.7479675 L78.4607046,44.4281843 Z" id="/" fill="#FFFFFF"></path>
    </g>
</svg>