<?xml version="1.0" encoding="UTF-8"?>
<svg width="30px" height="56px" viewBox="0 0 30 56" version="1.1" xmlns="http://www.w3.org/2000/svg" xmlns:xlink="http://www.w3.org/1999/xlink">
    <!-- Generator: Sketch 51.3 (57544) - http://www.bohemiancoding.com/sketch -->
    <title>icons/peace</title>
    <desc>Created with Sketch.</desc>
    <defs></defs>
    <g id="icons/peace" stroke="none" stroke-width="1" fill="none" fill-rule="evenodd">
        <path d="M21.2793125,49.262124 L21.2793125,54.2467772 C18.3228827,55.4155982 15.6644276,56 13.3038674,56 C10.3245196,56 7.63168791,55.4155982 5.22529159,54.2467772 L5.22529159,50.3965623 C4.42315948,49.525676 3.51790969,48.5058376 2.50951504,47.3370166 C1.15734949,44.059734 0.481276857,40.6220765 0.481276857,37.0239411 L0.481276857,35.373849 C0.160424015,34.4112905 0,33.6320881 0,33.0362185 C0,31.9819878 0.223447735,31.197056 0.670349908,30.6813996 C1.11725208,30.1657433 1.77613643,29.907919 2.64702271,29.907919 C2.96787556,29.907919 3.49498303,30.0110487 4.22836096,30.2173112 C3.95334424,29.2547527 3.81583794,28.5099269 3.81583794,27.9828115 C3.81583794,26.7223182 4.11949768,25.7826919 4.72682627,25.1639042 C5.33415487,24.5451166 6.23367524,24.2357274 7.42541436,24.2357274 C8.47964513,24.2357274 9.47656579,24.8545058 10.4162063,26.092081 C10.3932882,25.5191295 10.3818293,25.0607752 10.3818293,24.7170043 C10.3818293,24.4190695 10.3932882,24.0409272 10.4162063,23.582566 L6.53161449,9.10988336 C5.75240044,6.24512584 5.36279926,4.41170853 5.36279926,3.60957643 C5.36279926,2.39491924 5.68364729,1.48966944 6.32535298,0.893799877 C6.96705866,0.297930313 7.91814389,0 9.1786372,0 C11.1495904,0 12.6163242,2.00530018 13.5788828,6.01596071 L17.3947207,21.6574586 L21.2793125,9.79742173 C22.7689864,5.25964582 24.4419797,2.9907919 26.2983425,2.9907919 C27.1921469,2.9907919 27.954161,3.30018107 28.5844076,3.91896869 C29.2146543,4.53775632 29.5297729,5.29404096 29.5297729,6.1878453 C29.5297729,7.12748577 29.1401717,9.06403281 28.3609576,11.9975445 L24.9232658,25.0951504 C25.1066103,26.6994146 25.1982812,28.9682685 25.1982812,31.9017802 L25.2326581,33.3799877 C25.9431179,35.3509409 26.3670957,37.1156051 26.5046041,38.6740331 C25.3816191,41.9513158 23.6398727,45.4806441 21.2793125,49.262124 Z M15.9508901,22.6887661 L11.8944138,6.15346839 C11.1610358,3.10536638 10.2099506,1.58133824 9.04112953,1.58133824 C8.37650578,1.58133824 7.87804545,1.75322112 7.54573358,2.09699202 C7.21342171,2.44076292 7.04726826,2.95641154 7.04726826,3.64395335 C7.04726826,4.03356037 7.13893913,4.5721267 7.32228361,5.25966851 C7.39103779,5.53468523 7.48270866,5.91282755 7.59729896,6.39410681 C7.75772538,7.05873056 7.88377282,7.55146146 7.97544506,7.8723143 L12.2381829,23.8919583 L19.9386126,24.9920196 C21.3824504,26.6192019 22.551254,28.3151129 23.4450583,30.0798036 L23.4450583,24.6482505 L26.7796194,11.4475138 C27.4671612,8.76610077 27.8109269,7.00143661 27.8109269,6.15346839 C27.8109269,5.64927106 27.6848795,5.27685817 27.4327808,5.03621854 C27.1806822,4.79557891 26.791081,4.6752609 26.2639656,4.6752609 C25.6222599,4.6752609 25.1237996,4.96173235 24.7685697,5.53468386 C24.4133397,6.10763536 23.8461263,7.56291035 23.0669122,9.90055249 L18.6322897,22.9637815 L15.9508901,22.6887661 Z M19.7323511,48.5745856 C21.4053695,46.1911074 22.9293977,43.234722 24.3044813,39.7053407 C24.4190716,39.4074059 24.5909545,38.9834282 24.8201351,38.4333947 C24.6597086,37.8604432 24.54512,37.4364655 24.4763659,37.1614487 C23.4908893,33.3341327 21.7033074,29.7818867 19.1135666,26.5046041 L12.1350522,25.5764273 C12.1350522,28.7849557 14.1632701,30.4923255 18.2197667,30.6985881 C18.1739306,31.4548841 18.1510129,32.0736624 18.1510129,32.5549417 C18.1510129,34.0216975 18.3114369,35.6373965 18.6322897,37.4020872 L16.9821977,37.4020872 C16.6384268,36.0040855 16.4665439,34.5717282 16.4665439,33.1049724 L16.4665439,32.3830571 C14.8622797,32.0622042 13.5215933,31.5007202 12.4444444,30.6985881 L13.7851443,33.9987723 C14.2205874,35.1217572 14.4383057,36.027007 14.4383057,36.7145488 C14.4383057,37.9750421 14.1518343,38.9203979 13.5788828,39.5506446 C13.0059312,40.1808912 12.135058,40.4960098 10.966237,40.4960098 C10.3703674,40.4960098 9.67137704,40.2439149 8.86924494,39.7397176 C8.73173657,40.7939484 8.41088855,41.5846096 7.90669122,42.111725 C7.4024939,42.6388404 6.72642126,42.9023941 5.87845304,42.9023941 C4.82422227,42.9023941 3.90751362,42.260698 3.12829957,40.9772867 L2.37200737,39.7397176 C2.66994215,41.9627695 3.05954333,43.8993165 3.54082259,45.5494168 C3.60957677,45.7556794 3.70124764,46.0421508 3.81583794,46.4088398 L6.97851443,50.0184162 L6.97851443,53.0779619 C9.2932385,53.857176 11.4704216,54.2467772 13.5101289,54.2467772 C15.5269182,54.2467772 17.6009715,53.857176 19.7323511,53.0779619 L19.7323511,48.5745856 Z M11.2412523,32.417434 L9.83179865,28.9109883 C9.02966654,26.894199 8.20462875,25.8858195 7.35666053,25.8858195 C6.76079096,25.8858195 6.30816607,26.0634318 5.99877225,26.4186618 C5.68937844,26.7738917 5.53468386,27.3067286 5.53468386,28.0171885 C5.53468386,28.9568289 5.80969645,30.079797 6.3597299,31.3861265 L7.70042971,34.6519337 C8.84633272,37.3791829 9.95784196,38.742787 11.0349908,38.742787 C11.6079423,38.742787 12.0376495,38.5880924 12.3241252,38.2786986 C12.610601,37.9693048 12.7538367,37.5166799 12.7538367,36.9208103 C12.7538367,36.2103504 12.2496469,34.70924 11.2412523,32.417434 Z M6.39410681,35.8207489 L5.50030694,33.7581338 C4.85860125,32.2455419 4.10231661,31.4892572 3.23143033,31.4892572 C2.727233,31.4892572 2.34336125,31.6153047 2.07980356,31.8674033 C1.81624587,32.119502 1.684469,32.5091032 1.684469,33.0362185 C1.684469,33.4716617 1.94802274,34.3196172 2.47513812,35.5801105 L3.78146102,38.6740331 C4.46900282,40.3012154 5.23674632,41.1147944 6.08471455,41.1147944 C6.56599381,41.1147944 6.92694785,40.9658292 7.16758748,40.6678944 C7.40822711,40.3699596 7.52854512,39.934523 7.52854512,39.3615715 C7.52854512,38.6281936 7.1504028,37.4479312 6.39410681,35.8207489 Z" id="Combined-Shape" fill="#FFFFFF"></path>
    </g>
</svg>