<?xml version="1.0" encoding="UTF-8"?>
<svg width="56px" height="56px" viewBox="0 0 56 56" version="1.1" xmlns="http://www.w3.org/2000/svg" xmlns:xlink="http://www.w3.org/1999/xlink">
    <!-- Generator: Sketch 51.3 (57544) - http://www.bohemiancoding.com/sketch -->
    <title>icons/smile</title>
    <desc>Created with Sketch.</desc>
    <defs></defs>
    <g id="icons/smile" stroke="none" stroke-width="1" fill="none" fill-rule="evenodd">
        <path d="M28,56 C20.2642256,56 13.663691,53.2672946 8.1981982,47.8018018 C2.73270541,42.336309 0,35.7357744 0,28 C0,20.2642256 2.73270541,13.663691 8.1981982,8.1981982 C13.663691,2.73270541 20.2642256,0 28,0 C35.7357744,0 42.336309,2.73270541 47.8018018,8.1981982 C53.2672946,13.663691 56,20.2642256 56,28 C56,35.7357744 53.2672946,42.336309 47.8018018,47.8018018 C42.336309,53.2672946 35.7357744,56 28,56 Z M28.4912281,53.0526316 C35.2776478,53.0526316 41.0677536,50.6574511 45.8617192,45.8670183 C50.6556848,41.0765855 53.0526316,35.2907466 53.0526316,28.5093279 C53.0526316,21.7279091 50.6556848,15.936037 45.8617192,11.1335376 C41.0677536,6.33103823 35.2776478,3.92982456 28.4912281,3.92982456 C21.7048083,3.92982456 15.9147025,6.33103823 11.1207369,11.1335376 C6.32677139,15.936037 3.92982456,21.7279091 3.92982456,28.5093279 C3.92982456,35.2907466 6.32677139,41.0765855 11.1207369,45.8670183 C15.9147025,50.6574511 21.7048083,53.0526316 28.4912281,53.0526316 Z M11.7894737,29.4736842 L13.9556119,29.4736842 C15.6837964,37.0501406 20.359294,40.838312 27.9822448,40.838312 C35.6051956,40.838312 40.2806931,37.0501406 42.0088776,29.4736842 L44.2105263,29.4736842 C43.6660298,34.3830391 41.9556263,38.2302163 39.0792644,41.0153311 C36.2029025,43.8004459 32.503933,45.1929825 27.9822448,45.1929825 C23.4605566,45.1929825 19.7675053,43.8004459 16.9029803,41.0153311 C14.0384553,38.2302163 12.3339702,34.3830391 11.7894737,29.4736842 Z M19.1399957,23.5789474 C17.9228578,23.5789474 16.8847262,23.1476295 16.02557,22.2849807 C15.1664138,21.422332 14.7368421,20.3799804 14.7368421,19.1578947 C14.7368421,17.935809 15.1664138,16.8934575 16.02557,16.0308087 C16.8847262,15.16816 17.9228578,14.7368421 19.1399957,14.7368421 C20.3809992,14.7368421 21.4310633,15.16816 22.2902195,16.0308087 C23.1493757,16.8934575 23.5789474,17.935809 23.5789474,19.1578947 C23.5789474,20.3799804 23.1434094,21.422332 22.2723205,22.2849807 C21.4012315,23.1476295 20.3571337,23.5789474 19.1399957,23.5789474 Z M36.8600043,23.5789474 C35.6428663,23.5789474 34.5987685,23.1476295 33.7276795,22.2849807 C32.8565906,21.422332 32.4210526,20.3799804 32.4210526,19.1578947 C32.4210526,17.935809 32.8565906,16.8934575 33.7276795,16.0308087 C34.5987685,15.16816 35.6428663,14.7368421 36.8600043,14.7368421 C38.0771422,14.7368421 39.1152738,15.16816 39.97443,16.0308087 C40.8335862,16.8934575 41.2631579,17.935809 41.2631579,19.1578947 C41.2631579,20.3799804 40.8335862,21.422332 39.97443,22.2849807 C39.1152738,23.1476295 38.0771422,23.5789474 36.8600043,23.5789474 Z" id="J" fill="#FFFFFF"></path>
    </g>
</svg>