<?xml version="1.0" encoding="UTF-8"?>
<svg width="589px" height="588px" viewBox="0 0 589 588" version="1.1" xmlns="http://www.w3.org/2000/svg" xmlns:xlink="http://www.w3.org/1999/xlink">
    <!-- Generator: Sketch 58 (84663) - https://sketch.com -->
    <title>Two-Bards-Seal--red</title>
    <desc>Created with Sketch.</desc>
    <defs>
        <polygon id="path-1" points="0.000553918495 0.166446395 588.832532 0.166446395 588.832532 588 0.000553918495 588"></polygon>
    </defs>
    <g id="Page-1" stroke="none" stroke-width="1" fill="none" fill-rule="evenodd">
        <g id="Artboard-Copy-2" transform="translate(-547.000000, -865.000000)">
            <g id="Two-Bards-Seal--red" transform="translate(547.000000, 865.000000)">
                <g id="Group-3">
                    <mask id="mask-2" fill="white">
                        <use xlink:href="#path-1"></use>
                    </mask>
                    <g id="Clip-2"></g>
                    <path d="M588.832532,294.0835 C588.832532,456.408365 457.018394,588.000553 294.417466,588.000553 C131.814692,588.000553 0.000553918495,456.408365 0.000553918495,294.0835 C0.000553918495,131.758634 131.814692,0.166446395 294.417466,0.166446395 C457.018394,0.166446395 588.832532,131.758634 588.832532,294.0835" id="Fill-1" fill="#1D1D1D" mask="url(#mask-2)"></path>
                </g>
                <path d="M567,294 C567,444.773919 444.774332,567 294.000923,567 C143.225668,567 21,444.773919 21,294 C21,143.226081 143.225668,21 294.000923,21 C444.774332,21 567,143.226081 567,294" id="Fill-4" fill="#8C383D"></path>
                <path d="M218.667974,512.684748 C219.451107,512.882617 220.072149,513.026858 220.534744,513.110074 C220.997338,513.195139 221.376156,513.239521 221.674839,513.239521 C222.430653,513.239521 223.053516,512.895562 223.545251,512.209493 C224.033343,511.521574 224.27921,510.691265 224.27921,509.714864 C224.27921,508.568334 223.776548,507.606728 222.774867,506.830046 C221.771365,506.055213 220.565705,505.666872 219.157887,505.666872 C219.054077,505.666872 218.915663,505.679817 218.737181,505.709405 C218.700757,505.716802 218.67708,505.722349 218.667974,505.722349 L218.667974,512.684748 Z M218.667974,504.997446 C219.021294,504.684924 219.354581,504.372402 219.667834,504.05988 C219.981087,503.747358 220.285234,503.431138 220.585738,503.10752 C220.744186,503.116766 220.906276,503.137108 221.07383,503.164847 C221.241384,503.192585 221.489073,503.240666 221.816895,503.307238 C222.525357,503.061289 223.066265,502.64336 223.437798,502.05715 C223.811152,501.469091 223.998739,500.74049 223.998739,499.867647 C223.998739,498.750704 223.63267,497.887108 222.900532,497.275009 C222.168395,496.664759 221.139395,496.359634 219.815354,496.359634 C219.580415,496.359634 219.378257,496.363332 219.207061,496.372578 C219.032222,496.383674 218.853741,496.396619 218.667974,496.415111 L218.667974,504.997446 Z M215,514.887196 C215.065565,513.152607 215.114738,511.421715 215.14752,509.694523 C215.180303,507.965481 215.196694,506.253082 215.196694,504.557327 C215.196694,502.739521 215.180303,500.966097 215.14752,499.237055 C215.114738,497.508013 215.065565,495.810409 215,494.142392 L216.078173,494.142392 L216.653685,494.142392 C217.380359,494.142392 218.254553,494.118352 219.276268,494.07212 C220.297983,494.02404 220.953628,494 221.241384,494 C223.135472,494 224.639815,494.425326 225.756234,495.279676 C226.869011,496.132177 227.428131,497.276858 227.428131,498.717418 C227.428131,499.863949 227.107593,500.858841 226.468338,501.702096 C225.830905,502.54535 224.8529,503.264706 223.536145,503.862011 C224.934856,504.239257 226.02942,504.886492 226.819837,505.800018 C227.606612,506.713544 228,507.77316 228,508.977017 C228,510.728249 227.307929,512.170659 225.921967,513.302395 C224.537826,514.434132 222.738442,515 220.527459,515 C220.108574,515 219.534884,514.981508 218.806388,514.944523 C218.079714,514.905689 217.562482,514.887196 217.254693,514.887196 L215,514.887196 Z" id="Fill-6" fill="#9B7D49"></path>
                <path d="M242.003532,505.550143 C242.509442,505.260224 242.975411,504.959364 243.397636,504.645741 C243.821763,504.333941 244.200245,504.027611 244.531178,503.728575 C244.658606,503.803334 244.782231,503.867153 244.903953,503.916384 C245.025676,503.969263 245.143595,504.009377 245.261513,504.036728 C245.759815,503.615525 246.138296,503.143266 246.402663,502.614483 C246.665127,502.087523 246.796359,501.527742 246.796359,500.94061 C246.796359,499.810107 246.41027,498.885647 245.641896,498.167231 C244.871621,497.446991 243.876919,497.087783 242.661595,497.087783 C242.543676,497.087783 242.349681,497.106017 242.075805,497.144308 L242.003532,497.144308 L242.003532,505.550143 Z M248.652629,516 C247.44301,514.207606 246.307567,512.557437 245.240592,511.049492 C244.173618,509.539724 243.09333,508.062777 242.003532,506.613181 C242.003532,507.8385 242.020649,509.147695 242.052982,510.544413 C242.089118,511.941131 242.138568,513.576713 242.207037,515.454806 L238,515.595207 C238.068469,513.884866 238.117919,512.178171 238.154055,510.475124 C238.186388,508.770253 238.203505,507.081792 238.203505,505.409742 C238.203505,503.615525 238.186388,501.866892 238.154055,500.162021 C238.117919,498.458974 238.068469,496.783277 238,495.140401 L239.314224,495.140401 C240.240456,495.140401 241.322646,495.116697 242.558891,495.069289 C243.795137,495.023704 244.571118,495 244.883032,495 C246.54911,495 247.897568,495.432144 248.930308,496.296431 C249.963048,497.160719 250.478468,498.287575 250.478468,499.678823 C250.478468,500.949726 250.048635,502.071112 249.192773,503.04298 C248.335009,504.013024 247.127292,504.746028 245.569624,505.24199 L249.632115,510.914561 C249.84513,511.224538 250.217905,511.736911 250.750442,512.45715 C251.281076,513.175567 251.697595,513.746288 252,514.165668 L248.652629,516 Z" id="Fill-8" fill="#9B7D49"></path>
                <path d="M261,515 C261.065901,513.427798 261.115327,511.815884 261.148278,510.166065 C261.181228,508.516245 261.195873,506.812274 261.195873,505.055957 C261.195873,503.33574 261.181228,501.638989 261.148278,499.965704 C261.115327,498.292419 261.065901,496.637184 261,495 L271.745548,495 L270.916292,497.191336 L264.952238,497.191336 C264.933932,497.960289 264.915627,498.877256 264.897321,499.944043 C264.877184,501.012635 264.86254,502.222022 264.853387,503.572202 L271.816941,503.584838 L270.97304,505.888087 L264.853387,505.888087 C264.853387,507.025271 264.866201,508.15704 264.889998,509.285199 C264.913796,510.413357 264.952238,511.550542 265.008987,512.698556 L267.053753,512.698556 C267.767682,512.698556 268.532867,512.685921 269.35114,512.662455 C270.167582,512.638989 271.049925,512.604693 272,512.557762 L271.000499,515 L261,515 Z" id="Fill-10" fill="#9B7D49"></path>
                <path d="M290.152852,514.855857 L287.484126,515 C286.671743,511.873774 284.552076,505.055981 281.126993,494.546622 C281.061629,494.353806 281.016808,494.211535 281,494.114191 L284.858354,494 L289.867117,510.814227 L292.879471,504.168658 C291.885936,501.089232 290.851314,498.00419 289.78121,494.906044 C289.646746,494.512926 289.555236,494.248975 289.50668,494.114191 L293.353828,494 L295.146674,499.565431 L297.557678,494.258335 L299.968683,494.114191 L296.095389,502.485737 L298.734234,510.814227 L304.702916,494.258335 L307,494.114191 L299.294498,514.855857 L296.381123,515 C296.121534,513.992869 295.776038,512.789178 295.340899,511.388929 C294.905761,509.988679 294.408993,508.502318 293.854331,506.929845 L290.152852,514.855857 Z" id="Fill-12" fill="#9B7D49"></path>
                <path d="M319.986254,494 C319.934708,495.658584 319.891753,497.348993 319.862543,499.069353 C319.829897,500.791585 319.814433,502.577465 319.814433,504.426992 C319.814433,506.287752 319.829897,508.08112 319.862543,509.807096 C319.891753,511.533072 319.938144,513.215992 320,514.855857 L316,515 C316.061856,513.397575 316.106529,511.727759 316.139175,509.986807 C316.168385,508.245855 316.183849,506.431895 316.183849,504.543056 C316.183849,502.663576 316.168385,500.858977 316.139175,499.127385 C316.106529,497.395792 316.061856,495.731592 316,494.129167 L319.986254,494 Z" id="Fill-14" fill="#9B7D49"></path>
                <path d="M331.769266,514.735027 C331.98386,510.235935 332.140259,506.638838 332.238463,503.941924 C332.336667,501.246824 332.3985,498.84755 332.425779,496.745917 L331,494.724138 L334.746306,494 L344.735849,508.333938 L344.597636,494.488203 L346.943624,494.375681 C346.907252,496.030853 346.878154,497.92922 346.852694,500.072595 C346.829052,502.215971 346.81814,504.495463 346.81814,506.911071 L346.81814,508.404719 C346.81814,509.584392 346.832689,510.673321 346.859968,511.667877 C346.887247,512.662432 346.934531,513.638838 347,514.595281 L344.70857,515 C344.157536,514.043557 343.184587,512.499093 341.787906,510.370236 C340.389407,508.241379 337.932485,504.564428 334.409866,499.341198 L334.200727,514.595281 L331.769266,514.735027 Z" id="Fill-16" fill="#9B7D49"></path>
                <path d="M374,503.565463 L374,512.20475 C372.971362,512.880048 371.906731,513.589299 370.804212,514.334391 C369.703588,515.077596 369.099287,515.483152 368.993203,515.551059 C368.741253,515.696305 368.405951,515.807597 367.989191,515.884935 C367.570537,515.962274 367.081792,516 366.519166,516 C363.696568,516 361.402496,515.07571 359.642634,513.225242 C357.880878,511.374775 357,508.948984 357,505.94221 C357,504.376575 357.242478,503.007117 357.727435,501.833833 C358.212391,500.658664 358.992868,499.536311 360.07076,498.463003 C361.438489,497.091657 362.897147,496.005144 364.444841,495.201578 C365.99064,494.401783 367.358369,494 368.542345,494 C369.377758,494 370.213171,494.175427 371.052374,494.528166 C371.89347,494.880905 372.713729,495.401526 373.518832,496.086256 L370.304101,498.781789 C369.663807,498.280031 368.976153,497.908428 368.243035,497.666981 C367.509918,497.425534 366.706708,497.30481 365.833408,497.30481 C365.087029,497.30481 364.365277,497.419875 363.666258,497.651891 C362.967239,497.883906 362.374304,498.202692 361.889347,498.610135 C361.413862,499.313727 361.057722,500.092772 360.820927,500.94161 C360.582238,501.792335 360.462893,502.705307 360.462893,503.682414 C360.462893,506.455286 361.250947,508.686787 362.823267,510.376918 C364.393693,512.068936 366.469913,512.914002 369.051928,512.914002 C369.31335,512.914002 369.53499,512.898911 369.71306,512.870616 C369.893024,512.840436 370.055939,512.798937 370.201805,512.740461 L370.215066,506.087456 C369.021618,506.087456 367.786494,506.093115 366.504012,506.102547 C365.223423,506.111978 364.539559,506.117637 364.452418,506.117637 L367.640628,503.506988 L374,503.565463 Z" id="Fill-18" fill="#9B7D49"></path>
                <path d="M464.759989,237.374183 C464.223264,237.504284 463.896802,238.037337 464.0296,238.563162 C464.164243,239.088988 464.708345,239.408819 465.246915,239.276911 C470.184419,238.068055 474.253202,240.697182 475.289765,241.712693 C475.485273,241.904231 475.741647,242 475.999865,242 C476.254395,242 476.510768,241.904231 476.708121,241.712693 C477.097293,241.329618 477.097293,240.708024 476.708121,240.324948 C475.372763,239.016709 470.625235,235.935842 464.759989,237.374183" id="Fill-20" fill="#1D1D1D"></path>
                <path d="M322.514265,168.142397 C322.041067,167.858801 321.426094,168.011648 321.142544,168.486763 L315.141953,178.486263 C314.858403,178.959536 315.013067,179.572765 315.486265,179.856361 C315.648293,179.953962 315.825052,180 315.99997,180 C316.338757,180 316.67018,179.826896 316.857986,179.513836 L322.856735,169.514336 C323.142127,169.041063 322.987463,168.427834 322.514265,168.142397" id="Fill-22" fill="#1D1D1D"></path>
                <path d="M495.11633,286.245306 C494.830154,286.245306 494.401814,286.154982 493.908854,286.049911 C491.401589,285.515339 487.230813,284.628687 480.357065,289.664723 C479.446843,289.600205 476.854648,289.238908 476.854648,287.246246 C476.854648,286.69324 476.405998,286.245306 475.852111,286.245306 C475.300069,286.245306 474.849574,286.69324 474.849574,287.246246 C474.849574,290.754143 478.656629,291.681349 480.669089,291.681349 C480.885105,291.681349 481.095582,291.611302 481.27098,291.482267 C483.549305,289.775324 485.48422,288.792817 487.134806,288.249029 C485.873788,290.457364 484.494607,294.367112 485.814707,299.786564 C485.94764,300.337726 486.006721,301.086127 485.528531,301.530375 C484.564766,302.4244 483.144967,303.690782 481.703013,304.791263 L475.16529,304.791263 C474.899424,304.791263 474.644635,304.896334 474.456313,305.084356 C474.103671,305.436436 473.139906,306.16456 472.412467,306.16456 C471.858579,306.16456 471.40993,306.612494 471.40993,307.165499 C471.40993,307.718505 471.858579,308.166439 472.412467,308.166439 C473.754722,308.166439 474.982507,307.279787 475.553011,306.793142 L481.706705,306.793142 C482.367678,307.335088 484.287822,309.209776 483.473607,312.164668 C483.469915,312.175728 483.185586,313.37575 482.284595,313.825527 C482.245823,313.845804 482.208897,313.866081 482.173817,313.891888 C481.246978,314.513097 479.690553,316.271655 480.425378,318.472616 C481.04204,320.321497 481.730707,327.641445 481.730707,331.206486 C481.730707,333.495929 481.230362,339.17345 476.61463,342.439869 C471.685028,345.925646 463.670271,345.757901 452.795606,341.938477 C443.505061,338.675746 428.714409,332.587156 411.006615,322.104018 C410.533964,321.821985 409.917302,321.976827 409.632973,322.454255 C409.352336,322.927996 409.509271,323.541832 409.985615,323.825708 C420.978442,330.332738 430.854262,335.158631 439.014877,338.679432 C438.645618,339.496037 438.165582,340.334762 437.61354,341.289618 C435.39245,345.121945 432.130051,350.76813 431.302912,364.005235 C421.9459,352.48982 410.86445,340.989151 399.860545,334.561386 C391.829171,341.971658 382.839572,348.329376 373.122533,353.450206 C372.972983,353.527627 372.812356,353.564494 372.653574,353.564494 C372.295394,353.564494 371.946444,353.372785 371.765508,353.031765 C371.508873,352.543277 371.695348,351.936814 372.184616,351.678745 C381.820418,346.602156 390.726935,340.294208 398.675225,332.933706 C400.528903,331.186209 402.347502,329.390785 404.107019,327.519784 C415.338018,315.569338 423.740496,302.005959 430.034508,288.383593 C437.264591,296.164379 447.703531,296.527519 448.15218,296.538579 L448.176181,296.538579 C448.718992,296.538579 449.163948,296.109079 449.178718,295.56529 C449.193489,295.012285 448.757764,294.551447 448.203876,294.538543 C448.100483,294.5367 437.894177,294.188307 431.227214,286.726421 C431.133053,286.619506 431.018582,286.540242 430.896727,286.483098 C438.689929,269.070802 443.091491,251.67694 445.569216,237.538436 C449.315344,216.153718 449.41689,198.461233 449.256263,191.310873 L456.358951,200.58293 C456.554658,200.839156 456.851911,200.977407 457.154703,200.977407 C457.333794,200.977407 457.512884,200.92948 457.675358,200.831783 L470.152605,193.268512 C475.132056,200.710121 485.17035,217.770337 485.17035,234.358655 C485.17035,234.815806 484.850942,235.508906 484.483529,236.312607 C483.602848,238.237066 482.269824,241.145874 483.124658,245.53858 C486.37598,262.231969 493.41774,270.702168 497.623595,275.762167 C499.580666,278.114284 500.994926,279.815697 500.994926,281.063646 C500.994926,283.782589 496.763223,286.245306 495.11633,286.245306 L495.11633,286.245306 Z M293.936881,351.446483 C293.936881,350.895321 294.383684,350.452917 294.933879,350.44923 C325.519565,350.290702 351.781234,342.843563 373.006216,328.306895 C396.24735,312.387713 413.34956,286.136548 423.836503,250.281523 C432.098664,222.022949 433.533233,196.936781 434.002192,188.695158 C434.040964,188.033395 434.072351,187.49698 434.098199,187.093286 L434.094506,179.93924 L435.401682,178.674701 C435.80602,178.801892 436.101427,179.176092 436.101427,179.622183 L436.101427,187.16149 C436.073732,187.626014 436.042345,188.156899 436.003573,188.807602 C435.532768,197.108213 434.088967,222.363969 425.760341,250.843745 C415.142311,287.152235 397.774234,313.770227 374.141686,329.956694 C352.580679,344.723781 325.94052,352.290738 294.950495,352.451132 C294.392915,352.454796 293.936881,352.001332 293.936881,351.446483 L293.936881,351.446483 Z M293.436535,359.935116 C293.436535,364.292798 289.812263,367.802539 285.451319,367.62742 C243.773105,365.951814 210.312741,352.025295 185.974909,326.155704 C160.189584,298.752444 149.427543,262.679904 144.939205,237.247187 C140.066838,209.633785 141.331549,188.23985 141.346319,188.027865 C141.372167,187.587304 141.108148,187.181767 140.694578,187.026925 C140.282855,186.873927 139.817589,187.006648 139.54803,187.356885 L131.405879,197.987492 L123.505592,193.198465 C124.964163,190.66017 131.433573,180.105141 142.417169,171.913288 L152.575472,181.177972 L152.577318,187.231537 C152.603167,187.629701 152.634554,188.158743 152.671479,188.813132 C153.14413,197.1119 154.587931,222.367655 162.916558,250.847432 C173.534588,287.155922 190.902665,313.773914 214.535212,329.960381 C234.297931,343.496109 258.331124,350.976428 286.069827,352.253871 C290.188906,352.443736 293.436535,355.820756 293.436535,359.935116 L293.436535,359.935116 Z M157.204128,358.783021 C155.959727,349.193908 153.288141,344.576313 151.38646,341.289618 C150.839957,340.347665 150.36546,339.518157 149.998047,338.710769 C159.639388,334.6683 170.069097,329.48111 180.362179,322.881912 C181.700741,324.450604 183.074383,325.997176 184.503414,327.516097 C185.806896,328.900454 187.13992,330.242414 188.495099,331.558566 C177.734904,336.889538 166.738384,347.555169 157.204128,358.783021 L157.204128,358.783021 Z M144.169301,338.913538 C144.067755,338.878514 143.962516,338.856394 143.849892,338.856394 C132.897684,338.856394 124.714914,336.080307 119.530524,330.60371 C118.191961,329.188017 117.159884,327.691216 116.358593,326.211004 C117.728542,326.47829 119.692997,326.740046 122.128258,326.740046 C124.436124,326.740046 127.168637,326.496724 130.202096,325.80178 C131.590508,326.279208 137.629732,328.087536 149.482932,328.087536 C155.108586,328.087536 162.048801,327.678312 170.412507,326.526218 C161.343517,331.639674 152.381611,335.706107 144.169301,338.913538 L144.169301,338.913538 Z M126.127328,345.086921 C126.08117,345.079548 126.036859,345.072174 125.98701,345.072174 C122.312887,345.072174 119.272043,343.781829 116.945714,341.238004 C110.317523,333.984417 111.148354,318.750962 111.305289,316.581338 C111.427144,316.572121 111.537922,316.564747 111.66347,316.551844 C111.757631,319.280004 112.575539,326.150174 118.049797,331.953044 C122.890777,337.08309 130.074702,340.014019 139.439099,340.699745 C134.625814,342.452772 130.139322,343.90349 126.127328,345.086921 L126.127328,345.086921 Z M108.233058,349.485157 C108.862644,344.390134 107.47977,332.863659 107.269293,331.151186 C107.269293,331.079295 107.271139,331.000031 107.271139,330.92814 C107.33576,330.023055 107.333913,329.387099 107.326528,329.070042 C107.503772,325.274582 108.061353,320.002597 108.572776,318.472616 C108.790638,317.818226 108.803562,317.206234 108.694631,316.649542 C108.873722,316.656915 109.071275,316.662445 109.287291,316.664288 C109.073121,319.722408 108.406609,334.858165 115.461294,342.58365 C117.145113,344.427001 119.144648,345.706287 121.434051,346.415977 C115.11973,348.122921 110.448609,349.072247 108.233058,349.485157 L108.233058,349.485157 Z M170.124485,309.254016 C172.85146,313.38128 175.823991,317.423749 179.058696,321.331654 C177.736751,322.179595 176.409266,323.00173 175.083628,323.801744 C152.898573,327.407339 139.74743,325.886575 134.029461,324.716047 C139.012605,323.020163 143.489865,320.389701 147.472319,317.257847 C148.888425,316.929731 159.183354,314.444893 170.124485,309.254016 L170.124485,309.254016 Z M150.967351,314.273462 C156.234825,309.407014 160.486837,303.784793 163.738158,298.66765 C165.383205,301.659409 167.140876,304.630891 169.020402,307.56182 C161.910329,310.911189 155.114125,313.09556 150.967351,314.273462 L150.967351,314.273462 Z M106.824337,313.891888 C106.789257,313.866081 106.750485,313.845804 106.713559,313.825527 C105.803337,313.37022 105.524546,312.170198 105.509776,312.101994 C104.704792,309.191342 106.621244,307.335088 107.287756,306.793142 L113.445143,306.793142 C114.017493,307.279787 115.243432,308.166439 116.585687,308.166439 C117.137728,308.166439 117.588224,307.718505 117.588224,307.165499 C117.588224,306.612494 117.137728,306.16456 116.585687,306.16456 C115.81209,306.16456 114.824323,305.362702 114.54184,305.084356 C114.355365,304.896334 114.09873,304.791263 113.832864,304.791263 L107.293295,304.791263 C105.853187,303.688939 104.433387,302.4244 103.471469,301.530375 C102.991433,301.086127 103.048668,300.337726 103.185293,299.786564 C104.503546,294.367112 103.124366,290.457364 101.865194,288.249029 C103.513934,288.792817 105.447002,289.775324 107.72902,291.482267 C107.900725,291.611302 108.113049,291.681349 108.329065,291.681349 C110.341524,291.681349 114.146734,290.754143 114.146734,287.246246 C114.146734,286.69324 113.698085,286.245306 113.144197,286.245306 C112.590309,286.245306 112.14166,286.69324 112.14166,287.246246 C112.14166,289.253655 109.560542,289.605735 108.642935,289.666566 C101.765494,284.626844 97.5947188,285.515339 95.0911458,286.049911 C94.5963393,286.154982 94.1698457,286.245306 93.881824,286.245306 C92.2349308,286.245306 88.005074,283.782589 88.005074,281.063646 C88.005074,279.815697 89.417488,278.114284 91.3727121,275.762167 C95.5822596,270.702168 102.622174,262.231969 105.873496,245.53858 C106.730176,241.145874 105.395306,238.237066 104.512778,236.312607 C104.145366,235.508906 103.827803,234.815806 103.827803,234.358655 C103.827803,217.471714 114.229817,200.096285 119.111415,192.875879 L131.134474,200.164489 C131.572045,200.429932 132.140703,200.323018 132.450881,199.915637 L139.228622,191.069394 C139.066148,198.061226 139.145538,215.914083 142.956287,237.536593 C145.465399,251.785698 149.942659,269.343618 157.868794,286.892322 C151.216601,294.16803 141.14692,294.534857 141.04722,294.538543 C140.493332,294.55329 140.055761,295.014128 140.070531,295.56529 C140.085301,296.109079 140.530258,296.538579 141.071222,296.538579 L141.098916,296.538579 C141.536488,296.527519 151.554472,296.182813 158.758707,288.864708 C159.973567,291.465677 161.265972,294.062959 162.637768,296.647337 C156.238517,306.988538 145.541097,319.890153 130.501195,323.676396 C122.717225,325.637722 116.855245,324.334473 115.282204,323.903129 C113.483915,319.377701 113.664851,315.538001 113.666698,315.4827 C113.685161,315.182234 113.566998,314.890984 113.345443,314.686372 C113.123888,314.48176 112.819249,314.389593 112.523842,314.43199 C109.645472,314.846744 107.867492,314.577615 107.817642,314.570241 C107.741944,314.557338 107.666246,314.557338 107.592394,314.561025 C107.328374,314.273462 107.055123,314.04673 106.824337,313.891888 L106.824337,313.891888 Z M114.13381,187.515413 C115.182504,184.442547 120.147185,172.088407 134.219629,164.434812 L140.908748,170.536305 C129.764525,178.92724 123.357889,189.395631 121.78854,192.156972 L114.13381,187.515413 Z M130.239022,157.784001 L149.719257,136.959662 C149.916811,136.747676 150.188216,136.633389 150.489161,136.642088 C150.779029,136.653666 151.050434,136.78823 151.231371,137.013119 L209.1625,208.689989 C209.51145,209.11949 209.443137,209.749916 209.012951,210.096466 C208.826475,210.245777 208.60492,210.319511 208.383365,210.319511 C208.091651,210.319511 207.801783,210.19232 207.602383,209.947155 L150.396847,139.167997 L131.704978,159.149924 C131.326488,159.555461 130.69321,159.575738 130.287025,159.199695 C129.884534,158.821808 129.862378,158.187695 130.239022,157.784001 L130.239022,157.784001 Z M181.165316,150.244694 C181.239168,150.049299 182.8916,145.678713 186.641421,139.250947 C185.568725,137.490547 185.723813,134.463764 187.128842,130.522679 C190.72542,120.424801 201.601931,106.490909 214.193648,95.8510857 C229.366482,83.0287344 245.305528,76.0018795 259.169341,76.0018795 C259.405666,76.0018795 259.643838,76.0037228 259.880164,76.0074095 C278.740045,76.3373694 284.387854,80.3595618 285.807653,83.6739073 C287.626252,87.928362 283.226536,92.7524122 283.184071,92.8003394 C283.158223,92.8261463 283.137914,92.8519532 283.115759,92.8814468 C274.811134,103.963675 262.171413,107.025481 248.793175,110.267936 C232.806126,114.140817 216.276267,118.146419 204.253208,135.667473 C204.236591,135.69328 204.219974,135.719086 204.205204,135.744893 C204.171971,135.803881 200.861568,141.623341 195.68087,142.659304 C193.221608,143.151479 190.690341,142.471282 188.135072,140.672171 C184.638193,146.73864 183.059613,150.899084 183.044842,150.945168 C182.893446,151.347018 182.511264,151.595871 182.105079,151.595871 C181.986917,151.595871 181.8706,151.575594 181.752437,151.531353 C181.235475,151.337802 180.973302,150.760833 181.165316,150.244694 L181.165316,150.244694 Z M165.711845,193.159755 C167.38274,207.72776 171.743684,229.75765 179.394721,250.97831 C190.228768,281.026779 204.814481,302.573711 222.74383,315.016332 C240.320538,327.215631 262.2028,334.244329 286.4317,335.545735 C290.353226,335.757721 293.436535,338.965152 293.436535,342.88596 C293.436535,347.075897 289.930425,350.436327 285.739341,350.233558 C258.558218,348.917405 235.017985,341.56059 215.670682,328.308738 C192.429549,312.389557 175.325492,286.138392 164.840395,250.28521 C156.576389,222.024792 155.143665,196.940468 154.672861,188.697001 C154.635935,188.037082 154.604548,187.500666 154.580546,187.163333 L154.580546,183.006576 L165.711845,193.159755 Z M180.923452,207.03466 C188.871742,241.514545 208.436907,284.184439 230.948755,300.072284 C242.111442,307.950767 260.496825,317.195174 286.577558,318.830226 C290.440002,319.071705 293.436535,322.295726 293.436535,326.157547 C293.436535,330.406472 289.838111,333.748468 285.593484,333.494085 C262.112332,332.080235 240.927968,325.200848 223.888532,313.372063 C206.308132,301.172764 191.973514,279.950262 181.281633,250.299957 C174.079244,230.325403 169.819847,209.639315 167.984632,195.231682 L180.923452,207.03466 Z M186.292471,211.932444 L199.393765,224.146489 C204.44153,236.955937 211.551603,250.452955 219.468507,262.237499 C226.56381,272.798059 233.923133,281.356739 239.153681,285.126392 C252.565152,294.796612 269.205789,300.684276 286.693874,302.07232 C290.510161,302.374629 293.436535,305.583904 293.436535,309.405171 C293.436535,313.668843 289.812263,317.060609 285.551019,316.754613 C260.544829,314.951815 242.886885,306.044742 232.106381,298.437231 C210.613686,283.270137 191.807348,243.005816 183.558112,209.436546 L186.292471,211.932444 Z M249.012884,270.416449 C249.060888,270.53811 249.136586,270.652398 249.234439,270.751939 C261.045174,282.543857 270.780676,285.675711 286.828653,286.272956 C290.519393,286.409364 293.436535,289.454581 293.436535,293.143126 C293.436535,297.176379 289.974736,300.358003 285.951664,300.000393 C269.155939,298.514652 253.2132,292.794733 240.327923,283.504243 C230.405945,276.350197 213.573294,252.653916 202.890644,227.409221 L249.012884,270.416449 Z M293.936881,301.393967 C293.936881,300.844648 294.379991,300.40593 294.92834,300.398557 C314.548894,300.203162 333.482626,294.221487 348.348976,283.502399 C358.414964,276.243282 375.594719,251.953443 386.245982,226.29768 L389.606235,223.040478 C389.617313,223.187947 389.602542,223.339101 389.543461,223.486569 C384.482772,236.487726 377.260075,250.250186 369.208392,262.235656 C362.113089,272.796215 354.753766,281.353052 349.523218,285.124548 C334.324536,296.083272 314.980926,302.201354 294.950495,302.400486 C294.392915,302.405966 293.936881,301.950659 293.936881,301.393967 L293.936881,301.393967 Z M293.936881,334.762311 C293.936881,334.212992 294.381837,333.770588 294.932033,333.766901 C321.660813,333.59547 345.795553,326.552024 364.788367,313.37022 C382.368767,301.169078 396.703384,279.948418 407.39342,250.298113 C415.044457,229.082984 419.37586,207.064153 421.00429,192.621496 L423.249382,190.448185 C423.251229,190.448185 423.249382,190.448185 423.253075,190.448185 C421.838815,204.896372 417.424329,228.395414 409.282177,250.976467 C398.446285,281.024935 383.860572,302.570025 365.933069,315.014489 C346.606075,328.426713 322.081768,335.593662 294.950495,335.768803 C294.392915,335.772467 293.936881,335.319003 293.936881,334.762311 L293.936881,334.762311 Z M293.936881,318.079982 C293.936881,317.52882 294.383684,317.086416 294.935725,317.082729 C324.317629,316.859684 344.647159,306.848443 356.568671,298.435388 C373.224079,286.68218 395.194963,251.848372 405.556358,207.587665 L408.013774,205.206055 C408.072856,205.3738 408.087626,205.558135 408.047007,205.74247 C400.29627,240.439871 380.524321,283.983514 357.728143,300.07044 C345.568459,308.649397 324.853054,318.857876 294.952342,319.084631 C294.394761,319.088295 293.936881,318.634831 293.936881,318.079982 L293.936881,318.079982 Z M466.923439,192.883252 L465.206386,193.924745 C463.712735,191.31456 456.307255,179.142912 443.615838,170.716953 L445.087334,169.292043 C457.97815,177.981601 465.300547,190.014997 466.923439,192.883252 L466.923439,192.883252 Z M331.878198,270.071742 L423.53925,179.332777 C423.934357,178.94383 423.936203,178.309717 423.546635,177.917083 C423.155221,177.524449 422.521943,177.522606 422.130529,177.90971 L330.513787,268.604435 L328.900128,266.869841 C327.445249,265.304836 325.48264,264.241222 323.374173,263.876239 L319.304944,263.168392 C314.399344,262.318607 310.291342,259.085369 308.313963,254.521231 L302.887708,241.991973 C301.713466,239.27856 301.227891,236.290487 301.488218,233.350342 L307.304041,167.148225 C307.549598,164.348175 309.296191,161.892831 311.860691,160.73705 L340.912108,147.645569 L326.614417,171.434017 C326.330088,171.907758 326.485177,172.521594 326.959674,172.807314 C327.434171,173.09119 328.050833,172.938192 328.335162,172.462607 L350.344818,135.840748 L358.577438,126.52445 L363.937226,120.257056 C370.20539,123.680159 376.034136,128.480246 381.006203,135.713556 C381.362538,136.334766 384.881572,142.259297 390.6697,143.424295 C391.323287,143.555173 391.980567,143.621533 392.637848,143.621533 C394.899556,143.621533 397.172343,142.843639 399.42482,141.295224 C402.161026,146.263056 403.412812,149.540534 403.440507,149.610581 C403.590057,150.012432 403.972239,150.261284 404.38027,150.261284 C404.49474,150.261284 404.612903,150.241008 404.729219,150.196767 C405.248028,150.003215 405.512047,149.426246 405.31634,148.910108 C405.290492,148.836374 403.944545,145.310043 401.0034,140.015938 C402.526592,138.364296 403.545746,135.155021 401.324655,128.92265 C398.514598,121.02942 391.096193,110.225539 381.068977,100.299092 C382.702946,98.6271727 385.010812,97.7884479 387.35745,98.0557338 L435.601081,103.591318 C438.490529,103.923121 440.968254,105.912097 441.913556,108.65869 L446.534827,122.081974 C447.23088,124.107817 448.61006,125.860844 450.412042,127.022155 L472.90912,141.496149 C475.591783,143.221526 476.911883,146.467668 476.193675,149.571871 L470.180299,175.583401 C466.587413,170.761194 461.148235,165.454185 453.052241,161.575774 L455.614895,159.09278 C455.997078,158.722267 456.02108,158.119491 455.67213,157.71764 L437.628311,136.985469 C437.43445,136.762423 437.157506,136.631545 436.852868,136.642605 C436.557461,136.648136 436.278671,136.7827 436.092195,137.013119 L378.15922,208.689989 C377.812116,209.11949 377.880429,209.749916 378.310616,210.096466 C378.742648,210.443016 379.37408,210.376655 379.721183,209.947155 L436.900871,139.201177 L453.537816,158.316729 L334.863653,273.28286 L331.878198,270.071742 Z M313.13648,90.1035165 C312.584438,90.1035165 312.133943,89.6555821 312.133943,89.1025768 C312.133943,88.5495714 312.584438,88.101637 313.13648,88.101637 C362.428805,88.101637 388.190128,118.612787 399.158954,136.79929 C399.445129,137.273032 399.291887,137.888711 398.81739,138.172587 C398.654916,138.270285 398.477672,138.316368 398.302274,138.316368 C397.96071,138.316368 397.628377,138.144937 397.441902,137.831567 C386.689092,120.00636 361.442884,90.1035165 313.13648,90.1035165 L313.13648,90.1035165 Z M106.148593,349.881478 C105.546702,350.017886 104.959581,350.150607 104.400154,350.275955 C103.388386,350.504531 102.603711,350.003139 102.199373,349.457507 C101.684257,348.76625 101.628869,347.910935 102.049823,347.164378 C103.955198,343.787359 105.175597,340.653661 105.958425,337.964212 C106.349839,342.532036 106.617552,347.71001 106.148593,349.881478 L106.148593,349.881478 Z M264.678679,167.752844 C265.153176,167.468968 265.769838,167.621967 266.056013,168.097551 L272.069389,178.106948 C272.355564,178.58069 272.202322,179.194526 271.725978,179.480245 C271.565351,179.576099 271.38626,179.622183 271.212709,179.622183 C270.871145,179.622183 270.538812,179.448908 270.352336,179.137382 L264.335268,169.126141 C264.050939,168.654243 264.206028,168.038564 264.678679,167.752844 L264.678679,167.752844 Z M499.167096,274.484725 C495.08125,269.570351 488.246274,261.347161 485.092806,245.157007 C484.361674,241.394727 485.439909,239.038924 486.307667,237.145802 C486.772933,236.130116 487.175424,235.250837 487.175424,234.358655 C487.175424,217.285536 476.974657,199.875083 471.865964,192.228862 L476.389382,189.487799 C476.769718,189.255537 476.952501,188.802072 476.838031,188.370728 C476.767872,188.114502 476.114284,185.79741 474.441543,182.529148 C473.754722,181.124514 472.85927,179.507895 471.729339,177.786205 L478.148899,150.021649 C479.053582,146.097154 477.384534,141.995697 473.99474,139.81317 L451.497662,125.339176 C450.072324,124.421187 448.983011,123.033143 448.43097,121.431271 L443.809699,108.007987 C442.613301,104.535113 439.481989,102.022626 435.830022,101.602342 L387.584544,96.0667578 C384.626783,95.7294245 381.702255,96.7911948 379.636254,98.9036754 C365.704128,85.5633424 347.134115,74.1659016 328.876126,74.1659016 C328.623184,74.1659016 328.364703,74.167745 328.11176,74.1714317 C312.40904,74.4479344 303.25512,77.3825495 300.90479,82.8996998 C298.700316,88.0703001 303.299432,93.3551881 303.812701,93.9192536 C312.3795,105.320381 325.089379,108.398778 338.545161,111.659666 C346.495298,113.585968 354.583907,115.55098 362.114935,119.309574 L357.063478,125.211984 L348.779162,134.585425 C348.74039,134.629666 348.703464,134.679436 348.672077,134.73105 L342.721475,144.63169 L311.037245,158.912132 C307.811771,160.364693 305.614683,163.454149 305.306352,166.971264 L299.490529,233.175224 C299.202508,236.447172 299.741625,239.770734 301.046954,242.786457 L306.473209,255.315715 C308.720147,260.501063 313.387575,264.173018 318.96338,265.142621 L323.032609,265.848624 C324.709043,266.139874 326.272853,266.985972 327.432325,268.233921 L333.807574,275.089344 C323.160003,282.846166 311.836689,284.390895 294.583083,284.390895 L294.46492,284.387208 L293.155899,284.387208 C275.972452,284.328221 265.897232,282.56782 254.930253,273.28286 L257.217809,270.715072 L161.886327,176.342861 C161.493066,175.952071 161.489374,175.319801 161.878942,174.927168 C162.270356,174.534534 162.903634,174.530847 163.296895,174.921637 L258.552679,269.218271 L259.337354,268.338992 C260.509749,267.022839 262.110485,266.132501 263.847847,265.830191 L267.813684,265.142621 C273.387642,264.173018 278.056916,260.501063 280.302008,255.315715 L285.730109,242.786457 C287.035438,239.770734 287.572709,236.447172 287.286534,233.175224 L281.468865,166.971264 C281.158688,163.454149 278.965292,160.364693 275.739819,158.912132 L246.662553,145.807748 L261.534442,175.504136 C261.781845,176 261.582446,176.60093 261.085793,176.84794 C260.941782,176.91983 260.78854,176.953011 260.63899,176.953011 C260.271578,176.953011 259.915243,176.750242 259.741692,176.400005 L243.030896,143.035348 C242.992123,142.957927 242.969968,142.878663 242.951505,142.797555 L238.104986,134.73105 C238.071753,134.679436 238.036673,134.629666 237.996055,134.583582 L229.724663,125.223044 L225.254788,119.998987 C232.927981,116.17772 241.167986,114.17584 249.265826,112.212671 C262.989321,108.889109 275.953989,105.746195 284.690646,94.1201789 C285.209455,93.54874 289.900885,88.1624676 287.655793,82.8978565 C285.261151,77.2774785 275.928141,74.2857194 259.915243,74.0055301 C259.66784,74 259.422283,74 259.171187,74 C244.832877,74 228.434105,81.1964433 212.899397,94.3229475 C211.030949,95.9008562 209.210504,97.5395954 207.447294,99.2188884 C205.370215,96.8907358 202.301676,95.710991 199.190673,96.0667578 L150.947042,101.602342 C147.293228,102.022626 144.161916,104.535113 142.967364,108.007987 L138.344247,121.431271 C137.792206,123.033143 136.704739,124.421187 135.279401,125.339176 L112.782323,139.81317 C109.390684,141.995697 107.721635,146.097154 108.628165,150.021649 L115.291435,178.846132 C115.341285,179.059961 115.457602,179.233236 115.610844,179.367801 L115.64777,179.542919 C113.011264,183.998299 112.05673,187.390065 111.973647,187.703435 C111.857331,188.132936 112.040114,188.588244 112.42045,188.818663 L117.394363,191.834385 C112.381678,199.264934 101.820883,216.9906 101.820883,234.358655 C101.820883,235.250837 102.223375,236.130116 102.690487,237.145802 C103.558245,239.038924 104.638326,241.394727 103.903501,245.157007 C100.750033,261.347161 93.9150572,269.570351 89.8310576,274.484725 C87.5231916,277.258969 86,279.093103 86,281.063646 C86,285.214873 91.5296469,288.247186 93.881824,288.247186 C94.380323,288.247186 94.9028239,288.136584 95.5102542,288.00755 C96.4075525,287.815841 97.5559467,287.578049 99.0200568,287.673903 C99.5979465,288.317233 102.924966,292.376292 101.235608,299.314666 C100.868196,300.826214 101.176527,302.13315 102.105212,302.997682 C102.943429,303.775576 104.121364,304.831817 105.369458,305.830913 C104.062282,307.18762 102.734798,309.580289 103.561937,312.572049 C103.5804,312.656843 104.014279,314.664252 105.740563,315.576711 C105.973196,315.749986 107.068047,316.647698 106.669248,317.840346 C106.069203,319.637614 105.528239,324.907755 105.338071,328.710589 C105.321454,328.791696 105.310376,328.874647 105.315915,328.963128 C105.315915,328.968658 105.317762,329.003682 105.319608,329.068199 C105.291914,329.678348 105.275297,330.24057 105.267912,330.740118 C105.062973,333.536482 104.156443,339.354099 100.301384,346.181872 C99.4927078,347.614156 99.6034854,349.328472 100.589406,350.651999 C101.394389,351.734046 102.611096,352.334978 103.903501,352.334978 C104.211832,352.334978 104.525702,352.299955 104.839572,352.229907 C105.570704,352.065849 106.340608,351.892574 107.138206,351.710082 C107.989347,351.573674 125.710066,348.650119 148.144369,339.479447 C148.556093,340.391906 149.063823,341.280401 149.650944,342.292401 C151.698483,345.829792 154.381147,350.469507 155.437226,360.888128 C148.20899,369.61271 141.920516,378.492133 137.363866,385.323592 C135.670815,387.860044 138.715352,390.875766 141.242927,389.163293 C182.012765,361.529614 214.945089,356.676071 223.934689,355.839189 C243.843264,365.009862 266.969928,369.69566 293.128204,369.806261 L294.583083,369.806261 L294.596007,369.806261 C304.348126,369.983223 316.57243,369.358327 330.364238,366.626481 C342.74917,364.174823 353.263807,360.644806 361.64413,357.203269 C371.052839,358.119415 403.710066,363.16651 444.034947,390.497879 C446.562522,392.210353 449.607058,389.196473 447.914008,386.658179 C444.075565,380.905079 439.009338,373.695733 433.187977,366.353665 C433.741864,351.981055 436.97103,346.395701 439.349056,342.292401 C439.936177,341.274871 440.449446,340.380845 440.861169,339.462857 C445.174109,341.278558 448.97378,342.720058 452.129094,343.827912 C458.011383,345.892466 463.140385,346.924742 467.479173,346.924742 C471.642563,346.924742 475.084053,345.975417 477.770409,344.074921 C483.154199,340.268401 483.735781,333.807455 483.735781,331.206486 C483.735781,327.75942 483.076654,320.083705 482.327059,317.840346 C481.926414,316.644011 483.036036,315.742613 483.255745,315.578554 C484.985721,314.664252 485.417754,312.658686 485.421446,312.634723 C486.261509,309.595036 484.934025,307.189463 483.62685,305.830913 C484.87679,304.831817 486.054725,303.775576 486.892942,302.995839 C487.821627,302.13315 488.129958,300.826214 487.762545,299.314666 C486.071341,292.363389 489.359589,288.352257 489.976251,287.675747 C491.442207,287.578049 492.590601,287.815841 493.489746,288.00755 C494.093484,288.136584 494.617831,288.247186 495.11633,288.247186 C497.46666,288.247186 503,285.214873 503,281.063646 C503,279.093103 501.473116,277.258969 499.167096,274.484725 L499.167096,274.484725 Z" id="Fill-24" fill="#1D1D1D"></path>
                <path d="M481.958678,258.858138 C481.694219,258.094684 481.4485,257.362764 481.223606,256.675656 C481.067429,256.194348 480.448968,255.902244 479.845084,256.030039 C479.2412,256.156175 478.878869,256.647441 479.037128,257.128749 C479.262023,257.824156 479.509824,258.566034 479.780531,259.339446 C479.920049,259.73777 480.371921,260 480.869605,260 C480.967475,260 481.069511,259.990042 481.169464,259.966806 C481.773348,259.834032 482.125267,259.337787 481.958678,258.858138" id="Fill-26" fill="#1D1D1D"></path>
                <path d="M475.612336,248.001989 C472.579099,245 472.276531,245 464.483533,245 C462.426075,245 460.309995,246.646976 458.441642,248.103053 C457.42426,248.894725 456.370948,249.712598 455.703409,249.933443 C455.166352,250.111241 454.87324,250.687683 455.052889,251.219207 C455.196608,251.644052 455.59751,251.913557 456.028668,251.913557 C456.134567,251.913557 456.246139,251.898585 456.352037,251.863025 C456.667842,251.758217 456.993102,251.597263 457.327817,251.404492 C457.999138,253.399579 460.066051,254.99228 460.344034,255.198152 C460.527466,255.334776 460.744936,255.400281 460.958624,255.400281 C461.270647,255.400281 461.578887,255.259913 461.78312,254.994151 C462.121617,254.544976 462.028956,253.908644 461.576996,253.571763 C460.95106,253.107615 459.169695,251.492455 459.169695,250.201076 C459.169695,250.174874 459.164022,250.150544 459.16024,250.126214 C459.34178,249.987718 459.52332,249.845479 459.710534,249.699497 C461.236608,248.511054 463.137108,247.032518 464.483533,247.032518 C466.599613,247.032518 468.09543,247.032518 469.218711,247.092408 C469.220602,247.096152 469.222493,247.101766 469.224384,247.105509 C470.009168,248.220962 470.423307,249.532928 470.423307,250.897298 C470.423307,252.317815 469.929744,253.530588 468.849957,254.782665 L467.927127,254.782665 C467.359813,254.782665 466.900289,255.237455 466.900289,255.798924 C466.900289,256.360393 467.359813,256.815183 467.927127,256.815183 L471.064371,256.815183 C470.988729,257.560066 470.827991,258.615628 470.474365,259.661832 C470.294716,260.195228 470.585937,260.769798 471.124885,260.947596 C471.232674,260.983156 471.340464,261 471.450145,261 C471.879412,261 472.280313,260.730495 472.422142,260.303778 C473.172887,258.082232 473.180451,255.89063 473.180451,255.798924 C473.180451,255.237455 472.720927,254.782665 472.153613,254.782665 L471.376394,254.782665 C472.113901,253.566148 472.476982,252.299099 472.476982,250.897298 C472.476982,249.736928 472.242493,248.608375 471.799988,247.556556 C472.609355,247.904667 473.191797,248.479237 474.160013,249.43935 L474.24511,249.52357 C474.647902,249.920342 475.296531,249.920342 475.699324,249.52357 C476.100225,249.12867 476.100225,248.48298 475.699324,248.086209 L475.612336,248.001989 Z" id="Fill-28" fill="#1D1D1D"></path>
                <path d="M483.062041,262.710028 C482.893125,262.17892 482.300948,261.882831 481.745662,262.043829 C481.188434,262.206678 480.875842,262.769246 481.0467,263.298504 C483.120287,269.74213 485.16281,274.220469 487.114079,276.611384 C487.319885,276.86676 487.632476,277 487.947009,277 C488.17223,277 488.401334,276.93153 488.593549,276.787186 C489.053699,276.446685 489.135244,275.815646 488.776056,275.378915 C487.009235,273.211918 485.034667,268.831658 483.062041,262.710028" id="Fill-30" fill="#1D1D1D"></path>
                <path d="M479.977335,250.941677 L479.916673,250.688321 C479.802485,250.216887 479.281504,249.918632 478.764092,250.019654 C478.241327,250.122279 477.909469,250.585696 478.021872,251.055527 L478.084319,251.315297 C478.184233,251.722591 478.585674,252 479.031719,252 C479.101302,252 479.169101,251.993586 479.240468,251.979154 C479.763233,251.876529 480.091523,251.411509 479.977335,250.941677" id="Fill-32" fill="#1D1D1D"></path>
                <path d="M110.235875,250.019199 C109.720224,249.919677 109.197436,250.216637 109.083243,250.688562 L109.022578,250.942181 C108.908386,251.412501 109.238474,251.878006 109.761262,251.980738 C109.830848,251.993579 109.902218,252 109.97002,252 C110.416085,252 110.815759,251.723908 110.915678,251.31619 L110.978127,251.05615 C111.090535,250.58583 110.758663,250.120325 110.235875,250.019199" id="Fill-34" fill="#1D1D1D"></path>
                <path d="M122.755932,239.276911 C123.294505,239.408819 123.836767,239.088988 123.969566,238.563162 C124.104209,238.037337 123.77959,237.504284 123.242861,237.374183 C117.372042,235.935842 112.62817,239.016709 111.294648,240.324948 C110.901784,240.708024 110.901784,241.329618 111.294648,241.712693 C111.490157,241.904231 111.744688,242 112.002908,242 C112.259284,242 112.513815,241.904231 112.711169,241.712693 C113.747739,240.697182 117.820239,238.068055 122.755932,239.276911" id="Fill-36" fill="#1D1D1D"></path>
                <path d="M117.525187,259.661832 C117.17156,258.615628 117.012711,257.560066 116.937069,256.815183 L120.074327,256.815183 C120.639753,256.815183 121.10117,256.360393 121.10117,255.798924 C121.10117,255.237455 120.639753,254.782665 120.074327,254.782665 L119.149602,254.782665 C118.071701,253.53246 117.578136,252.319687 117.578136,250.897298 C117.578136,249.532928 117.992277,248.220962 118.775173,247.105509 C118.777065,247.101766 118.778956,247.096152 118.782738,247.092408 C119.904133,247.032518 121.399956,247.032518 123.517937,247.032518 C124.862476,247.032518 126.762985,248.511054 128.289066,249.699497 C128.47628,249.845479 128.659712,249.987718 128.839362,250.126214 C128.837471,250.150544 128.831798,250.174874 128.831798,250.201076 C128.831798,251.484969 127.048534,253.105743 126.422596,253.573634 C125.970634,253.908644 125.879863,254.546848 126.220253,254.994151 C126.420704,255.259913 126.728946,255.400281 127.04097,255.400281 C127.25655,255.400281 127.47213,255.334776 127.655563,255.198152 C127.933548,254.99228 130.004252,253.399579 130.671794,251.404492 C131.008401,251.597263 131.331772,251.758217 131.647578,251.863025 C131.755368,251.898585 131.865049,251.913557 131.972839,251.913557 C132.402108,251.913557 132.803011,251.644052 132.946732,251.219207 C133.126382,250.687683 132.83705,250.111241 132.2981,249.933443 C131.628667,249.712598 130.57535,248.894725 129.559854,248.103053 C127.691493,246.646976 125.573512,245 123.517937,245 C115.724903,245 115.420444,245 112.387193,248.001989 L112.302096,248.086209 C111.899301,248.48298 111.899301,249.12867 112.302096,249.52357 C112.702999,249.920342 113.353522,249.920342 113.754425,249.52357 L113.839523,249.43935 C114.807742,248.479237 115.392078,247.904667 116.201449,247.556556 C115.757051,248.608375 115.524452,249.736928 115.524452,250.897298 C115.524452,252.299099 115.885643,253.566148 116.623154,254.782665 L115.845931,254.782665 C115.350475,254.782665 114.936334,255.130776 114.83989,255.594923 C114.826653,255.660428 114.819089,255.727804 114.819089,255.798924 C114.819089,255.89063 114.828544,258.082232 115.577401,260.303778 C115.721121,260.730495 116.122025,261 116.551294,261 C116.659084,261 116.768765,260.983156 116.876555,260.947596 C117.413615,260.769798 117.704837,260.195228 117.525187,259.661832" id="Fill-38" fill="#1D1D1D"></path>
                <path d="M108.152588,256.030039 C107.547235,255.902244 106.933561,256.194348 106.775462,256.675656 C106.550795,257.362764 106.305326,258.094684 106.041134,258.858138 C105.874714,259.337787 106.228356,259.834032 106.829549,259.968466 C106.929401,259.990042 107.031333,260 107.131185,260 C107.626284,260 108.081859,259.73777 108.219156,259.339446 C108.487508,258.566034 108.735058,257.824156 108.963885,257.128749 C109.119904,256.647441 108.75586,256.156175 108.152588,256.030039" id="Fill-40" fill="#1D1D1D"></path>
                <path d="M107.2562,262.044664 C106.696979,261.881824 106.106691,262.177896 105.93776,262.710826 C103.968838,268.830264 101.990208,273.212129 100.223227,275.379006 C99.8640053,275.815712 99.9475,276.446715 100.407692,276.787198 C100.599924,276.929683 100.827107,277 101.05429,277 C101.368852,277 101.67953,276.866768 101.885354,276.611406 C103.838742,274.220624 105.879508,269.742536 107.953284,263.299269 C108.124156,262.77004 107.811537,262.207504 107.2562,262.044664" id="Fill-42" fill="#1D1D1D"></path>
                <path d="M468.453407,301.929248 C473.504257,300.120098 479.082837,299.389444 481.257379,299.157549 C481.818792,299.098655 482.26418,298.679035 482.357749,298.132425 L482.98279,294.446027 C483.123143,293.608628 482.383949,292.868772 481.534343,293.019688 C475.938921,294.009844 470.936726,297.23061 467.394206,300.1293 C466.466003,300.889401 467.323094,302.335985 468.453407,301.929248" id="Fill-44" fill="#1D1D1D"></path>
                <path d="M192.832382,132.57055 C195.479021,128.808174 198.66799,124.771729 202.455005,120.746471 C215.632482,106.731713 238.915478,90.0247477 274.989634,90.0247477 C275.546821,90.0247477 276,89.5716964 276,89.0123738 C276,88.4530513 275.546821,88 274.989634,88 C238.198564,88 214.440102,105.05188 200.987746,119.355623 C197.13201,123.453593 193.879894,127.570207 191.181251,131.409024 C190.88037,131.839702 190.962091,132.428855 191.36698,132.764449 C191.818302,133.144788 192.490641,133.053432 192.832382,132.57055" id="Fill-46" fill="#1D1D1D"></path>
                <path d="M472.962786,234.540151 C477.191091,234.63036 477.982964,234.605102 478.509635,234.098124 C478.595545,234.015132 478.666515,233.917705 478.715073,233.811258 C478.845807,233.531608 480,231.041826 480,229.565998 C480,229.250264 479.861796,228.954377 479.617137,228.732462 C478.589943,227.806912 471.528449,227.758199 458.634361,228.588127 C458.50923,228.597148 458.385967,228.626015 458.272042,228.678336 C457.952678,228.822671 450.424278,232.322801 449.010485,241.881402 C448.941383,242.343275 449.219659,242.787106 449.673492,242.94407 C449.78555,242.981958 449.899475,243 450.0134,243 C450.360779,243 450.695084,242.826798 450.883714,242.523694 C452.90075,239.276151 457.069291,236.540998 460.091109,235.373687 C462.810372,234.323648 468.923111,234.45355 472.962786,234.540151" id="Fill-48" fill="#1D1D1D"></path>
                <path d="M129.022309,230.530715 C129.840341,230.951049 133.683972,233.137503 135.790686,237.963217 C133.568178,235.975203 130.893698,234.416543 128.659984,233.554228 C126.461756,232.704542 122.752596,232.522337 119.19098,232.522337 C117.728608,232.522337 116.290514,232.554809 114.992495,232.581869 C113.427401,232.614341 111.686748,232.652226 110.943422,232.587281 C110.625921,231.856659 110.256126,230.868064 110.10111,230.137442 C112.405795,229.771229 121.107193,230.025594 129.022309,230.530715 M109.490388,234.099038 C110.017066,234.605963 110.808951,234.631219 115.037319,234.541019 C119.078921,234.452623 125.188016,234.324539 127.90732,235.37447 C130.929183,236.541661 135.099654,239.276533 137.11672,242.523743 C137.303485,242.825011 137.637795,243 137.985179,243 C138.099105,243 138.213032,242.98196 138.323224,242.944076 C138.780799,242.787127 139.057212,242.343342 138.989976,241.881517 C137.576162,232.323897 130.047651,228.824126 129.726414,228.679806 C129.612488,228.62749 129.49109,228.596822 129.365957,228.589606 C116.467941,227.757959 109.408211,227.806667 108.382869,228.732122 C108.136339,228.955819 108,229.251676 108,229.565573 C108,231.043053 109.152342,233.53258 109.284946,233.810397 C109.333505,233.918637 109.404476,234.016054 109.490388,234.099038" id="Fill-50" fill="#1D1D1D"></path>
                <polygon id="Fill-52" fill="#E8E7DD" points="184 332 239 332 239 354.378645 238.908725 354.378645 223.838955 334.042269 220.44686 334.042269 220.44686 391.519665 224.967791 396.906335 224.967791 397 198.032209 397 198.032209 396.906335 202.55314 391.519665 202.55314 334.042269 199.162907 334.042269 184.095001 354.378645 184 354.378645"></polygon>
                <polygon id="Fill-54" fill="#E8E7DD" points="241 332 270.002287 332 270.002287 332.091829 265.231797 337.201175 282.539165 373.506555 293.01648 351.313404 283.194229 332 312.289039 332 312.289039 332.091829 307.518548 337.201175 324.827767 373.506555 335.586352 350.756922 325.949147 332.091829 325.949147 332 347 332 347 332.091829 316.126896 397 316.032523 397 294.326606 353.913992 273.838294 397 273.743921 397 243.618403 337.201175 241 332.091829"></polygon>
                <path d="M362.666985,364.5 C362.666985,382.279061 367.818524,395.754945 374,395.754945 C380.181476,395.754945 385.331162,382.279061 385.331162,364.5 C385.331162,346.720939 380.181476,333.245055 374,333.245055 C367.818524,333.245055 362.666985,346.720939 362.666985,364.5 M343,364.5 C343,345.410552 356.954168,331 374,331 C391.04398,331 405,345.410552 405,364.5 C405,383.589448 391.04398,398 374,398 C356.954168,398 343,383.589448 343,364.5" id="Fill-56" fill="#E8E7DD"></path>
                <path d="M167.353844,470.957673 C171.730666,470.957673 175.083282,469.286344 177.505639,466.500184 C179.832208,463.622192 181.136412,459.629369 181.136412,455.078212 C181.136412,446.163234 176.295382,439.292419 167.353844,439.292419 L167.16595,439.292419 L167.16595,470.957673 L167.353844,470.957673 Z M167.259897,437.250092 C174.991177,437.250092 179.088001,432.048769 179.088001,423.506626 C179.088001,418.957306 177.599586,415.056314 174.805126,412.642988 C172.846977,410.969823 170.334357,410.042327 167.259897,410.042327 L167.16595,410.042327 L167.16595,437.250092 L167.259897,437.250092 Z M145,472.908169 L149.470769,467.521347 L149.470769,413.478653 L145,408.091831 L145,408 L174.617232,408 C178.994054,408 182.814562,408.46283 185.88718,409.392162 C193.61846,411.619988 197.341337,416.542143 197.341337,423.506626 C197.341337,430.842107 193.152409,435.949761 184.769027,437.992088 C196.318974,439.848916 202,445.885903 202,455.078212 C202,462.321861 198.461332,467.615015 191.382154,470.493007 C187.377436,472.164336 182.348512,473 176.201435,473 L145,473 L145,472.908169 Z" id="Fill-58" fill="#E8E7DD"></path>
                <path d="M239.540411,448.113729 L228.809928,417.934305 L219.103768,448.113729 L239.540411,448.113729 Z M201,472.908169 L212.85078,459.906699 L227.595504,414.593484 L225.26263,408.091831 L225.26263,408 L244.113878,408 L268,472.814501 L268,473 L241.873285,473 L241.873285,472.908169 L246.631315,467.800514 L240.193763,450.156057 L218.356289,450.156057 L215.277781,459.906699 L226.755743,472.908169 L226.755743,473 L201,473 L201,472.908169 Z" id="Fill-60" fill="#E8E7DD"></path>
                <path d="M295.3531,443.099743 C301.805236,443.099743 305.360571,434.3721 305.360571,426.478285 C305.360571,418.678139 301.805236,410.135995 295.3531,410.135995 L295.25876,410.135995 L295.25876,443.099743 L295.3531,443.099743 Z M273,472.908169 L277.489488,467.244017 L277.489488,413.755983 L273,408.091831 L273,408 L300.497421,408 C316.864537,408 325,414.964482 325,426.478285 C325,440.221751 315.273701,445.235738 295.821102,445.235738 L295.25876,445.235738 C295.25876,448.207397 298.346092,450.064225 301.805236,450.064225 L324.720679,450.064225 L324.720679,472.908169 C317.238199,472.908169 310.22372,470.307508 304.705738,465.664519 C300.31059,462.042694 297.036427,457.214207 295.25876,451.456387 L295.25876,467.521347 L299.748248,472.908169 L299.748248,473 L273,473 L273,472.908169 Z" id="Fill-62" fill="#E8E7DD"></path>
                <path d="M356.352105,470.864065 C366.223947,470.864065 371.438947,457.679306 371.814737,442.264947 C372.186842,427.871722 366.877895,410.600588 356.258158,410.600588 L356.166053,410.600588 L356.166053,470.864065 L356.352105,470.864065 Z M334,472.906335 L338.470789,467.521502 L338.470789,413.478498 L334,408.093665 L334,408 L365.201579,408 C381.964737,408 390.53421,426.385935 389.97421,442.171282 C389.41421,458.792269 381.126579,473 365.201579,473 L334,473 L334,472.906335 Z" id="Fill-64" fill="#E8E7DD"></path>
                <path d="M395,471.396551 L395,449.552219 L402.862195,449.644149 L419.693293,471.582249 C420.52561,471.769786 421.264634,471.861715 422.007317,471.861715 C427.555488,471.861715 431.995122,467.678915 431.995122,462.472017 C431.995122,454.663509 423.022561,452.060061 414.051829,448.064797 C405.359146,444.159623 396.757927,438.860796 396.757927,426.032928 C396.757927,415.994206 405.635366,408 419.879878,408 C422.839634,408 428.20122,408.557094 440.872561,410.044516 L441.059146,428.171212 L428.943902,428.171212 L415.440244,410.323983 L415.346951,410.323983 C411.276829,411.531939 408.779878,415.157645 408.779878,419.248517 C408.779878,426.126696 415.533537,429.007772 423.115854,432.447781 C432.457927,436.630582 443,441.556175 443,455.687606 C443,466.654818 433.196951,474 421.264634,474 C414.421341,474 401.380488,472.604507 395,471.396551" id="Fill-66" fill="#E8E7DD"></path>
            </g>
        </g>
    </g>
</svg>