<?xml version="1.0" encoding="utf-8"?>
<!-- Generator: Adobe Illustrator 24.0.3, SVG Export Plug-In . SVG Version: 6.00 Build 0)  -->
<svg version="1.1" id="Layer_1" xmlns="http://www.w3.org/2000/svg" xmlns:xlink="http://www.w3.org/1999/xlink" x="0px" y="0px"
	 viewBox="0 0 318.9 318.9" style="enable-background:new 0 0 318.9 318.9;" xml:space="preserve">
<style type="text/css">
	.st0{fill:#8C383D;}
	.st1{fill:#9B7D49;}
	.st2{fill:#1D1D1D;}
	.st3{fill:#E8E7DD;}
</style>
<title>Asset 1</title>
<circle class="st0" cx="159.4" cy="159.4" r="147.9"/>
<path class="st1" d="M116.4,279.5c0-0.9,0.1-1.9,0.1-2.8s0-1.9,0-2.8s0-1.9,0-2.9s0-1.9-0.1-2.8h0.9c0.4,0,0.9,0,1.4,0h1.1
	c0.9,0,1.8,0.2,2.5,0.7c0.6,0.4,0.9,1.1,0.9,1.9c0,0.6-0.2,1.2-0.5,1.6c-0.4,0.5-1,0.9-1.6,1.2c0.7,0.2,1.3,0.5,1.8,1
	c0.4,0.5,0.7,1.1,0.7,1.7c0,0.9-0.4,1.8-1.1,2.3c-0.9,0.6-1.9,1-3,0.9h-0.9h-0.8L116.4,279.5z M118.4,274.2l0.6-0.5l0.5-0.5h0.3
	l0.4,0.1c0.4-0.1,0.7-0.3,0.9-0.7c0.2-0.4,0.3-0.8,0.3-1.2c0-0.5-0.2-1.1-0.6-1.4c-0.5-0.4-1.1-0.5-1.7-0.5h-0.3h-0.3L118.4,274.2z
	 M118.4,278.4l1,0.2c0.2,0,0.4,0.1,0.6,0.1c0.4,0,0.8-0.2,1-0.6c0.3-0.4,0.4-0.9,0.4-1.4c0-0.6-0.3-1.2-0.8-1.6
	c-0.6-0.4-1.3-0.7-2-0.6h-0.2l0,0L118.4,278.4z"/>
<path class="st1" d="M134.7,279.8c-0.6-1-1.2-1.9-1.8-2.7s-1.1-1.6-1.7-2.4c0,0.7,0,1.4,0,2.2c0,0.8,0,1.7,0.1,2.7l-2.2,0.1
	c0-0.9,0.1-1.9,0.1-2.8s0-1.9,0-2.8s0-1.9,0-2.9s-0.1-1.9-0.1-2.8h0.7c0.5,0,1,0,1.7,0h1.2c0.8,0,1.5,0.2,2.1,0.7
	c0.5,0.5,0.8,1.1,0.8,1.9c0,0.7-0.2,1.3-0.7,1.8c-0.5,0.6-1.2,1-1.9,1.2l2.1,3.1c0.1,0.2,0.3,0.5,0.6,0.9l0.7,0.9L134.7,279.8z
	 M131.2,274c0.3-0.2,0.5-0.3,0.7-0.5c0.2-0.2,0.4-0.3,0.6-0.5l0.2,0.1l0.2,0.1c0.3-0.2,0.5-0.5,0.6-0.8c0.1-0.3,0.2-0.6,0.2-0.9
	c0-0.6-0.2-1.1-0.6-1.5c-0.4-0.4-1-0.6-1.6-0.6h-0.3l0,0L131.2,274z"/>
<path class="st1" d="M141.6,279.5c0-0.9,0.1-1.8,0.1-2.7s0-1.9,0-2.8s0-1.9,0-2.8s0-1.8-0.1-2.8h5.9l-0.4,1.2h-3.3
	c0,0.4,0,0.9,0,1.5c0,0.6,0,1.3,0,2h3.8l-0.5,1.3h-3.3c0,0.6,0,1.3,0,1.9s0,1.3,0.1,1.9h1.1c0.4,0,0.8,0,1.2,0l1.4,0l-0.6,1.4
	L141.6,279.5z"/>
<path class="st1" d="M157,279.5l-1.4,0.1c-0.4-1.7-1.5-5.3-3.4-10.9c0-0.1-0.1-0.2-0.1-0.2l2.1-0.1l2.7,9l1.6-3.5
	c-0.5-1.6-1.1-3.3-1.7-5l-0.1-0.4l2.1-0.1l1,3l1.3-2.8l1.3-0.1l-2.1,4.5l1.4,4.5l3.2-8.8l1.2-0.1l-4.1,11.1l-1.6,0.1
	c-0.1-0.5-0.3-1.2-0.6-1.9s-0.5-1.5-0.8-2.4L157,279.5z"/>
<path class="st1" d="M173.4,268.3c0,0.9-0.1,1.8-0.1,2.7s0,1.9,0,2.9s0,2,0,2.9s0.1,1.8,0.1,2.7l-2.3,0.1c0-0.9,0.1-1.8,0.1-2.7
	s0-1.9,0-2.9s0-2,0-2.9s-0.1-1.8-0.1-2.7L173.4,268.3z"/>
<path class="st1" d="M179.5,279.5c0.1-2.5,0.2-4.5,0.3-6s0.1-2.8,0.1-4l-0.8-1.1l2.1-0.4l5.5,7.9l-0.1-7.6l1.3-0.1c0,0.9,0,2,0,3.1
	s0,2.4,0,3.8v0.8c0,0.7,0,1.3,0,1.8c0,0.5,0,1.1,0.1,1.6l-1.3,0.2c-0.3-0.5-0.8-1.4-1.6-2.5s-2.1-3.2-4.1-6.1l-0.1,8.4L179.5,279.5z
	"/>
<path class="st1" d="M202.5,273.2v4.6c-0.6,0.4-1.1,0.7-1.7,1.1s-0.9,0.6-1,0.6c-0.2,0.1-0.3,0.2-0.5,0.2c-0.3,0-0.5,0.1-0.8,0.1
	c-1.4,0.1-2.7-0.5-3.6-1.5c-1-1.1-1.5-2.4-1.4-3.9c0-0.7,0.1-1.5,0.4-2.2c0.3-0.7,0.7-1.3,1.2-1.8c0.7-0.7,1.5-1.3,2.3-1.7
	c0.7-0.4,1.4-0.6,2.2-0.6c0.5,0,0.9,0.1,1.3,0.3c0.5,0.2,0.9,0.5,1.3,0.8l-1.7,1.4c-0.3-0.3-0.7-0.5-1.1-0.6
	c-0.4-0.1-0.8-0.2-1.3-0.2c-0.4,0-0.8,0-1.1,0.1c-0.3,0.1-0.7,0.3-0.9,0.5c-0.3,0.4-0.4,0.8-0.6,1.2c-0.1,0.5-0.2,1-0.2,1.5
	c-0.1,1.3,0.4,2.6,1.2,3.5c0.9,0.9,2.1,1.4,3.3,1.3h0.4l0.3-0.1v-3.5h-3l1.7-1.4L202.5,273.2z"/>
<path class="st2" d="M252,129.1c-0.3,0.1-0.5,0.4-0.4,0.7c0.1,0.3,0.4,0.5,0.7,0.4c0,0,0,0,0,0c1.9-0.4,4,0.1,5.5,1.4
	c0.1,0.1,0.2,0.2,0.4,0.2c0.3,0,0.5-0.3,0.5-0.6c0-0.1-0.1-0.3-0.2-0.4C256.7,129.1,254.3,128.5,252,129.1z"/>
<path class="st2" d="M174.7,91.2c-0.3-0.2-0.6-0.1-0.8,0.2l-3.2,5.4c-0.2,0.2-0.1,0.6,0.2,0.7c0,0,0,0,0,0c0.1,0,0.2,0.1,0.3,0.1
	c0.2,0,0.4-0.1,0.5-0.3l3.3-5.4C175.1,91.7,175,91.4,174.7,91.2C174.7,91.2,174.7,91.2,174.7,91.2z"/>
<path class="st2" d="M270.3,149.1c-4-4.5-6.6-10-7.6-15.9c-0.3-1.5-0.1-3,0.6-4.4c0.3-0.5,0.4-1,0.5-1.5c0-9.3-5.5-18.7-8.3-22.8
	l2.5-1.5c0.2-0.1,0.3-0.4,0.2-0.6c-0.3-1.1-0.8-2.2-1.3-3.2c-0.4-0.9-0.9-1.7-1.5-2.6l3.5-15.1c0.5-2.1-0.4-4.4-2.2-5.5l-12.2-7.8
	c-0.8-0.5-1.4-1.2-1.7-2.1l-2.5-7.3c-0.7-1.9-2.4-3.2-4.4-3.5l-26.1-3c-1.6-0.2-3.2,0.4-4.3,1.5c-7.6-7.2-17.6-13.4-27.5-13.4h-0.4
	c-8.5,0.2-13.5,1.8-14.7,4.7c-1.2,2.8,1.3,5.7,1.6,6c4.6,6.2,11.5,7.8,18.8,9.6c4.4,0.9,8.7,2.3,12.8,4.1l-2.7,3.2l-4.5,5.1
	c0,0,0,0.1,0,0.1l-3.2,5.4l-17.2,7.7c-1.7,0.8-2.9,2.5-3.1,4.4l-3.1,35.9c-0.2,1.8,0.1,3.6,0.8,5.2l2.9,6.8c1.2,2.8,3.8,4.8,6.8,5.3
	l2.2,0.4c0.9,0.2,1.8,0.6,2.4,1.3l3.5,3.7c-5.8,4.2-11.9,5-21.2,5h-0.8c-9.3,0-14.8-1-20.7-6l1.2-1.4L87.6,95.9
	c-0.2-0.2-0.2-0.6,0-0.8c0,0,0,0,0,0c0.2-0.2,0.6-0.2,0.8,0l51.6,51.1l0.4-0.5c0.6-0.7,1.5-1.2,2.4-1.4l2.1-0.4
	c3-0.5,5.6-2.5,6.8-5.3l2.9-6.8c0.7-1.6,1-3.4,0.9-5.2l-3.2-35.9c-0.2-1.9-1.4-3.6-3.1-4.4l-15.7-7.1l8,16.1c0.1,0.3,0,0.6-0.2,0.7
	c-0.1,0-0.2,0.1-0.2,0.1c-0.2,0-0.4-0.1-0.5-0.3l-9-18.1c0,0,0-0.1,0-0.1l-2.6-4.4l-0.1-0.1l-4.5-5.1l-2.4-2.8
	c4.2-1.9,8.5-3.3,13-4.2c7.4-1.8,14.4-3.5,19.2-9.8c0.3-0.3,2.8-3.2,1.6-6.1c-1.3-3-6.4-4.7-15-4.8h-0.4c-7.8,0-16.7,3.9-25.1,11
	c-1,0.8-2,1.7-3,2.7c-1.1-1.3-2.8-1.9-4.5-1.7l-26.1,3c-2,0.2-3.7,1.6-4.3,3.5l-2.5,7.3c-0.3,0.9-0.9,1.6-1.7,2.1L61,76.1
	c-1.8,1.2-2.7,3.4-2.2,5.5l3.6,15.6c0,0.1,0.1,0.2,0.2,0.3v0.1c-0.8,1.4-1.5,2.9-2,4.4c-0.1,0.2,0,0.5,0.2,0.6l2.7,1.6
	c-2.7,4-8.4,13.7-8.4,23.1c0,0.5,0.2,1,0.5,1.5c0.7,1.3,1,2.9,0.7,4.4c-1,5.9-3.7,11.4-7.6,15.9c-1.2,1.5-2.1,2.5-2.1,3.6
	c0,2.2,3,3.9,4.3,3.9c0.3,0,0.6-0.1,0.9-0.1c0.6-0.2,1.3-0.2,1.9-0.2c1.4,1.8,1.9,4.1,1.2,6.3c-0.2,0.7,0,1.5,0.5,2
	c0.5,0.4,1.1,1,1.8,1.5c-1,0.9-1.4,2.3-1,3.6c0.2,0.7,0.6,1.3,1.2,1.6c0.4,0.3,0.6,0.8,0.5,1.2c-0.4,1.9-0.7,3.9-0.7,5.9
	c0,0,0,0.1,0,0.1v0.1c0,0.3,0,0.6,0,0.9c-0.3,2.9-1.2,5.8-2.7,8.4c-0.6,1.1-0.2,2.4,0.9,3c0.3,0.2,0.7,0.3,1.1,0.3
	c0.2,0,0.3,0,0.5,0L58,191c7.6-1.4,15.1-3.7,22.2-6.6c0.2,0.5,0.5,1,0.8,1.5c1.8,3.1,2.9,6.5,3.1,10.1c-3.5,4.2-6.8,8.7-9.8,13.3
	c-0.5,0.7-0.3,1.6,0.4,2.1c0.5,0.3,1.2,0.3,1.7,0c22.1-15,39.9-17.6,44.8-18.1c10.8,5,23.3,7.5,37.5,7.6h0.8
	c12.4,0.2,24.8-2.1,36.3-6.8c5.1,0.5,22.8,3.2,44.6,18.1c0.7,0.5,1.6,0.3,2.1-0.4c0.3-0.5,0.3-1.2,0-1.7c-2.1-3.1-4.8-7-8-11
	c0.3-7.8,2.1-10.8,3.3-13.1c0.3-0.6,0.6-1,0.8-1.5c2.3,1,4.4,1.8,6.1,2.4c2.7,1,5.5,1.6,8.3,1.7c2,0.1,3.9-0.5,5.6-1.6
	c2.9-2.1,3.2-5.6,3.2-7c0-2.4-0.3-4.9-0.8-7.2c-0.1-0.5,0.1-1,0.5-1.2c0.6-0.3,1-0.9,1.2-1.6c0.4-1.3,0-2.7-1-3.7
	c0.7-0.6,1.3-1.1,1.8-1.5c0.5-0.5,0.7-1.3,0.5-2c-0.7-2.2-0.2-4.5,1.2-6.3c0.6,0,1.3,0,1.9,0.2c0.3,0.1,0.6,0.1,0.9,0.1
	c1.3,0,4.3-1.6,4.3-3.9C272.4,151.6,271.6,150.6,270.3,149.1z M143.3,91.2c0.3-0.2,0.6-0.1,0.8,0.2l3.3,5.4c0.2,0.3,0.1,0.6-0.2,0.7
	c0,0,0,0,0,0c-0.1,0.1-0.2,0.1-0.3,0.1c-0.2,0-0.4-0.1-0.5-0.3l-3.3-5.4C143,91.7,143,91.4,143.3,91.2
	C143.3,91.2,143.3,91.2,143.3,91.2L143.3,91.2z M57.4,190l-1,0.2c-0.5,0.1-0.9-0.1-1.2-0.4c-0.3-0.4-0.3-0.8-0.1-1.2
	c0.9-1.6,1.6-3.3,2.1-5C57.6,185.7,57.6,187.8,57.4,190z M169.6,49.1c-0.3,0-0.5-0.3-0.5-0.5c0-0.3,0.2-0.5,0.5-0.5
	c26.7,0,40.7,16.5,46.6,26.4c0.2,0.3,0.1,0.6-0.2,0.7c-0.1,0.1-0.2,0.1-0.3,0.1c-0.2,0-0.4-0.1-0.5-0.3
	C209.4,65.3,195.7,49.1,169.6,49.1z M179.7,146.7l49.7-49.2c0.2-0.2,0.2-0.6,0-0.8c-0.2-0.2-0.6-0.2-0.8,0L179,145.9l-0.9-0.9
	c-0.8-0.9-1.8-1.4-3-1.6l-2.2-0.4c-2.7-0.5-4.9-2.2-5.9-4.7l-2.9-6.8c-0.6-1.5-0.9-3.1-0.8-4.7l3.1-35.9c0.1-1.5,1.1-2.9,2.5-3.5
	l15.7-7.1l-7.7,12.9c-0.2,0.3-0.1,0.6,0.2,0.7s0.6,0.1,0.7-0.2l11.9-19.9l4.5-5.1l2.9-3.4c3.7,2,6.9,4.9,9.2,8.4
	c0.2,0.3,2.1,3.6,5.2,4.2c0.4,0.1,0.7,0.1,1.1,0.1c1.3,0,2.6-0.5,3.7-1.3c0.8,1.5,1.5,3,2.2,4.5c0.1,0.2,0.3,0.4,0.5,0.3
	c0.1,0,0.1,0,0.2,0c0.3-0.1,0.4-0.4,0.3-0.7c-0.7-1.7-1.5-3.3-2.3-4.8c0.8-0.9,1.4-2.6,0.2-6c-1.5-4.3-5.5-10.2-11-15.5
	c0.9-0.9,2.1-1.4,3.4-1.2l26.1,3c1.6,0.2,2.9,1.3,3.4,2.8l2.5,7.3c0.4,1.1,1.1,2,2.1,2.7l12.2,7.8c1.5,0.9,2.2,2.7,1.8,4.4
	l-3.3,14.1c-2.4-3.3-5.6-5.9-9.3-7.6l1.4-1.3c0.2-0.2,0.2-0.5,0-0.7L237,74.5c-0.1-0.1-0.3-0.2-0.4-0.2c-0.2,0-0.3,0.1-0.4,0.2
	l-31.4,38.9c-0.2,0.2-0.2,0.6,0.1,0.8c0.2,0.2,0.6,0.2,0.8-0.1l31-38.4l9,10.4l-64.3,62.4L179.7,146.7z M252.8,104.8l-0.9,0.6
	c-2.9-5-6.9-9.3-11.7-12.6L241,92C245.8,95.4,249.9,99.8,252.8,104.8z M159.1,172.8c0-0.3,0.2-0.5,0.5-0.5
	c15.9-0.1,26.9-5.6,33.4-10.1c9-6.4,20.9-25.3,26.5-49.3l1.3-1.3c0,0.1,0,0.2,0,0.3c-4.2,18.8-14.9,42.4-27.2,51.2
	c-6.6,4.7-17.8,10.2-34,10.3C159.4,173.3,159.1,173.1,159.1,172.8L159.1,172.8L159.1,172.8z M159.1,181.8c0-0.3,0.2-0.5,0.5-0.5
	c14.5-0.1,27.6-3.9,37.8-11.1c9.5-6.6,17.3-18.1,23.1-34.2c3.6-10.1,6.1-20.6,7.4-31.2l1.2-1.2l0,0c-1.2,11.2-3.8,22.2-7.6,32.8
	c-5.9,16.3-13.8,28-23.5,34.7c-10.5,7.3-23.8,11.2-38.4,11.3C159.4,182.4,159.2,182.1,159.1,181.8L159.1,181.8L159.1,181.8z
	 M159.1,163.7c0-0.3,0.2-0.5,0.5-0.5c10.4,0,20.4-3.2,28.9-9.1c5.4-3.9,14.8-17.1,20.5-31l1.8-1.8c0,0.1,0,0.2,0,0.2
	c-2.9,7.4-6.6,14.4-11,21c-3.8,5.7-7.8,10.4-10.7,12.4c-8.7,6.1-19,9.4-29.6,9.4C159.4,164.3,159.2,164,159.1,163.7L159.1,163.7
	L159.1,163.7z M134.8,146.9c0,0.1,0.1,0.1,0.1,0.2c6.4,6.4,11.7,8.1,20.4,8.4c2,0.1,3.6,1.7,3.6,3.7l0,0c0,2.1-1.7,3.7-3.7,3.7
	c-0.1,0-0.2,0-0.3,0c-8.9-0.7-17.4-3.8-24.7-9c-5.4-3.9-14.5-16.7-20.3-30.4L134.8,146.9z M100.8,115.1l7.1,6.6
	c2.9,7.3,6.5,14.2,10.9,20.7c3.8,5.7,7.8,10.4,10.7,12.4c7.6,5.4,16.5,8.5,25.8,9.2c2.1,0.2,3.7,1.9,3.6,4l0,0c0,2.2-1.8,4-4,4
	c-0.1,0-0.2,0-0.3,0c-10.4-0.6-20.4-4-29-9.9c-11.6-8.2-21.7-30.1-26.2-48.3L100.8,115.1z M97.9,112.5c4.3,18.7,14.9,41.9,27.1,50.5
	c6.1,4.3,16,9.3,30.1,10.2c2.1,0.1,3.7,1.9,3.7,4l0,0c0,2.2-1.8,4-4,4c-0.1,0-0.2,0-0.3,0c-12.7-0.8-24.2-4.5-33.4-10.9
	c-9.5-6.6-17.3-18.1-23.1-34.2c-3.4-9.7-5.8-19.7-7.2-29.9L97.9,112.5z M89.7,105c1.3,10.7,3.8,21.2,7.4,31.4
	c5.9,16.3,13.8,28,23.5,34.7c9.5,6.6,21.4,10.4,34.5,11.1c2.1,0.1,3.8,1.9,3.8,4l0,0c0,2.2-1.8,4-4,4c-0.1,0-0.1,0-0.2,0
	c-14.7-0.7-27.5-4.7-37.9-11.9c-12.6-8.6-21.8-22.9-27.5-42.3c-3.1-10.9-4.9-22.1-5.5-33.4c0-0.4,0-0.7,0-0.8v-2.3L89.7,105z
	 M98.1,81.7c0.8-2.1,1.8-4.1,3-6c-0.6-1-0.5-2.6,0.3-4.7c2-5.5,7.8-13,14.7-18.8c8.2-7,16.9-10.8,24.4-10.8h0.4
	c10.2,0.2,13.3,2.4,14.1,4.2c1,2.3-1.4,4.9-1.4,5l0,0c-4.5,6-11.3,7.7-18.6,9.4c-8.7,2.1-17.6,4.3-24.1,13.8l0,0
	c0,0-1.8,3.2-4.6,3.8c-1.5,0.2-2.9-0.2-4.1-1.1c-1.1,1.8-2,3.6-2.8,5.6c-0.1,0.2-0.3,0.4-0.5,0.3c-0.1,0-0.1,0-0.2,0
	C98.2,82.3,98,82,98.1,81.7z M70.5,85.8L81,74.5c0.2-0.2,0.6-0.2,0.8,0c0,0,0,0,0,0l31.4,38.9c0.2,0.2,0.2,0.6-0.1,0.7c0,0,0,0,0,0
	c-0.2,0.2-0.6,0.2-0.8-0.1c0,0,0,0,0,0l-31-38.4L71.3,86.6c-0.2,0.2-0.5,0.2-0.8,0S70.3,86,70.5,85.8z M61.8,101.9
	c2-5.4,5.9-9.8,10.9-12.5l3.6,3.3c-4.2,3.2-7.7,7.2-10.4,11.7L61.8,101.9z M57.8,170.5L57.8,170.5c-0.4-0.2-0.6-0.5-0.7-0.9
	c-0.3-1.1,0.1-2.2,1-2.9h3.3c0.5,0.4,1.1,0.7,1.7,0.7c0.3,0,0.5-0.2,0.5-0.5c0-0.3-0.2-0.5-0.5-0.5c-0.4-0.1-0.8-0.3-1.1-0.6
	c-0.1-0.1-0.2-0.2-0.4-0.2h-3.6c-0.8-0.6-1.5-1.3-2.1-1.8c-0.2-0.3-0.3-0.6-0.2-0.9c0.6-2.1,0.3-4.3-0.7-6.3c1.1,0.4,2.2,1,3.2,1.8
	c0.1,0.1,0.2,0.1,0.3,0.1c1.1,0,3.2-0.5,3.2-2.4c0-0.3-0.2-0.5-0.5-0.5s-0.5,0.2-0.5,0.5c0,1.1-1.4,1.3-1.9,1.3
	c-3.7-2.7-6-2.2-7.3-2c-0.2,0.1-0.4,0.1-0.7,0.1c-0.9,0-3.2-1.3-3.2-2.8c0-0.7,0.8-1.6,1.8-2.9c4.1-4.6,6.8-10.3,7.8-16.4
	c0.3-1.7,0.1-3.5-0.7-5c-0.2-0.3-0.3-0.7-0.4-1.1c0-9.2,5.6-18.6,8.3-22.5l6.5,4c0.2,0.2,0.6,0.1,0.7-0.1l3.7-4.8
	c-0.1,8.4,0.5,16.9,2,25.2c1.6,9.2,4.3,18.2,8.1,26.8c-2.4,2.4-5.7,3.9-9.1,4.1c-0.3,0-0.5,0.3-0.5,0.6c0,0.2,0.2,0.4,0.5,0.5l0,0
	c3.6-0.2,7-1.7,9.6-4.2c0.7,1.4,1.4,2.8,2.1,4.2c-3.5,5.6-9.3,12.6-17.4,14.7c-2.7,0.7-5.5,0.8-8.2,0.1c-0.6-1.5-0.9-3-0.9-4.6
	c0-0.2-0.1-0.3-0.2-0.4c-0.1-0.1-0.3-0.2-0.5-0.1c-0.8,0.1-1.7,0.2-2.5,0.1h-0.1C58.1,170.7,57.9,170.6,57.8,170.5z M81.7,170.7
	c2.7-2.5,5-5.4,6.9-8.5c0.9,1.6,1.8,3.2,2.9,4.8C88.3,168.5,85.1,169.8,81.7,170.7z M92.1,168c1.5,2.3,3.1,4.5,4.8,6.6l-2.2,1.3
	c-12,2-19.1,1.1-22.2,0.5c2.6-0.9,5.1-2.3,7.3-4.1C84,171.3,88.2,169.9,92.1,168z M58.6,189.8c0.3-2.8-0.4-9-0.5-9.9v-0.1
	c0-0.5,0-0.8,0-1c0.1-1.9,0.3-3.9,0.7-5.8c0.1-0.3,0.1-0.7,0.1-1h0.3c-0.1,1.7-0.5,9.9,3.3,14.1c0.9,1,2,1.7,3.2,2.1
	C62.3,189.1,59.8,189.6,58.6,189.8z M68.3,187.4L68.3,187.4c-1.9,0.1-3.7-0.7-5-2.1c-3.6-3.9-3.1-12.2-3.1-13.4h0.2
	c0.1,3.1,1.3,6.1,3.5,8.4c2.6,2.8,6.5,4.4,11.6,4.7C72.9,186,70.4,186.8,68.3,187.4z M78,184.1c-0.1,0-0.1,0-0.2,0
	c-5.9,0-10.4-1.5-13.2-4.5c-0.7-0.7-1.2-1.5-1.7-2.4c1,0.2,2.1,0.3,3.1,0.3c1.5,0,2.9-0.2,4.4-0.5c0.8,0.3,4,1.2,10.4,1.2
	c3.8,0,7.6-0.3,11.3-0.9C87.7,179.9,82.9,182.2,78,184.1z M85.1,194.9c-0.3-3.4-1.4-6.6-3.2-9.5c-0.3-0.5-0.6-1-0.8-1.4
	c5.7-2.4,11.2-5.3,16.5-8.6c0.7,0.9,1.5,1.7,2.2,2.5s1.4,1.5,2.2,2.2C96.2,183,90.3,188.8,85.1,194.9L85.1,194.9z M158.9,195.5
	c0,2.3-1.9,4.2-4.2,4.2c-0.1,0-0.1,0-0.2,0c-22.6-0.9-40.7-8.5-53.9-22.5c-14-14.9-19.8-34.4-22.2-48.2c-1.6-8.8-2.3-17.8-2-26.7
	c0-0.3-0.1-0.6-0.4-0.6c-0.2,0-0.4,0.1-0.6,0.3l-4.4,5.8l-4.2-2.6c2.6-4.5,6.1-8.4,10.2-11.5l5.5,5v3.3c0,0.2,0,0.5,0,0.8
	c0.6,11.4,2.4,22.7,5.6,33.7c5.8,19.7,15.2,34.1,28,42.9c10.7,7.3,23.7,11.4,38.8,12.1C157.1,191.4,158.9,193.2,158.9,195.5
	L158.9,195.5z M159.1,190.9c0-0.3,0.2-0.5,0.5-0.5c16.6-0.1,30.8-4.1,42.3-12c12.6-8.6,21.9-22.9,27.5-42.3
	c3.1-10.9,4.9-22.1,5.5-33.4c0-0.4,0-0.7,0.1-0.9v-3.9l0.7-0.7c0.2,0.1,0.4,0.3,0.4,0.5v4.1c0,0.2,0,0.5-0.1,0.9
	c-0.6,11.4-2.4,22.7-5.6,33.7c-5.8,19.7-15.2,34.1-28,42.9c-11.7,8-26.1,12.1-42.9,12.2C159.3,191.4,159.1,191.2,159.1,190.9
	L159.1,190.9L159.1,190.9z M268.1,155.5c-0.2,0-0.4-0.1-0.6-0.1c-1.4-0.3-3.6-0.8-7.3,2c-0.5,0-1.9-0.2-1.9-1.3
	c0-0.3-0.2-0.5-0.5-0.5c-0.3,0-0.5,0.2-0.5,0.5c0,1.9,2.1,2.4,3.1,2.4c0.1,0,0.2,0,0.3-0.1c1-0.8,2-1.3,3.2-1.8
	c-1,1.9-1.3,4.2-0.7,6.3c0.1,0.3,0,0.7-0.2,0.9c-0.5,0.5-1.3,1.2-2.1,1.8h-3.5c-0.1,0-0.3,0.1-0.4,0.2c-0.3,0.3-0.7,0.5-1.1,0.6
	c-0.3,0-0.5,0.2-0.5,0.5c0,0.3,0.2,0.5,0.5,0.5c0.6-0.1,1.2-0.3,1.7-0.7h3.3c0.9,0.7,1.3,1.8,1,2.9c-0.1,0.4-0.3,0.7-0.6,0.9h-0.1
	c-0.8,0.5-1.2,1.5-0.9,2.5c0.4,2.3,0.7,4.6,0.7,6.9c0,1.2-0.3,4.3-2.8,6.1c-2.7,1.9-7,1.8-12.9-0.3c-7.9-2.8-15.5-6.4-22.7-10.7
	c-0.3-0.2-0.6-0.1-0.7,0.2c-0.2,0.3-0.1,0.6,0.2,0.7l0,0c5.1,3,10.3,5.7,15.7,8.1c-0.2,0.4-0.5,0.9-0.8,1.4c-1.2,2.1-3,5.1-3.4,12.3
	c-5.1-6.2-11.1-12.5-17-16c-4.4,4-9.3,7.5-14.6,10.3c-0.1,0-0.2,0.1-0.2,0.1c-0.2,0-0.4-0.1-0.5-0.3c-0.1-0.3,0-0.6,0.2-0.7
	c5.2-2.8,10-6.2,14.4-10.2c1-1,2-1.9,2.9-2.9c5.8-6.3,10.5-13.4,14-21.2c2.6,2.6,6.1,4.2,9.8,4.4l0,0c0.3,0,0.5-0.3,0.5-0.6
	c0-0.2-0.2-0.4-0.5-0.5c-3.5-0.2-6.8-1.7-9.2-4.2c0-0.1-0.1-0.1-0.2-0.1c3.7-8.5,6.4-17.4,7.9-26.6c1.5-8.3,2.1-16.7,2-25.1l3.8,5
	c0.1,0.1,0.3,0.2,0.4,0.2c0.1,0,0.2,0,0.3-0.1l6.8-4.1c2.7,4,8.1,13.3,8.1,22.3c-0.1,0.4-0.2,0.7-0.4,1.1c-0.8,1.5-1.1,3.3-0.7,5
	c1,6.1,3.8,11.8,7.9,16.4c1.1,1.3,1.8,2.2,1.8,2.9C271.3,154.2,269,155.5,268.1,155.5L268.1,155.5z"/>
<path class="st2" d="M261.2,140.5l-0.4-1.3c-0.1-0.3-0.4-0.5-0.7-0.4c-0.3,0.1-0.5,0.4-0.4,0.7c0.1,0.4,0.2,0.9,0.4,1.3
	c0.1,0.2,0.3,0.4,0.5,0.4h0.1C261.1,141.1,261.3,140.8,261.2,140.5C261.2,140.5,261.2,140.5,261.2,140.5z"/>
<path class="st2" d="M257.6,134.4c-1.6-1.6-1.8-1.6-5.9-1.6c-1.1,0-2.2,0.9-3.2,1.7c-0.4,0.4-0.9,0.7-1.4,1
	c-0.3,0.1-0.4,0.4-0.4,0.7c0,0,0,0,0,0c0.1,0.2,0.3,0.4,0.5,0.4c0.1,0,0.1,0,0.2,0c0.2-0.1,0.4-0.1,0.5-0.2c0.3,0.8,0.9,1.5,1.6,2
	c0.1,0.1,0.2,0.1,0.3,0.1c0.3,0,0.6-0.2,0.6-0.5c0-0.2-0.1-0.4-0.3-0.5c-0.3-0.2-1.3-1.1-1.3-1.8l0,0l0.3-0.2
	c0.7-0.7,1.6-1.2,2.5-1.4c1.1,0,1.9,0,2.5,0l0,0c0.4,0.6,0.6,1.3,0.6,2c0,0.8-0.3,1.5-0.8,2.1h-0.5c-0.3,0-0.5,0.2-0.5,0.5
	c0,0.3,0.2,0.5,0.5,0.5l0,0h1.7c0,0.5-0.1,1-0.3,1.5c-0.1,0.3,0.1,0.6,0.3,0.7c0.1,0,0.1,0,0.2,0c0.2,0,0.4-0.1,0.6-0.3
	c0.3-0.8,0.4-1.6,0.4-2.4c0-0.3-0.2-0.5-0.5-0.5h-0.4c0.4-0.6,0.6-1.3,0.6-2.1c0-0.6-0.1-1.2-0.4-1.8c0.5,0.2,0.9,0.6,1.2,1v0.1
	c0.2,0.2,0.6,0.2,0.8,0C257.9,135,257.9,134.7,257.6,134.4L257.6,134.4L257.6,134.4z"/>
<path class="st2" d="M261.8,142.5c-0.1-0.3-0.4-0.4-0.7-0.4c-0.3,0.1-0.4,0.4-0.4,0.7c0.6,2.6,1.7,5,3.1,7.2
	c0.1,0.1,0.3,0.2,0.4,0.2c0.1,0,0.2,0,0.3-0.1c0.2-0.2,0.3-0.5,0.1-0.7c0,0,0,0,0,0C263.4,147.2,262.4,144.9,261.8,142.5z"/>
<path class="st2" d="M260.1,136.3v-0.2c-0.1-0.3-0.4-0.5-0.6-0.4c-0.3,0.1-0.5,0.4-0.4,0.6v0.2c0.1,0.3,0.3,0.4,0.5,0.4h0.1
	C260,136.9,260.2,136.6,260.1,136.3z"/>
<path class="st2" d="M59.5,135.8c-0.3-0.1-0.6,0.1-0.7,0.4v0.2c-0.1,0.3,0.1,0.6,0.4,0.6h0.1c0.3,0,0.5-0.2,0.5-0.4v-0.2
	C59.9,136.1,59.7,135.8,59.5,135.8z"/>
<path class="st2" d="M66.7,130.1c0.3,0.1,0.6-0.1,0.6-0.4c0,0,0,0,0,0c0.1-0.3-0.1-0.6-0.4-0.7c0,0,0,0,0,0
	c-2.3-0.5-4.7,0.1-6.5,1.6c-0.2,0.2-0.2,0.6,0,0.8c0.1,0.1,0.2,0.2,0.4,0.2c0.1,0,0.3-0.1,0.4-0.2C62.7,130.2,64.8,129.7,66.7,130.1
	z"/>
<path class="st2" d="M64,140.6c-0.2-0.5-0.3-1-0.3-1.5h1.7c0.3,0,0.5-0.2,0.5-0.5c0-0.3-0.2-0.5-0.5-0.5h-0.5
	c-0.5-0.6-0.8-1.3-0.8-2.1c0-0.7,0.2-1.4,0.6-2l0,0c0.6,0,1.4,0,2.5,0c0.9,0.2,1.8,0.7,2.5,1.4l0.3,0.2l0,0c0,0.7-0.9,1.6-1.3,1.8
	c-0.3,0.2-0.3,0.5-0.2,0.7c0.1,0.2,0.3,0.3,0.5,0.3c0.1,0,0.2,0,0.3-0.1c0.7-0.5,1.2-1.2,1.6-2c0.2,0.1,0.3,0.2,0.5,0.2
	c0.1,0,0.1,0,0.2,0c0.2,0,0.4-0.2,0.5-0.4c0.1-0.3,0-0.6-0.3-0.7c0,0,0,0,0,0c-0.5-0.3-1-0.6-1.4-1c-1-0.8-2.1-1.7-3.2-1.7
	c-4.1,0-4.3,0-5.9,1.6l0,0c-0.2,0.2-0.2,0.6,0,0.8c0.2,0.2,0.6,0.2,0.8,0v-0.1c0.3-0.4,0.8-0.8,1.2-1c-0.2,0.6-0.4,1.2-0.4,1.8
	c0,0.7,0.2,1.5,0.6,2.1h-0.4c-0.3,0-0.5,0.2-0.5,0.4c0,0,0,0.1,0,0.1c0,0.8,0.2,1.7,0.4,2.5c0.1,0.2,0.3,0.4,0.5,0.4
	c0.1,0,0.1,0,0.2,0C64,141.3,64.1,141,64,140.6C64,140.7,64,140.6,64,140.6z"/>
<path class="st2" d="M58.7,138.8c-0.3-0.1-0.6,0.1-0.7,0.4c0,0,0,0,0,0l-0.3,1.3c-0.1,0.3,0.1,0.6,0.4,0.7c0,0,0,0,0,0h0.1
	c0.2,0,0.5-0.2,0.5-0.4c0.1-0.5,0.2-0.9,0.4-1.3C59.2,139.2,59,138.9,58.7,138.8z"/>
<path class="st2" d="M57.8,142.1c-0.3-0.1-0.6,0.1-0.7,0.4c-0.6,2.4-1.6,4.7-2.9,6.9c-0.2,0.2-0.2,0.6,0.1,0.7c0,0,0,0,0,0
	c0.1,0.1,0.2,0.1,0.3,0.1c0.2,0,0.3-0.1,0.4-0.2c1.4-2.2,2.5-4.6,3.1-7.2C58.3,142.5,58.1,142.2,57.8,142.1z"/>
<path class="st2" d="M254,164c2.2-0.8,4.5-1.3,6.8-1.5c0.3,0,0.5-0.3,0.6-0.6l0.3-2c0.1-0.4-0.2-0.7-0.6-0.8c-0.1,0-0.2,0-0.2,0
	c-2.8,0.6-5.4,2-7.6,3.9c-0.2,0.2-0.3,0.6,0,0.8C253.5,164,253.8,164.1,254,164z"/>
<path class="st2" d="M104.8,72c1.6-2.2,3.3-4.4,5.2-6.3c7.1-7.5,19.6-16.5,39.1-16.5c0.3,0,0.5-0.2,0.5-0.5c0-0.3-0.2-0.5-0.5-0.5
	c-19.8,0-32.6,9.2-39.8,16.8c-1.9,2-3.7,4.2-5.3,6.5c-0.2,0.2-0.1,0.5,0.1,0.7C104.2,72.3,104.5,72.3,104.8,72
	C104.7,72,104.7,72,104.8,72z"/>
<path class="st2" d="M256.1,127.3c2.3,0,2.7,0,3-0.2c0,0,0.1-0.1,0.1-0.2c0.3-0.7,0.6-1.5,0.7-2.4c0-0.2-0.1-0.3-0.2-0.5
	c-0.5-0.5-4.3-0.5-11.2-0.1c-0.1,0-0.1,0-0.2,0c-2.8,1.5-4.6,4.2-5,7.3c0,0.3,0.1,0.5,0.4,0.6c0.1,0,0.1,0,0.2,0
	c0.2,0,0.4-0.1,0.5-0.3c1.2-1.8,2.9-3.2,4.9-4C250.7,127.2,254,127.2,256.1,127.3z"/>
<path class="st2" d="M59.5,127c0.3,0.3,0.7,0.3,3,0.2s5.4-0.1,6.9,0.5c2,0.8,3.7,2.2,4.9,4c0.1,0.2,0.3,0.3,0.5,0.3
	c0.1,0,0.1,0,0.2,0c0.2-0.1,0.4-0.3,0.3-0.6c-0.4-3.1-2.2-5.8-5-7.3c-0.1,0-0.1,0-0.2,0c-6.9-0.5-10.7-0.4-11.2,0.1
	c-0.1,0.1-0.2,0.3-0.2,0.5c0.1,0.8,0.3,1.6,0.7,2.4C59.4,127,59.4,127,59.5,127z M69.9,125c1.6,0.9,2.9,2.4,3.6,4.1
	c-1.1-1-2.4-1.9-3.8-2.4c-1.6-0.5-3.4-0.7-5.1-0.6c-0.8,0-1.5,0-2.2,0s-1.8,0-2.2,0c-0.2-0.4-0.3-0.9-0.5-1.4
	C63.2,124.6,66.6,124.7,69.9,125L69.9,125z"/>
<path class="st3" d="M99.8,180h29.5v12.2h-0.1l-8.1-11.1h-1.8v31.3l2.4,2.9v0.1h-14.5v-0.1l2.4-2.9v-31.2H108l-8.1,11.1h-0.1V180z"
	/>
<path class="st3" d="M130.5,180h15.7v0.1l-2.6,2.8l9.4,19.8l5.7-12.1l-5.3-10.5H169v0.1l-2.6,2.8l9.4,19.8l5.8-12.4l-5.2-10.2v0
	h11.4v0.1l-16.7,35.3H171L159.3,192l-11.1,23.5l0,0l-16.3-32.6L130.5,180L130.5,180z"/>
<path class="st3" d="M185.6,197.7c0-10.3,7.5-18.1,16.7-18.1s16.7,7.8,16.7,18.1s-7.5,18.1-16.7,18.1S185.6,208.1,185.6,197.7z
	 M196.2,197.7c0,9.6,2.8,16.9,6.1,16.9s6.1-7.3,6.1-16.9s-2.8-16.9-6.1-16.9S196.2,188.1,196.2,197.7L196.2,197.7z"/>
<path class="st3" d="M78.7,256.8l2.4-2.9v-29.4l-2.4-2.9v-0.1h16.1c2.1,0,4.1,0.2,6.1,0.8c4.2,1.2,6.2,3.9,6.2,7.7
	c0,4-2.3,6.8-6.8,7.9c6.3,1,9.3,4.3,9.3,9.3c0.2,3.8-2.2,7.2-5.8,8.4c-2.6,1-5.4,1.5-8.2,1.4L78.7,256.8L78.7,256.8z M90.8,237.4
	c4.2,0,6.4-2.8,6.4-7.5c0.1-2.2-0.7-4.4-2.3-5.9c-1.1-1-2.6-1.5-4.1-1.4l0,0V237.4L90.8,237.4z M90.8,255.7c2.1,0.1,4.1-0.8,5.5-2.4
	c1.4-1.8,2.1-4,2-6.2c0-4.9-2.6-8.6-7.5-8.6h-0.1L90.8,255.7L90.8,255.7z"/>
<path class="st3" d="M109.1,256.8l6.4-7.1l8-24.7l-1.3-3.5v-0.1h10.2l12.9,35.3v0.1h-14.2l0,0l2.6-2.8l-3.5-9.6h-11.8l-1.7,5.3
	l6.2,7.1l0,0L109.1,256.8L109.1,256.8z M130,243.3l-5.8-16.4l-5.3,16.4L130,243.3z"/>
<path class="st3" d="M148,256.8l2.4-3.1v-29.1l-2.4-3.1v-0.1h14.9c8.8,0,13.2,3.8,13.2,10.1c0,7.5-5.2,10.2-15.8,10.2H160
	c0,1.6,1.7,2.6,3.5,2.6h12.4v12.4c-4,0-7.8-1.4-10.8-4c-2.4-2-4.2-4.7-5.1-7.7v8.8l2.4,2.9l0,0L148,256.8L148,256.8z M160,240.6
	c3.5,0,5.4-4.8,5.4-9.1s-1.9-8.9-5.4-8.9l0,0V240.6z"/>
<path class="st3" d="M180.8,256.8l2.4-2.9v-29.4l-2.4-2.9v-0.1h16.9c9.1,0,13.8,10,13.4,18.6c-0.3,9-4.8,16.8-13.4,16.8L180.8,256.8
	L180.8,256.8z M193,255.7c5.4,0,8.2-7.2,8.4-15.6c0.2-7.8-2.7-17.2-8.4-17.2h-0.1v32.8H193z"/>
<path class="st3" d="M214,255.7v-11.9l4.3,0.1l9.2,11.9c0.4,0.1,0.8,0.1,1.3,0.1c2.9,0.1,5.4-2.2,5.5-5.1c0,0,0,0,0,0
	c0-4.2-4.9-5.7-9.8-7.8s-9.5-5-9.5-12c0-5.5,4.9-9.8,12.6-9.8c1.6,0,4.6,0.3,11.5,1.1l0.1,9.9h-6.6l-7.4-9.7h-0.1
	c-2.1,0.6-3.6,2.6-3.6,4.9c0,3.7,3.7,5.3,7.8,7.2c5.1,2.3,10.9,5,10.9,12.6c0,6-5.4,10-11.9,10C223.5,257,218.7,256.5,214,255.7z"/>
</svg>
