<?xml version="1.0" encoding="utf-8"?>
<!-- Generator: Adobe Illustrator 24.0.3, SVG Export Plug-In . SVG Version: 6.00 Build 0)  -->
<svg version="1.1" id="Layer_1" xmlns="http://www.w3.org/2000/svg" xmlns:xlink="http://www.w3.org/1999/xlink" x="0px" y="0px"
	 viewBox="0 0 295.9 295.9" style="enable-background:new 0 0 295.9 295.9;" xml:space="preserve">
<style type="text/css">
	.st0{fill:#BDBF95;}
	.st1{fill:#4C2059;}
</style>
<title>Asset 2</title>
<circle class="st0" cx="147.9" cy="147.9" r="139.4"/>
<g>
	<path class="st1" d="M117.4,255.4c0-0.7,0-1.4,0.1-2.1c0-0.7,0-1.4,0-2.1s0-1.4,0-2.1s0-1.4-0.1-2.1h0.7c0.3,0,0.7,0,1.1,0h0.8
		c0.7,0,1.3,0.1,1.9,0.5c0.4,0.3,0.7,0.8,0.7,1.4c0,0.4-0.1,0.9-0.4,1.2c-0.3,0.4-0.7,0.7-1.2,0.9c0.5,0.1,1,0.4,1.4,0.8
		c0.3,0.4,0.5,0.8,0.5,1.3c0,0.7-0.3,1.3-0.9,1.7c-0.6,0.5-1.4,0.7-2.2,0.7H119h-0.6L117.4,255.4z M118.9,251.4
		c0.1-0.1,0.3-0.3,0.4-0.4l0.4-0.4h0.2l0.3,0.1c0.3-0.1,0.5-0.3,0.7-0.5c0.2-0.3,0.2-0.6,0.2-0.9c0-0.4-0.1-0.8-0.4-1
		c-0.4-0.3-0.8-0.4-1.3-0.4h-0.2H119L118.9,251.4L118.9,251.4z M118.9,254.5c0.3,0.1,0.6,0.1,0.7,0.2c0.2,0,0.3,0,0.5,0.1
		c0.3,0,0.6-0.2,0.7-0.4c0.2-0.3,0.3-0.6,0.3-1c0-0.5-0.2-0.9-0.6-1.2s-1-0.5-1.5-0.5h-0.2l0,0L118.9,254.5z"/>
	<path class="st1" d="M131.1,255.6c-0.5-0.7-0.9-1.4-1.3-2c-0.4-0.6-0.8-1.2-1.3-1.8c0,0.5,0,1,0,1.6s0,1.2,0.1,2l-1.7,0.1
		c0-0.7,0-1.4,0.1-2.1s0-1.4,0-2.1s0-1.4,0-2.1c0-0.7,0-1.4-0.1-2.1h0.5c0.4,0,0.8,0,1.3,0h0.9c0.6,0,1.1,0.2,1.6,0.5
		c0.4,0.3,0.6,0.9,0.6,1.4s-0.2,1-0.5,1.4c-0.4,0.4-0.9,0.7-1.4,0.9l1.6,2.3c0.1,0.1,0.2,0.3,0.4,0.6l0.5,0.7L131.1,255.6z
		 M128.5,251.3c0.2-0.1,0.4-0.2,0.6-0.4c0.2-0.1,0.3-0.3,0.4-0.4l0.1,0.1h0.1c0.2-0.2,0.3-0.4,0.4-0.6c0.3-0.6,0.2-1.3-0.3-1.8
		c-0.3-0.3-0.7-0.5-1.2-0.4h-0.2l0,0L128.5,251.3z"/>
	<path class="st1" d="M136.2,255.4c0-0.7,0-1.3,0.1-2s0-1.4,0-2.1c0-0.7,0-1.4,0-2.1s0-1.4-0.1-2.1h4.4l-0.3,0.9h-2.4
		c0,0.3,0,0.7,0,1.1s0,0.9,0,1.5h2.8l-0.3,0.9h-2.5c0,0.5,0,0.9,0,1.4s0,0.9,0.1,1.4h0.8h0.9h1.1l-0.4,1h-4.2V255.4z"/>
	<path class="st1" d="M147.8,255.4l-1.1,0.1c-0.3-1.2-1.2-4-2.5-8.2c0-0.1,0-0.1-0.1-0.2h1.5l2,6.7l1.2-2.7
		c-0.4-1.2-0.8-2.5-1.2-3.7l-0.1-0.3h1.5l0.7,2.2l1-2.1l1-0.1l-1.5,3.3l1.1,3.3l2.4-6.6l0.9-0.1l-3.1,8.3l-1.2,0.1
		c-0.1-0.4-0.2-0.9-0.4-1.4s-0.4-1.2-0.6-1.8L147.8,255.4z"/>
	<path class="st1" d="M160,247c0,0.7,0,1.3-0.1,2s0,1.4,0,2.1c0,0.7,0,1.5,0,2.2s0,1.4,0.1,2l-1.7,0.1c0-0.6,0-1.3,0.1-2
		c0-0.7,0-1.4,0-2.2s0-1.5,0-2.2s0-1.4-0.1-2L160,247z"/>
	<path class="st1" d="M164.6,255.4c0.1-1.9,0.2-3.3,0.2-4.4c0-1.1,0.1-2.1,0.1-3l-0.6-0.8l1.5-0.3l4.1,5.9l-0.1-5.7h1
		c0,0.7,0,1.5,0,2.3c0,0.9,0,1.8,0,2.8v0.6c0,0.5,0,0.9,0,1.3s0,0.8,0.1,1.2l-0.9,0.2c-0.2-0.4-0.6-1-1.2-1.9
		c-0.6-0.9-1.6-2.4-3-4.5l-0.1,6.3L164.6,255.4z"/>
	<path class="st1" d="M181.8,250.6v3.4c-0.4,0.3-0.8,0.5-1.3,0.8l-0.7,0.5c-0.1,0.1-0.3,0.1-0.4,0.1c-0.2,0-0.4,0-0.6,0
		c-1,0-2-0.4-2.7-1.1c-0.7-0.8-1.1-1.8-1-2.9c0-0.6,0.1-1.1,0.3-1.6s0.5-1,0.9-1.3c0.5-0.5,1.1-1,1.7-1.3c0.5-0.3,1-0.5,1.6-0.5
		c0.3,0,0.7,0.1,1,0.2c0.4,0.2,0.7,0.4,1,0.6l-1.3,1.1c-0.2-0.2-0.5-0.3-0.8-0.4c-0.3-0.1-0.6-0.1-0.9-0.1c-0.3,0-0.6,0-0.9,0.1
		c-0.3,0.1-0.5,0.2-0.7,0.4c-0.2,0.3-0.3,0.6-0.4,0.9c-0.1,0.4-0.1,0.7-0.1,1.1c0,1,0.3,1.9,0.9,2.7c0.6,0.7,1.5,1,2.5,1
		c0.1,0,0.2,0,0.3,0s0.1,0,0.2-0.1v-2.7H178l1.3-1L181.8,250.6z"/>
</g>
<g>
	<path class="st1" d="M54,215.6h17.4v7.2l0,0l-4.8-6.5h-1.1v18.5l1.4,1.7l0,0h-8.5l0,0l1.4-1.7v-18.5h-1.1l-4.8,6.5l0,0L54,215.6
		L54,215.6z"/>
	<path class="st1" d="M72.7,215.6H82l0,0l-1.5,1.6l5.5,11.7l3.3-7.1l-3.1-6.2h9.3l0,0l-1.5,1.6l5.5,11.7l3.4-7.3l-3.1-6l0,0h6.7l0,0
		l-9.9,20.9l0,0l-6.9-13.9l-6.5,13.9l0,0l-9.6-19.2L72.7,215.6L72.7,215.6z"/>
	<path class="st1" d="M107.6,226c0-6.1,4.4-10.7,9.9-10.7c5.4,0,9.9,4.6,9.9,10.7s-4.4,10.7-9.9,10.7S107.6,232.1,107.6,226z
		 M113.9,226c0,5.7,1.6,10,3.6,10s3.6-4.3,3.6-10s-1.6-10-3.6-10C115.5,216.1,113.9,220.4,113.9,226z"/>
	<path class="st1" d="M139.9,236.5l1.4-1.7v-17.4l-1.4-1.7l0,0h9.5c1.4,0,2.6,0.1,3.6,0.4c2.5,0.7,3.7,2.3,3.7,4.5
		c0,2.4-1.3,4-4,4.7c3.7,0.6,5.5,2.5,5.5,5.5c0,2.3-1.1,4-3.4,5c-1.3,0.5-2.9,0.8-4.9,0.8L139.9,236.5L139.9,236.5z M147,225
		c2.5,0,3.8-1.7,3.8-4.4c0-1.5-0.5-2.7-1.4-3.5c-0.6-0.5-1.4-0.8-2.4-0.8l0,0L147,225L147,225z M147,235.8c1.4,0,2.5-0.5,3.3-1.4
		c0.7-0.9,1.2-2.2,1.2-3.7c0-2.9-1.6-5.1-4.4-5.1H147V235.8L147,235.8z"/>
	<path class="st1" d="M158.4,236.5l3.8-4.2l4.7-14.6l-0.7-2.1l0,0h6l7.6,20.8v0.1h-8.4l0,0l1.5-1.6l-2.1-5.7h-7l-1,3.1l3.7,4.2l0,0
		H158.4L158.4,236.5z M170.7,228.5l-3.4-9.7l-3.1,9.7H170.7z"/>
	<path class="st1" d="M181.9,236.5l1.4-1.8v-17.2l-1.4-1.8l0,0h8.8c5.2,0,7.8,2.2,7.8,5.9c0,4.4-3.1,6-9.3,6H189c0,1,1,1.6,2.1,1.6
		h7.3v7.3c-2.4,0-4.6-0.8-6.4-2.3c-1.4-1.2-2.4-2.7-3-4.6v5.2l1.4,1.7l0,0L181.9,236.5L181.9,236.5z M189.1,226.9
		c2.1,0,3.2-2.8,3.2-5.3s-1.1-5.3-3.2-5.3l0,0V226.9L189.1,226.9z"/>
	<path class="st1" d="M201.9,236.5l1.4-1.7v-17.4l-1.4-1.7l0,0h10c5.4,0,8.1,5.9,7.9,11c-0.2,5.3-2.8,9.9-7.9,9.9L201.9,236.5
		L201.9,236.5z M209.1,235.8c3.2,0,4.8-4.2,5-9.2c0.1-4.6-1.6-10.2-5-10.2l0,0V235.8L209.1,235.8z"/>
	<path class="st1" d="M223.3,235.8v-7h2.5l5.4,7c0.3,0.1,0.5,0.1,0.7,0.1c1.8,0,3.2-1.3,3.2-3c0-2.5-2.9-3.3-5.8-4.6
		c-2.8-1.3-5.6-3-5.6-7.1c0-3.2,2.9-5.8,7.5-5.8c1,0,2.7,0.2,6.8,0.7l0.1,5.8h-3.9l-4.4-5.7l0,0c-1.3,0.4-2.1,1.6-2.1,2.9
		c0,2.2,2.2,3.1,4.6,4.2c3,1.3,6.4,2.9,6.4,7.5c0,3.5-3.2,5.9-7,5.9C229.6,236.6,225.4,236.2,223.3,235.8z"/>
</g>
<g>
	<path class="st1" d="M240.5,124.6c-0.3,0.1-0.5,0.4-0.4,0.7c0.1,0.3,0.4,0.5,0.7,0.4c0,0,0,0,0,0c1.9-0.4,4,0.1,5.5,1.4
		c0.1,0.1,0.2,0.2,0.4,0.2c0.3,0,0.5-0.3,0.5-0.6c0-0.1-0.1-0.3-0.2-0.4C245.3,124.6,242.8,124,240.5,124.6z"/>
	<path class="st1" d="M163.2,86.7c-0.3-0.2-0.6-0.1-0.8,0.2l-3.2,5.4c-0.2,0.2-0.1,0.6,0.2,0.7c0,0,0,0,0,0c0.1,0,0.2,0.1,0.3,0.1
		c0.2,0,0.4-0.1,0.5-0.3l3.3-5.4C163.6,87.3,163.5,86.9,163.2,86.7C163.3,86.7,163.3,86.7,163.2,86.7z"/>
	<path class="st1" d="M258.9,144.6c-4-4.5-6.6-10-7.6-15.9c-0.3-1.5-0.1-3,0.6-4.4c0.3-0.5,0.4-1,0.5-1.5c0-9.3-5.5-18.7-8.3-22.8
		l2.5-1.5c0.2-0.1,0.3-0.4,0.2-0.6c-0.3-1.1-0.8-2.2-1.3-3.2c-0.4-0.9-0.9-1.7-1.5-2.6l3.5-15.1c0.5-2.1-0.4-4.4-2.2-5.5l-12.2-7.8
		c-0.8-0.5-1.4-1.2-1.7-2.1l-2.5-7.3c-0.7-1.9-2.4-3.2-4.4-3.5l-26.1-3c-1.6-0.2-3.2,0.4-4.3,1.5c-7.6-7.2-17.6-13.4-27.5-13.4h-0.4
		c-8.5,0.2-13.5,1.8-14.7,4.7c-1.2,2.8,1.3,5.7,1.6,6c4.6,6.2,11.5,7.8,18.8,9.6c4.4,0.9,8.7,2.3,12.8,4.1l-2.7,3.2l-4.5,5.1
		c0,0,0,0.1,0,0.1l-3.2,5.4L157,82c-1.7,0.8-2.9,2.5-3.1,4.4l-3.1,35.9c-0.2,1.8,0.1,3.6,0.8,5.2l2.9,6.8c1.2,2.8,3.8,4.8,6.8,5.3
		l2.2,0.4c0.9,0.2,1.8,0.6,2.4,1.3l3.5,3.7c-5.8,4.2-11.9,5-21.2,5h-0.8c-9.3,0-14.8-1-20.7-6l1.2-1.4L76.2,91.4
		c-0.2-0.2-0.2-0.6,0-0.8c0,0,0,0,0,0c0.2-0.2,0.6-0.2,0.8,0l51.6,51.1l0.4-0.5c0.6-0.7,1.5-1.2,2.4-1.4l2.1-0.4
		c3-0.5,5.6-2.5,6.8-5.3l2.9-6.8c0.7-1.6,1-3.4,0.9-5.2l-3.2-35.9c-0.2-1.9-1.4-3.6-3.1-4.4l-15.7-7.1l8,16.1c0.1,0.3,0,0.6-0.2,0.7
		c-0.1,0-0.2,0.1-0.2,0.1c-0.2,0-0.4-0.1-0.5-0.3l-9-18.1c0,0,0-0.1,0-0.1l-2.6-4.4l-0.1-0.1l-4.5-5.1l-2.4-2.8
		c4.2-1.9,8.5-3.3,13-4.2c7.4-1.8,14.4-3.5,19.2-9.8c0.3-0.3,2.8-3.2,1.6-6.1c-1.3-3-6.4-4.7-15-4.8h-0.4c-7.8,0-16.7,3.9-25.1,11
		c-1,0.8-2,1.7-3,2.7c-1.1-1.3-2.8-1.9-4.5-1.7l-26.1,3c-2,0.2-3.7,1.6-4.3,3.5l-2.5,7.3c-0.3,0.9-0.9,1.6-1.7,2.1l-12.2,7.9
		c-1.8,1.2-2.7,3.4-2.2,5.5l3.6,15.6c0,0.1,0.1,0.2,0.2,0.3v0.1c-0.8,1.4-1.5,2.9-2,4.4c-0.1,0.2,0,0.5,0.2,0.6l2.7,1.6
		c-2.7,4-8.4,13.7-8.4,23.1c0,0.5,0.2,1,0.5,1.5c0.7,1.3,1,2.9,0.7,4.4c-1,5.9-3.7,11.4-7.6,15.9c-1.2,1.5-2.1,2.5-2.1,3.6
		c0,2.2,3,3.9,4.3,3.9c0.3,0,0.6-0.1,0.9-0.1c0.6-0.2,1.3-0.2,1.9-0.2c1.4,1.8,1.9,4.1,1.2,6.3c-0.2,0.7,0,1.5,0.5,2
		c0.5,0.4,1.1,1,1.8,1.5c-1,0.9-1.4,2.3-1,3.6c0.2,0.7,0.6,1.3,1.2,1.6c0.4,0.3,0.6,0.8,0.5,1.2c-0.4,1.9-0.7,3.9-0.7,5.9
		c0,0,0,0.1,0,0.1v0.1c0,0.3,0,0.6,0,0.9c-0.3,2.9-1.2,5.8-2.7,8.4c-0.6,1.1-0.2,2.4,0.9,3c0.3,0.2,0.7,0.3,1.1,0.3
		c0.2,0,0.3,0,0.5,0l1.3-0.3c7.6-1.4,15.1-3.7,22.2-6.6c0.2,0.5,0.5,1,0.8,1.5c1.8,3.1,2.9,6.5,3.1,10.1c-3.5,4.2-6.8,8.7-9.8,13.3
		c-0.5,0.7-0.3,1.6,0.4,2.1c0.5,0.3,1.2,0.3,1.7,0c22.1-15,39.9-17.6,44.8-18.1c10.8,5,23.3,7.5,37.5,7.6h0.8
		c12.4,0.2,24.8-2.1,36.3-6.8c5.1,0.5,22.8,3.2,44.6,18.1c0.7,0.5,1.6,0.3,2.1-0.4c0.3-0.5,0.3-1.2,0-1.7c-2.1-3.1-4.8-7-8-11
		c0.3-7.8,2.1-10.8,3.3-13.1c0.3-0.6,0.6-1,0.8-1.5c2.3,1,4.4,1.8,6.1,2.4c2.7,1,5.5,1.6,8.3,1.7c2,0.1,3.9-0.5,5.6-1.6
		c2.9-2.1,3.2-5.6,3.2-7c0-2.4-0.3-4.9-0.8-7.2c-0.1-0.5,0.1-1,0.5-1.2c0.6-0.3,1-0.9,1.2-1.6c0.4-1.3,0-2.7-1-3.7
		c0.7-0.6,1.3-1.1,1.8-1.5c0.5-0.5,0.7-1.3,0.5-2c-0.7-2.2-0.2-4.5,1.2-6.3c0.6,0,1.3,0,1.9,0.2c0.3,0.1,0.6,0.1,0.9,0.1
		c1.3,0,4.3-1.6,4.3-3.9C260.9,147.1,260.1,146.1,258.9,144.6z M131.9,86.7c0.3-0.2,0.6-0.1,0.8,0.2l3.3,5.4
		c0.2,0.3,0.1,0.6-0.2,0.7c0,0,0,0,0,0c-0.1,0.1-0.2,0.1-0.3,0.1c-0.2,0-0.4-0.1-0.5-0.3l-3.3-5.4C131.5,87.3,131.6,86.9,131.9,86.7
		C131.8,86.7,131.8,86.7,131.9,86.7L131.9,86.7z M46,185.5l-1,0.2c-0.5,0.1-0.9-0.1-1.2-0.4c-0.3-0.4-0.3-0.8-0.1-1.2
		c0.9-1.6,1.6-3.3,2.1-5C46.1,181.2,46.2,183.4,46,185.5z M158.1,44.6c-0.3,0-0.5-0.3-0.5-0.5c0-0.3,0.2-0.5,0.5-0.5
		c26.7,0,40.7,16.5,46.6,26.4c0.2,0.3,0.1,0.6-0.2,0.7c-0.1,0.1-0.2,0.1-0.3,0.1c-0.2,0-0.4-0.1-0.5-0.3
		C197.9,60.8,184.3,44.6,158.1,44.6z M168.2,142.2L217.9,93c0.2-0.2,0.2-0.6,0-0.8c-0.2-0.2-0.6-0.2-0.8,0l-49.6,49.2l-0.9-0.9
		c-0.8-0.9-1.8-1.4-3-1.6l-2.2-0.4c-2.7-0.5-4.9-2.2-5.9-4.7l-2.9-6.8c-0.6-1.5-0.9-3.1-0.8-4.7l3.1-35.9c0.1-1.5,1.1-2.9,2.5-3.5
		l15.7-7.1l-7.7,12.9c-0.2,0.3-0.1,0.6,0.2,0.7s0.6,0.1,0.7-0.2l11.9-19.9l4.5-5.1l2.9-3.4c3.7,2,6.9,4.9,9.2,8.4
		c0.2,0.3,2.1,3.6,5.2,4.2c0.4,0.1,0.7,0.1,1.1,0.1c1.3,0,2.6-0.5,3.7-1.3c0.8,1.5,1.5,3,2.2,4.5c0.1,0.2,0.3,0.4,0.5,0.3
		c0.1,0,0.1,0,0.2,0c0.3-0.1,0.4-0.4,0.3-0.7c-0.7-1.7-1.5-3.3-2.3-4.8c0.8-0.9,1.4-2.6,0.2-6c-1.5-4.3-5.5-10.2-11-15.5
		c0.9-0.9,2.1-1.4,3.4-1.2l26.1,3c1.6,0.2,2.9,1.3,3.4,2.8l2.5,7.3c0.4,1.1,1.1,2,2.1,2.7l12.2,7.8c1.5,0.9,2.2,2.7,1.8,4.4
		L243.2,91c-2.4-3.3-5.6-5.9-9.3-7.6l1.4-1.3c0.2-0.2,0.2-0.5,0-0.7L225.5,70c-0.1-0.1-0.3-0.2-0.4-0.2c-0.2,0-0.3,0.1-0.4,0.2
		l-31.4,38.9c-0.2,0.2-0.2,0.6,0.1,0.8c0.2,0.2,0.6,0.2,0.8-0.1l31-38.4l9,10.4L169.9,144L168.2,142.2z M241.4,100.4l-0.9,0.6
		c-2.9-5-6.9-9.3-11.7-12.6l0.8-0.8C234.4,90.9,238.4,95.3,241.4,100.4z M147.7,168.3c0-0.3,0.2-0.5,0.5-0.5
		c15.9-0.1,26.9-5.6,33.4-10.1c9-6.4,20.9-25.3,26.5-49.3l1.3-1.3c0,0.1,0,0.2,0,0.3c-4.2,18.8-14.9,42.4-27.2,51.2
		c-6.6,4.7-17.8,10.2-34,10.3C147.9,168.8,147.7,168.6,147.7,168.3L147.7,168.3L147.7,168.3z M147.7,177.3c0-0.3,0.2-0.5,0.5-0.5
		c14.5-0.1,27.6-3.9,37.8-11.1c9.5-6.6,17.3-18.1,23.1-34.2c3.6-10.1,6.1-20.6,7.4-31.2l1.2-1.2l0,0c-1.2,11.2-3.8,22.2-7.6,32.8
		c-5.9,16.3-13.8,28-23.5,34.7c-10.5,7.3-23.8,11.2-38.4,11.3C148,177.9,147.7,177.6,147.7,177.3L147.7,177.3L147.7,177.3z
		 M147.7,159.2c0-0.3,0.2-0.5,0.5-0.5c10.4,0,20.4-3.2,28.9-9.1c5.4-3.9,14.8-17.1,20.5-31l1.8-1.8c0,0.1,0,0.2,0,0.2
		c-2.9,7.4-6.6,14.4-11,21c-3.8,5.7-7.8,10.4-10.7,12.4c-8.7,6.1-19,9.4-29.6,9.4C148,159.8,147.7,159.5,147.7,159.2L147.7,159.2
		L147.7,159.2z M123.4,142.4c0,0.1,0.1,0.1,0.1,0.2c6.4,6.4,11.7,8.1,20.4,8.4c2,0.1,3.6,1.7,3.6,3.7l0,0c0,2.1-1.7,3.7-3.7,3.7
		c-0.1,0-0.2,0-0.3,0c-8.9-0.7-17.4-3.8-24.7-9c-5.4-3.9-14.5-16.7-20.3-30.4L123.4,142.4z M89.4,110.7l7.1,6.6
		c2.9,7.3,6.5,14.2,10.9,20.7c3.8,5.7,7.8,10.4,10.7,12.4c7.6,5.4,16.5,8.5,25.8,9.2c2.1,0.2,3.7,1.9,3.6,4l0,0c0,2.2-1.8,4-4,4
		c-0.1,0-0.2,0-0.3,0c-10.4-0.6-20.4-4-29-9.9c-11.6-8.2-21.7-30.1-26.2-48.3L89.4,110.7z M86.5,108c4.3,18.7,14.9,41.9,27.1,50.5
		c6.1,4.3,16,9.3,30.1,10.2c2.1,0.1,3.7,1.9,3.7,4l0,0c0,2.2-1.8,4-4,4c-0.1,0-0.2,0-0.3,0c-12.7-0.8-24.2-4.5-33.4-10.9
		c-9.5-6.6-17.3-18.1-23.1-34.2c-3.4-9.7-5.8-19.7-7.2-29.9L86.5,108z M78.2,100.5c1.3,10.7,3.8,21.2,7.4,31.4
		c5.9,16.3,13.8,28,23.5,34.7c9.5,6.6,21.4,10.4,34.5,11.1c2.1,0.1,3.8,1.9,3.8,4l0,0c0,2.2-1.8,4-4,4c-0.1,0-0.1,0-0.2,0
		c-14.7-0.7-27.5-4.7-37.9-11.9c-12.6-8.6-21.8-22.9-27.5-42.3c-3.1-10.9-4.9-22.1-5.5-33.4c0-0.4,0-0.7,0-0.8V95L78.2,100.5z
		 M86.6,77.2c0.8-2.1,1.8-4.1,3-6c-0.6-1-0.5-2.6,0.3-4.7c2-5.5,7.8-13,14.7-18.8c8.2-7,16.9-10.8,24.4-10.8h0.4
		c10.2,0.2,13.3,2.4,14.1,4.2c1,2.3-1.4,4.9-1.4,5l0,0c-4.5,6-11.3,7.7-18.6,9.4c-8.7,2.1-17.6,4.3-24.1,13.8l0,0
		c0,0-1.8,3.2-4.6,3.8c-1.5,0.2-2.9-0.2-4.1-1.1c-1.1,1.8-2,3.6-2.8,5.6c-0.1,0.2-0.3,0.4-0.5,0.3c-0.1,0-0.1,0-0.2,0
		C86.7,77.8,86.6,77.5,86.6,77.2z M59,81.3L69.5,70c0.2-0.2,0.6-0.2,0.8,0c0,0,0,0,0,0l31.4,38.9c0.2,0.2,0.2,0.6-0.1,0.7
		c0,0,0,0,0,0c-0.2,0.2-0.6,0.2-0.8-0.1c0,0,0,0,0,0l-31-38.4L59.8,82.1c-0.2,0.2-0.5,0.2-0.8,0S58.8,81.5,59,81.3z M50.3,97.5
		c2-5.4,5.9-9.8,10.9-12.5l3.6,3.3c-4.2,3.2-7.7,7.2-10.4,11.7L50.3,97.5z M46.4,166L46.4,166c-0.4-0.2-0.6-0.5-0.7-0.9
		c-0.3-1.1,0.1-2.2,1-2.9H50c0.5,0.4,1.1,0.7,1.7,0.7c0.3,0,0.5-0.2,0.5-0.5c0-0.3-0.2-0.5-0.5-0.5c-0.4-0.1-0.8-0.3-1.1-0.6
		c-0.1-0.1-0.2-0.2-0.4-0.2h-3.6c-0.8-0.6-1.5-1.3-2.1-1.8c-0.2-0.3-0.3-0.6-0.2-0.9c0.6-2.1,0.3-4.3-0.7-6.3c1.1,0.4,2.2,1,3.2,1.8
		c0.1,0.1,0.2,0.1,0.3,0.1c1.1,0,3.2-0.5,3.2-2.4c0-0.3-0.2-0.5-0.5-0.5s-0.5,0.2-0.5,0.5c0,1.1-1.4,1.3-1.9,1.3
		c-3.7-2.7-6-2.2-7.3-2c-0.2,0.1-0.4,0.1-0.7,0.1c-0.9,0-3.2-1.3-3.2-2.8c0-0.7,0.8-1.6,1.8-2.9c4.1-4.6,6.8-10.3,7.8-16.4
		c0.3-1.7,0.1-3.5-0.7-5c-0.2-0.3-0.3-0.7-0.4-1.1c0-9.2,5.6-18.6,8.3-22.5l6.5,4c0.2,0.2,0.6,0.1,0.7-0.1l3.7-4.8
		c-0.1,8.4,0.5,16.9,2,25.2c1.6,9.2,4.3,18.2,8.1,26.8c-2.4,2.4-5.7,3.9-9.1,4.1c-0.3,0-0.5,0.3-0.5,0.6c0,0.2,0.2,0.4,0.5,0.5l0,0
		c3.6-0.2,7-1.7,9.6-4.2c0.7,1.4,1.4,2.8,2.1,4.2c-3.5,5.6-9.3,12.6-17.4,14.7c-2.7,0.7-5.5,0.8-8.2,0.1c-0.6-1.5-0.9-3-0.9-4.6
		c0-0.2-0.1-0.3-0.2-0.4c-0.1-0.1-0.3-0.2-0.5-0.1c-0.8,0.1-1.7,0.2-2.5,0.1h-0.1C46.6,166.2,46.5,166.1,46.4,166z M70.3,166.2
		c2.7-2.5,5-5.4,6.9-8.5c0.9,1.6,1.8,3.2,2.9,4.8C76.9,164.1,73.6,165.3,70.3,166.2z M80.6,163.5c1.5,2.3,3.1,4.5,4.8,6.6l-2.2,1.3
		c-12,2-19.1,1.1-22.2,0.5c2.6-0.9,5.1-2.3,7.3-4.1C72.6,166.8,76.7,165.4,80.6,163.5z M47.1,185.3c0.3-2.8-0.4-9-0.5-9.9v-0.1
		c0-0.5,0-0.8,0-1c0.1-1.9,0.3-3.9,0.7-5.8c0.1-0.3,0.1-0.7,0.1-1h0.3c-0.1,1.7-0.5,9.9,3.3,14.1c0.9,1,2,1.7,3.2,2.1
		C50.8,184.6,48.3,185.1,47.1,185.3z M56.8,182.9L56.8,182.9c-1.9,0.1-3.7-0.7-5-2.1c-3.6-3.9-3.1-12.2-3.1-13.4H49
		c0.1,3.1,1.3,6.1,3.5,8.4c2.6,2.8,6.5,4.4,11.6,4.7C61.4,181.5,59,182.3,56.8,182.9z M66.5,179.6c-0.1,0-0.1,0-0.2,0
		c-5.9,0-10.4-1.5-13.2-4.5c-0.7-0.7-1.2-1.5-1.7-2.4c1,0.2,2.1,0.3,3.1,0.3c1.5,0,2.9-0.2,4.4-0.5c0.8,0.3,4,1.2,10.4,1.2
		c3.8,0,7.6-0.3,11.3-0.9C76.2,175.4,71.5,177.7,66.5,179.6z M73.6,190.4c-0.3-3.4-1.4-6.6-3.2-9.5c-0.3-0.5-0.6-1-0.8-1.4
		c5.7-2.4,11.2-5.3,16.5-8.6c0.7,0.9,1.5,1.7,2.2,2.5s1.4,1.5,2.2,2.2C84.8,178.5,78.8,184.3,73.6,190.4L73.6,190.4z M147.4,191
		c0,2.3-1.9,4.2-4.2,4.2c-0.1,0-0.1,0-0.2,0c-22.6-0.9-40.7-8.5-53.9-22.5c-14-14.9-19.8-34.4-22.2-48.2c-1.6-8.8-2.3-17.8-2-26.7
		c0-0.3-0.1-0.6-0.4-0.6c-0.2,0-0.4,0.1-0.6,0.3l-4.4,5.8l-4.2-2.6c2.6-4.5,6.1-8.4,10.2-11.5l5.5,5v3.3c0,0.2,0,0.5,0,0.8
		c0.6,11.4,2.4,22.7,5.6,33.7c5.8,19.7,15.2,34.1,28,42.9c10.7,7.3,23.7,11.4,38.8,12.1C145.7,186.9,147.4,188.7,147.4,191
		L147.4,191z M147.7,186.4c0-0.3,0.2-0.5,0.5-0.5c16.6-0.1,30.8-4.1,42.3-12c12.6-8.6,21.9-22.9,27.5-42.3
		c3.1-10.9,4.9-22.1,5.5-33.4c0-0.4,0-0.7,0.1-0.9v-3.9l0.7-0.7c0.2,0.1,0.4,0.3,0.4,0.5v4.1c0,0.2,0,0.5-0.1,0.9
		c-0.6,11.4-2.4,22.7-5.6,33.7c-5.8,19.7-15.2,34.1-28,42.9c-11.7,8-26.1,12.1-42.9,12.2C147.9,186.9,147.6,186.7,147.7,186.4
		L147.7,186.4L147.7,186.4z M256.7,151c-0.2,0-0.4-0.1-0.6-0.1c-1.4-0.3-3.6-0.8-7.3,2c-0.5,0-1.9-0.2-1.9-1.3
		c0-0.3-0.2-0.5-0.5-0.5c-0.3,0-0.5,0.2-0.5,0.5c0,1.9,2.1,2.4,3.1,2.4c0.1,0,0.2,0,0.3-0.1c1-0.8,2-1.3,3.2-1.8
		c-1,1.9-1.3,4.2-0.7,6.3c0.1,0.3,0,0.7-0.2,0.9c-0.5,0.5-1.3,1.2-2.1,1.8h-3.5c-0.1,0-0.3,0.1-0.4,0.2c-0.3,0.3-0.7,0.5-1.1,0.6
		c-0.3,0-0.5,0.2-0.5,0.5c0,0.3,0.2,0.5,0.5,0.5c0.6-0.1,1.2-0.3,1.7-0.7h3.3c0.9,0.7,1.3,1.8,1,2.9c-0.1,0.4-0.3,0.7-0.6,0.9h-0.1
		c-0.8,0.5-1.2,1.5-0.9,2.5c0.4,2.3,0.7,4.6,0.7,6.9c0,1.2-0.3,4.3-2.8,6.1c-2.7,1.9-7,1.8-12.9-0.3c-7.9-2.8-15.5-6.4-22.7-10.7
		c-0.3-0.2-0.6-0.1-0.7,0.2c-0.2,0.3-0.1,0.6,0.2,0.7l0,0c5.1,3,10.3,5.7,15.7,8.1c-0.2,0.4-0.5,0.9-0.8,1.4
		c-1.2,2.1-3,5.1-3.4,12.3c-5.1-6.2-11.1-12.5-17-16c-4.4,4-9.3,7.5-14.6,10.3c-0.1,0-0.2,0.1-0.2,0.1c-0.2,0-0.4-0.1-0.5-0.3
		c-0.1-0.3,0-0.6,0.2-0.7c5.2-2.8,10-6.2,14.4-10.2c1-1,2-1.9,2.9-2.9c5.8-6.3,10.5-13.4,14-21.2c2.6,2.6,6.1,4.2,9.8,4.4l0,0
		c0.3,0,0.5-0.3,0.5-0.6c0-0.2-0.2-0.4-0.5-0.5c-3.5-0.2-6.8-1.7-9.2-4.2c0-0.1-0.1-0.1-0.2-0.1c3.7-8.5,6.4-17.4,7.9-26.6
		c1.5-8.3,2.1-16.7,2-25.1l3.8,5c0.1,0.1,0.3,0.2,0.4,0.2c0.1,0,0.2,0,0.3-0.1l6.8-4.1c2.7,4,8.1,13.3,8.1,22.3
		c-0.1,0.4-0.2,0.7-0.4,1.1c-0.8,1.5-1.1,3.3-0.7,5c1,6.1,3.8,11.8,7.9,16.4c1.1,1.3,1.8,2.2,1.8,2.9
		C259.8,149.7,257.5,151,256.7,151L256.7,151z"/>
	<path class="st1" d="M249.7,136l-0.4-1.3c-0.1-0.3-0.4-0.5-0.7-0.4c-0.3,0.1-0.5,0.4-0.4,0.7c0.1,0.4,0.2,0.9,0.4,1.3
		c0.1,0.2,0.3,0.4,0.5,0.4h0.1C249.6,136.6,249.8,136.4,249.7,136C249.7,136.1,249.7,136,249.7,136z"/>
	<path class="st1" d="M246.2,129.9c-1.6-1.6-1.8-1.6-5.9-1.6c-1.1,0-2.2,0.9-3.2,1.7c-0.4,0.4-0.9,0.7-1.4,1
		c-0.3,0.1-0.4,0.4-0.4,0.7c0,0,0,0,0,0c0.1,0.2,0.3,0.4,0.5,0.4c0.1,0,0.1,0,0.2,0c0.2-0.1,0.4-0.1,0.5-0.2c0.3,0.8,0.9,1.5,1.6,2
		c0.1,0.1,0.2,0.1,0.3,0.1c0.3,0,0.6-0.2,0.6-0.5c0-0.2-0.1-0.4-0.3-0.5c-0.3-0.2-1.3-1.1-1.3-1.8l0,0l0.3-0.2
		c0.7-0.7,1.6-1.2,2.5-1.4c1.1,0,1.9,0,2.5,0l0,0c0.4,0.6,0.6,1.3,0.6,2c0,0.8-0.3,1.5-0.8,2.1h-0.5c-0.3,0-0.5,0.2-0.5,0.5
		c0,0.3,0.2,0.5,0.5,0.5l0,0h1.7c0,0.5-0.1,1-0.3,1.5c-0.1,0.3,0.1,0.6,0.3,0.7c0.1,0,0.1,0,0.2,0c0.2,0,0.4-0.1,0.6-0.3
		c0.3-0.8,0.4-1.6,0.4-2.4c0-0.3-0.2-0.5-0.5-0.5H244c0.4-0.6,0.6-1.3,0.6-2.1c0-0.6-0.1-1.2-0.4-1.8c0.5,0.2,0.9,0.6,1.2,1v0.1
		c0.2,0.2,0.6,0.2,0.8,0C246.5,130.5,246.5,130.2,246.2,129.9L246.2,129.9L246.2,129.9z"/>
	<path class="st1" d="M250.3,138c-0.1-0.3-0.4-0.4-0.7-0.4c-0.3,0.1-0.4,0.4-0.4,0.7c0.6,2.6,1.7,5,3.1,7.2c0.1,0.1,0.3,0.2,0.4,0.2
		c0.1,0,0.2,0,0.3-0.1c0.2-0.2,0.3-0.5,0.1-0.7c0,0,0,0,0,0C251.9,142.7,250.9,140.4,250.3,138z"/>
	<path class="st1" d="M248.7,131.8v-0.2c-0.1-0.3-0.4-0.5-0.6-0.4c-0.3,0.1-0.5,0.4-0.4,0.6v0.2c0.1,0.3,0.3,0.4,0.5,0.4h0.1
		C248.6,132.4,248.7,132.1,248.7,131.8z"/>
	<path class="st1" d="M48,131.3c-0.3-0.1-0.6,0.1-0.7,0.4v0.2c-0.1,0.3,0.1,0.6,0.4,0.6h0.1c0.3,0,0.5-0.2,0.5-0.4v-0.2
		C48.5,131.6,48.3,131.3,48,131.3z"/>
	<path class="st1" d="M55.2,125.6c0.3,0.1,0.6-0.1,0.6-0.4c0,0,0,0,0,0c0.1-0.3-0.1-0.6-0.4-0.7c0,0,0,0,0,0
		c-2.3-0.5-4.7,0.1-6.5,1.6c-0.2,0.2-0.2,0.6,0,0.8c0.1,0.1,0.2,0.2,0.4,0.2c0.1,0,0.3-0.1,0.4-0.2
		C51.3,125.7,53.3,125.2,55.2,125.6z"/>
	<path class="st1" d="M52.5,136.1c-0.2-0.5-0.3-1-0.3-1.5h1.7c0.3,0,0.5-0.2,0.5-0.5c0-0.3-0.2-0.5-0.5-0.5h-0.5
		c-0.5-0.6-0.8-1.3-0.8-2.1c0-0.7,0.2-1.4,0.6-2l0,0c0.6,0,1.4,0,2.5,0c0.9,0.2,1.8,0.7,2.5,1.4l0.3,0.2l0,0c0,0.7-0.9,1.6-1.3,1.8
		c-0.3,0.2-0.3,0.5-0.2,0.7c0.1,0.2,0.3,0.3,0.5,0.3c0.1,0,0.2,0,0.3-0.1c0.7-0.5,1.2-1.2,1.6-2c0.2,0.1,0.3,0.2,0.5,0.2
		c0.1,0,0.1,0,0.2,0c0.2,0,0.4-0.2,0.5-0.4c0.1-0.3,0-0.6-0.3-0.7c0,0,0,0,0,0c-0.5-0.3-1-0.6-1.4-1c-1-0.8-2.1-1.7-3.2-1.7
		c-4.1,0-4.3,0-5.9,1.6l0,0c-0.2,0.2-0.2,0.6,0,0.8c0.2,0.2,0.6,0.2,0.8,0v-0.1c0.3-0.4,0.8-0.8,1.2-1c-0.2,0.6-0.4,1.2-0.4,1.8
		c0,0.7,0.2,1.5,0.6,2.1h-0.4c-0.3,0-0.5,0.2-0.5,0.4c0,0,0,0.1,0,0.1c0,0.8,0.2,1.7,0.4,2.5c0.1,0.2,0.3,0.4,0.5,0.4
		c0.1,0,0.1,0,0.2,0C52.5,136.8,52.7,136.5,52.5,136.1C52.6,136.2,52.6,136.1,52.5,136.1z"/>
	<path class="st1" d="M47.3,134.3c-0.3-0.1-0.6,0.1-0.7,0.4c0,0,0,0,0,0l-0.3,1.3c-0.1,0.3,0.1,0.6,0.4,0.7c0,0,0,0,0,0h0.1
		c0.2,0,0.5-0.2,0.5-0.4c0.1-0.5,0.2-0.9,0.4-1.3C47.7,134.7,47.6,134.4,47.3,134.3z"/>
	<path class="st1" d="M46.4,137.7c-0.3-0.1-0.6,0.1-0.7,0.4c-0.6,2.4-1.6,4.7-2.9,6.9c-0.2,0.2-0.2,0.6,0.1,0.7c0,0,0,0,0,0
		c0.1,0.1,0.2,0.1,0.3,0.1c0.2,0,0.3-0.1,0.4-0.2c1.4-2.2,2.5-4.6,3.1-7.2C46.8,138,46.7,137.7,46.4,137.7z"/>
	<path class="st1" d="M242.5,159.5c2.2-0.8,4.5-1.3,6.8-1.5c0.3,0,0.5-0.3,0.6-0.6l0.3-2c0.1-0.4-0.2-0.7-0.6-0.8
		c-0.1,0-0.2,0-0.2,0c-2.8,0.6-5.4,2-7.6,3.9c-0.2,0.2-0.3,0.6,0,0.8C242.1,159.5,242.3,159.6,242.5,159.5z"/>
	<path class="st1" d="M93.3,67.5c1.6-2.2,3.3-4.4,5.2-6.3c7.1-7.5,19.6-16.5,39.1-16.5c0.3,0,0.5-0.2,0.5-0.5c0-0.3-0.2-0.5-0.5-0.5
		c-19.8,0-32.6,9.2-39.8,16.8c-1.9,2-3.7,4.2-5.3,6.5c-0.2,0.2-0.1,0.5,0.1,0.7C92.7,67.8,93.1,67.8,93.3,67.5
		C93.3,67.5,93.3,67.5,93.3,67.5z"/>
	<path class="st1" d="M244.7,122.8c2.3,0,2.7,0,3-0.2c0,0,0.1-0.1,0.1-0.2c0.3-0.7,0.6-1.5,0.7-2.4c0-0.2-0.1-0.3-0.2-0.5
		c-0.5-0.5-4.3-0.5-11.2-0.1c-0.1,0-0.1,0-0.2,0c-2.8,1.5-4.6,4.2-5,7.3c0,0.3,0.1,0.5,0.4,0.6c0.1,0,0.1,0,0.2,0
		c0.2,0,0.4-0.1,0.5-0.3c1.2-1.8,2.9-3.2,4.9-4C239.2,122.7,242.5,122.7,244.7,122.8z"/>
	<path class="st1" d="M48,122.5c0.3,0.3,0.7,0.3,3,0.2s5.4-0.1,6.9,0.5c2,0.8,3.7,2.2,4.9,4c0.1,0.2,0.3,0.3,0.5,0.3
		c0.1,0,0.1,0,0.2,0c0.2-0.1,0.4-0.3,0.3-0.6c-0.4-3.1-2.2-5.8-5-7.3c-0.1,0-0.1,0-0.2,0c-6.9-0.5-10.7-0.4-11.2,0.1
		c-0.1,0.1-0.2,0.3-0.2,0.5c0.1,0.8,0.3,1.6,0.7,2.4C47.9,122.5,48,122.5,48,122.5z M58.5,120.5c1.6,0.9,2.9,2.4,3.6,4.1
		c-1.1-1-2.4-1.9-3.8-2.4c-1.6-0.5-3.4-0.7-5.1-0.6c-0.8,0-1.5,0-2.2,0s-1.8,0-2.2,0c-0.2-0.4-0.3-0.9-0.5-1.4
		C51.7,120.1,55.1,120.2,58.5,120.5L58.5,120.5z"/>
</g>
</svg>
