<?xml version="1.0" encoding="UTF-8"?>
<svg width="546px" height="546px" viewBox="0 0 546 546" version="1.1" xmlns="http://www.w3.org/2000/svg" xmlns:xlink="http://www.w3.org/1999/xlink">
    <!-- Generator: Sketch 58 (84663) - https://sketch.com -->
    <title>Two-Bards-Seal--red</title>
    <desc>Created with Sketch.</desc>
    <g id="Page-1" stroke="none" stroke-width="1" fill="none" fill-rule="evenodd">
        <g id="Artboard-Copy-2" transform="translate(-568.000000, -886.000000)">
            <g id="Two-Bards-Seal--red" transform="translate(568.000000, 886.000000)">
                <path d="M546,273 C546,423.773919 423.774332,546 273.000923,546 C122.225668,546 0,423.773919 0,273 C0,122.226081 122.225668,0 273.000923,0 C423.774332,0 546,122.226081 546,273" id="Fill-4" fill="#85DD99"></path>
                <path d="M197.667974,491.684748 C198.451107,491.882617 199.072149,492.026858 199.534744,492.110074 C199.997338,492.195139 200.376156,492.239521 200.674839,492.239521 C201.430653,492.239521 202.053516,491.895562 202.545251,491.209493 C203.033343,490.521574 203.27921,489.691265 203.27921,488.714864 C203.27921,487.568334 202.776548,486.606728 201.774867,485.830046 C200.771365,485.055213 199.565705,484.666872 198.157887,484.666872 C198.054077,484.666872 197.915663,484.679817 197.737181,484.709405 C197.700757,484.716802 197.67708,484.722349 197.667974,484.722349 L197.667974,491.684748 Z M197.667974,483.997446 C198.021294,483.684924 198.354581,483.372402 198.667834,483.05988 C198.981087,482.747358 199.285234,482.431138 199.585738,482.10752 C199.744186,482.116766 199.906276,482.137108 200.07383,482.164847 C200.241384,482.192585 200.489073,482.240666 200.816895,482.307238 C201.525357,482.061289 202.066265,481.64336 202.437798,481.05715 C202.811152,480.469091 202.998739,479.74049 202.998739,478.867647 C202.998739,477.750704 202.63267,476.887108 201.900532,476.275009 C201.168395,475.664759 200.139395,475.359634 198.815354,475.359634 C198.580415,475.359634 198.378257,475.363332 198.207061,475.372578 C198.032222,475.383674 197.853741,475.396619 197.667974,475.415111 L197.667974,483.997446 Z M194,493.887196 C194.065565,492.152607 194.114738,490.421715 194.14752,488.694523 C194.180303,486.965481 194.196694,485.253082 194.196694,483.557327 C194.196694,481.739521 194.180303,479.966097 194.14752,478.237055 C194.114738,476.508013 194.065565,474.810409 194,473.142392 L195.078173,473.142392 L195.653685,473.142392 C196.380359,473.142392 197.254553,473.118352 198.276268,473.07212 C199.297983,473.02404 199.953628,473 200.241384,473 C202.135472,473 203.639815,473.425326 204.756234,474.279676 C205.869011,475.132177 206.428131,476.276858 206.428131,477.717418 C206.428131,478.863949 206.107593,479.858841 205.468338,480.702096 C204.830905,481.54535 203.8529,482.264706 202.536145,482.862011 C203.934856,483.239257 205.02942,483.886492 205.819837,484.800018 C206.606612,485.713544 207,486.77316 207,487.977017 C207,489.728249 206.307929,491.170659 204.921967,492.302395 C203.537826,493.434132 201.738442,494 199.527459,494 C199.108574,494 198.534884,493.981508 197.806388,493.944523 C197.079714,493.905689 196.562482,493.887196 196.254693,493.887196 L194,493.887196 Z" id="Fill-6" fill="#4C2059"></path>
                <path d="M221.003532,484.550143 C221.509442,484.260224 221.975411,483.959364 222.397636,483.645741 C222.821763,483.333941 223.200245,483.027611 223.531178,482.728575 C223.658606,482.803334 223.782231,482.867153 223.903953,482.916384 C224.025676,482.969263 224.143595,483.009377 224.261513,483.036728 C224.759815,482.615525 225.138296,482.143266 225.402663,481.614483 C225.665127,481.087523 225.796359,480.527742 225.796359,479.94061 C225.796359,478.810107 225.41027,477.885647 224.641896,477.167231 C223.871621,476.446991 222.876919,476.087783 221.661595,476.087783 C221.543676,476.087783 221.349681,476.106017 221.075805,476.144308 L221.003532,476.144308 L221.003532,484.550143 Z M227.652629,495 C226.44301,493.207606 225.307567,491.557437 224.240592,490.049492 C223.173618,488.539724 222.09333,487.062777 221.003532,485.613181 C221.003532,486.8385 221.020649,488.147695 221.052982,489.544413 C221.089118,490.941131 221.138568,492.576713 221.207037,494.454806 L217,494.595207 C217.068469,492.884866 217.117919,491.178171 217.154055,489.475124 C217.186388,487.770253 217.203505,486.081792 217.203505,484.409742 C217.203505,482.615525 217.186388,480.866892 217.154055,479.162021 C217.117919,477.458974 217.068469,475.783277 217,474.140401 L218.314224,474.140401 C219.240456,474.140401 220.322646,474.116697 221.558891,474.069289 C222.795137,474.023704 223.571118,474 223.883032,474 C225.54911,474 226.897568,474.432144 227.930308,475.296431 C228.963048,476.160719 229.478468,477.287575 229.478468,478.678823 C229.478468,479.949726 229.048635,481.071112 228.192773,482.04298 C227.335009,483.013024 226.127292,483.746028 224.569624,484.24199 L228.632115,489.914561 C228.84513,490.224538 229.217905,490.736911 229.750442,491.45715 C230.281076,492.175567 230.697595,492.746288 231,493.165668 L227.652629,495 Z" id="Fill-8" fill="#4C2059"></path>
                <path d="M240,494 C240.065901,492.427798 240.115327,490.815884 240.148278,489.166065 C240.181228,487.516245 240.195873,485.812274 240.195873,484.055957 C240.195873,482.33574 240.181228,480.638989 240.148278,478.965704 C240.115327,477.292419 240.065901,475.637184 240,474 L250.745548,474 L249.916292,476.191336 L243.952238,476.191336 C243.933932,476.960289 243.915627,477.877256 243.897321,478.944043 C243.877184,480.012635 243.86254,481.222022 243.853387,482.572202 L250.816941,482.584838 L249.97304,484.888087 L243.853387,484.888087 C243.853387,486.025271 243.866201,487.15704 243.889998,488.285199 C243.913796,489.413357 243.952238,490.550542 244.008987,491.698556 L246.053753,491.698556 C246.767682,491.698556 247.532867,491.685921 248.35114,491.662455 C249.167582,491.638989 250.049925,491.604693 251,491.557762 L250.000499,494 L240,494 Z" id="Fill-10" fill="#4C2059"></path>
                <path d="M269.152852,493.855857 L266.484126,494 C265.671743,490.873774 263.552076,484.055981 260.126993,473.546622 C260.061629,473.353806 260.016808,473.211535 260,473.114191 L263.858354,473 L268.867117,489.814227 L271.879471,483.168658 C270.885936,480.089232 269.851314,477.00419 268.78121,473.906044 C268.646746,473.512926 268.555236,473.248975 268.50668,473.114191 L272.353828,473 L274.146674,478.565431 L276.557678,473.258335 L278.968683,473.114191 L275.095389,481.485737 L277.734234,489.814227 L283.702916,473.258335 L286,473.114191 L278.294498,493.855857 L275.381123,494 C275.121534,492.992869 274.776038,491.789178 274.340899,490.388929 C273.905761,488.988679 273.408993,487.502318 272.854331,485.929845 L269.152852,493.855857 Z" id="Fill-12" fill="#4C2059"></path>
                <path d="M298.986254,473 C298.934708,474.658584 298.891753,476.348993 298.862543,478.069353 C298.829897,479.791585 298.814433,481.577465 298.814433,483.426992 C298.814433,485.287752 298.829897,487.08112 298.862543,488.807096 C298.891753,490.533072 298.938144,492.215992 299,493.855857 L295,494 C295.061856,492.397575 295.106529,490.727759 295.139175,488.986807 C295.168385,487.245855 295.183849,485.431895 295.183849,483.543056 C295.183849,481.663576 295.168385,479.858977 295.139175,478.127385 C295.106529,476.395792 295.061856,474.731592 295,473.129167 L298.986254,473 Z" id="Fill-14" fill="#4C2059"></path>
                <path d="M310.769266,493.735027 C310.98386,489.235935 311.140259,485.638838 311.238463,482.941924 C311.336667,480.246824 311.3985,477.84755 311.425779,475.745917 L310,473.724138 L313.746306,473 L323.735849,487.333938 L323.597636,473.488203 L325.943624,473.375681 C325.907252,475.030853 325.878154,476.92922 325.852694,479.072595 C325.829052,481.215971 325.81814,483.495463 325.81814,485.911071 L325.81814,487.404719 C325.81814,488.584392 325.832689,489.673321 325.859968,490.667877 C325.887247,491.662432 325.934531,492.638838 326,493.595281 L323.70857,494 C323.157536,493.043557 322.184587,491.499093 320.787906,489.370236 C319.389407,487.241379 316.932485,483.564428 313.409866,478.341198 L313.200727,493.595281 L310.769266,493.735027 Z" id="Fill-16" fill="#4C2059"></path>
                <path d="M353,482.565463 L353,491.20475 C351.971362,491.880048 350.906731,492.589299 349.804212,493.334391 C348.703588,494.077596 348.099287,494.483152 347.993203,494.551059 C347.741253,494.696305 347.405951,494.807597 346.989191,494.884935 C346.570537,494.962274 346.081792,495 345.519166,495 C342.696568,495 340.402496,494.07571 338.642634,492.225242 C336.880878,490.374775 336,487.948984 336,484.94221 C336,483.376575 336.242478,482.007117 336.727435,480.833833 C337.212391,479.658664 337.992868,478.536311 339.07076,477.463003 C340.438489,476.091657 341.897147,475.005144 343.444841,474.201578 C344.99064,473.401783 346.358369,473 347.542345,473 C348.377758,473 349.213171,473.175427 350.052374,473.528166 C350.89347,473.880905 351.713729,474.401526 352.518832,475.086256 L349.304101,477.781789 C348.663807,477.280031 347.976153,476.908428 347.243035,476.666981 C346.509918,476.425534 345.706708,476.30481 344.833408,476.30481 C344.087029,476.30481 343.365277,476.419875 342.666258,476.651891 C341.967239,476.883906 341.374304,477.202692 340.889347,477.610135 C340.413862,478.313727 340.057722,479.092772 339.820927,479.94161 C339.582238,480.792335 339.462893,481.705307 339.462893,482.682414 C339.462893,485.455286 340.250947,487.686787 341.823267,489.376918 C343.393693,491.068936 345.469913,491.914002 348.051928,491.914002 C348.31335,491.914002 348.53499,491.898911 348.71306,491.870616 C348.893024,491.840436 349.055939,491.798937 349.201805,491.740461 L349.215066,485.087456 C348.021618,485.087456 346.786494,485.093115 345.504012,485.102547 C344.223423,485.111978 343.539559,485.117637 343.452418,485.117637 L346.640628,482.506988 L353,482.565463 Z" id="Fill-18" fill="#4C2059"></path>
                <path d="M443.759989,216.374183 C443.223264,216.504284 442.896802,217.037337 443.0296,217.563162 C443.164243,218.088988 443.708345,218.408819 444.246915,218.276911 C449.184419,217.068055 453.253202,219.697182 454.289765,220.712693 C454.485273,220.904231 454.741647,221 454.999865,221 C455.254395,221 455.510768,220.904231 455.708121,220.712693 C456.097293,220.329618 456.097293,219.708024 455.708121,219.324948 C454.372763,218.016709 449.625235,214.935842 443.759989,216.374183" id="Fill-20" fill="#1D1D1D"></path>
                <path d="M301.514265,147.142397 C301.041067,146.858801 300.426094,147.011648 300.142544,147.486763 L294.141953,157.486263 C293.858403,157.959536 294.013067,158.572765 294.486265,158.856361 C294.648293,158.953962 294.825052,159 294.99997,159 C295.338757,159 295.67018,158.826896 295.857986,158.513836 L301.856735,148.514336 C302.142127,148.041063 301.987463,147.427834 301.514265,147.142397" id="Fill-22" fill="#1D1D1D"></path>
                <path d="M474.11633,265.245306 C473.830154,265.245306 473.401814,265.154982 472.908854,265.049911 C470.401589,264.515339 466.230813,263.628687 459.357065,268.664723 C458.446843,268.600205 455.854648,268.238908 455.854648,266.246246 C455.854648,265.69324 455.405998,265.245306 454.852111,265.245306 C454.300069,265.245306 453.849574,265.69324 453.849574,266.246246 C453.849574,269.754143 457.656629,270.681349 459.669089,270.681349 C459.885105,270.681349 460.095582,270.611302 460.27098,270.482267 C462.549305,268.775324 464.48422,267.792817 466.134806,267.249029 C464.873788,269.457364 463.494607,273.367112 464.814707,278.786564 C464.94764,279.337726 465.006721,280.086127 464.528531,280.530375 C463.564766,281.4244 462.144967,282.690782 460.703013,283.791263 L454.16529,283.791263 C453.899424,283.791263 453.644635,283.896334 453.456313,284.084356 C453.103671,284.436436 452.139906,285.16456 451.412467,285.16456 C450.858579,285.16456 450.40993,285.612494 450.40993,286.165499 C450.40993,286.718505 450.858579,287.166439 451.412467,287.166439 C452.754722,287.166439 453.982507,286.279787 454.553011,285.793142 L460.706705,285.793142 C461.367678,286.335088 463.287822,288.209776 462.473607,291.164668 C462.469915,291.175728 462.185586,292.37575 461.284595,292.825527 C461.245823,292.845804 461.208897,292.866081 461.173817,292.891888 C460.246978,293.513097 458.690553,295.271655 459.425378,297.472616 C460.04204,299.321497 460.730707,306.641445 460.730707,310.206486 C460.730707,312.495929 460.230362,318.17345 455.61463,321.439869 C450.685028,324.925646 442.670271,324.757901 431.795606,320.938477 C422.505061,317.675746 407.714409,311.587156 390.006615,301.104018 C389.533964,300.821985 388.917302,300.976827 388.632973,301.454255 C388.352336,301.927996 388.509271,302.541832 388.985615,302.825708 C399.978442,309.332738 409.854262,314.158631 418.014877,317.679432 C417.645618,318.496037 417.165582,319.334762 416.61354,320.289618 C414.39245,324.121945 411.130051,329.76813 410.302912,343.005235 C400.9459,331.48982 389.86445,319.989151 378.860545,313.561386 C370.829171,320.971658 361.839572,327.329376 352.122533,332.450206 C351.972983,332.527627 351.812356,332.564494 351.653574,332.564494 C351.295394,332.564494 350.946444,332.372785 350.765508,332.031765 C350.508873,331.543277 350.695348,330.936814 351.184616,330.678745 C360.820418,325.602156 369.726935,319.294208 377.675225,311.933706 C379.528903,310.186209 381.347502,308.390785 383.107019,306.519784 C394.338018,294.569338 402.740496,281.005959 409.034508,267.383593 C416.264591,275.164379 426.703531,275.527519 427.15218,275.538579 L427.176181,275.538579 C427.718992,275.538579 428.163948,275.109079 428.178718,274.56529 C428.193489,274.012285 427.757764,273.551447 427.203876,273.538543 C427.100483,273.5367 416.894177,273.188307 410.227214,265.726421 C410.133053,265.619506 410.018582,265.540242 409.896727,265.483098 C417.689929,248.070802 422.091491,230.67694 424.569216,216.538436 C428.315344,195.153718 428.41689,177.461233 428.256263,170.310873 L435.358951,179.58293 C435.554658,179.839156 435.851911,179.977407 436.154703,179.977407 C436.333794,179.977407 436.512884,179.92948 436.675358,179.831783 L449.152605,172.268512 C454.132056,179.710121 464.17035,196.770337 464.17035,213.358655 C464.17035,213.815806 463.850942,214.508906 463.483529,215.312607 C462.602848,217.237066 461.269824,220.145874 462.124658,224.53858 C465.37598,241.231969 472.41774,249.702168 476.623595,254.762167 C478.580666,257.114284 479.994926,258.815697 479.994926,260.063646 C479.994926,262.782589 475.763223,265.245306 474.11633,265.245306 L474.11633,265.245306 Z M272.936881,330.446483 C272.936881,329.895321 273.383684,329.452917 273.933879,329.44923 C304.519565,329.290702 330.781234,321.843563 352.006216,307.306895 C375.24735,291.387713 392.34956,265.136548 402.836503,229.281523 C411.098664,201.022949 412.533233,175.936781 413.002192,167.695158 C413.040964,167.033395 413.072351,166.49698 413.098199,166.093286 L413.094506,158.93924 L414.401682,157.674701 C414.80602,157.801892 415.101427,158.176092 415.101427,158.622183 L415.101427,166.16149 C415.073732,166.626014 415.042345,167.156899 415.003573,167.807602 C414.532768,176.108213 413.088967,201.363969 404.760341,229.843745 C394.142311,266.152235 376.774234,292.770227 353.141686,308.956694 C331.580679,323.723781 304.94052,331.290738 273.950495,331.451132 C273.392915,331.454796 272.936881,331.001332 272.936881,330.446483 L272.936881,330.446483 Z M272.436535,338.935116 C272.436535,343.292798 268.812263,346.802539 264.451319,346.62742 C222.773105,344.951814 189.312741,331.025295 164.974909,305.155704 C139.189584,277.752444 128.427543,241.679904 123.939205,216.247187 C119.066838,188.633785 120.331549,167.23985 120.346319,167.027865 C120.372167,166.587304 120.108148,166.181767 119.694578,166.026925 C119.282855,165.873927 118.817589,166.006648 118.54803,166.356885 L110.405879,176.987492 L102.505592,172.198465 C103.964163,169.66017 110.433573,159.105141 121.417169,150.913288 L131.575472,160.177972 L131.577318,166.231537 C131.603167,166.629701 131.634554,167.158743 131.671479,167.813132 C132.14413,176.1119 133.587931,201.367655 141.916558,229.847432 C152.534588,266.155922 169.902665,292.773914 193.535212,308.960381 C213.297931,322.496109 237.331124,329.976428 265.069827,331.253871 C269.188906,331.443736 272.436535,334.820756 272.436535,338.935116 L272.436535,338.935116 Z M136.204128,337.783021 C134.959727,328.193908 132.288141,323.576313 130.38646,320.289618 C129.839957,319.347665 129.36546,318.518157 128.998047,317.710769 C138.639388,313.6683 149.069097,308.48111 159.362179,301.881912 C160.700741,303.450604 162.074383,304.997176 163.503414,306.516097 C164.806896,307.900454 166.13992,309.242414 167.495099,310.558566 C156.734904,315.889538 145.738384,326.555169 136.204128,337.783021 L136.204128,337.783021 Z M123.169301,317.913538 C123.067755,317.878514 122.962516,317.856394 122.849892,317.856394 C111.897684,317.856394 103.714914,315.080307 98.5305236,309.60371 C97.1919613,308.188017 96.1598836,306.691216 95.3585926,305.211004 C96.7285418,305.47829 98.6929974,305.740046 101.128258,305.740046 C103.436124,305.740046 106.168637,305.496724 109.202096,304.80178 C110.590508,305.279208 116.629732,307.087536 128.482932,307.087536 C134.108586,307.087536 141.048801,306.678312 149.412507,305.526218 C140.343517,310.639674 131.381611,314.706107 123.169301,317.913538 L123.169301,317.913538 Z M105.127328,324.086921 C105.08117,324.079548 105.036859,324.072174 104.98701,324.072174 C101.312887,324.072174 98.2720426,322.781829 95.9457137,320.238004 C89.3175225,312.984417 90.1483543,297.750962 90.3052892,295.581338 C90.4271445,295.572121 90.5379221,295.564747 90.66347,295.551844 C90.7576309,298.280004 91.5755386,305.150174 97.0497968,310.953044 C101.890777,316.08309 109.074702,319.014019 118.439099,319.699745 C113.625814,321.452772 109.139322,322.90349 105.127328,324.086921 L105.127328,324.086921 Z M87.2330579,328.485157 C87.8626438,323.390134 86.4797705,311.863659 86.2692931,310.151186 C86.2692931,310.079295 86.2711394,310.000031 86.2711394,309.92814 C86.3357596,309.023055 86.3339133,308.387099 86.3265282,308.070042 C86.5037723,304.274582 87.0613527,299.002597 87.5727758,297.472616 C87.7906384,296.818226 87.8035624,296.206234 87.6946311,295.649542 C87.8737215,295.656915 88.0712749,295.662445 88.2872911,295.664288 C88.0731212,298.722408 87.4066095,313.858165 94.4612943,321.58365 C96.1451133,323.427001 98.1446484,324.706287 100.434051,325.415977 C94.1197301,327.122921 89.4486093,328.072247 87.2330579,328.485157 L87.2330579,328.485157 Z M149.124485,288.254016 C151.85146,292.38128 154.823991,296.423749 158.058696,300.331654 C156.736751,301.179595 155.409266,302.00173 154.083628,302.801744 C131.898573,306.407339 118.74743,304.886575 113.029461,303.716047 C118.012605,302.020163 122.489865,299.389701 126.472319,296.257847 C127.888425,295.929731 138.183354,293.444893 149.124485,288.254016 L149.124485,288.254016 Z M129.967351,293.273462 C135.234825,288.407014 139.486837,282.784793 142.738158,277.66765 C144.383205,280.659409 146.140876,283.630891 148.020402,286.56182 C140.910329,289.911189 134.114125,292.09556 129.967351,293.273462 L129.967351,293.273462 Z M85.8243365,292.891888 C85.789257,292.866081 85.7504848,292.845804 85.713559,292.825527 C84.8033366,292.37022 84.5245464,291.170198 84.5097761,291.101994 C83.7047924,288.191342 85.6212443,286.335088 86.287756,285.793142 L92.4451425,285.793142 C93.0174933,286.279787 94.2434317,287.166439 95.5856866,287.166439 C96.1377281,287.166439 96.5882236,286.718505 96.5882236,286.165499 C96.5882236,285.612494 96.1377281,285.16456 95.5856866,285.16456 C94.8120899,285.16456 93.8243232,284.362702 93.5418404,284.084356 C93.3553649,283.896334 93.0987302,283.791263 92.832864,283.791263 L86.2932949,283.791263 C84.8531865,282.688939 83.4333873,281.4244 82.4714688,280.530375 C81.9914327,280.086127 82.0486677,279.337726 82.1852934,278.786564 C83.5035465,273.367112 82.1243658,269.457364 80.8651941,267.249029 C82.5139335,267.792817 84.4470021,268.775324 86.72902,270.482267 C86.9007252,270.611302 87.1130489,270.681349 87.3290652,270.681349 C89.3415243,270.681349 93.1467338,269.754143 93.1467338,266.246246 C93.1467338,265.69324 92.6980846,265.245306 92.1441968,265.245306 C91.590309,265.245306 91.1416598,265.69324 91.1416598,266.246246 C91.1416598,268.253655 88.5605425,268.605735 87.6429349,268.666566 C80.7654942,263.626844 76.5947188,264.515339 74.0911458,265.049911 C73.5963393,265.154982 73.1698457,265.245306 72.881824,265.245306 C71.2349308,265.245306 67.005074,262.782589 67.005074,260.063646 C67.005074,258.815697 68.417488,257.114284 70.3727121,254.762167 C74.5822596,249.702168 81.6221741,241.231969 84.8734957,224.53858 C85.7301756,220.145874 84.3953059,217.237066 83.5127779,215.312607 C83.1453657,214.508906 82.8278033,213.815806 82.8278033,213.358655 C82.8278033,196.471714 93.229817,179.096285 98.1114151,171.875879 L110.134474,179.164489 C110.572045,179.429932 111.140703,179.323018 111.450881,178.915637 L118.228622,170.069394 C118.066148,177.061226 118.145538,194.914083 121.956287,216.536593 C124.465399,230.785698 128.942659,248.343618 136.868794,265.892322 C130.216601,273.16803 120.14692,273.534857 120.04722,273.538543 C119.493332,273.55329 119.055761,274.014128 119.070531,274.56529 C119.085301,275.109079 119.530258,275.538579 120.071222,275.538579 L120.098916,275.538579 C120.536488,275.527519 130.554472,275.182813 137.758707,267.864708 C138.973567,270.465677 140.265972,273.062959 141.637768,275.647337 C135.238517,285.988538 124.541097,298.890153 109.501195,302.676396 C101.717225,304.637722 95.8552453,303.334473 94.2822039,302.903129 C92.4839147,298.377701 92.6648514,294.538001 92.6666977,294.4827 C92.6851606,294.182234 92.5669978,293.890984 92.3454427,293.686372 C92.1238876,293.48176 91.8192493,293.389593 91.5238424,293.43199 C88.6454719,293.846744 86.867492,293.577615 86.8176421,293.570241 C86.7419441,293.557338 86.666246,293.557338 86.5923943,293.561025 C86.3283745,293.273462 86.0551231,293.04673 85.8243365,292.891888 L85.8243365,292.891888 Z M93.1338097,166.515413 C94.1825041,163.442547 99.1471854,151.088407 113.219629,143.434812 L119.908748,149.536305 C108.764525,157.92724 102.357889,168.395631 100.78854,171.156972 L93.1338097,166.515413 Z M109.239022,136.784001 L128.719257,115.959662 C128.916811,115.747676 129.188216,115.633389 129.489161,115.642088 C129.779029,115.653666 130.050434,115.78823 130.231371,116.013119 L188.1625,187.689989 C188.51145,188.11949 188.443137,188.749916 188.012951,189.096466 C187.826475,189.245777 187.60492,189.319511 187.383365,189.319511 C187.091651,189.319511 186.801783,189.19232 186.602383,188.947155 L129.396847,118.167997 L110.704978,138.149924 C110.326488,138.555461 109.69321,138.575738 109.287025,138.199695 C108.884534,137.821808 108.862378,137.187695 109.239022,136.784001 L109.239022,136.784001 Z M160.165316,129.244694 C160.239168,129.049299 161.8916,124.678713 165.641421,118.250947 C164.568725,116.490547 164.723813,113.463764 166.128842,109.522679 C169.72542,99.4248012 180.601931,85.4909091 193.193648,74.8510857 C208.366482,62.0287344 224.305528,55.0018795 238.169341,55.0018795 C238.405666,55.0018795 238.643838,55.0037228 238.880164,55.0074095 C257.740045,55.3373694 263.387854,59.3595618 264.807653,62.6739073 C266.626252,66.928362 262.226536,71.7524122 262.184071,71.8003394 C262.158223,71.8261463 262.137914,71.8519532 262.115759,71.8814468 C253.811134,82.9636745 241.171413,86.025481 227.793175,89.2679358 C211.806126,93.1408168 195.276267,97.146419 183.253208,114.667473 C183.236591,114.69328 183.219974,114.719086 183.205204,114.744893 C183.171971,114.803881 179.861568,120.623341 174.68087,121.659304 C172.221608,122.151479 169.690341,121.471282 167.135072,119.672171 C163.638193,125.73864 162.059613,129.899084 162.044842,129.945168 C161.893446,130.347018 161.511264,130.595871 161.105079,130.595871 C160.986917,130.595871 160.8706,130.575594 160.752437,130.531353 C160.235475,130.337802 159.973302,129.760833 160.165316,129.244694 L160.165316,129.244694 Z M144.711845,172.159755 C146.38274,186.72776 150.743684,208.75765 158.394721,229.97831 C169.228768,260.026779 183.814481,281.573711 201.74383,294.016332 C219.320538,306.215631 241.2028,313.244329 265.4317,314.545735 C269.353226,314.757721 272.436535,317.965152 272.436535,321.88596 C272.436535,326.075897 268.930425,329.436327 264.739341,329.233558 C237.558218,327.917405 214.017985,320.56059 194.670682,307.308738 C171.429549,291.389557 154.325492,265.138392 143.840395,229.28521 C135.576389,201.024792 134.143665,175.940468 133.672861,167.697001 C133.635935,167.037082 133.604548,166.500666 133.580546,166.163333 L133.580546,162.006576 L144.711845,172.159755 Z M159.923452,186.03466 C167.871742,220.514545 187.436907,263.184439 209.948755,279.072284 C221.111442,286.950767 239.496825,296.195174 265.577558,297.830226 C269.440002,298.071705 272.436535,301.295726 272.436535,305.157547 C272.436535,309.406472 268.838111,312.748468 264.593484,312.494085 C241.112332,311.080235 219.927968,304.200848 202.888532,292.372063 C185.308132,280.172764 170.973514,258.950262 160.281633,229.299957 C153.079244,209.325403 148.819847,188.639315 146.984632,174.231682 L159.923452,186.03466 Z M165.292471,190.932444 L178.393765,203.146489 C183.44153,215.955937 190.551603,229.452955 198.468507,241.237499 C205.56381,251.798059 212.923133,260.356739 218.153681,264.126392 C231.565152,273.796612 248.205789,279.684276 265.693874,281.07232 C269.510161,281.374629 272.436535,284.583904 272.436535,288.405171 C272.436535,292.668843 268.812263,296.060609 264.551019,295.754613 C239.544829,293.951815 221.886885,285.044742 211.106381,277.437231 C189.613686,262.270137 170.807348,222.005816 162.558112,188.436546 L165.292471,190.932444 Z M228.012884,249.416449 C228.060888,249.53811 228.136586,249.652398 228.234439,249.751939 C240.045174,261.543857 249.780676,264.675711 265.828653,265.272956 C269.519393,265.409364 272.436535,268.454581 272.436535,272.143126 C272.436535,276.176379 268.974736,279.358003 264.951664,279.000393 C248.155939,277.514652 232.2132,271.794733 219.327923,262.504243 C209.405945,255.350197 192.573294,231.653916 181.890644,206.409221 L228.012884,249.416449 Z M272.936881,280.393967 C272.936881,279.844648 273.379991,279.40593 273.92834,279.398557 C293.548894,279.203162 312.482626,273.221487 327.348976,262.502399 C337.414964,255.243282 354.594719,230.953443 365.245982,205.29768 L368.606235,202.040478 C368.617313,202.187947 368.602542,202.339101 368.543461,202.486569 C363.482772,215.487726 356.260075,229.250186 348.208392,241.235656 C341.113089,251.796215 333.753766,260.353052 328.523218,264.124548 C313.324536,275.083272 293.980926,281.201354 273.950495,281.400486 C273.392915,281.405966 272.936881,280.950659 272.936881,280.393967 L272.936881,280.393967 Z M272.936881,313.762311 C272.936881,313.212992 273.381837,312.770588 273.932033,312.766901 C300.660813,312.59547 324.795553,305.552024 343.788367,292.37022 C361.368767,280.169078 375.703384,258.948418 386.39342,229.298113 C394.044457,208.082984 398.37586,186.064153 400.00429,171.621496 L402.249382,169.448185 C402.251229,169.448185 402.249382,169.448185 402.253075,169.448185 C400.838815,183.896372 396.424329,207.395414 388.282177,229.976467 C377.446285,260.024935 362.860572,281.570025 344.933069,294.014489 C325.606075,307.426713 301.081768,314.593662 273.950495,314.768803 C273.392915,314.772467 272.936881,314.319003 272.936881,313.762311 L272.936881,313.762311 Z M272.936881,297.079982 C272.936881,296.52882 273.383684,296.086416 273.935725,296.082729 C303.317629,295.859684 323.647159,285.848443 335.568671,277.435388 C352.224079,265.68218 374.194963,230.848372 384.556358,186.587665 L387.013774,184.206055 C387.072856,184.3738 387.087626,184.558135 387.047007,184.74247 C379.29627,219.439871 359.524321,262.983514 336.728143,279.07044 C324.568459,287.649397 303.853054,297.857876 273.952342,298.084631 C273.394761,298.088295 272.936881,297.634831 272.936881,297.079982 L272.936881,297.079982 Z M445.923439,171.883252 L444.206386,172.924745 C442.712735,170.31456 435.307255,158.142912 422.615838,149.716953 L424.087334,148.292043 C436.97815,156.981601 444.300547,169.014997 445.923439,171.883252 L445.923439,171.883252 Z M310.878198,249.071742 L402.53925,158.332777 C402.934357,157.94383 402.936203,157.309717 402.546635,156.917083 C402.155221,156.524449 401.521943,156.522606 401.130529,156.90971 L309.513787,247.604435 L307.900128,245.869841 C306.445249,244.304836 304.48264,243.241222 302.374173,242.876239 L298.304944,242.168392 C293.399344,241.318607 289.291342,238.085369 287.313963,233.521231 L281.887708,220.991973 C280.713466,218.27856 280.227891,215.290487 280.488218,212.350342 L286.304041,146.148225 C286.549598,143.348175 288.296191,140.892831 290.860691,139.73705 L319.912108,126.645569 L305.614417,150.434017 C305.330088,150.907758 305.485177,151.521594 305.959674,151.807314 C306.434171,152.09119 307.050833,151.938192 307.335162,151.462607 L329.344818,114.840748 L337.577438,105.52445 L342.937226,99.2570562 C349.20539,102.680159 355.034136,107.480246 360.006203,114.713556 C360.362538,115.334766 363.881572,121.259297 369.6697,122.424295 C370.323287,122.555173 370.980567,122.621533 371.637848,122.621533 C373.899556,122.621533 376.172343,121.843639 378.42482,120.295224 C381.161026,125.263056 382.412812,128.540534 382.440507,128.610581 C382.590057,129.012432 382.972239,129.261284 383.38027,129.261284 C383.49474,129.261284 383.612903,129.241008 383.729219,129.196767 C384.248028,129.003215 384.512047,128.426246 384.31634,127.910108 C384.290492,127.836374 382.944545,124.310043 380.0034,119.015938 C381.526592,117.364296 382.545746,114.155021 380.324655,107.92265 C377.514598,100.02942 370.096193,89.2255387 360.068977,79.2990923 C361.702946,77.6271727 364.010812,76.7884479 366.35745,77.0557338 L414.601081,82.5913176 C417.490529,82.9231208 419.968254,84.9120968 420.913556,87.6586902 L425.534827,101.081974 C426.23088,103.107817 427.61006,104.860844 429.412042,106.022155 L451.90912,120.496149 C454.591783,122.221526 455.911883,125.467668 455.193675,128.571871 L449.180299,154.583401 C445.587413,149.761194 440.148235,144.454185 432.052241,140.575774 L434.614895,138.09278 C434.997078,137.722267 435.02108,137.119491 434.67213,136.71764 L416.628311,115.985469 C416.43445,115.762423 416.157506,115.631545 415.852868,115.642605 C415.557461,115.648136 415.278671,115.7827 415.092195,116.013119 L357.15922,187.689989 C356.812116,188.11949 356.880429,188.749916 357.310616,189.096466 C357.742648,189.443016 358.37408,189.376655 358.721183,188.947155 L415.900871,118.201177 L432.537816,137.316729 L313.863653,252.28286 L310.878198,249.071742 Z M292.13648,69.1035165 C291.584438,69.1035165 291.133943,68.6555821 291.133943,68.1025768 C291.133943,67.5495714 291.584438,67.101637 292.13648,67.101637 C341.428805,67.101637 367.190128,97.6127869 378.158954,115.79929 C378.445129,116.273032 378.291887,116.888711 377.81739,117.172587 C377.654916,117.270285 377.477672,117.316368 377.302274,117.316368 C376.96071,117.316368 376.628377,117.144937 376.441902,116.831567 C365.689092,99.0063604 340.442884,69.1035165 292.13648,69.1035165 L292.13648,69.1035165 Z M85.1485934,328.881478 C84.5467019,329.017886 83.9595808,329.150607 83.4001541,329.275955 C82.3883856,329.504531 81.6037112,329.003139 81.1993731,328.457507 C80.6842574,327.76625 80.6288686,326.910935 81.0498233,326.164378 C82.9551975,322.787359 84.1755971,319.653661 84.9584252,316.964212 C85.3498393,321.532036 85.6175517,326.71001 85.1485934,328.881478 L85.1485934,328.881478 Z M243.678679,146.752844 C244.153176,146.468968 244.769838,146.621967 245.056013,147.097551 L251.069389,157.106948 C251.355564,157.58069 251.202322,158.194526 250.725978,158.480245 C250.565351,158.576099 250.38626,158.622183 250.212709,158.622183 C249.871145,158.622183 249.538812,158.448908 249.352336,158.137382 L243.335268,148.126141 C243.050939,147.654243 243.206028,147.038564 243.678679,146.752844 L243.678679,146.752844 Z M478.167096,253.484725 C474.08125,248.570351 467.246274,240.347161 464.092806,224.157007 C463.361674,220.394727 464.439909,218.038924 465.307667,216.145802 C465.772933,215.130116 466.175424,214.250837 466.175424,213.358655 C466.175424,196.285536 455.974657,178.875083 450.865964,171.228862 L455.389382,168.487799 C455.769718,168.255537 455.952501,167.802072 455.838031,167.370728 C455.767872,167.114502 455.114284,164.79741 453.441543,161.529148 C452.754722,160.124514 451.85927,158.507895 450.729339,156.786205 L457.148899,129.021649 C458.053582,125.097154 456.384534,120.995697 452.99474,118.81317 L430.497662,104.339176 C429.072324,103.421187 427.983011,102.033143 427.43097,100.431271 L422.809699,87.0079872 C421.613301,83.5351134 418.481989,81.0226257 414.830022,80.6023416 L366.584544,75.0667578 C363.626783,74.7294245 360.702255,75.7911948 358.636254,77.9036754 C344.704128,64.5633424 326.134115,53.1659016 307.876126,53.1659016 C307.623184,53.1659016 307.364703,53.167745 307.11176,53.1714317 C291.40904,53.4479344 282.25512,56.3825495 279.90479,61.8996998 C277.700316,67.0703001 282.299432,72.3551881 282.812701,72.9192536 C291.3795,84.3203811 304.089379,87.3987776 317.545161,90.659666 C325.495298,92.5859681 333.583907,94.5509805 341.114935,98.3095737 L336.063478,104.211984 L327.779162,113.585425 C327.74039,113.629666 327.703464,113.679436 327.672077,113.73105 L321.721475,123.63169 L290.037245,137.912132 C286.811771,139.364693 284.614683,142.454149 284.306352,145.971264 L278.490529,212.175224 C278.202508,215.447172 278.741625,218.770734 280.046954,221.786457 L285.473209,234.315715 C287.720147,239.501063 292.387575,243.173018 297.96338,244.142621 L302.032609,244.848624 C303.709043,245.139874 305.272853,245.985972 306.432325,247.233921 L312.807574,254.089344 C302.160003,261.846166 290.836689,263.390895 273.583083,263.390895 L273.46492,263.387208 L272.155899,263.387208 C254.972452,263.328221 244.897232,261.56782 233.930253,252.28286 L236.217809,249.715072 L140.886327,155.342861 C140.493066,154.952071 140.489374,154.319801 140.878942,153.927168 C141.270356,153.534534 141.903634,153.530847 142.296895,153.921637 L237.552679,248.218271 L238.337354,247.338992 C239.509749,246.022839 241.110485,245.132501 242.847847,244.830191 L246.813684,244.142621 C252.387642,243.173018 257.056916,239.501063 259.302008,234.315715 L264.730109,221.786457 C266.035438,218.770734 266.572709,215.447172 266.286534,212.175224 L260.468865,145.971264 C260.158688,142.454149 257.965292,139.364693 254.739819,137.912132 L225.662553,124.807748 L240.534442,154.504136 C240.781845,155 240.582446,155.60093 240.085793,155.84794 C239.941782,155.91983 239.78854,155.953011 239.63899,155.953011 C239.271578,155.953011 238.915243,155.750242 238.741692,155.400005 L222.030896,122.035348 C221.992123,121.957927 221.969968,121.878663 221.951505,121.797555 L217.104986,113.73105 C217.071753,113.679436 217.036673,113.629666 216.996055,113.583582 L208.724663,104.223044 L204.254788,98.998987 C211.927981,95.1777199 220.167986,93.1758405 228.265826,91.2126714 C241.989321,87.8891091 254.953989,84.7461952 263.690646,73.1201789 C264.209455,72.54874 268.900885,67.1624676 266.655793,61.8978565 C264.261151,56.2774785 254.928141,53.2857194 238.915243,53.0055301 C238.66784,53 238.422283,53 238.171187,53 C223.832877,53 207.434105,60.1964433 191.899397,73.3229475 C190.030949,74.9008562 188.210504,76.5395954 186.447294,78.2188884 C184.370215,75.8907358 181.301676,74.710991 178.190673,75.0667578 L129.947042,80.6023416 C126.293228,81.0226257 123.161916,83.5351134 121.967364,87.0079872 L117.344247,100.431271 C116.792206,102.033143 115.704739,103.421187 114.279401,104.339176 L91.7823234,118.81317 C88.3906835,120.995697 86.7216348,125.097154 87.6281646,129.021649 L94.2914353,157.846132 C94.3412852,158.059961 94.4576017,158.233236 94.610844,158.367801 L94.6477698,158.542919 C92.0112637,162.998299 91.0567303,166.390065 90.9736472,166.703435 C90.8573307,167.132936 91.0401137,167.588244 91.42045,167.818663 L96.3943628,170.834385 C91.3816779,178.264934 80.820883,195.9906 80.820883,213.358655 C80.820883,214.250837 81.2233749,215.130116 81.6904869,216.145802 C82.5582446,218.038924 83.6383259,220.394727 82.9035013,224.157007 C79.7500332,240.347161 72.9150572,248.570351 68.8310576,253.484725 C66.5231916,256.258969 65,258.093103 65,260.063646 C65,264.214873 70.5296469,267.247186 72.881824,267.247186 C73.380323,267.247186 73.9028239,267.136584 74.5102542,267.00755 C75.4075525,266.815841 76.5559467,266.578049 78.0200568,266.673903 C78.5979465,267.317233 81.9249661,271.376292 80.2356082,278.314666 C79.8681959,279.826214 80.1765268,281.13315 81.1052121,281.997682 C81.9434291,282.775576 83.1213639,283.831817 84.3694578,284.830913 C83.0622825,286.18762 81.734798,288.580289 82.5619371,291.572049 C82.5804001,291.656843 83.0142789,293.664252 84.7405627,294.576711 C84.9731955,294.749986 86.0680472,295.647698 85.6692479,296.840346 C85.0692028,298.637614 84.528239,303.907755 84.3380708,307.710589 C84.3214542,307.791696 84.3103764,307.874647 84.3159153,307.963128 C84.3159153,307.968658 84.3177616,308.003682 84.3196079,308.068199 C84.2919135,308.678348 84.2752969,309.24057 84.2679117,309.740118 C84.0629732,312.536482 83.1564434,318.354099 79.3013841,325.181872 C78.4927078,326.614156 78.6034854,328.328472 79.5894057,329.651999 C80.3943894,330.734046 81.6110964,331.334978 82.9035013,331.334978 C83.2118322,331.334978 83.525702,331.299955 83.8395718,331.229907 C84.5707037,331.065849 85.3406078,330.892574 86.1382063,330.710082 C86.9893473,330.573674 104.710066,327.650119 127.144369,318.479447 C127.556093,319.391906 128.063823,320.280401 128.650944,321.292401 C130.698483,324.829792 133.381147,329.469507 134.437226,339.888128 C127.20899,348.61271 120.920516,357.492133 116.363866,364.323592 C114.670815,366.860044 117.715352,369.875766 120.242927,368.163293 C161.012765,340.529614 193.945089,335.676071 202.934689,334.839189 C222.843264,344.009862 245.969928,348.69566 272.128204,348.806261 L273.583083,348.806261 L273.596007,348.806261 C283.348126,348.983223 295.57243,348.358327 309.364238,345.626481 C321.74917,343.174823 332.263807,339.644806 340.64413,336.203269 C350.052839,337.119415 382.710066,342.16651 423.034947,369.497879 C425.562522,371.210353 428.607058,368.196473 426.914008,365.658179 C423.075565,359.905079 418.009338,352.695733 412.187977,345.353665 C412.741864,330.981055 415.97103,325.395701 418.349056,321.292401 C418.936177,320.274871 419.449446,319.380845 419.861169,318.462857 C424.174109,320.278558 427.97378,321.720058 431.129094,322.827912 C437.011383,324.892466 442.140385,325.924742 446.479173,325.924742 C450.642563,325.924742 454.084053,324.975417 456.770409,323.074921 C462.154199,319.268401 462.735781,312.807455 462.735781,310.206486 C462.735781,306.75942 462.076654,299.083705 461.327059,296.840346 C460.926414,295.644011 462.036036,294.742613 462.255745,294.578554 C463.985721,293.664252 464.417754,291.658686 464.421446,291.634723 C465.261509,288.595036 463.934025,286.189463 462.62685,284.830913 C463.87679,283.831817 465.054725,282.775576 465.892942,281.995839 C466.821627,281.13315 467.129958,279.826214 466.762545,278.314666 C465.071341,271.363389 468.359589,267.352257 468.976251,266.675747 C470.442207,266.578049 471.590601,266.815841 472.489746,267.00755 C473.093484,267.136584 473.617831,267.247186 474.11633,267.247186 C476.46666,267.247186 482,264.214873 482,260.063646 C482,258.093103 480.473116,256.258969 478.167096,253.484725 L478.167096,253.484725 Z" id="Fill-24" fill="#4C2059"></path>
                <path d="M460.958678,237.858138 C460.694219,237.094684 460.4485,236.362764 460.223606,235.675656 C460.067429,235.194348 459.448968,234.902244 458.845084,235.030039 C458.2412,235.156175 457.878869,235.647441 458.037128,236.128749 C458.262023,236.824156 458.509824,237.566034 458.780531,238.339446 C458.920049,238.73777 459.371921,239 459.869605,239 C459.967475,239 460.069511,238.990042 460.169464,238.966806 C460.773348,238.834032 461.125267,238.337787 460.958678,237.858138" id="Fill-26" fill="#1D1D1D"></path>
                <path d="M454.612336,227.001989 C451.579099,224 451.276531,224 443.483533,224 C441.426075,224 439.309995,225.646976 437.441642,227.103053 C436.42426,227.894725 435.370948,228.712598 434.703409,228.933443 C434.166352,229.111241 433.87324,229.687683 434.052889,230.219207 C434.196608,230.644052 434.59751,230.913557 435.028668,230.913557 C435.134567,230.913557 435.246139,230.898585 435.352037,230.863025 C435.667842,230.758217 435.993102,230.597263 436.327817,230.404492 C436.999138,232.399579 439.066051,233.99228 439.344034,234.198152 C439.527466,234.334776 439.744936,234.400281 439.958624,234.400281 C440.270647,234.400281 440.578887,234.259913 440.78312,233.994151 C441.121617,233.544976 441.028956,232.908644 440.576996,232.571763 C439.95106,232.107615 438.169695,230.492455 438.169695,229.201076 C438.169695,229.174874 438.164022,229.150544 438.16024,229.126214 C438.34178,228.987718 438.52332,228.845479 438.710534,228.699497 C440.236608,227.511054 442.137108,226.032518 443.483533,226.032518 C445.599613,226.032518 447.09543,226.032518 448.218711,226.092408 C448.220602,226.096152 448.222493,226.101766 448.224384,226.105509 C449.009168,227.220962 449.423307,228.532928 449.423307,229.897298 C449.423307,231.317815 448.929744,232.530588 447.849957,233.782665 L446.927127,233.782665 C446.359813,233.782665 445.900289,234.237455 445.900289,234.798924 C445.900289,235.360393 446.359813,235.815183 446.927127,235.815183 L450.064371,235.815183 C449.988729,236.560066 449.827991,237.615628 449.474365,238.661832 C449.294716,239.195228 449.585937,239.769798 450.124885,239.947596 C450.232674,239.983156 450.340464,240 450.450145,240 C450.879412,240 451.280313,239.730495 451.422142,239.303778 C452.172887,237.082232 452.180451,234.89063 452.180451,234.798924 C452.180451,234.237455 451.720927,233.782665 451.153613,233.782665 L450.376394,233.782665 C451.113901,232.566148 451.476982,231.299099 451.476982,229.897298 C451.476982,228.736928 451.242493,227.608375 450.799988,226.556556 C451.609355,226.904667 452.191797,227.479237 453.160013,228.43935 L453.24511,228.52357 C453.647902,228.920342 454.296531,228.920342 454.699324,228.52357 C455.100225,228.12867 455.100225,227.48298 454.699324,227.086209 L454.612336,227.001989 Z" id="Fill-28" fill="#1D1D1D"></path>
                <path d="M462.062041,241.710028 C461.893125,241.17892 461.300948,240.882831 460.745662,241.043829 C460.188434,241.206678 459.875842,241.769246 460.0467,242.298504 C462.120287,248.74213 464.16281,253.220469 466.114079,255.611384 C466.319885,255.86676 466.632476,256 466.947009,256 C467.17223,256 467.401334,255.93153 467.593549,255.787186 C468.053699,255.446685 468.135244,254.815646 467.776056,254.378915 C466.009235,252.211918 464.034667,247.831658 462.062041,241.710028" id="Fill-30" fill="#1D1D1D"></path>
                <path d="M458.977335,229.941677 L458.916673,229.688321 C458.802485,229.216887 458.281504,228.918632 457.764092,229.019654 C457.241327,229.122279 456.909469,229.585696 457.021872,230.055527 L457.084319,230.315297 C457.184233,230.722591 457.585674,231 458.031719,231 C458.101302,231 458.169101,230.993586 458.240468,230.979154 C458.763233,230.876529 459.091523,230.411509 458.977335,229.941677" id="Fill-32" fill="#1D1D1D"></path>
                <path d="M89.2358748,229.019199 C88.7202238,228.919677 88.1974359,229.216637 88.0832433,229.688562 L88.0225785,229.942181 C87.9083859,230.412501 88.2384738,230.878006 88.7612618,230.980738 C88.8308479,230.993579 88.9022183,231 88.9700201,231 C89.4160849,231 89.815759,230.723908 89.9156775,230.31619 L89.9781266,230.05615 C90.0905349,229.58583 89.7586627,229.120325 89.2358748,229.019199" id="Fill-34" fill="#1D1D1D"></path>
                <path d="M101.755932,218.276911 C102.294505,218.408819 102.836767,218.088988 102.969566,217.563162 C103.104209,217.037337 102.77959,216.504284 102.242861,216.374183 C96.3720423,214.935842 91.62817,218.016709 90.2946476,219.324948 C89.9017841,219.708024 89.9017841,220.329618 90.2946476,220.712693 C90.4901571,220.904231 90.7446884,221 91.0029085,221 C91.2592841,221 91.5138154,220.904231 91.7111693,220.712693 C92.7477386,219.697182 96.8202387,217.068055 101.755932,218.276911" id="Fill-36" fill="#1D1D1D"></path>
                <path d="M96.5251868,238.661832 C96.1715597,237.615628 96.0127112,236.560066 95.937069,235.815183 L99.0743275,235.815183 C99.6397526,235.815183 100.10117,235.360393 100.10117,234.798924 C100.10117,234.237455 99.6397526,233.782665 99.0743275,233.782665 L98.1496021,233.782665 C97.0717014,232.53246 96.5781363,231.319687 96.5781363,229.897298 C96.5781363,228.532928 96.9922771,227.220962 97.7751735,226.105509 C97.7770645,226.101766 97.7789556,226.096152 97.7827377,226.092408 C98.9041326,226.032518 100.399956,226.032518 102.517937,226.032518 C103.862476,226.032518 105.762985,227.511054 107.289066,228.699497 C107.47628,228.845479 107.659712,228.987718 107.839362,229.126214 C107.837471,229.150544 107.831798,229.174874 107.831798,229.201076 C107.831798,230.484969 106.048534,232.105743 105.422596,232.573634 C104.970634,232.908644 104.879863,233.546848 105.220253,233.994151 C105.420704,234.259913 105.728946,234.400281 106.04097,234.400281 C106.25655,234.400281 106.47213,234.334776 106.655563,234.198152 C106.933548,233.99228 109.004252,232.399579 109.671794,230.404492 C110.008401,230.597263 110.331772,230.758217 110.647578,230.863025 C110.755368,230.898585 110.865049,230.913557 110.972839,230.913557 C111.402108,230.913557 111.803011,230.644052 111.946732,230.219207 C112.126382,229.687683 111.83705,229.111241 111.2981,228.933443 C110.628667,228.712598 109.57535,227.894725 108.559854,227.103053 C106.691493,225.646976 104.573512,224 102.517937,224 C94.7249035,224 94.4204438,224 91.3871933,227.001989 L91.3020959,227.086209 C90.8993014,227.48298 90.8993014,228.12867 91.3020959,228.52357 C91.7029993,228.920342 92.3535218,228.920342 92.7544253,228.52357 L92.8395227,228.43935 C93.8077423,227.479237 94.392078,226.904667 95.2014491,226.556556 C94.7570514,227.608375 94.5244518,228.736928 94.5244518,229.897298 C94.5244518,231.299099 94.8856431,232.566148 95.6231541,233.782665 L94.8459309,233.782665 C94.3504748,233.782665 93.936334,234.130776 93.8398902,234.594923 C93.8266529,234.660428 93.8190886,234.727804 93.8190886,234.798924 C93.8190886,234.89063 93.8285439,237.082232 94.5774013,239.303778 C94.7211214,239.730495 95.1220248,240 95.551294,240 C95.6590841,240 95.7687652,239.983156 95.8765553,239.947596 C96.4136146,239.769798 96.7048369,239.195228 96.5251868,238.661832" id="Fill-38" fill="#1D1D1D"></path>
                <path d="M87.1525877,235.030039 C86.5472349,234.902244 85.9335611,235.194348 85.775462,235.675656 C85.550795,236.362764 85.3053255,237.094684 85.0411337,237.858138 C84.8747137,238.337787 85.2283562,238.834032 85.8295485,238.968466 C85.9294006,238.990042 86.0313328,239 86.1311848,239 C86.6262844,239 87.0818592,238.73777 87.2191557,238.339446 C87.4875079,237.566034 87.7350577,236.824156 87.9638852,236.128749 C88.119904,235.647441 87.7558602,235.156175 87.1525877,235.030039" id="Fill-40" fill="#1D1D1D"></path>
                <path d="M86.2561998,241.044664 C85.6969794,240.881824 85.1066912,241.177896 84.9377601,241.710826 C82.9688383,247.830264 80.9902078,252.212129 79.2232267,254.379006 C78.8640053,254.815712 78.9475,255.446715 79.4076918,255.787198 C79.5999238,255.929683 79.8271071,256 80.0542903,256 C80.3688518,256 80.6795298,255.866768 80.885354,255.611406 C82.8387419,253.220624 84.8795079,248.742536 86.9532836,242.299269 C87.1241565,241.77004 86.8115367,241.207504 86.2561998,241.044664" id="Fill-42" fill="#1D1D1D"></path>
                <path d="M447.453407,280.929248 C452.504257,279.120098 458.082837,278.389444 460.257379,278.157549 C460.818792,278.098655 461.26418,277.679035 461.357749,277.132425 L461.98279,273.446027 C462.123143,272.608628 461.383949,271.868772 460.534343,272.019688 C454.938921,273.009844 449.936726,276.23061 446.394206,279.1293 C445.466003,279.889401 446.323094,281.335985 447.453407,280.929248" id="Fill-44" fill="#1D1D1D"></path>
                <path d="M171.832382,111.57055 C174.479021,107.808174 177.66799,103.771729 181.455005,99.7464714 C194.632482,85.7317125 217.915478,69.0247477 253.989634,69.0247477 C254.546821,69.0247477 255,68.5716964 255,68.0123738 C255,67.4530513 254.546821,67 253.989634,67 C217.198564,67 193.440102,84.0518804 179.987746,98.3556227 C176.13201,102.453593 172.879894,106.570207 170.181251,110.409024 C169.88037,110.839702 169.962091,111.428855 170.36698,111.764449 C170.818302,112.144788 171.490641,112.053432 171.832382,111.57055" id="Fill-46" fill="#1D1D1D"></path>
                <path d="M451.962786,213.540151 C456.191091,213.63036 456.982964,213.605102 457.509635,213.098124 C457.595545,213.015132 457.666515,212.917705 457.715073,212.811258 C457.845807,212.531608 459,210.041826 459,208.565998 C459,208.250264 458.861796,207.954377 458.617137,207.732462 C457.589943,206.806912 450.528449,206.758199 437.634361,207.588127 C437.50923,207.597148 437.385967,207.626015 437.272042,207.678336 C436.952678,207.822671 429.424278,211.322801 428.010485,220.881402 C427.941383,221.343275 428.219659,221.787106 428.673492,221.94407 C428.78555,221.981958 428.899475,222 429.0134,222 C429.360779,222 429.695084,221.826798 429.883714,221.523694 C431.90075,218.276151 436.069291,215.540998 439.091109,214.373687 C441.810372,213.323648 447.923111,213.45355 451.962786,213.540151" id="Fill-48" fill="#1D1D1D"></path>
                <path d="M108.022309,209.530715 C108.840341,209.951049 112.683972,212.137503 114.790686,216.963217 C112.568178,214.975203 109.893698,213.416543 107.659984,212.554228 C105.461756,211.704542 101.752596,211.522337 98.1909804,211.522337 C96.7286076,211.522337 95.2905144,211.554809 93.9924951,211.581869 C92.4274014,211.614341 90.6867482,211.652226 89.9434221,211.587281 C89.625921,210.856659 89.2561256,209.868064 89.1011103,209.137442 C91.4057949,208.771229 100.107193,209.025594 108.022309,209.530715 M88.4903876,213.099038 C89.0170659,213.605963 89.808951,213.631219 94.0373188,213.541019 C98.0789212,213.452623 104.188016,213.324539 106.90732,214.37447 C109.929183,215.541661 114.099654,218.276533 116.11672,221.523743 C116.303485,221.825011 116.637795,222 116.985179,222 C117.099105,222 117.213032,221.98196 117.323224,221.944076 C117.780799,221.787127 118.057212,221.343342 117.989976,220.881517 C116.576162,211.323897 109.047651,207.824126 108.726414,207.679806 C108.612488,207.62749 108.49109,207.596822 108.365957,207.589606 C95.4679414,206.757959 88.4082108,206.806667 87.382869,207.732122 C87.1363387,207.955819 87,208.251676 87,208.565573 C87,210.043053 88.1523423,212.53258 88.2849457,212.810397 C88.3335047,212.918637 88.4044755,213.016054 88.4903876,213.099038" id="Fill-50" fill="#1D1D1D"></path>
                <polygon id="Fill-52" fill="#E8E7DD" points="163 311 218 311 218 333.378645 217.908725 333.378645 202.838955 313.042269 199.44686 313.042269 199.44686 370.519665 203.967791 375.906335 203.967791 376 177.032209 376 177.032209 375.906335 181.55314 370.519665 181.55314 313.042269 178.162907 313.042269 163.095001 333.378645 163 333.378645"></polygon>
                <polygon id="Fill-54" fill="#E8E7DD" points="220 311 249.002287 311 249.002287 311.091829 244.231797 316.201175 261.539165 352.506555 272.01648 330.313404 262.194229 311 291.289039 311 291.289039 311.091829 286.518548 316.201175 303.827767 352.506555 314.586352 329.756922 304.949147 311.091829 304.949147 311 326 311 326 311.091829 295.126896 376 295.032523 376 273.326606 332.913992 252.838294 376 252.743921 376 222.618403 316.201175 220 311.091829"></polygon>
                <path d="M341.666985,343.5 C341.666985,361.279061 346.818524,374.754945 353,374.754945 C359.181476,374.754945 364.331162,361.279061 364.331162,343.5 C364.331162,325.720939 359.181476,312.245055 353,312.245055 C346.818524,312.245055 341.666985,325.720939 341.666985,343.5 M322,343.5 C322,324.410552 335.954168,310 353,310 C370.04398,310 384,324.410552 384,343.5 C384,362.589448 370.04398,377 353,377 C335.954168,377 322,362.589448 322,343.5" id="Fill-56" fill="#E8E7DD"></path>
                <path d="M146.353844,449.957673 C150.730666,449.957673 154.083282,448.286344 156.505639,445.500184 C158.832208,442.622192 160.136412,438.629369 160.136412,434.078212 C160.136412,425.163234 155.295382,418.292419 146.353844,418.292419 L146.16595,418.292419 L146.16595,449.957673 L146.353844,449.957673 Z M146.259897,416.250092 C153.991177,416.250092 158.088001,411.048769 158.088001,402.506626 C158.088001,397.957306 156.599586,394.056314 153.805126,391.642988 C151.846977,389.969823 149.334357,389.042327 146.259897,389.042327 L146.16595,389.042327 L146.16595,416.250092 L146.259897,416.250092 Z M124,451.908169 L128.470769,446.521347 L128.470769,392.478653 L124,387.091831 L124,387 L153.617232,387 C157.994054,387 161.814562,387.46283 164.88718,388.392162 C172.61846,390.619988 176.341337,395.542143 176.341337,402.506626 C176.341337,409.842107 172.152409,414.949761 163.769027,416.992088 C175.318974,418.848916 181,424.885903 181,434.078212 C181,441.321861 177.461332,446.615015 170.382154,449.493007 C166.377436,451.164336 161.348512,452 155.201435,452 L124,452 L124,451.908169 Z" id="Fill-58" fill="#E8E7DD"></path>
                <path d="M218.540411,427.113729 L207.809928,396.934305 L198.103768,427.113729 L218.540411,427.113729 Z M180,451.908169 L191.85078,438.906699 L206.595504,393.593484 L204.26263,387.091831 L204.26263,387 L223.113878,387 L247,451.814501 L247,452 L220.873285,452 L220.873285,451.908169 L225.631315,446.800514 L219.193763,429.156057 L197.356289,429.156057 L194.277781,438.906699 L205.755743,451.908169 L205.755743,452 L180,452 L180,451.908169 Z" id="Fill-60" fill="#E8E7DD"></path>
                <path d="M274.3531,422.099743 C280.805236,422.099743 284.360571,413.3721 284.360571,405.478285 C284.360571,397.678139 280.805236,389.135995 274.3531,389.135995 L274.25876,389.135995 L274.25876,422.099743 L274.3531,422.099743 Z M252,451.908169 L256.489488,446.244017 L256.489488,392.755983 L252,387.091831 L252,387 L279.497421,387 C295.864537,387 304,393.964482 304,405.478285 C304,419.221751 294.273701,424.235738 274.821102,424.235738 L274.25876,424.235738 C274.25876,427.207397 277.346092,429.064225 280.805236,429.064225 L303.720679,429.064225 L303.720679,451.908169 C296.238199,451.908169 289.22372,449.307508 283.705738,444.664519 C279.31059,441.042694 276.036427,436.214207 274.25876,430.456387 L274.25876,446.521347 L278.748248,451.908169 L278.748248,452 L252,452 L252,451.908169 Z" id="Fill-62" fill="#E8E7DD"></path>
                <path d="M335.352105,449.864065 C345.223947,449.864065 350.438947,436.679306 350.814737,421.264947 C351.186842,406.871722 345.877895,389.600588 335.258158,389.600588 L335.166053,389.600588 L335.166053,449.864065 L335.352105,449.864065 Z M313,451.906335 L317.470789,446.521502 L317.470789,392.478498 L313,387.093665 L313,387 L344.201579,387 C360.964737,387 369.53421,405.385935 368.97421,421.171282 C368.41421,437.792269 360.126579,452 344.201579,452 L313,452 L313,451.906335 Z" id="Fill-64" fill="#E8E7DD"></path>
                <path d="M374,450.396551 L374,428.552219 L381.862195,428.644149 L398.693293,450.582249 C399.52561,450.769786 400.264634,450.861715 401.007317,450.861715 C406.555488,450.861715 410.995122,446.678915 410.995122,441.472017 C410.995122,433.663509 402.022561,431.060061 393.051829,427.064797 C384.359146,423.159623 375.757927,417.860796 375.757927,405.032928 C375.757927,394.994206 384.635366,387 398.879878,387 C401.839634,387 407.20122,387.557094 419.872561,389.044516 L420.059146,407.171212 L407.943902,407.171212 L394.440244,389.323983 L394.346951,389.323983 C390.276829,390.531939 387.779878,394.157645 387.779878,398.248517 C387.779878,405.126696 394.533537,408.007772 402.115854,411.447781 C411.457927,415.630582 422,420.556175 422,434.687606 C422,445.654818 412.196951,453 400.264634,453 C393.421341,453 380.380488,451.604507 374,450.396551" id="Fill-66" fill="#E8E7DD"></path>
            </g>
        </g>
    </g>
</svg>