<?xml version="1.0" encoding="UTF-8"?>
<svg width="356px" height="367px" viewBox="0 0 356 367" version="1.1" xmlns="http://www.w3.org/2000/svg" xmlns:xlink="http://www.w3.org/1999/xlink">
    <!-- Generator: Sketch 57.1 (83088) - https://sketch.com -->
    <title>transcend/alt-mark</title>
    <desc>Created with Sketch.</desc>
    <g id="transcend/alt-mark" stroke="none" stroke-width="1" fill="none" fill-rule="evenodd">
        <g id="Group-4-Copy" fill="#0E5E70">
            <path d="M302.001431,48.9719894 C305.04968,48.9719894 307.528349,51.4493969 307.528349,54.4978532 C307.528349,57.5477407 305.04968,60.030873 302.001431,60.030873 C298.953182,60.030873 296.470219,57.5477407 296.470219,54.4978532 C296.470219,51.4493969 298.953182,48.9719894 302.001431,48.9719894 M302.001431,65 C307.790241,65 312.5,60.2884891 312.5,54.4978532 C312.5,48.7086485 307.790241,44 302.001431,44 C296.212621,44 291.5,48.7086485 291.5,54.4978532 C291.5,60.2884891 296.212621,65 302.001431,65" id="Fill-47"></path>
            <path d="M199,4.97165054 C202.047833,4.97165054 204.529027,7.45032029 204.529027,10.4985689 C204.529027,13.5482486 202.047833,16.0312117 199,16.0312117 C195.952167,16.0312117 193.469542,13.5482486 193.469542,10.4985689 C193.469542,7.45032029 195.952167,4.97165054 199,4.97165054 M199,21 C204.788021,21 209.5,16.2888101 209.5,10.4985689 C209.5,4.70975876 204.788021,0 199,0 C193.211979,0 188.5,4.70975876 188.5,10.4985689 C188.5,16.2888101 193.211979,21 199,21" id="Fill-48"></path>
            <path d="M52.0021468,316.028011 C48.9536905,316.028011 46.4705582,313.54631 46.4705582,310.497853 C46.4705582,307.449397 48.9536905,304.969127 52.0021468,304.969127 C55.0506031,304.969127 57.5294418,307.449397 57.5294418,310.497853 C57.5294418,313.54631 55.0506031,316.028011 52.0021468,316.028011 M52.0021468,300 C46.2115109,300 41.5,304.707217 41.5,310.497853 C41.5,316.288489 46.2115109,321 52.0021468,321 C57.7913515,321 62.5,316.288489 62.5,310.497853 C62.5,304.707217 57.7913515,300 52.0021468,300" id="Fill-49"></path>
            <path d="M154.997853,362.028349 C151.949397,362.028349 149.470558,359.546818 149.470558,356.498569 C149.470558,353.448889 151.949397,350.968788 154.997853,350.968788 C158.04631,350.968788 160.529442,353.448889 160.529442,356.498569 C160.529442,359.546818 158.04631,362.028349 154.997853,362.028349 M154.997853,346 C149.208649,346 144.5,350.708328 144.5,356.498569 C144.5,362.287379 149.208649,367 154.997853,367 C160.787058,367 165.5,362.287379 165.5,356.498569 C165.5,350.708328 160.787058,346 154.997853,346" id="Fill-50"></path>
            <path d="M265.471651,278.498569 C265.471651,275.448889 267.95032,272.970219 270.998569,272.970219 C274.046818,272.970219 276.529781,275.448889 276.529781,278.498569 C276.529781,281.546818 274.046818,284.028349 270.998569,284.028349 C267.95032,284.028349 265.471651,281.546818 265.471651,278.498569 M281.5,278.498569 C281.5,272.708328 276.78881,268 270.998569,268 C265.208328,268 260.5,272.708328 260.5,278.498569 C260.5,284.287379 265.208328,289 270.998569,289 C276.78881,289 281.5,284.287379 281.5,278.498569" id="Fill-51"></path>
            <path d="M350.677121,211.804103 C345.80774,209.32607 341.707355,205.47397 338.94201,200.720138 C336.244315,196.082658 334.939647,190.76784 335.097036,185.437785 C335.099797,185.300655 335.110842,185.166296 335.113603,185.029166 C339.967797,187.504428 344.06128,191.353758 346.825243,196.10205 C349.590588,200.857267 350.921487,206.332763 350.677121,211.804103 M318.168103,235.697929 C314.527457,239.820133 309.75748,242.794049 304.50015,244.273388 C305.324369,238.860224 307.693481,233.746253 311.331365,229.624049 C314.972011,225.501844 319.741988,222.525158 324.999318,221.048589 C324.175099,226.460368 321.804607,231.574339 318.168103,235.697929 M298.109347,301.934384 C297.181583,307.365555 294.690978,312.419965 291.000631,316.45352 C288.856558,311.415732 288.184205,305.818343 289.111969,300.391328 C289.800889,296.360543 291.358207,292.541687 293.621012,289.189625 C294.543254,288.197858 295.424078,287.174233 296.318707,286.161689 C298.371661,291.126064 299.019163,296.60987 298.109347,301.934384 M253.59324,311.370022 C248.167477,312.19003 242.600893,311.389414 237.627967,309.127465 C241.729733,305.50807 246.81863,303.122843 252.244393,302.311145 C257.670156,301.484211 263.239501,302.295908 268.211046,304.553702 C264.11066,308.167556 259.021764,310.558324 253.59324,311.370022 M197.86527,350.366131 C193.676526,353.92735 188.531025,356.192069 183.121829,356.89988 C184.703998,351.65986 187.775836,346.940656 191.9632,343.376667 C196.151944,339.816833 201.297445,337.552114 206.708021,336.842918 C205.124471,342.084323 202.052634,346.804912 197.86527,350.366131 M175.223409,333.673696 L175.222029,333.697244 C171.267987,333.176428 167.424393,331.870232 163.989457,329.755109 C159.310599,326.876768 155.560886,322.683921 153.200058,317.745864 C158.672761,317.61843 164.086099,319.074222 168.766337,321.952563 C173.374784,324.785193 177.070654,328.911553 179.439766,333.75542 C178.034313,333.742954 176.630242,333.726332 175.223409,333.673696 M313.084729,146.961107 C310.247594,142.282072 308.786917,136.839821 308.933261,131.332467 C309.076844,125.830654 310.826065,120.470126 313.903426,115.947613 C316.741942,120.628033 318.202618,126.070285 318.056274,131.577638 C317.912692,137.082222 316.16347,142.437209 313.084729,146.961107 M298.718192,83.4076852 C304.037649,82.1596657 309.645651,82.4671688 314.811861,84.3274244 C319.979452,86.18768 324.509205,89.527275 327.824028,93.8738736 C322.504572,95.1163525 316.893808,94.8074642 311.730359,92.9513641 C306.564149,91.0938789 302.034397,87.7542838 298.718192,83.4076852 M335.048715,179.735125 C334.475765,153.758035 327.379475,128.208955 313.96003,105.150374 C312.326779,102.345447 310.587221,99.6236285 308.799343,96.9419794 C309.236993,97.1206636 309.66636,97.31874 310.113675,97.4808025 C313.732231,98.7800725 317.534407,99.4310927 321.339344,99.4310927 C325.105624,99.4310927 328.870524,98.7953092 332.454565,97.5209718 L335.224051,96.5375158 L333.709531,94.0123885 C329.766534,87.4384698 323.631142,82.3882153 316.428545,79.7979861 C309.598711,77.3435015 302.117233,77.2340747 295.204562,79.41707 C289.636597,73.2171416 283.578519,67.4729273 277.041372,62.2301371 C280.325822,51.2569841 283.831169,39.3613217 283.889154,39.170171 L279.28761,37.8044138 C279.19649,38.1133021 270.189448,68.6918587 267.542835,76.9168755 C266.355518,80.6027578 268.08265,87.8193859 271.491355,101.319051 C275.881667,118.680513 281.887282,142.456601 278.409548,158.010443 C276.00454,168.757817 269.992022,175.256937 265.333873,178.8514 C268.085412,172.645931 269.862245,167.576284 269.974074,167.250774 L265.447082,165.666163 C265.407045,165.785286 261.207256,177.779294 255.763545,187.304966 C253.010626,192.114205 247.872028,195.018863 243.792352,196.66442 C243.796493,196.656109 243.802016,196.649184 243.806158,196.640873 L254.623169,173.747125 L250.290842,171.686022 L239.47245,194.579771 C237.561698,198.620251 234.499525,201.918292 230.622796,204.117909 L226.221439,206.611178 L238.180208,176.299955 L233.722246,174.526964 L221.212618,206.233032 L183.711346,246.155806 C183.286121,245.762424 182.808433,245.206979 182.374924,244.500553 C181.832348,243.608516 180.995703,241.83691 181.481675,239.97527 C182.575111,235.797659 200.179158,214.187945 211.019639,201.549842 L211.460051,201.035952 L222.660869,131.796492 L217.928168,131.027734 L215.802042,144.170031 C209.789523,153.449146 203.295175,159.312483 203.230287,159.37066 L202.676665,159.862388 L202.498568,160.577125 C201.285019,165.376667 197.001014,178.505113 191.819617,181.571833 C190.93189,182.09542 190.139425,182.232549 189.493304,182.073257 L188.362592,181.688186 L206.104698,111.215943 C206.342162,110.268501 206.703879,109.373695 207.178806,108.552301 C209.742583,104.151682 216.416409,93.2450158 223.066765,87.0464725 L223.619006,86.5298118 L223.777775,85.7846015 C224.309307,83.2913327 236.80927,24.5111357 239.244651,6.65102019 L234.492622,6 C232.227055,22.6231771 220.719743,77.088634 219.245261,84.0531648 C212.321546,90.7489767 205.636675,101.661183 203.037002,106.13106 C202.334276,107.340295 201.799984,108.656187 201.453453,110.037181 L182.630335,184.807542 L188.109941,186.676109 C188.746399,186.842326 189.393901,186.928206 190.038641,186.928206 C191.466183,186.928206 192.899247,186.520972 194.257759,185.7162 C201.487968,181.433318 205.936265,166.28671 206.963432,162.462313 C208.099667,161.391593 210.848444,158.683626 214.102521,154.673618 L206.945485,198.923599 C201.272594,205.551538 178.494054,232.448368 176.842855,238.754953 C176.147032,241.410284 176.659235,244.34126 178.285583,247.007673 C179.684132,249.307021 181.697049,251.035687 183.542913,251.521874 L184.919372,251.884784 L218.503878,216.135464 L218.664028,216.42219 L232.982244,208.309371 C235.441095,206.911755 237.615542,205.141534 239.480734,203.084587 C242.712721,202.346303 254.561042,199.067654 259.921916,189.697119 C260.45897,188.756603 260.979457,187.793924 261.488899,186.828475 C264.22387,185.602618 278.790594,178.259941 283.087025,159.063157 C286.817409,142.390114 280.648883,117.968546 276.139839,100.136134 C273.755541,90.6949559 271.288406,80.9365788 272.107103,78.396215 C272.85815,76.059468 274.1214,71.9261824 275.540658,67.2180599 C289.244506,78.5084121 300.787714,92.0482468 309.819607,107.575771 C310.46987,108.690816 311.059387,109.828024 311.677896,110.95415 C307.019748,116.667891 304.333098,123.818032 304.138433,131.207804 C303.935485,138.87599 306.401238,146.443061 311.078715,152.512785 L312.876258,154.843992 L314.793913,152.611131 C318.948143,147.772804 321.600278,141.813892 322.50043,135.53224 C331.1568,161.237841 332.6727,188.788461 326.729211,215.737927 C319.405122,217.073211 312.678832,220.843587 307.740422,226.435435 C302.673615,232.179649 299.713606,239.565265 299.408493,247.233452 L299.289761,250.176894 L302.186263,249.704559 C308.168408,248.726643 313.754321,246.092089 318.346201,242.192894 C312.515921,256.038846 304.718285,268.814079 295.181092,280.181999 C293.195787,281.941139 291.443804,283.926058 289.94033,286.082735 C284.724418,291.669043 279.052908,296.853657 272.979643,301.622726 C266.506004,297.904985 258.922361,296.454734 251.538905,297.549002 C243.977352,298.684824 236.979084,302.433038 231.830822,308.107995 L229.853801,310.289605 L232.37616,311.795262 C237.54375,314.881375 243.456866,316.490919 249.422444,316.490919 C249.658526,316.490919 249.893229,316.470141 250.129311,316.464601 C229.824809,327.188427 207.464591,333.098859 184.657058,333.708325 C181.986975,327.153798 177.301214,321.557795 171.273509,317.84975 C164.757071,313.841128 157.006376,312.198341 149.410307,313.227507 L146.5,313.620889 L147.469182,316.403654 C149.987399,323.647985 154.964466,329.850684 161.486427,333.859306 C166.736853,337.088089 172.79079,338.783512 178.906853,338.783512 C180.32335,338.783512 181.74537,338.679626 183.159105,338.494016 C185.692509,338.453847 188.224531,338.409522 190.745509,338.241919 C190.10491,338.710099 189.469834,339.190746 188.862369,339.707407 C183.030709,344.667626 179.050436,351.555974 177.657409,359.102268 L177.124497,362 L180.058275,361.947364 C187.704045,361.804694 195.128918,358.998381 200.9661,354.036776 C206.633469,349.216457 210.529525,342.57051 212.024717,335.277699 C228.226072,331.877157 243.87933,325.885001 258.382546,317.389881 C267.941829,311.789722 276.73764,305.253202 284.736843,297.950695 C284.61535,298.490903 284.478671,299.028341 284.38479,299.57686 C283.092547,307.141161 284.457962,314.983876 288.228384,321.663066 L289.673873,324.220052 L291.886977,322.289154 C297.65651,317.251366 301.544283,310.310382 302.836526,302.748852 C304.034888,295.741382 302.922123,288.502591 299.753643,282.161378 C313.842679,265.045087 324.194427,244.928564 329.984669,222.817425 C331.826391,215.783637 333.140724,208.697213 333.991174,201.601093 C334.256249,202.117753 334.5089,202.64134 334.801587,203.144149 C338.652084,209.767933 344.721207,214.895756 351.887908,217.582946 L354.639447,218.616267 L355.097806,215.707453 C356.286504,208.125146 354.820305,200.299052 350.964286,193.678038 C347.320879,187.417163 341.693548,182.523431 335.048715,179.735125" id="Fill-52"></path>
            <path d="M41.1880531,281.670581 C36.0246865,279.813081 31.4963863,276.474845 28.1760931,272.126828 C33.4954652,270.880184 39.0992366,271.19046 44.2681256,273.049344 C49.435634,274.908229 53.9625536,278.246465 57.2814662,282.594483 C51.9648553,283.838356 46.3514198,283.528081 41.1880531,281.670581 M37.9436917,234.419999 C38.087272,228.916758 39.836466,223.557574 42.9165384,219.037796 C45.7550095,223.719637 47.2156624,229.164702 47.069321,234.667943 C46.9257408,240.171184 45.1779274,245.527598 42.0964743,250.050146 C39.2593838,245.371075 37.7973503,239.926011 37.9436917,234.419999 M20.8866343,180.968056 C16.0297562,178.491389 11.9390997,174.643415 9.17656052,169.899241 C6.40987957,165.139831 5.08038168,159.661523 5.32336364,154.194296 C10.1899057,156.670962 14.2929875,160.523092 17.061049,165.278347 C19.7559398,169.914478 21.0605873,175.229337 20.9032012,180.560819 C20.9004401,180.697949 20.8893954,180.830925 20.8866343,180.968056 M37.834626,130.303054 C41.4724525,126.180818 46.242354,123.202724 51.4996001,121.723373 C50.6753942,127.137964 48.3063201,132.251975 44.6684936,136.372826 C41.0320477,140.496448 36.2580044,143.477312 31.0049001,144.952508 C31.8249642,139.540687 34.1954189,134.428061 37.834626,130.303054 M57.8903017,64.0605424 C58.818051,58.6334851 61.3086161,53.580421 65.0016658,49.5468348 C67.1429443,54.5846621 67.8152864,60.1820941 66.8875371,65.6091514 C66.2013892,69.6399673 64.6440957,73.4574686 62.3813262,76.809556 C61.4590993,77.7999455 60.5755285,78.8263492 59.6809131,79.8402864 C57.6321334,74.8758725 56.9791194,69.3892533 57.8903017,64.0605424 M102.408462,54.6303724 C107.834139,53.8158982 113.397874,54.6082098 118.373482,56.8701763 C114.27178,60.4868293 109.182965,62.8748453 103.754527,63.685164 C98.3316117,64.5107194 92.7651158,63.7100969 87.7881274,61.4467453 C91.8912091,57.8273219 96.9800245,55.4420762 102.408462,54.6303724 M158.135547,15.6339598 C162.321463,12.071328 167.466882,9.80659118 172.880134,9.10015953 C171.296609,14.3360647 168.22482,19.0566904 164.034762,22.617937 C159.848845,26.1805688 154.704807,28.4453056 149.290175,29.1517373 C150.873699,23.9158321 153.945488,19.1952064 158.135547,15.6339598 M180.778428,32.3223688 L180.778428,32.3085172 C184.755877,32.8307225 188.563515,34.1203066 192.005299,36.2409867 C196.684082,39.1207346 200.436497,43.3163846 202.800049,48.2530952 C197.252881,48.3181977 191.914181,46.9247267 187.234017,44.046364 C182.622882,41.209556 178.927071,37.0873196 176.557997,32.2447998 C177.963427,32.2558811 179.370237,32.2697327 180.778428,32.3223688 M154.547421,255.960624 L173.370239,181.186911 L167.887959,179.323871 C165.848843,178.785043 163.717229,179.120252 161.740239,180.285172 C154.512906,184.565317 150.06468,199.712042 149.037529,203.53924 C147.899931,204.608583 145.151198,207.313801 141.897173,211.32384 L149.052715,167.073515 C154.728277,160.441368 177.503694,133.551255 179.157628,127.243236 C179.85344,124.586499 179.342625,121.6555 177.716303,118.986296 C176.313634,116.691086 174.299369,114.961021 172.454915,114.476215 L171.078478,114.111918 L137.495886,149.864285 L137.334358,149.576172 L123.019131,157.691825 C120.558939,159.088067 118.385907,160.856916 116.519364,162.913879 C113.286047,163.652169 101.440676,166.932228 96.0798868,176.301451 C95.5414609,177.241975 95.022363,178.206046 94.5115487,179.172888 C91.7807628,180.395985 77.2115093,187.738718 72.9151464,206.938423 C69.18206,223.611595 75.3546301,248.033353 79.8594604,265.868674 C82.2437209,275.30577 84.7108161,285.065608 83.8921326,287.603222 C83.1410974,289.939987 81.8778674,294.07469 80.4586318,298.782849 C66.7577627,287.496564 55.2175002,273.955239 46.180228,258.423439 C45.5313557,257.307 44.9404677,256.171168 44.3219682,255.045033 C48.982804,249.331248 51.6694113,242.181051 51.864073,234.792607 C52.0670182,227.128516 49.6013035,219.561387 44.9252814,213.483304 L43.1291477,211.153465 L41.2101424,213.387728 C37.0532181,218.221937 34.3997446,224.182281 33.4996069,230.465367 C24.8433746,204.760951 23.3274985,177.212887 29.2708925,150.263212 C36.5962463,148.929302 43.3224288,145.157511 48.2593804,139.56285 C53.3261065,133.817206 56.2860686,126.431532 56.5911766,118.764671 L56.7099064,115.81982 L53.813451,116.29216 C47.8314008,117.270083 42.2441963,119.906043 37.6537701,123.806653 C43.4839565,109.959208 51.2828491,97.1797206 60.8212716,85.8117116 C62.8106864,84.0511731 64.5667833,82.0620832 66.0716148,79.9012334 C71.2874434,74.317653 76.9602438,69.1343839 83.0334122,64.3666628 C88.0808102,67.267188 93.7977892,68.8061009 99.5796554,68.8061009 C101.207358,68.8061009 102.839203,68.6869772 104.460003,68.4459593 C112.024197,67.3128983 119.023734,63.5632699 124.171915,57.8868838 L126.147524,55.7080269 L123.625205,54.2009727 C118.249229,50.9943271 112.060092,49.4110891 105.846105,49.5468348 C126.153046,38.8173845 148.514289,32.9166025 171.342168,32.2946656 C174.012209,38.8437026 178.699275,44.4383643 184.726885,48.1505934 C189.974467,51.3794016 196.028307,53.0706821 202.144273,53.0706821 C203.627016,53.0706821 205.1139,52.9709505 206.591119,52.7701023 L209.5,52.3753317 L208.532214,49.5939302 C206.009895,42.3495428 201.030146,36.1495662 194.515192,32.1381425 C188.157624,28.2250652 180.622422,26.5988872 173.214234,27.4646123 C170.541432,27.5103226 167.872772,27.6058986 165.213777,27.7873546 C165.869552,27.3080892 166.517044,26.8177425 167.138304,26.2899965 C172.974013,21.328353 176.950081,14.4399518 178.340325,6.89775495 L178.873228,4 L175.939497,4.05263608 C168.289707,4.19530758 160.866332,7.00164196 155.032004,11.9632855 C149.363346,16.7836427 145.467351,23.4296409 143.974944,30.7225089 C127.772466,34.1189214 112.119457,40.1125092 97.6164716,48.6104665 C88.0573404,54.2106688 79.2616695,60.7472394 71.262593,68.0511887 C71.384084,67.5095911 71.5207613,66.9693786 71.6146407,66.4208552 C72.906863,58.8592662 71.54147,51.0178748 67.7738691,44.3372476 L66.3284025,41.7733162 L64.1153339,43.7083849 C58.3458929,48.7489825 54.4554204,55.6858644 53.1631981,63.2502237 C51.9676164,70.2646745 53.0803634,77.5035213 56.2474123,83.8392436 C42.159981,100.954282 31.8070167,121.069577 26.0154864,143.180888 C24.1737936,150.211961 22.8608627,157.297055 22.0090453,164.391845 C21.7453546,163.876565 21.4927086,163.35436 21.2014064,162.854317 C17.3454483,156.227711 11.2764217,151.101233 4.11259558,148.414023 L1.361101,147.380693 L0.902748671,150.28953 C-0.2873107,157.870511 1.18024511,165.69251 5.03620315,172.323271 C8.67679081,178.577269 14.3040321,183.469655 20.9515215,186.263523 C21.5244619,212.240816 28.6206396,237.788709 42.0398706,260.847469 C43.6744765,263.656574 45.415387,266.378413 47.2046178,269.061468 C46.7655936,268.881398 46.3348528,268.68332 45.8861646,268.521256 C38.6905852,265.937932 30.7536347,265.91577 23.54563,268.481086 L20.7761879,269.463165 L22.2906835,271.989697 C26.2405209,278.563667 32.3744348,283.612575 39.5713948,286.20144 C43.1885126,287.499335 46.9920086,288.151745 50.7968852,288.151745 C54.1765434,288.151745 57.547918,287.610147 60.7964212,286.583744 C66.3656781,292.78372 72.4236602,298.529365 78.9593227,303.773581 C75.6749245,314.745434 72.1710142,326.641189 72.1130298,326.832341 L76.7145007,328.198109 C76.8056189,327.887833 85.8097572,297.306268 88.4563278,289.082573 C89.643626,285.396662 87.9165213,278.181363 84.507871,264.684362 C80.1217705,247.32138 74.1121087,223.545107 77.5925492,207.991144 C79.9988989,197.243687 86.0085607,190.743131 90.6666353,187.150025 C87.9165213,193.354157 86.1410963,198.423843 86.0278888,198.749356 L90.5548084,200.333979 C90.5989869,200.214855 94.7918063,188.222139 100.238192,178.693623 C102.992447,173.882962 108.129583,170.979666 112.209195,169.332711 C112.205053,169.341022 112.199531,169.349333 112.19677,169.356259 L101.37855,192.250185 L105.710808,194.312688 L116.529028,171.417377 C118.436988,167.379635 121.496352,164.081569 125.379922,161.88332 L129.778447,159.388646 L117.82125,189.70149 L122.27914,191.474495 L134.78857,159.76541 L172.286485,119.84094 C172.711703,120.235711 173.192145,120.789775 173.622885,121.498977 C174.165453,122.388249 175.006226,124.164025 174.518881,126.021524 C173.422701,130.201938 155.818934,151.80905 144.978626,164.448636 L144.538221,164.961145 L133.340342,234.203914 L138.072968,234.974063 L140.19906,221.827509 C146.211483,212.546936 152.704347,206.689094 152.771996,206.629532 L153.324228,206.139185 L153.505083,205.421672 C154.715852,200.623478 158.997028,187.49216 164.178342,184.426801 C165.059152,183.90321 165.843321,183.749457 166.507379,183.928143 L167.638074,184.313217 L149.89901,254.777697 C149.656028,255.734843 149.290175,256.633812 148.819397,257.449671 C146.257042,261.84894 139.584702,272.75569 132.934452,278.955667 L132.38222,279.475102 L132.222073,280.217548 C131.69193,282.710836 119.189404,341.491491 116.756823,359.34759 L121.508777,360 C123.771547,343.376694 135.278675,288.913583 136.755895,281.948998 C143.676739,275.251749 150.361504,264.339458 152.958374,259.873701 C153.658328,258.671382 154.192612,257.358251 154.547421,255.960624" id="Fill-54"></path>
            <path d="M286.471651,109.498569 C286.471651,106.45032 288.95032,103.971651 291.998569,103.971651 C295.046818,103.971651 297.529781,106.45032 297.529781,109.498569 C297.529781,112.548249 295.046818,115.029781 291.998569,115.029781 C288.95032,115.029781 286.471651,112.548249 286.471651,109.498569 M302.5,109.498569 C302.5,103.709759 297.78881,99 291.998569,99 C286.209759,99 281.5,103.709759 281.5,109.498569 C281.5,115.28881 286.209759,120 291.998569,120 C297.78881,120 302.5,115.28881 302.5,109.498569" id="Fill-53"></path>
            <path d="M67.5304579,257.498569 C67.5304579,260.546818 65.0492641,263.028349 62,263.028349 C58.9521668,263.028349 56.470973,260.546818 56.470973,257.498569 C56.470973,254.448889 58.9521668,251.970219 62,251.970219 C65.0492641,251.970219 67.5304579,254.448889 67.5304579,257.498569 M51.5,257.498569 C51.5,263.287379 56.2119787,268 62,268 C67.7894522,268 72.5,263.287379 72.5,257.498569 C72.5,251.708328 67.7894522,247 62,247 C56.2119787,247 51.5,251.708328 51.5,257.498569" id="Fill-55"></path>
            <path d="M90.5293657,86.4985689 C90.5293657,89.5482486 88.0483409,92.0297806 84.9992846,92.0297806 C81.9516591,92.0297806 79.4706343,89.5482486 79.4706343,86.4985689 C79.4706343,83.4503203 81.9516591,80.9716505 84.9992846,80.9716505 C88.0483409,80.9716505 90.5293657,83.4503203 90.5293657,86.4985689 M74.5,86.4985689 C74.5,92.287379 79.2116577,97 84.9992846,97 C90.7883423,97 95.5,92.287379 95.5,86.4985689 C95.5,80.7097588 90.7883423,76 84.9992846,76 C79.2116577,76 74.5,80.7097588 74.5,86.4985689" id="Fill-56"></path>
        </g>
    </g>
</svg>