<svg xmlns="http://www.w3.org/2000/svg" viewBox="0 0 602.99 417.48"><defs><style>.cls-1{fill:#d1a27f;}</style></defs><title>Asset 1</title><g id="Layer_2" data-name="Layer 2"><g id="Layer_1-2" data-name="Layer 1"><path class="cls-1" d="M221.39,79.59c-.13-1.32-.2-2.66-.2-4V35.37a3.22,3.22,0,0,1,3.22-3.22h31.17a3.23,3.23,0,0,1,2.82,4.78A48.5,48.5,0,0,0,256,42.12a3.2,3.2,0,0,1-3,2H236.39a3.22,3.22,0,0,0-3.22,3.22V75.57A31.47,31.47,0,0,0,264.6,107h0a43.14,43.14,0,0,1,9.44,1,42.14,42.14,0,0,1,6.33,1.93l.08,0a3.22,3.22,0,0,1,0,6l-.08,0a43.58,43.58,0,0,1-15.77,3h0a31.18,31.18,0,0,0-14.8,3.72,31.66,31.66,0,0,0-11.21,10.08,3.21,3.21,0,0,1-4.56.72,25.64,25.64,0,0,1-2.92-2.51l-1.53-1.54a3.22,3.22,0,0,1-.36-4.15,43.89,43.89,0,0,1,8.07-8.6c.47-.37.94-.74,1.42-1.1a3.24,3.24,0,0,0,0-5.22c-.48-.36-1-.73-1.42-1.1a43.94,43.94,0,0,1-9.59-10.88,43.32,43.32,0,0,1-6.31-18.82Zm66.05,107.74a43.52,43.52,0,0,0,10.88-9.58c.38-.47.75-.94,1.11-1.42a3.23,3.23,0,0,1,5.22,0c.36.48.72.95,1.1,1.42a43.89,43.89,0,0,0,8.6,8.07,3.23,3.23,0,0,0,4.15-.36l1.54-1.53a27.65,27.65,0,0,0,2.51-2.92,3.23,3.23,0,0,0-.72-4.57,31.67,31.67,0,0,1-10.09-11.2,31.29,31.29,0,0,1-3.71-14.8h0v0a43.91,43.91,0,0,0-3-15.76l0-.08a3.22,3.22,0,0,0-6,0l0,.08a43.33,43.33,0,0,0-3,15.76v0h0a31.18,31.18,0,0,1-3.72,14.8A31.61,31.61,0,0,1,279.65,178a30.77,30.77,0,0,1-5.53,2.36,31.18,31.18,0,0,1-9.51,1.48H236.39a3.22,3.22,0,0,1-3.22-3.22V162a3.19,3.19,0,0,0-2-3,49.57,49.57,0,0,1-5.2-2.38,3.23,3.23,0,0,0-4.77,2.82v31.16a3.23,3.23,0,0,0,3.22,3.23h40.2c1.36,0,2.69-.07,4-.2a42.91,42.91,0,0,0,18.81-6.32Zm-54.27-34a42.73,42.73,0,0,0,6,1.86,43.42,43.42,0,0,0,10,1.16c1.51,0,3-.09,4.52-.24.6-.07,1.19-.14,1.78-.23a3.23,3.23,0,0,1,3.69,3.69c-.08.6-.16,1.19-.22,1.79a44.14,44.14,0,0,0,.37,11.76,3.24,3.24,0,0,0,3.19,2.71h2.17a25.75,25.75,0,0,0,3.85-.29,3.23,3.23,0,0,0,2.71-3.74,31.71,31.71,0,0,1,.79-15,31.23,31.23,0,0,1,7.83-13.08l0,0h0a43.69,43.69,0,0,0,5.93-7.42,44.16,44.16,0,0,0,3.11-5.83l0-.08a3.21,3.21,0,0,0-4.21-4.21l-.08,0a43.13,43.13,0,0,0-5.84,3.11,43.62,43.62,0,0,0-7.41,5.93h0l0,0a31.32,31.32,0,0,1-22.21,9.19,31.73,31.73,0,0,1-8.89-1.27,31,31,0,0,1-5.58-2.25,31.5,31.5,0,0,1-7.77-5.69l-2.08-2.08-4.51-4.51-13.36-13.36a3.22,3.22,0,0,1,0-4.56L218.69,99a3.2,3.2,0,0,0,.69-3.53,47.64,47.64,0,0,1-2-5.35A3.22,3.22,0,0,0,212,88.69l-22,22a3.22,3.22,0,0,0,0,4.56l26.07,26.07,2.35,2.35c1,1,2,1.86,3,2.71A43.18,43.18,0,0,0,233.17,153.38Zm112,8.07c-.06-.61-.14-1.22-.23-1.83a3.24,3.24,0,0,1,3.69-3.69c.6.09,1.19.16,1.79.23,1.5.15,3,.24,4.52.24a44.07,44.07,0,0,0,7.25-.61,3.24,3.24,0,0,0,2.7-3.19v-2.17a25.75,25.75,0,0,0-.29-3.85,3.23,3.23,0,0,0-3.74-2.7,31.43,31.43,0,0,1-5.92.56,31.82,31.82,0,0,1-9.11-1.33,31.39,31.39,0,0,1-13.11-7.86v0h0a43.23,43.23,0,0,0-7.41-5.93,42.54,42.54,0,0,0-5.84-3.11l-.07,0a3.21,3.21,0,0,0-4.21,4.21l0,.08a43,43,0,0,0,3.11,5.83,43.62,43.62,0,0,0,5.92,7.42h0v0a31.28,31.28,0,0,1,7.87,13.12,31.74,31.74,0,0,1,.06,18,31.45,31.45,0,0,1-7.94,13.34l-2.09,2.09-4.5,4.51-13.36,13.36a3.22,3.22,0,0,1-4.56,0L288,196.35a3.18,3.18,0,0,0-3.53-.69,47.64,47.64,0,0,1-5.35,2,3.23,3.23,0,0,0-1.39,5.37l22,22a3.24,3.24,0,0,0,4.56,0L330.39,199l2.35-2.36c1-1,1.86-1.95,2.71-3a43.38,43.38,0,0,0,7-11.78,43.81,43.81,0,0,0,2.78-20.42ZM388,84.65l-2.35-2.35c-1-1-1.95-1.86-3-2.71a42.93,42.93,0,0,0-17.77-8.83,43.78,43.78,0,0,0-14.47-.92c-.6.07-1.19.14-1.79.23A3.24,3.24,0,0,1,345,66.38c.09-.61.17-1.22.23-1.82a43.9,43.9,0,0,0-.37-11.73,3.25,3.25,0,0,0-3.2-2.71h-2.16a25.65,25.65,0,0,0-3.85.29,3.23,3.23,0,0,0-2.72,3.74,31.63,31.63,0,0,1-.78,15,31.05,31.05,0,0,1-7.84,13.1v0h0a43.69,43.69,0,0,0-5.93,7.42,43,43,0,0,0-3.11,5.83l-.05.11a3.22,3.22,0,0,0,4.22,4.21l.1,0a42.36,42.36,0,0,0,5.83-3.11,43.69,43.69,0,0,0,7.41-5.94h0A31.32,31.32,0,0,1,355,81.56a31.79,31.79,0,0,1,8.89,1.27,31.31,31.31,0,0,1,5.58,2.25,31.64,31.64,0,0,1,7.76,5.69l2.09,2.08,4.51,4.51,13.36,13.36a3.24,3.24,0,0,1,0,4.56l-11.77,11.77a3.18,3.18,0,0,0-.69,3.53,49.67,49.67,0,0,1,2,5.35,3.22,3.22,0,0,0,5.37,1.38l22-22a3.22,3.22,0,0,0,0-4.56Zm-8.73,48.5a43.22,43.22,0,0,0-2.92-5.56,43.73,43.73,0,0,0-9.59-10.88c-.46-.37-.93-.74-1.42-1.1a3.23,3.23,0,0,1,0-5.22c.48-.36.95-.73,1.41-1.1a43.94,43.94,0,0,0,8.08-8.6,3.23,3.23,0,0,0-.36-4.15L373,95a26.53,26.53,0,0,0-2.92-2.51,3.23,3.23,0,0,0-4.57.72,31.55,31.55,0,0,1-11.2,10.08,31.18,31.18,0,0,1-14.8,3.72h0a43.46,43.46,0,0,0-15.76,3l-.08,0a3.22,3.22,0,0,0,0,6l.08,0a43.46,43.46,0,0,0,15.76,3h0a31.18,31.18,0,0,1,14.8,3.72,31.66,31.66,0,0,1,12.8,12.69,32.27,32.27,0,0,1,2.36,5.53,31.41,31.41,0,0,1,1.47,9.5v28.22a3.22,3.22,0,0,1-3.22,3.22H351a3.19,3.19,0,0,0-3,2,48.5,48.5,0,0,1-2.38,5.19,3.23,3.23,0,0,0,2.82,4.78h31.16a3.22,3.22,0,0,0,3.22-3.22v-40.2c0-1.36-.07-2.7-.19-4A43,43,0,0,0,379.29,133.15ZM316.63,38.67a43.7,43.7,0,0,0-10.88,9.58c-.38.47-.74.94-1.1,1.42a3.23,3.23,0,0,1-5.22,0c-.36-.48-.73-1-1.1-1.42a43.89,43.89,0,0,0-8.6-8.07,3.25,3.25,0,0,0-4.16.36L284,42.07A25.5,25.5,0,0,0,281.53,45a3.22,3.22,0,0,0,.71,4.57,31.57,31.57,0,0,1,10.09,11.2,31.18,31.18,0,0,1,3.72,14.8h0v0A43.3,43.3,0,0,0,297.1,85,42.86,42.86,0,0,0,299,91.36l0,.07a3.22,3.22,0,0,0,6,0l0-.07A41.67,41.67,0,0,0,307,85,42.7,42.7,0,0,0,308,75.59v0h0a31.29,31.29,0,0,1,3.71-14.8A31.69,31.69,0,0,1,324.43,48a31.4,31.4,0,0,1,15-3.84h28.22a3.22,3.22,0,0,1,3.22,3.22V64a3.19,3.19,0,0,0,2,3,50.55,50.55,0,0,1,5.19,2.38,3.23,3.23,0,0,0,4.78-2.81V35.38a3.23,3.23,0,0,0-3.23-3.23H339.47c-1.36,0-2.7.07-4,.2a43.07,43.07,0,0,0-18.82,6.32Zm-58,21.4a42.49,42.49,0,0,0,.24,4.52c.06.59.13,1.19.22,1.78a3.24,3.24,0,0,1-3.69,3.69c-.59-.08-1.17-.16-1.76-.22a44.14,44.14,0,0,0-11.76.37,3.24,3.24,0,0,0-2.71,3.19v2.17a25.75,25.75,0,0,0,.29,3.85,3.22,3.22,0,0,0,3.73,2.7,31.31,31.31,0,0,1,28.14,8.63l0,0h0a44.08,44.08,0,0,0,7.41,5.94,42.25,42.25,0,0,0,5.82,3.11l.1,0a3.22,3.22,0,0,0,4.22-4.21l0-.11a43,43,0,0,0-3.11-5.83,43.69,43.69,0,0,0-5.93-7.42h0l0,0a31.2,31.2,0,0,1-9.19-22.21,31.34,31.34,0,0,1,3.51-14.47,31.31,31.31,0,0,1,5.7-7.76l2.08-2.09,4.51-4.51,13.36-13.36a3.22,3.22,0,0,1,4.56,0l11.77,11.77a3.18,3.18,0,0,0,3.53.69,46.92,46.92,0,0,1,5.35-2A3.23,3.23,0,0,0,326.35,23l-22-22a3.24,3.24,0,0,0-4.56,0L273.69,27l-2.35,2.36a40,40,0,0,0-2.71,3,43,43,0,0,0-7,11.78,42.45,42.45,0,0,0-1.87,6A43.82,43.82,0,0,0,258.62,60.07Z"/><path class="cls-1" d="M20.56,340.39c-1.43,0-2.14-.55-2.14-1.66v-.29c0-.65.64-1.67,1.95-3.07A6.37,6.37,0,0,0,22.32,331V277.48H14.51a5,5,0,0,0-3.7,1.76,13.34,13.34,0,0,0-2.59,3.9A21,21,0,0,1,6,287c-.85,1.17-1.69,1.75-2.54,1.75H2.13c-1.69,0-2.38-.84-2-2.53l1.75-12.39A2.84,2.84,0,0,1,5,271.14H54.41a2.85,2.85,0,0,1,3.12,2.73l2,12.49a2.12,2.12,0,0,1-.34,1.8,2,2,0,0,1-1.61.63H56.16A3.48,3.48,0,0,1,53.58,287a20.75,20.75,0,0,1-2.3-3.9,13.65,13.65,0,0,0-2.68-3.9,5.17,5.17,0,0,0-3.75-1.76H37V331a6.22,6.22,0,0,0,2,4.34c1.36,1.4,2,2.42,2,3.07v.29c0,1.11-.75,1.66-2.24,1.66Z"/><path class="cls-1" d="M122,331.61a6,6,0,0,0,2,3.81c1.3,1.3,1.95,2.3,1.95,3v.29c0,1.11-.71,1.66-2.14,1.66H106.1c-1.43,0-2.15-.55-2.15-1.66v-.29a4.69,4.69,0,0,1,1.46-2.73,5.15,5.15,0,0,0,1.47-3.42A25,25,0,0,0,104.19,321a15.65,15.65,0,0,0-7.36-7.22h-13V331a6.17,6.17,0,0,0,2.1,4.34c1.39,1.4,2.09,2.42,2.09,3.07v.29c0,1.11-.78,1.66-2.34,1.66H67.38c-1.44,0-2.15-.55-2.15-1.66v-.29c0-.65.62-1.67,1.85-3.07A6.52,6.52,0,0,0,68.94,331V280.5a6.52,6.52,0,0,0-1.86-4.34c-1.23-1.39-1.85-2.42-1.85-3.07v-.39c0-1,.71-1.56,2.15-1.56H91.47q13.55,0,21.55,5.56T121,293a17.36,17.36,0,0,1-3.07,9.65,23.07,23.07,0,0,1-8.44,7.61Q121.21,317.18,122,331.61Zm-28.58-23.5a11.76,11.76,0,0,0,8.92-3.52q3.36-3.51,3.37-9.94,0-8-4.59-12.78a14.29,14.29,0,0,0-10.63-4.78H87.17q-3.32,0-3.31,4.39v19.8q0,6.83,5.46,6.83Z"/><path class="cls-1" d="M133.79,340.39c-1.43,0-2.14-.55-2.14-1.66v-.29c0-.78.71-1.81,2.14-3.07a11.66,11.66,0,0,0,3.13-4.34l19.41-49.84c.45-1.37,0-2.94-1.47-4.73s-2.14-2.91-2.14-3.37v-.39q0-1.56,2-1.56h18.83c1.36,0,2,.52,2,1.56v.39c0,.52-.43,1.17-1.27,2a10.62,10.62,0,0,0-2.1,2.64,3.42,3.42,0,0,0-.15,3.12L193.87,331a11.9,11.9,0,0,0,3.17,4.29c1.47,1.3,2.2,2.34,2.2,3.12v.29c0,1.11-.75,1.66-2.24,1.66H176.22c-1.49,0-2.24-.55-2.24-1.66v-.29a2.75,2.75,0,0,1,1.31-2,13.34,13.34,0,0,0,2.35-2.34A3,3,0,0,0,178,331l-3.12-7.81h-27L144.91,331a3,3,0,0,0,.3,3.07,11.8,11.8,0,0,0,2.29,2.34,2.72,2.72,0,0,1,1.31,2v.29c0,1.11-.74,1.66-2.24,1.66Zm16.29-23.51h22.63L161.1,286.94Z"/><path class="cls-1" d="M268.58,271.14q2.25,0,2.25,1.56v.39c0,.65-.7,1.68-2.1,3.07a6.17,6.17,0,0,0-2.1,4.34v56a3.93,3.93,0,0,1-1,2.88,3.76,3.76,0,0,1-2.78,1h-4.58q-2.34,0-4.49-3l-37-49.45v42.91a6.37,6.37,0,0,0,2.2,4.44c1.46,1.46,2.19,2.52,2.19,3.17v.29c0,1.11-.74,1.66-2.24,1.66H207.63c-1.5,0-2.25-.55-2.25-1.66v-.29c0-.65.65-1.71,2-3.17a6.69,6.69,0,0,0,1.95-4.44V280.6a6.46,6.46,0,0,0-1.95-4.44c-1.3-1.39-2-2.42-2-3.07v-.39q0-1.56,2.25-1.56h20.09c1.36,0,2.05.52,2.05,1.56v.39q0,.59-1.17,1.86a7,7,0,0,0-1.56,2.34c-.27.71,0,1.82.87,3.31l31.21,42.23V280.5a6.19,6.19,0,0,0-2.09-4.34c-1.4-1.39-2.1-2.42-2.1-3.07v-.39c0-1,.75-1.56,2.24-1.56Z"/><path class="cls-1" d="M304.38,341.37q-13,0-20.92-5.52t-7.95-12a6.23,6.23,0,0,1,1.46-4.34,5.66,5.66,0,0,1,4.39-1.61,6.65,6.65,0,0,1,4.54,1.95,18.41,18.41,0,0,1,3.31,4.49q1.41,2.63,3.08,5.21a13.7,13.7,0,0,0,4.87,4.44,15.37,15.37,0,0,0,7.8,1.86,12.1,12.1,0,0,0,8.25-2.69,9,9,0,0,0,3.07-7.16,10.67,10.67,0,0,0-2.2-6.93,13.89,13.89,0,0,0-5.65-4.15,54.36,54.36,0,0,0-7.66-2.43c-2.8-.69-5.59-1.48-8.39-2.39a37.75,37.75,0,0,1-7.7-3.47,15.52,15.52,0,0,1-5.71-6.14,20.58,20.58,0,0,1-2.19-9.9,18,18,0,0,1,7-14.63q7-5.66,18.87-5.66,11.72,0,19.46,5.22t7.66,11.66q0,6-6.24,6a6.74,6.74,0,0,1-4.83-1.8,14.56,14.56,0,0,1-3.12-4.34q-1.23-2.54-2.59-5.07a12.19,12.19,0,0,0-4-4.34,11.47,11.47,0,0,0-6.58-1.81c-3.58,0-6.31.95-8.19,2.83a9.77,9.77,0,0,0-2.83,7.22,11.1,11.1,0,0,0,2.19,7,13.78,13.78,0,0,0,5.66,4.29,58.14,58.14,0,0,0,7.66,2.59q4.19,1.13,8.39,2.53a40.59,40.59,0,0,1,7.65,3.47,15.4,15.4,0,0,1,5.66,6,19.87,19.87,0,0,1,2.19,9.66,16.87,16.87,0,0,1-7.6,14.53Q315.49,341.37,304.38,341.37Z"/><path class="cls-1" d="M369.24,341.37q-13.56,0-23.36-11.08a37.15,37.15,0,0,1-9.8-25.4q0-15.12,9-24.87t23.36-9.76A33.57,33.57,0,0,1,388,276q8.3,5.7,8.29,12.73a6.3,6.3,0,0,1-1.85,4.73,7,7,0,0,1-5.07,1.8,7.66,7.66,0,0,1-5.17-2,19.14,19.14,0,0,1-3.9-4.73q-1.67-2.78-3.46-5.61a16.31,16.31,0,0,0-4.73-4.78,11.87,11.87,0,0,0-6.73-2q-6.15,0-10.54,5.51t-4.39,14.39q0,14,7,23t16.24,9.07q11.5,0,18.43-12.29a2.54,2.54,0,0,1,3-1.12,2.24,2.24,0,0,1,1.66,2.68,26.09,26.09,0,0,1-8,17Q381.63,341.37,369.24,341.37Z"/><path class="cls-1" d="M405.91,340.39c-1.5,0-2.24-.55-2.24-1.66v-.29c0-.65.63-1.67,1.9-3.07a6.53,6.53,0,0,0,1.9-4.44V280.6a6.44,6.44,0,0,0-1.9-4.48c-1.27-1.37-1.9-2.38-1.9-3v-.39c0-1,.71-1.56,2.14-1.56h43.5a2.79,2.79,0,0,1,3,2.73l2.34,11.41c.32,1.69-.33,2.54-1.95,2.54h-.59a4.77,4.77,0,0,1-3.17-1.71,23.25,23.25,0,0,1-3-3.7,17.71,17.71,0,0,0-3.32-3.71,6.31,6.31,0,0,0-4.14-1.71H426q-3.9,0-3.9,4.2v21h12.58a4.14,4.14,0,0,0,2.88-1.12,7.55,7.55,0,0,0,1.8-2.44,13.08,13.08,0,0,1,1.42-2.44c.55-.75,1.09-1.12,1.61-1.12h.78c1.1,0,1.66.68,1.66,2v15.71c0,1.36-.56,2-1.66,2h-.78a2.21,2.21,0,0,1-1.61-1.08,12.51,12.51,0,0,1-1.42-2.29,7.39,7.39,0,0,0-1.8-2.29,4.18,4.18,0,0,0-2.88-1.07H422.1l-.1,20.38a7.2,7.2,0,0,0,1.27,4.24,4.44,4.44,0,0,0,3.9,1.81h14.34a5.92,5.92,0,0,0,4.05-1.76,14.32,14.32,0,0,0,3-3.9,17.3,17.3,0,0,1,2.78-3.9,4.7,4.7,0,0,1,3.32-1.76h.78a1.61,1.61,0,0,1,1.46.78,2.33,2.33,0,0,1,.29,1.76l-2.14,11.8c-.39,1.89-1.43,2.83-3.12,2.83Z"/><path class="cls-1" d="M526.75,271.14q2.25,0,2.25,1.56v.39c0,.65-.7,1.68-2.1,3.07a6.17,6.17,0,0,0-2.1,4.34v56a3.93,3.93,0,0,1-1,2.88,3.78,3.78,0,0,1-2.78,1h-4.59q-2.34,0-4.48-3l-37-49.45v42.91a6.33,6.33,0,0,0,2.2,4.44c1.46,1.46,2.19,2.52,2.19,3.17v.29c0,1.11-.75,1.66-2.24,1.66H465.79c-1.49,0-2.24-.55-2.24-1.66v-.29c0-.65.65-1.71,1.95-3.17a6.69,6.69,0,0,0,1.95-4.44V280.6a6.46,6.46,0,0,0-1.95-4.44c-1.3-1.39-1.95-2.42-1.95-3.07v-.39c0-1,.75-1.56,2.24-1.56h20.1q2,0,2,1.56v.39q0,.59-1.17,1.86a7.19,7.19,0,0,0-1.56,2.34c-.26.71,0,1.82.88,3.31l31.21,42.23V280.5a6.17,6.17,0,0,0-2.1-4.34c-1.39-1.39-2.09-2.42-2.09-3.07v-.39c0-1,.74-1.56,2.24-1.56Z"/><path class="cls-1" d="M537.67,340.39c-1.49,0-2.24-.55-2.24-1.66v-.29c0-.65.64-1.67,1.9-3.07a6.45,6.45,0,0,0,1.91-4.34V280.5a6.45,6.45,0,0,0-1.91-4.34c-1.26-1.39-1.9-2.42-1.9-3.07v-.39c0-1,.75-1.56,2.24-1.56h22.24q19.13,0,30.63,9.75a31.29,31.29,0,0,1,11.51,25q0,15.61-10.39,25.07t-27.16,9.46ZM561,334.44h5q9.16,0,15-5.95t5.8-16.38q0-14.53-7.85-24.78t-19.36-10.24h-1.85q-3.9,0-3.9,4.1v44.86a9.18,9.18,0,0,0,1.9,6.2A6.67,6.67,0,0,0,561,334.44Z"/><path class="cls-1" d="M1.68,417.21c-.4,0-.6-.13-.6-.4v-.08c0-.15.18-.38.52-.69A1.43,1.43,0,0,0,2.11,415V400.28a1.43,1.43,0,0,0-.51-1c-.34-.33-.52-.56-.52-.7v-.11c0-.25.2-.38.6-.38H7.27a11.17,11.17,0,0,1,6.15,1.53,5.18,5.18,0,0,1,2.38,4.71,5.94,5.94,0,0,1-2.09,4.82A8.72,8.72,0,0,1,8,410.84H5.38V415A1.38,1.38,0,0,0,5.93,416c.37.31.56.54.56.69v.08c0,.27-.19.4-.57.4Zm4.75-7.72H8a4.4,4.4,0,0,0,3.28-1.22,4.37,4.37,0,0,0,1.2-3.21,5.58,5.58,0,0,0-1.52-4.18,5.08,5.08,0,0,0-3.66-1.49H6.16c-.52,0-.78.34-.78,1v8A.94.94,0,0,0,6.43,409.49Z"/><path class="cls-1" d="M33.46,415a3.08,3.08,0,0,0,.79.82l.75.53a.54.54,0,0,1,.27.43v.08c0,.26-.19.38-.57.38H30c-.38,0-.57-.12-.57-.38v-.08a.72.72,0,0,1,.3-.48,2.11,2.11,0,0,0,.42-.49q.12-.21-.15-.81l-3.43-5.13h-.24l-3.21.05V415a1.38,1.38,0,0,0,.55,1.07c.37.31.55.55.55.71v.08c0,.26-.19.38-.59.38H19.39c-.38,0-.57-.12-.57-.38v-.08c0-.16.17-.4.5-.71a1.42,1.42,0,0,0,.5-1.07V400.28a1.4,1.4,0,0,0-.5-1.06c-.33-.32-.5-.56-.5-.72v-.08c0-.25.19-.38.57-.38h6.1a10.25,10.25,0,0,1,5.92,1.53,5.45,5.45,0,0,1,1.2,7.61,6.19,6.19,0,0,1-3,2.12ZM26,408.49a4.6,4.6,0,0,0,3.16-1.05,3.81,3.81,0,0,0,1.19-3,4.73,4.73,0,0,0-1.47-3.7,5.14,5.14,0,0,0-3.55-1.32H23.93q-.81,0-.81,1.08V407c0,1,.44,1.54,1.32,1.54Z"/><path class="cls-1" d="M46.69,417.48a9,9,0,0,1-6.89-2.9,10.53,10.53,0,0,1,0-14,9,9,0,0,1,6.8-2.78,8.7,8.7,0,0,1,6.77,2.93,10.18,10.18,0,0,1,2.63,7,9.67,9.67,0,0,1-2.67,6.94A8.73,8.73,0,0,1,46.69,417.48Zm.86-1.46a4.64,4.64,0,0,0,3.73-1.73,6.26,6.26,0,0,0,1.46-4.18,13.87,13.87,0,0,0-2.06-7.74,6.1,6.1,0,0,0-5.26-3.14,4.6,4.6,0,0,0-3.7,1.66,6.42,6.42,0,0,0-1.4,4.31,13.87,13.87,0,0,0,2,7.69A6,6,0,0,0,47.55,416Z"/><path class="cls-1" d="M59.92,417.21c-.4,0-.6-.12-.6-.38v-.08c0-.16.17-.4.52-.71a1.43,1.43,0,0,0,.51-1.07V400.28a1.41,1.41,0,0,0-.51-1.06c-.35-.32-.52-.56-.52-.72v-.08c0-.25.18-.38.54-.38h11.8c.42,0,.67.23.76.7l.65,2.92c.09.41-.07.62-.46.62H72.5c-.29,0-.61-.24-1-.72s-.75-.95-1.16-1.43a1.78,1.78,0,0,0-1.3-.71H64.56c-.61,0-.92.33-.92,1v7.12h4.24c.38,0,.75-.29,1.11-.89s.63-.89.81-.89H70c.27,0,.4.17.4.52v3.83c0,.34-.13.51-.4.51H69.8c-.18,0-.45-.28-.81-.85s-.73-.85-1.11-.85H63.64V415A1.4,1.4,0,0,0,64.2,416c.36.31.55.55.55.71v.08c0,.26-.2.38-.59.38Z"/><path class="cls-1" d="M76.58,417.21c-.4,0-.6-.12-.6-.38v-.08c0-.16.17-.4.52-.71a1.46,1.46,0,0,0,.51-1.1V400.31a1.51,1.51,0,0,0-.51-1.11c-.35-.32-.52-.56-.52-.7v-.08c0-.25.18-.38.54-.38H88.27a.7.7,0,0,1,.75.68l.65,2.91c.09.42,0,.62-.43.62H89.1a1.17,1.17,0,0,1-.77-.44,6.13,6.13,0,0,1-.75-1,4.59,4.59,0,0,0-.84-1,1.54,1.54,0,0,0-1-.45H81.17c-.62,0-.92.35-.92,1.05v6.29h4.16a1,1,0,0,0,.7-.28,1.93,1.93,0,0,0,.44-.61,4.48,4.48,0,0,1,.35-.6c.14-.19.27-.29.4-.29h.16c.27,0,.4.17.4.52v3.83c0,.34-.13.51-.4.51H86.3c-.13,0-.26-.09-.4-.27a3.72,3.72,0,0,1-.35-.58,1.94,1.94,0,0,0-.44-.58,1,1,0,0,0-.7-.27H80.25l0,6.32a1.62,1.62,0,0,0,.31,1,1.06,1.06,0,0,0,.91.42h5.1a1.45,1.45,0,0,0,1-.46,3.84,3.84,0,0,0,.79-1,5.33,5.33,0,0,1,.7-1,1.09,1.09,0,0,1,.78-.46H90a.37.37,0,0,1,.34.19.58.58,0,0,1,.07.43l-.62,3a.77.77,0,0,1-.79.7Z"/><path class="cls-1" d="M100.66,417.48a9.39,9.39,0,0,1-5.72-1.55c-1.39-1-2.08-2.12-2.08-3.26a1.39,1.39,0,0,1,.35-1,1.19,1.19,0,0,1,1-.37,1.61,1.61,0,0,1,1,.4,2.58,2.58,0,0,1,.69.9,10.69,10.69,0,0,0,.64,1.16,9.23,9.23,0,0,0,.87,1.16,3.35,3.35,0,0,0,1.35.89,5.38,5.38,0,0,0,2.06.36,3.93,3.93,0,0,0,2.68-.9,3,3,0,0,0,1-2.35,3.25,3.25,0,0,0-.62-2.05,3.58,3.58,0,0,0-1.6-1.18,13.82,13.82,0,0,0-2.19-.64c-.8-.17-1.6-.37-2.4-.59a10.54,10.54,0,0,1-2.19-.88A4.13,4.13,0,0,1,93.88,406a5.59,5.59,0,0,1-.62-2.75,4.81,4.81,0,0,1,1.86-3.88,7.9,7.9,0,0,1,5.11-1.52,8.88,8.88,0,0,1,5.25,1.42,3.82,3.82,0,0,1,2,3.11,1.23,1.23,0,0,1-1.4,1.38,1.52,1.52,0,0,1-1-.34,2.11,2.11,0,0,1-.64-.85c-.14-.34-.33-.71-.55-1.12a10.3,10.3,0,0,0-.73-1.12,2.94,2.94,0,0,0-1.16-.85,4.58,4.58,0,0,0-1.82-.34,3.65,3.65,0,0,0-2.65.92,3.07,3.07,0,0,0-.94,2.3,3,3,0,0,0,.62,1.95,3.67,3.67,0,0,0,1.6,1.15,17.82,17.82,0,0,0,2.19.66c.8.19,1.6.41,2.4.65a10.31,10.31,0,0,1,2.19.93,4.35,4.35,0,0,1,1.61,1.68,5.53,5.53,0,0,1,.62,2.72,4.62,4.62,0,0,1-2.08,4A8.53,8.53,0,0,1,100.66,417.48Z"/><path class="cls-1" d="M118.32,417.48a9.44,9.44,0,0,1-5.73-1.55c-1.38-1-2.08-2.12-2.08-3.26a1.39,1.39,0,0,1,.36-1,1.18,1.18,0,0,1,1-.37,1.61,1.61,0,0,1,1,.4,2.84,2.84,0,0,1,.69.9,10.69,10.69,0,0,0,.64,1.16,8.36,8.36,0,0,0,.87,1.16,3.35,3.35,0,0,0,1.35.89,5.38,5.38,0,0,0,2.06.36,3.93,3.93,0,0,0,2.68-.9,3,3,0,0,0,1-2.35,3.31,3.31,0,0,0-.62-2.05,3.55,3.55,0,0,0-1.61-1.18,13.38,13.38,0,0,0-2.18-.64c-.8-.17-1.61-.37-2.41-.59a10.45,10.45,0,0,1-2.18-.88,4.13,4.13,0,0,1-1.61-1.65,5.59,5.59,0,0,1-.62-2.75,4.81,4.81,0,0,1,1.86-3.88,7.88,7.88,0,0,1,5.11-1.52,8.88,8.88,0,0,1,5.25,1.42,3.82,3.82,0,0,1,2,3.11,1.23,1.23,0,0,1-1.4,1.38,1.51,1.51,0,0,1-1-.34,2,2,0,0,1-.64-.85c-.14-.34-.33-.71-.55-1.12a10.3,10.3,0,0,0-.73-1.12,2.94,2.94,0,0,0-1.16-.85,4.63,4.63,0,0,0-1.83-.34,3.64,3.64,0,0,0-2.64.92,3.08,3.08,0,0,0-1,2.3,3,3,0,0,0,.62,1.95,3.7,3.7,0,0,0,1.61,1.15,17.82,17.82,0,0,0,2.19.66c.8.19,1.6.41,2.4.65a10.31,10.31,0,0,1,2.19.93,4.42,4.42,0,0,1,1.61,1.68,5.53,5.53,0,0,1,.62,2.72,4.62,4.62,0,0,1-2.08,4A8.53,8.53,0,0,1,118.32,417.48Z"/><path class="cls-1" d="M128.79,416.83v-.08c0-.14.17-.37.5-.69a1.44,1.44,0,0,0,.5-1.06V400.28a1.44,1.44,0,0,0-.5-1.06c-.33-.32-.5-.56-.5-.72v-.08c0-.25.19-.38.57-.38h4.21c.38,0,.57.13.57.38v.08q0,.24-.54.72a1.38,1.38,0,0,0-.54,1.06V415a1.38,1.38,0,0,0,.54,1.06q.54.48.54.69v.08c0,.26-.19.38-.57.38h-4.21C129,417.21,128.79,417.09,128.79,416.83Z"/><path class="cls-1" d="M147.07,417.48a9,9,0,0,1-6.88-2.9,10.55,10.55,0,0,1-.06-14,9,9,0,0,1,6.81-2.78,8.68,8.68,0,0,1,6.76,2.93,10.13,10.13,0,0,1,2.63,7,9.67,9.67,0,0,1-2.67,6.94A8.71,8.71,0,0,1,147.07,417.48Zm.87-1.46a4.62,4.62,0,0,0,3.72-1.73,6.26,6.26,0,0,0,1.46-4.18,13.87,13.87,0,0,0-2.05-7.74,6.12,6.12,0,0,0-5.27-3.14,4.6,4.6,0,0,0-3.7,1.66,6.47,6.47,0,0,0-1.4,4.31,13.87,13.87,0,0,0,2,7.69A6,6,0,0,0,147.94,416Z"/><path class="cls-1" d="M176.77,398c.4,0,.6.14.6.41v.08q0,.21-.57.69a1.36,1.36,0,0,0-.57,1.06v16c0,.62-.29.92-.86.92h-1c-.31,0-.64-.25-1-.75L162.46,401.6v13.32a1.42,1.42,0,0,0,.6,1.09c.39.33.59.58.59.74v.08c0,.26-.2.38-.59.38h-2.79c-.39,0-.59-.12-.59-.38v-.08c0-.16.18-.41.53-.74a1.48,1.48,0,0,0,.52-1.09V400.31a1.34,1.34,0,0,0-.52-1.05c-.35-.31-.53-.54-.53-.71v-.1c0-.27.2-.41.59-.41H163a1.35,1.35,0,0,1,1.13.65l10.42,14.5V400.28a1.38,1.38,0,0,0-.56-1.06q-.57-.48-.57-.69v-.08c0-.27.2-.41.59-.41Z"/><path class="cls-1" d="M196.67,415a2.53,2.53,0,0,0,.81,1c.38.31.57.55.57.73v.08c0,.26-.19.38-.57.38h-4.81c-.37,0-.56-.12-.56-.38v-.08c0-.14.11-.29.34-.46a3.08,3.08,0,0,0,.59-.55.72.72,0,0,0,.07-.77l-1.06-2.67H183.9l-1,2.67a.72.72,0,0,0,.07.77,3.08,3.08,0,0,0,.59.55c.23.17.34.32.34.46v.08c0,.26-.2.38-.59.38h-3.06c-.37,0-.56-.12-.56-.38v-.08c0-.18.19-.42.56-.71a2.64,2.64,0,0,0,.82-1.07l5.67-14.55a1.16,1.16,0,0,0-.36-1.14q-.54-.61-.54-.78v-.08c0-.25.16-.38.46-.38h2.14a1.45,1.45,0,0,1,1.45,1Zm-12.23-4.13h7.05l-3.62-9.24Z"/><path class="cls-1" d="M201.07,417.21c-.38,0-.57-.12-.57-.38v-.08c0-.16.17-.4.5-.71a1.42,1.42,0,0,0,.5-1.07V400.28a1.4,1.4,0,0,0-.5-1.06c-.33-.32-.5-.56-.5-.72v-.08c0-.25.19-.38.57-.38h4.24c.4,0,.6.13.6.38v.08c0,.16-.19.4-.56.72a1.37,1.37,0,0,0-.55,1.06v14.28a1.52,1.52,0,0,0,.25.92.86.86,0,0,0,.75.35h4.94a1.52,1.52,0,0,0,1.12-.5,3.56,3.56,0,0,0,.77-1.12,6.34,6.34,0,0,1,.62-1.12c.23-.33.47-.5.7-.5h.27c.34,0,.47.18.38.54l-.68,3.38a.76.76,0,0,1-.78.7Z"/><path class="cls-1" d="M224.13,417.21c-.38,0-.57-.12-.57-.38v-.08c0-.16.17-.4.5-.71a1.46,1.46,0,0,0,.5-1.07V400.28a1.44,1.44,0,0,0-.5-1.06c-.33-.32-.5-.56-.5-.72v-.08c0-.25.19-.38.57-.38h4.24c.39,0,.59.13.59.38v.08c0,.16-.18.4-.55.72a1.37,1.37,0,0,0-.55,1.06v14.28a1.52,1.52,0,0,0,.25.92.85.85,0,0,0,.74.35h5a1.54,1.54,0,0,0,1.12-.5,3.73,3.73,0,0,0,.77-1.12,6.34,6.34,0,0,1,.62-1.12c.23-.33.46-.5.7-.5h.27c.34,0,.47.18.38.54l-.68,3.38a.77.77,0,0,1-.78.7Z"/><path class="cls-1" d="M240.46,416.83v-.08c0-.14.17-.37.5-.69a1.4,1.4,0,0,0,.5-1.06V400.28a1.4,1.4,0,0,0-.5-1.06c-.33-.32-.5-.56-.5-.72v-.08c0-.25.19-.38.57-.38h4.21c.38,0,.57.13.57.38v.08q0,.24-.54.72a1.38,1.38,0,0,0-.54,1.06V415a1.38,1.38,0,0,0,.54,1.06q.54.48.54.69v.08c0,.26-.19.38-.57.38H241C240.65,417.21,240.46,417.09,240.46,416.83Z"/><path class="cls-1" d="M250.35,417.21c-.4,0-.6-.12-.6-.38v-.08c0-.16.17-.4.52-.71a1.43,1.43,0,0,0,.51-1.07V400.28a1.41,1.41,0,0,0-.51-1.06c-.35-.32-.52-.56-.52-.72v-.08c0-.25.18-.38.54-.38h11.8a.74.74,0,0,1,.76.7l.65,2.92c.08.41-.07.62-.46.62h-.11c-.29,0-.61-.24-1-.72s-.75-.95-1.17-1.43a1.74,1.74,0,0,0-1.29-.71H255c-.61,0-.92.33-.92,1v7.12h4.24c.38,0,.75-.29,1.11-.89s.63-.89.81-.89h.19c.27,0,.4.17.4.52v3.83c0,.34-.13.51-.4.51h-.19c-.18,0-.45-.28-.81-.85s-.73-.85-1.11-.85h-4.24V415a1.4,1.4,0,0,0,.56,1.07c.36.31.55.55.55.71v.08c0,.26-.2.38-.6.38Z"/><path class="cls-1" d="M267,417.21c-.4,0-.6-.12-.6-.38v-.08c0-.16.17-.4.51-.71a1.44,1.44,0,0,0,.52-1.1V400.31a1.49,1.49,0,0,0-.52-1.11c-.34-.32-.51-.56-.51-.7v-.08c0-.25.18-.38.54-.38H278.7a.7.7,0,0,1,.75.68l.65,2.91c.09.42-.05.62-.43.62h-.14a1.17,1.17,0,0,1-.77-.44,6.13,6.13,0,0,1-.75-1,4.59,4.59,0,0,0-.84-1,1.54,1.54,0,0,0-1-.45H271.6c-.62,0-.92.35-.92,1.05v6.29h4.16a1,1,0,0,0,.7-.28,1.93,1.93,0,0,0,.44-.61,4.48,4.48,0,0,1,.35-.6c.14-.19.27-.29.4-.29h.16c.27,0,.4.17.4.52v3.83c0,.34-.13.51-.4.51h-.16c-.13,0-.26-.09-.4-.27A3.72,3.72,0,0,1,276,409a1.94,1.94,0,0,0-.44-.58,1,1,0,0,0-.7-.27h-4.16l0,6.32a1.62,1.62,0,0,0,.31,1,1.06,1.06,0,0,0,.91.42H277a1.45,1.45,0,0,0,1-.46,3.84,3.84,0,0,0,.79-1,5.33,5.33,0,0,1,.7-1,1.09,1.09,0,0,1,.78-.46h.19a.37.37,0,0,1,.34.19.58.58,0,0,1,.07.43l-.62,3a.77.77,0,0,1-.79.7Z"/><path class="cls-1" d="M305.53,415a2.71,2.71,0,0,0,.81,1c.38.31.57.55.57.73v.08c0,.26-.19.38-.57.38h-4.8c-.38,0-.57-.12-.57-.38v-.08c0-.14.11-.29.34-.46a3.08,3.08,0,0,0,.59-.55A.7.7,0,0,0,302,415l-1.05-2.67h-8.16l-1,2.67a.72.72,0,0,0,.07.77,2.87,2.87,0,0,0,.6.55c.22.17.33.32.33.46v.08c0,.26-.19.38-.59.38h-3.05c-.38,0-.57-.12-.57-.38v-.08c0-.18.19-.42.57-.71a2.53,2.53,0,0,0,.81-1.07l5.67-14.55a1.15,1.15,0,0,0-.35-1.14q-.54-.61-.54-.78v-.08c0-.25.15-.38.46-.38h2.13a1.46,1.46,0,0,1,1.46,1Zm-12.23-4.13h7.05l-3.62-9.24Z"/><path class="cls-1" d="M326.4,398c.4,0,.6.14.6.41v.08q0,.21-.57.69a1.36,1.36,0,0,0-.57,1.06v16c0,.62-.28.92-.86.92h-1c-.31,0-.64-.25-1-.75L312.09,401.6v13.32a1.42,1.42,0,0,0,.6,1.09c.39.33.59.58.59.74v.08c0,.26-.2.38-.59.38h-2.78c-.4,0-.6-.12-.6-.38v-.08c0-.16.18-.41.53-.74a1.49,1.49,0,0,0,.53-1.09V400.31a1.35,1.35,0,0,0-.53-1.05c-.35-.31-.53-.54-.53-.71v-.1c0-.27.2-.41.6-.41h2.67a1.35,1.35,0,0,1,1.13.65l10.43,14.5V400.28a1.36,1.36,0,0,0-.57-1.06q-.57-.48-.57-.69v-.08c0-.27.2-.41.6-.41Z"/><path class="cls-1" d="M331.35,417.21c-.4,0-.6-.12-.6-.38v-.08c0-.16.17-.4.51-.71a1.41,1.41,0,0,0,.52-1.07V400.28a1.39,1.39,0,0,0-.52-1.06q-.51-.48-.51-.72v-.08c0-.25.2-.38.6-.38h5.94a12.21,12.21,0,0,1,8.16,2.71,8.53,8.53,0,0,1,3.2,6.79,9.13,9.13,0,0,1-2.85,7,10.35,10.35,0,0,1-7.3,2.63Zm5.26-1.38h1.7a6.63,6.63,0,0,0,7-7.07,9.38,9.38,0,0,0-2.48-6.68,8.07,8.07,0,0,0-6.16-2.66h-.75c-.61,0-.92.33-.92,1v13.5a2.07,2.07,0,0,0,.43,1.41A1.48,1.48,0,0,0,336.61,415.83Z"/><path class="cls-1" d="M369.69,406.9a6.85,6.85,0,0,1,3.92,1.66,4.29,4.29,0,0,1,1.39,3.28,4.52,4.52,0,0,1-2.14,3.9,9.84,9.84,0,0,1-5.66,1.47h-7.64c-.38,0-.57-.12-.57-.38v-.1c0-.15.17-.38.5-.69A1.42,1.42,0,0,0,360,415V400.28a1.4,1.4,0,0,0-.5-1.06c-.33-.32-.5-.56-.5-.72v-.08c0-.25.19-.38.57-.38h6.56a8.76,8.76,0,0,1,5.18,1.34,4.08,4.08,0,0,1,1.87,3.47,3.82,3.82,0,0,1-.93,2.6A4.68,4.68,0,0,1,369.69,406.9Zm-6.43-6.4v4.72a1.1,1.1,0,0,0,1.19,1.16h2.43a3.47,3.47,0,0,0,2.44-.85,2.8,2.8,0,0,0,.93-2.17,3.75,3.75,0,0,0-1.13-2.9,4.4,4.4,0,0,0-3.11-1h-1.78C363.58,399.42,363.26,399.78,363.26,400.5Zm3.67,15.33q4.72,0,4.73-3.48a4.22,4.22,0,0,0-1.54-3.25,6.18,6.18,0,0,0-4.24-1.37h-2.62v6.48a1.71,1.71,0,0,0,.4,1.17,1.37,1.37,0,0,0,1.06.45Z"/><path class="cls-1" d="M386.67,417.48a7.88,7.88,0,0,1-5.67-2.05,7.34,7.34,0,0,1-2.16-5.59v-9.56a1.41,1.41,0,0,0-.51-1.06c-.35-.32-.52-.55-.52-.69v-.11c0-.25.2-.38.6-.38h4.24c.37,0,.56.13.56.38v.11q0,.21-.54.69a1.38,1.38,0,0,0-.54,1.06v9.56a6.76,6.76,0,0,0,1.41,4.54,4.74,4.74,0,0,0,3.8,1.64,4.51,4.51,0,0,0,3.47-1.58,6.54,6.54,0,0,0,1.45-4.6v-9.56a1.4,1.4,0,0,0-.53-1.06c-.35-.32-.53-.55-.53-.69v-.11c0-.25.2-.38.6-.38h2.73c.39,0,.59.13.59.38v.11q0,.21-.57.69a1.35,1.35,0,0,0-.56,1.06v9.59a7.61,7.61,0,0,1-2,5.56A7.08,7.08,0,0,1,386.67,417.48Z"/><path class="cls-1" d="M405.86,417.48a9.41,9.41,0,0,1-5.72-1.55c-1.39-1-2.08-2.12-2.08-3.26a1.43,1.43,0,0,1,.35-1,1.2,1.2,0,0,1,1-.37,1.59,1.59,0,0,1,1,.4,2.58,2.58,0,0,1,.69.9,10.88,10.88,0,0,0,.65,1.16,9.17,9.17,0,0,0,.86,1.16,3.5,3.5,0,0,0,1.35.89,5.47,5.47,0,0,0,2.07.36,3.89,3.89,0,0,0,2.67-.9,2.93,2.93,0,0,0,1-2.35,3.31,3.31,0,0,0-.62-2.05,3.6,3.6,0,0,0-1.61-1.18,13.82,13.82,0,0,0-2.19-.64c-.8-.17-1.6-.37-2.4-.59a10.77,10.77,0,0,1-2.19-.88,4.11,4.11,0,0,1-1.6-1.65,5.49,5.49,0,0,1-.62-2.75,4.81,4.81,0,0,1,1.86-3.88,7.85,7.85,0,0,1,5.1-1.52,8.88,8.88,0,0,1,5.25,1.42,3.83,3.83,0,0,1,2,3.11,1.23,1.23,0,0,1-1.41,1.38,1.54,1.54,0,0,1-1-.34,2,2,0,0,1-.63-.85c-.15-.34-.33-.71-.56-1.12a8,8,0,0,0-.73-1.12,2.87,2.87,0,0,0-1.16-.85,4.58,4.58,0,0,0-1.82-.34,3.64,3.64,0,0,0-2.64.92,3.08,3.08,0,0,0-.95,2.3,3,3,0,0,0,.62,1.95,3.7,3.7,0,0,0,1.61,1.15,17.13,17.13,0,0,0,2.18.66c.81.19,1.61.41,2.41.65a10,10,0,0,1,2.18.93,4.28,4.28,0,0,1,1.61,1.68,5.42,5.42,0,0,1,.62,2.72,4.6,4.6,0,0,1-2.08,4A8.51,8.51,0,0,1,405.86,417.48Z"/><path class="cls-1" d="M416.34,416.83v-.08c0-.14.17-.37.5-.69a1.44,1.44,0,0,0,.5-1.06V400.28a1.44,1.44,0,0,0-.5-1.06c-.33-.32-.5-.56-.5-.72v-.08c0-.25.19-.38.57-.38h4.21c.38,0,.57.13.57.38v.08q0,.24-.54.72a1.38,1.38,0,0,0-.54,1.06V415a1.38,1.38,0,0,0,.54,1.06q.54.48.54.69v.08c0,.26-.19.38-.57.38h-4.21C416.53,417.21,416.34,417.09,416.34,416.83Z"/><path class="cls-1" d="M442.69,398c.4,0,.6.14.6.41v.08q0,.21-.57.69a1.36,1.36,0,0,0-.57,1.06v16c0,.62-.29.92-.86.92h-1c-.31,0-.64-.25-1-.75L428.38,401.6v13.32A1.42,1.42,0,0,0,429,416c.39.33.59.58.59.74v.08c0,.26-.2.38-.59.38H426.2c-.4,0-.6-.12-.6-.38v-.08c0-.16.18-.41.53-.74a1.48,1.48,0,0,0,.52-1.09V400.31a1.34,1.34,0,0,0-.52-1.05c-.35-.31-.53-.54-.53-.71v-.1c0-.27.2-.41.6-.41h2.67a1.35,1.35,0,0,1,1.13.65l10.42,14.5V400.28a1.35,1.35,0,0,0-.56-1.06q-.57-.48-.57-.69v-.08c0-.27.2-.41.59-.41Z"/><path class="cls-1" d="M447.63,417.21c-.39,0-.59-.12-.59-.38v-.08c0-.16.17-.4.51-.71a1.47,1.47,0,0,0,.52-1.1V400.31a1.53,1.53,0,0,0-.52-1.11c-.34-.32-.51-.56-.51-.7v-.08c0-.25.18-.38.54-.38h11.74a.7.7,0,0,1,.76.68l.65,2.91c.09.42-.06.62-.43.62h-.14a1.17,1.17,0,0,1-.77-.44,6.13,6.13,0,0,1-.75-1,4.59,4.59,0,0,0-.84-1,1.54,1.54,0,0,0-1-.45h-4.54c-.61,0-.91.35-.91,1.05v6.29h4.15a1,1,0,0,0,.71-.28,2.1,2.1,0,0,0,.44-.61,4.48,4.48,0,0,1,.35-.6c.14-.19.27-.29.39-.29h.17c.27,0,.4.17.4.52v3.83c0,.34-.13.51-.4.51h-.17q-.18,0-.39-.27a3.72,3.72,0,0,1-.35-.58,2.12,2.12,0,0,0-.44-.58,1,1,0,0,0-.71-.27h-4.15l0,6.32a1.62,1.62,0,0,0,.31,1,1.06,1.06,0,0,0,.9.42h5.11a1.45,1.45,0,0,0,1-.46,3.84,3.84,0,0,0,.79-1,4.92,4.92,0,0,1,.7-1,1.09,1.09,0,0,1,.78-.46h.19a.38.38,0,0,1,.34.19.53.53,0,0,1,.06.43l-.62,3a.76.76,0,0,1-.78.7Z"/><path class="cls-1" d="M471.72,417.48a9.44,9.44,0,0,1-5.73-1.55c-1.38-1-2.08-2.12-2.08-3.26a1.39,1.39,0,0,1,.36-1,1.18,1.18,0,0,1,1-.37,1.61,1.61,0,0,1,1,.4,2.68,2.68,0,0,1,.68.9,13,13,0,0,0,.65,1.16,8.36,8.36,0,0,0,.87,1.16,3.35,3.35,0,0,0,1.35.89,5.38,5.38,0,0,0,2.06.36,3.93,3.93,0,0,0,2.68-.9,3,3,0,0,0,1-2.35,3.31,3.31,0,0,0-.62-2.05,3.55,3.55,0,0,0-1.61-1.18,13.38,13.38,0,0,0-2.18-.64c-.8-.17-1.61-.37-2.41-.59a10.45,10.45,0,0,1-2.18-.88,4.07,4.07,0,0,1-1.61-1.65,5.59,5.59,0,0,1-.62-2.75,4.81,4.81,0,0,1,1.86-3.88,7.86,7.86,0,0,1,5.11-1.52,8.88,8.88,0,0,1,5.25,1.42,3.82,3.82,0,0,1,2,3.11,1.23,1.23,0,0,1-1.4,1.38,1.55,1.55,0,0,1-1-.34,2.09,2.09,0,0,1-.63-.85c-.14-.34-.33-.71-.55-1.12a10.3,10.3,0,0,0-.73-1.12,2.94,2.94,0,0,0-1.16-.85,4.63,4.63,0,0,0-1.83-.34,3.64,3.64,0,0,0-2.64.92,3.08,3.08,0,0,0-.95,2.3,3,3,0,0,0,.62,1.95,3.7,3.7,0,0,0,1.61,1.15,17.82,17.82,0,0,0,2.19.66c.8.19,1.6.41,2.4.65a10.31,10.31,0,0,1,2.19.93,4.33,4.33,0,0,1,1.6,1.68,5.42,5.42,0,0,1,.62,2.72,4.62,4.62,0,0,1-2.07,4A8.53,8.53,0,0,1,471.72,417.48Z"/><path class="cls-1" d="M489.37,417.48a9.43,9.43,0,0,1-5.72-1.55c-1.39-1-2.08-2.12-2.08-3.26a1.43,1.43,0,0,1,.35-1,1.21,1.21,0,0,1,1-.37,1.59,1.59,0,0,1,1,.4,2.58,2.58,0,0,1,.69.9,10.88,10.88,0,0,0,.65,1.16,9.17,9.17,0,0,0,.86,1.16,3.46,3.46,0,0,0,1.36.89,5.38,5.38,0,0,0,2.06.36,3.89,3.89,0,0,0,2.67-.9,2.93,2.93,0,0,0,1-2.35,3.31,3.31,0,0,0-.62-2.05,3.6,3.6,0,0,0-1.61-1.18,13.51,13.51,0,0,0-2.19-.64c-.8-.17-1.6-.37-2.4-.59a10.45,10.45,0,0,1-2.18-.88A4.07,4.07,0,0,1,482.6,406a5.49,5.49,0,0,1-.62-2.75,4.81,4.81,0,0,1,1.86-3.88,7.85,7.85,0,0,1,5.1-1.52,8.94,8.94,0,0,1,5.26,1.42,3.82,3.82,0,0,1,2,3.11,1.23,1.23,0,0,1-1.4,1.38,1.55,1.55,0,0,1-1-.34,2,2,0,0,1-.63-.85c-.15-.34-.33-.71-.55-1.12a10.3,10.3,0,0,0-.73-1.12,3,3,0,0,0-1.17-.85,4.58,4.58,0,0,0-1.82-.34,3.64,3.64,0,0,0-2.64.92,3.08,3.08,0,0,0-1,2.3,3,3,0,0,0,.62,1.95,3.7,3.7,0,0,0,1.61,1.15,17.3,17.3,0,0,0,2.19.66c.8.19,1.6.41,2.4.65a10.31,10.31,0,0,1,2.19.93,4.33,4.33,0,0,1,1.6,1.68,5.42,5.42,0,0,1,.62,2.72,4.6,4.6,0,0,1-2.08,4A8.49,8.49,0,0,1,489.37,417.48Z"/><path class="cls-1" d="M515.16,417.48a8.38,8.38,0,0,1-6.39-3.09,10.21,10.21,0,0,1-2.76-7,9.71,9.71,0,0,1,2.51-6.91,8.4,8.4,0,0,1,6.45-2.7,8.73,8.73,0,0,1,5.29,1.63c1.5,1.09,2.24,2.23,2.24,3.42a1.46,1.46,0,0,1-.4,1.08,1.54,1.54,0,0,1-1.14.4,1.7,1.7,0,0,1-1.21-.52,6.36,6.36,0,0,1-1-1.29c-.29-.5-.62-1-1-1.52a4.29,4.29,0,0,0-1.43-1.3,4.14,4.14,0,0,0-2.12-.53,4.48,4.48,0,0,0-3.55,1.77,6.94,6.94,0,0,0-1.47,4.58,10.08,10.08,0,0,0,2,6.49,6,6,0,0,0,4.73,2.58,5.17,5.17,0,0,0,3.43-1.19,8.17,8.17,0,0,0,2.18-2.75.84.84,0,0,1,.49-.34.53.53,0,0,1,.51.14.6.6,0,0,1,.16.58,7.53,7.53,0,0,1-2.36,4.59A7.36,7.36,0,0,1,515.16,417.48Z"/><path class="cls-1" d="M535.06,417.48a9,9,0,0,1-6.89-2.9,10.53,10.53,0,0,1,0-14,9,9,0,0,1,6.8-2.78,8.7,8.7,0,0,1,6.77,2.93,10.18,10.18,0,0,1,2.63,7,9.67,9.67,0,0,1-2.67,6.94A8.73,8.73,0,0,1,535.06,417.48Zm.86-1.46a4.64,4.64,0,0,0,3.73-1.73,6.26,6.26,0,0,0,1.46-4.18,13.87,13.87,0,0,0-2.06-7.74,6.1,6.1,0,0,0-5.26-3.14,4.6,4.6,0,0,0-3.7,1.66,6.42,6.42,0,0,0-1.4,4.31,13.87,13.87,0,0,0,2,7.69A6,6,0,0,0,535.92,416Z"/><path class="cls-1" d="M562.65,415a2.53,2.53,0,0,0,.81,1c.38.31.57.55.57.73v.08c0,.26-.19.38-.57.38h-4.8c-.38,0-.57-.12-.57-.38v-.08c0-.14.11-.29.34-.46a3.08,3.08,0,0,0,.59-.55.72.72,0,0,0,.07-.77L558,412.3h-8.16l-1,2.67a.72.72,0,0,0,.07.77,3.08,3.08,0,0,0,.59.55c.23.17.34.32.34.46v.08c0,.26-.2.38-.59.38h-3c-.38,0-.57-.12-.57-.38v-.08c0-.18.19-.42.57-.71a2.7,2.7,0,0,0,.81-1.07l5.67-14.55a1.15,1.15,0,0,0-.35-1.14c-.37-.41-.54-.67-.54-.78v-.08c0-.25.15-.38.45-.38h2.14a1.46,1.46,0,0,1,1.46,1Zm-12.23-4.13h7.05l-3.62-9.24Z"/><path class="cls-1" d="M574.1,417.48a8.38,8.38,0,0,1-6.39-3.09,10.21,10.21,0,0,1-2.76-7,9.71,9.71,0,0,1,2.51-6.91,8.4,8.4,0,0,1,6.45-2.7,8.73,8.73,0,0,1,5.29,1.63c1.5,1.09,2.24,2.23,2.24,3.42a1.46,1.46,0,0,1-.4,1.08,1.54,1.54,0,0,1-1.14.4,1.7,1.7,0,0,1-1.21-.52,6.36,6.36,0,0,1-1-1.29c-.29-.5-.62-1-1-1.52a4.29,4.29,0,0,0-1.43-1.3,4.14,4.14,0,0,0-2.12-.53,4.48,4.48,0,0,0-3.55,1.77,6.94,6.94,0,0,0-1.47,4.58,10.08,10.08,0,0,0,2.05,6.49,6,6,0,0,0,4.73,2.58,5.17,5.17,0,0,0,3.43-1.19,8.17,8.17,0,0,0,2.18-2.75.84.84,0,0,1,.49-.34.53.53,0,0,1,.51.14.6.6,0,0,1,.16.58,7.53,7.53,0,0,1-2.36,4.59A7.36,7.36,0,0,1,574.1,417.48Z"/><path class="cls-1" d="M585.49,417.21c-.37,0-.56-.12-.56-.38v-.08c0-.16.16-.4.5-.71a1.46,1.46,0,0,0,.5-1.07V400.28a1.44,1.44,0,0,0-.5-1.06c-.34-.32-.5-.56-.5-.72v-.08c0-.25.19-.38.56-.38h4.22c.37,0,.56.13.56.38v.08c0,.16-.17.4-.52.72a1.4,1.4,0,0,0-.53,1.06l0,6.45h9.43v-6.45a1.44,1.44,0,0,0-.5-1.06c-.34-.32-.5-.56-.5-.72v-.08c0-.25.19-.38.56-.38h4.22c.39,0,.59.13.59.38v.08c0,.16-.19.4-.55.72a1.38,1.38,0,0,0-.56,1.06V415a1.4,1.4,0,0,0,.56,1.07c.36.31.55.55.55.71v.08c0,.26-.2.38-.59.38h-4.22c-.37,0-.56-.12-.56-.38v-.08c0-.16.16-.4.5-.71a1.46,1.46,0,0,0,.5-1.07v-6.75h-9.4l0,6.75a1.4,1.4,0,0,0,.54,1.07c.36.31.54.55.54.71v.08c0,.26-.19.38-.56.38Z"/></g></g></svg>