<?xml version="1.0" encoding="utf-8"?>
<!-- Generator: Adobe Illustrator 23.1.1, SVG Export Plug-In . SVG Version: 6.00 Build 0)  -->
<svg version="1.1" id="Layer_1" xmlns="http://www.w3.org/2000/svg" xmlns:xlink="http://www.w3.org/1999/xlink" x="0px" y="0px"
	 viewBox="0 0 603 417.5" style="enable-background:new 0 0 603 417.5;" xml:space="preserve">
<style type="text/css">
	.st0{fill:#D1A27F;}
</style>
<title>Asset 1</title>
<g>
	<g id="Layer_1-2">
		<path class="st0" d="M221.4,91.6c-0.1-1.3-0.2-2.7-0.2-4V47.4c0-1.8,1.4-3.2,3.2-3.2l0,0h31.2c1.8,0,3.2,1.5,3.2,3.2
			c0,0.5-0.1,1.1-0.4,1.5c-0.9,1.7-1.7,3.4-2.4,5.2c-0.5,1.2-1.7,2-3,2h-16.6c-1.8,0-3.2,1.4-3.2,3.2c0,0,0,0,0,0v28.2
			c0,17.3,14.1,31.4,31.4,31.4l0,0c3.2,0,6.3,0.3,9.4,1c2.2,0.5,4.3,1.1,6.3,1.9h0.1c1.7,0.6,2.5,2.5,1.8,4.2
			c-0.3,0.8-1,1.5-1.8,1.8h-0.1c-5,2-10.4,3-15.8,3l0,0c-5.2,0-10.3,1.3-14.8,3.7c-4.5,2.4-8.3,5.9-11.2,10.1c-1,1.5-3,1.8-4.5,0.8
			c0,0-0.1,0-0.1-0.1c-1-0.8-2-1.6-2.9-2.5l-1.5-1.5c-1.1-1.1-1.3-2.9-0.4-4.2c2.3-3.2,5-6.1,8.1-8.6c0.5-0.4,0.9-0.7,1.4-1.1
			c1.4-1.1,1.8-3.1,0.7-4.5c-0.2-0.3-0.4-0.5-0.7-0.7c-0.5-0.4-1-0.7-1.4-1.1c-3.8-3.1-7-6.7-9.6-10.9
			C224.2,104.6,222,98.2,221.4,91.6L221.4,91.6z M287.4,199.3c4.1-2.6,7.8-5.8,10.9-9.6c0.4-0.5,0.8-0.9,1.1-1.4
			c1.1-1.4,3.1-1.8,4.5-0.7c0.3,0.2,0.5,0.4,0.7,0.7c0.4,0.5,0.7,0.9,1.1,1.4c2.5,3.1,5.4,5.8,8.6,8.1c1.3,0.9,3,0.8,4.1-0.4
			l1.5-1.5c0.9-0.9,1.7-1.9,2.5-2.9c1.1-1.4,0.8-3.5-0.7-4.5c0,0,0,0-0.1,0c-4.2-2.9-7.7-6.7-10.1-11.2c-2.4-4.6-3.7-9.6-3.7-14.8
			l0,0l0,0c0-5.4-1-10.7-3-15.8v-0.1c-0.6-1.7-2.5-2.5-4.2-1.8c-0.8,0.3-1.5,1-1.8,1.8v0.1c-2,5-3,10.4-3,15.8l0,0l0,0
			c0,5.2-1.3,10.3-3.7,14.8c-2.9,5.4-7.3,9.8-12.7,12.8c-1.8,1-3.6,1.8-5.5,2.4c-3.1,1-6.3,1.5-9.5,1.5h-28.2
			c-1.8,0-3.2-1.4-3.2-3.2l0,0V174c0-1.3-0.8-2.5-2-3c-1.8-0.7-3.5-1.5-5.2-2.4c-1.6-0.9-3.5-0.3-4.4,1.3c-0.3,0.5-0.4,1-0.4,1.5
			v31.2c0,1.8,1.4,3.2,3.2,3.2h40.2c1.4,0,2.7-0.1,4-0.2C275.3,205,281.7,202.9,287.4,199.3L287.4,199.3z M233.2,165.3
			c2,0.8,4,1.4,6,1.9c3.3,0.8,6.6,1.2,10,1.2c1.5,0,3-0.1,4.5-0.2c0.6-0.1,1.2-0.1,1.8-0.2c1.8-0.3,3.4,0.9,3.7,2.7
			c0.1,0.3,0.1,0.7,0,1c-0.1,0.6-0.2,1.2-0.2,1.8c-0.4,3.9-0.3,7.9,0.4,11.8c0.3,1.6,1.6,2.7,3.2,2.7h2.2c1.3,0,2.6-0.1,3.9-0.3
			c1.8-0.3,3-1.9,2.7-3.7c0,0,0,0,0-0.1c-0.9-5-0.7-10.1,0.8-15c1.5-4.9,4.2-9.4,7.8-13.1l0,0l0,0c2.2-2.3,4.2-4.7,5.9-7.4
			c1.2-1.9,2.2-3.8,3.1-5.8v-0.1c0.7-1.6-0.1-3.5-1.7-4.2c-0.8-0.3-1.7-0.3-2.5,0h-0.1c-2,0.9-4,1.9-5.8,3.1
			c-2.7,1.7-5.2,3.7-7.4,5.9l0,0l0,0c-5.9,5.9-13.9,9.2-22.2,9.2c-3,0-6-0.4-8.9-1.3c-1.9-0.6-3.8-1.3-5.6-2.2
			c-2.9-1.5-5.5-3.4-7.8-5.7l-2.1-2.1l-4.5-4.5L207,127.2c-1.3-1.3-1.3-3.3,0-4.6c0,0,0,0,0,0l11.7-11.7c0.9-0.9,1.2-2.3,0.7-3.5
			c-0.8-1.7-1.4-3.5-2-5.3c-0.5-1.7-2.2-2.7-4-2.3c-0.5,0.1-1,0.4-1.4,0.8l-22,22c-1.3,1.3-1.3,3.3,0,4.6c0,0,0,0,0,0l26.1,26.1
			l2.4,2.4c1,1,2,1.9,3,2.7C224.9,161.3,228.9,163.7,233.2,165.3L233.2,165.3z M345.2,173.4c-0.1-0.6-0.1-1.2-0.2-1.8
			c-0.3-1.8,0.9-3.4,2.7-3.7c0.3,0,0.7,0,1,0c0.6,0.1,1.2,0.2,1.8,0.2c1.5,0.1,3,0.2,4.5,0.2c2.4,0,4.9-0.2,7.2-0.6
			c1.6-0.3,2.7-1.6,2.7-3.2v-2.2c0-1.3-0.1-2.6-0.3-3.9c-0.3-1.8-1.9-3-3.7-2.7c0,0,0,0-0.1,0c-2,0.4-3.9,0.6-5.9,0.6
			c-3.1,0-6.2-0.4-9.1-1.3c-5-1.5-9.5-4.2-13.1-7.9l0,0l0,0c-2.2-2.2-4.7-4.2-7.4-5.9c-1.9-1.2-3.8-2.2-5.8-3.1h-0.1
			c-1.6-0.7-3.5,0.1-4.2,1.7c-0.3,0.8-0.3,1.7,0,2.5v0.1c0.9,2,1.9,4,3.1,5.8c1.7,2.7,3.7,5.2,5.9,7.4l0,0l0,0
			c3.7,3.7,6.4,8.2,7.9,13.1c1.8,5.9,1.8,12.1,0.1,18c-1.5,5-4.2,9.6-7.9,13.3l-2.1,2.1l-4.5,4.5l-13.4,13.4c-1.3,1.3-3.3,1.3-4.6,0
			c0,0,0,0,0,0L288,208.4c-0.9-0.9-2.3-1.2-3.5-0.7c-1.7,0.8-3.5,1.4-5.4,2c-1.7,0.5-2.7,2.3-2.2,4c0.2,0.5,0.4,1,0.8,1.4l22,22
			c1.3,1.3,3.3,1.3,4.6,0l26.1-26l2.4-2.4c1-1,1.9-1.9,2.7-3c2.9-3.5,5.3-7.5,7-11.8C345,187.4,345.9,180.4,345.2,173.4L345.2,173.4
			z M388,96.7l-2.4-2.3c-1-1-2-1.9-3-2.7c-5.2-4.3-11.2-7.3-17.8-8.8c-4.7-1.1-9.6-1.4-14.5-0.9c-0.6,0.1-1.2,0.1-1.8,0.2
			c-1.8,0.2-3.4-1-3.6-2.8c0-0.3,0-0.6,0-0.9c0.1-0.6,0.2-1.2,0.2-1.8c0.4-3.9,0.3-7.9-0.4-11.7c-0.3-1.6-1.6-2.7-3.2-2.7h-2.2
			c-1.3,0-2.6,0.1-3.9,0.3c-1.8,0.3-3,1.9-2.7,3.7c0,0,0,0.1,0,0.1c0.9,5,0.7,10.1-0.8,15c-1.5,5-4.2,9.5-7.8,13.1l0,0l0,0
			c-2.2,2.3-4.2,4.7-5.9,7.4c-1.2,1.9-2.2,3.8-3.1,5.8l0,0.1c-0.7,1.6,0.1,3.5,1.7,4.2c0.8,0.3,1.7,0.3,2.5,0h0.1
			c2-0.9,4-1.9,5.8-3.1c2.7-1.7,5.2-3.7,7.4-5.9l0,0c5.9-5.9,13.9-9.2,22.2-9.2c3,0,6,0.4,8.9,1.3c1.9,0.6,3.8,1.3,5.6,2.2
			c2.9,1.5,5.5,3.4,7.8,5.7l2.1,2.1l4.5,4.5l13.4,13.4c1.3,1.3,1.3,3.3,0,4.6l-11.8,11.8c-0.9,0.9-1.2,2.3-0.7,3.5
			c0.8,1.7,1.4,3.5,2,5.4c0.5,1.7,2.3,2.7,4,2.2c0.5-0.2,1-0.4,1.4-0.8l22-22c1.3-1.3,1.3-3.3,0-4.6c0,0,0,0,0,0L388,96.7z
			 M379.3,145.1c-0.8-1.9-1.8-3.8-2.9-5.6c-2.6-4.1-5.8-7.8-9.6-10.9c-0.5-0.4-0.9-0.7-1.4-1.1c-1.4-1.1-1.8-3.1-0.7-4.5
			c0.2-0.3,0.4-0.5,0.7-0.7c0.5-0.4,1-0.7,1.4-1.1c3.1-2.5,5.8-5.4,8.1-8.6c0.9-1.3,0.8-3-0.4-4.2L373,107c-0.9-0.9-1.9-1.7-2.9-2.5
			c-1.4-1.1-3.5-0.8-4.5,0.7c0,0,0,0,0,0.1c-2.9,4.2-6.7,7.7-11.2,10.1c-4.5,2.4-9.6,3.7-14.8,3.7l0,0c-5.4,0-10.7,1-15.8,3h-0.1
			c-1.7,0.6-2.5,2.5-1.8,4.2c0.3,0.8,1,1.5,1.8,1.8h0.1c5,2,10.4,3,15.8,3l0,0c5.2,0,10.3,1.3,14.8,3.7c5.4,2.9,9.9,7.3,12.8,12.7
			c1,1.8,1.7,3.6,2.4,5.5c1,3.1,1.5,6.3,1.5,9.5v28.2c0,1.8-1.4,3.2-3.2,3.2l0,0H351c-1.3,0-2.5,0.8-3,2c-0.7,1.8-1.5,3.5-2.4,5.2
			c-0.9,1.6-0.3,3.5,1.3,4.4c0.5,0.3,1,0.4,1.5,0.4h31.2c1.8,0,3.2-1.4,3.2-3.2l0,0v-40.2c0-1.4-0.1-2.7-0.2-4
			C382.2,153.9,381.1,149.4,379.3,145.1L379.3,145.1z M316.6,50.7c-4.1,2.6-7.8,5.8-10.9,9.6c-0.4,0.5-0.7,0.9-1.1,1.4
			c-1.1,1.4-3.1,1.8-4.5,0.7c-0.3-0.2-0.5-0.4-0.7-0.7c-0.4-0.5-0.7-1-1.1-1.4c-2.5-3.1-5.4-5.8-8.6-8.1c-1.3-0.9-3-0.8-4.2,0.4
			l-1.6,1.5c-0.9,0.9-1.7,1.9-2.5,2.9c-1.1,1.4-0.8,3.4,0.6,4.5c0,0,0.1,0,0.1,0.1c4.2,2.9,7.7,6.7,10.1,11.2
			c2.4,4.5,3.7,9.6,3.7,14.8l0,0l0,0c0,3.2,0.4,6.3,1.1,9.4c0.5,2.2,1.1,4.3,1.9,6.4v0.1c0.6,1.7,2.5,2.5,4.2,1.8
			c0.8-0.3,1.5-1,1.8-1.8v-0.1c0.8-2.1,1.5-4.2,2-6.4c0.7-3.1,1-6.2,1-9.4l0,0l0,0c0-5.2,1.3-10.2,3.7-14.8
			c2.9-5.4,7.3-9.8,12.7-12.8c4.6-2.5,9.8-3.8,15-3.8h28.2c1.8,0,3.2,1.4,3.2,3.2c0,0,0,0,0,0V76c0,1.3,0.8,2.5,2,3
			c1.8,0.7,3.5,1.5,5.2,2.4c1.6,0.9,3.5,0.3,4.4-1.3c0.3-0.5,0.4-1,0.4-1.5V47.4c0-1.8-1.4-3.2-3.2-3.2l0,0h-40.1
			c-1.4,0-2.7,0.1-4,0.2C328.8,45,322.3,47.1,316.6,50.7L316.6,50.7z M258.6,72.1c0,1.5,0.1,3,0.2,4.5c0.1,0.6,0.1,1.2,0.2,1.8
			c0.3,1.8-0.9,3.4-2.7,3.7c-0.3,0-0.7,0-1,0c-0.6-0.1-1.2-0.2-1.8-0.2c-3.9-0.4-7.9-0.3-11.8,0.4c-1.6,0.3-2.7,1.6-2.7,3.2v2.2
			c0,1.3,0.1,2.6,0.3,3.8c0.3,1.8,1.9,3,3.7,2.7c0,0,0,0,0.1,0c10.2-2,20.8,1.2,28.1,8.6l0,0l0,0c2.2,2.2,4.7,4.2,7.4,5.9
			c1.9,1.2,3.8,2.2,5.8,3.1h0.1c1.6,0.7,3.5-0.1,4.2-1.7c0.3-0.8,0.3-1.7,0-2.5v-0.1c-0.9-2-1.9-4-3.1-5.8c-1.7-2.7-3.7-5.2-5.9-7.4
			l0,0l0,0c-5.9-5.9-9.2-13.9-9.2-22.2c0-5,1.2-10,3.5-14.5c1.5-2.9,3.4-5.5,5.7-7.8l2.1-2.1l4.5-4.5l13.4-13.4
			c1.3-1.3,3.3-1.3,4.6,0c0,0,0,0,0,0l11.8,11.8c0.9,0.9,2.3,1.2,3.5,0.7c1.7-0.8,3.5-1.4,5.4-2c1.7-0.6,2.6-2.4,2.1-4.1
			c-0.1-0.5-0.4-0.9-0.7-1.2l-22-22c-1.3-1.3-3.3-1.3-4.6,0l-26.1,26l-2.4,2.4c-1,1-1.9,2-2.7,3c-2.9,3.5-5.3,7.5-7,11.8
			c-0.8,2-1.4,4-1.9,6C259,65.4,258.6,68.7,258.6,72.1L258.6,72.1z"/>
		<path class="st0" d="M20.6,352.4c-1.4,0-2.1-0.5-2.1-1.7v-0.3c0-0.6,0.6-1.7,2-3.1c1.2-1.1,1.9-2.7,1.9-4.4v-53.5h-7.8
			c-1.4,0-2.8,0.7-3.7,1.8c-1.1,1.1-2,2.5-2.6,3.9c-0.6,1.4-1.3,2.7-2.2,3.9c-0.8,1.2-1.7,1.8-2.5,1.8H2.1c-1.7,0-2.4-0.8-2-2.5
			l1.8-12.4c0.1-1.6,1.4-2.8,3-2.7c0,0,0.1,0,0.1,0h49.4c1.6-0.2,3,1,3.1,2.6c0,0.1,0,0.1,0,0.2l2,12.5c0.2,0.6,0,1.3-0.3,1.8
			c-0.4,0.4-1,0.7-1.6,0.6h-1.4c-1.1-0.2-2.1-0.8-2.6-1.8c-0.9-1.2-1.7-2.5-2.3-3.9c-0.7-1.4-1.6-2.8-2.7-3.9
			c-1-1.1-2.3-1.7-3.8-1.8H37V343c0.1,1.7,0.8,3.2,2,4.3c1.4,1.4,2,2.4,2,3.1v0.3c0,1.1-0.8,1.7-2.2,1.7L20.6,352.4z"/>
		<path class="st0" d="M122,343.6c0.2,1.5,0.9,2.8,2,3.8c1.3,1.3,1.9,2.3,1.9,3v0.3c0,1.1-0.7,1.7-2.1,1.7h-17.7
			c-1.4,0-2.2-0.5-2.2-1.7v-0.3c0.2-1,0.7-2,1.5-2.7c0.9-0.9,1.4-2.1,1.5-3.4c0-3.9-0.9-7.8-2.7-11.3c-1.6-3.2-4.2-5.7-7.4-7.2h-13
			V343c0.1,1.7,0.8,3.2,2.1,4.3c1.4,1.4,2.1,2.4,2.1,3.1v0.3c0,1.1-0.8,1.7-2.3,1.7H67.4c-1.4,0-2.2-0.5-2.2-1.7v-0.3
			c0-0.6,0.6-1.7,1.8-3.1c1.1-1.2,1.8-2.7,1.9-4.3v-50.5c-0.1-1.6-0.7-3.2-1.9-4.3c-1.2-1.4-1.8-2.4-1.8-3.1v-0.4
			c0-1,0.7-1.6,2.2-1.6h24.1c9,0,16.2,1.9,21.6,5.6c5.3,3.7,8,9.1,8,16.3c0,3.5-1.1,6.8-3.1,9.6c-2.1,3.2-5,5.8-8.4,7.6
			C117.3,326.9,121.5,334,122,343.6z M93.4,320.1c3.3,0.1,6.6-1.1,8.9-3.5c2.2-2.3,3.4-5.7,3.4-9.9c0-5.3-1.5-9.6-4.6-12.8
			c-2.7-3-6.6-4.8-10.6-4.8h-3.3c-2.2,0-3.3,1.5-3.3,4.4v19.8c0,4.6,1.8,6.8,5.5,6.8H93.4z"/>
		<path class="st0" d="M133.8,352.4c-1.4,0-2.1-0.5-2.1-1.7v-0.3c0-0.8,0.7-1.8,2.1-3.1c1.4-1.2,2.4-2.7,3.1-4.3l19.4-49.8
			c0.4-1.4,0-2.9-1.5-4.7s-2.1-2.9-2.1-3.4v-0.4c0-1,0.7-1.6,2-1.6h18.8c1.4,0,2,0.5,2,1.6v0.4c0,0.5-0.4,1.2-1.3,2
			c-0.8,0.8-1.5,1.7-2.1,2.6c-0.5,1-0.6,2.1-0.1,3.1l21.8,50.1c0.7,1.7,1.8,3.1,3.2,4.3c1.5,1.3,2.2,2.3,2.2,3.1v0.3
			c0,1.1-0.8,1.7-2.2,1.7h-20.8c-1.5,0-2.2-0.5-2.2-1.7v-0.3c0.1-0.8,0.6-1.6,1.3-2c0.9-0.7,1.7-1.5,2.4-2.3
			c0.7-0.9,0.8-2.1,0.4-3.1l-3.1-7.8h-27l-3,7.8c-0.5,1-0.4,2.2,0.3,3.1c0.7,0.9,1.4,1.7,2.3,2.3c0.7,0.4,1.2,1.2,1.3,2v0.3
			c0,1.1-0.7,1.7-2.2,1.7L133.8,352.4z M150.1,328.9h22.6l-11.6-29.9L150.1,328.9z"/>
		<path class="st0" d="M268.6,283.1c1.5,0,2.2,0.5,2.2,1.6v0.4c0,0.6-0.7,1.7-2.1,3.1c-1.3,1.1-2,2.7-2.1,4.3v56
			c0.1,1.1-0.3,2.1-1,2.9c-0.8,0.7-1.8,1.1-2.8,1h-4.6c-1.6,0-3.1-1-4.5-3l-37-49.5v42.9c0.1,1.7,0.9,3.3,2.2,4.4
			c1.5,1.5,2.2,2.5,2.2,3.2v0.3c0,1.1-0.7,1.7-2.2,1.7h-11.3c-1.5,0-2.2-0.5-2.2-1.7v-0.3c0-0.6,0.6-1.7,2-3.2
			c1.2-1.2,1.9-2.8,1.9-4.4v-50.2c0-1.7-0.7-3.3-1.9-4.4c-1.3-1.4-2-2.4-2-3.1v-0.4c0-1,0.8-1.6,2.2-1.6h20.1c1.4,0,2.1,0.5,2.1,1.6
			v0.4c0,0.4-0.4,1-1.2,1.9c-0.7,0.7-1.2,1.5-1.6,2.3c-0.3,0.7,0,1.8,0.9,3.3l31.2,42.2v-42.3c-0.1-1.7-0.8-3.2-2.1-4.3
			c-1.4-1.4-2.1-2.4-2.1-3.1v-0.4c0-1,0.8-1.6,2.2-1.6L268.6,283.1z"/>
		<path class="st0" d="M304.4,353.4c-8.7,0-15.6-1.8-20.9-5.5c-5.3-3.7-7.9-7.7-8-12c-0.1-1.6,0.4-3.1,1.5-4.3
			c1.2-1.1,2.8-1.7,4.4-1.6c1.7,0,3.3,0.7,4.5,2c1.3,1.3,2.4,2.8,3.3,4.5c0.9,1.8,2,3.5,3.1,5.2c1.2,1.9,2.9,3.4,4.9,4.4
			c2.4,1.3,5.1,1.9,7.8,1.9c3,0.2,5.9-0.8,8.2-2.7c2.1-1.8,3.2-4.4,3.1-7.2c0.1-2.5-0.7-4.9-2.2-6.9c-1.5-1.8-3.4-3.3-5.6-4.1
			c-2.5-1-5.1-1.8-7.7-2.4c-2.8-0.7-5.6-1.5-8.4-2.4c-2.7-0.9-5.3-2-7.7-3.5c-2.4-1.5-4.4-3.6-5.7-6.1c-1.5-3.1-2.3-6.5-2.2-9.9
			c-0.1-5.7,2.5-11.1,7-14.6c4.7-3.8,11-5.7,18.9-5.7c7.8,0,14.3,1.7,19.5,5.2c5.2,3.5,7.7,7.4,7.7,11.7c0,4-2.1,6-6.2,6
			c-1.8,0.1-3.5-0.6-4.8-1.8c-1.3-1.2-2.4-2.7-3.1-4.3c-0.8-1.7-1.7-3.4-2.6-5.1c-1-1.8-2.3-3.2-4-4.3c-2-1.3-4.3-1.9-6.6-1.8
			c-3.6,0-6.3,1-8.2,2.8c-1.9,1.9-2.9,4.5-2.8,7.2c-0.1,2.5,0.7,5,2.2,7c1.5,1.9,3.4,3.4,5.7,4.3c2.5,1,5,1.9,7.7,2.6
			c2.8,0.8,5.6,1.6,8.4,2.5c2.7,0.9,5.2,2.1,7.6,3.5c2.4,1.4,4.4,3.5,5.7,6c1.5,3,2.3,6.3,2.2,9.7c0.1,5.8-2.7,11.3-7.6,14.5
			C318.1,351.6,311.8,353.4,304.4,353.4z"/>
		<path class="st0" d="M369.2,353.4c-9,0-16.8-3.7-23.4-11.1c-6.4-6.9-9.9-16-9.8-25.4c0-10.1,3-18.4,9-24.9
			c6-6.5,13.8-9.8,23.4-9.8c7-0.2,13.8,1.8,19.6,5.7c5.5,3.8,8.3,8,8.3,12.7c0.1,1.8-0.6,3.5-1.9,4.7c-1.4,1.3-3.2,1.9-5.1,1.8
			c-1.9,0-3.8-0.7-5.2-2c-1.5-1.4-2.9-3-3.9-4.7c-1.1-1.9-2.3-3.7-3.5-5.6c-1.2-1.9-2.8-3.5-4.7-4.8c-2-1.3-4.3-2-6.7-2
			c-4.1,0-7.6,1.8-10.5,5.5s-4.4,8.5-4.4,14.4c0,9.3,2.3,17,7,23s10.1,9,16.2,9.1c7.7,0,13.8-4.1,18.4-12.3c0.6-1,1.9-1.5,3-1.1
			c1.2,0.3,1.9,1.5,1.7,2.7c-0.5,6.5-3.3,12.5-8,17C384,351,377.5,353.4,369.2,353.4z"/>
		<path class="st0" d="M405.9,352.4c-1.5,0-2.2-0.5-2.2-1.7v-0.3c0-0.6,0.6-1.7,1.9-3.1c1.2-1.2,1.9-2.8,1.9-4.4v-50.3
			c0-1.7-0.7-3.3-1.9-4.5c-1.3-1.4-1.9-2.4-1.9-3v-0.4c0-1,0.7-1.6,2.1-1.6h43.5c1.5-0.1,2.9,1,3,2.6c0,0.1,0,0.1,0,0.2l2.3,11.4
			c0.3,1.7-0.3,2.5-2,2.5h-0.6c-1.2-0.1-2.4-0.7-3.2-1.7c-1.1-1.1-2.1-2.4-3-3.7c-0.9-1.4-2-2.6-3.3-3.7c-1.1-1.1-2.6-1.7-4.1-1.7
			H426c-2.6,0-3.9,1.4-3.9,4.2v21h12.6c1.1,0,2.1-0.4,2.9-1.1c0.8-0.7,1.4-1.5,1.8-2.4c0.4-0.9,0.9-1.7,1.4-2.4
			c0.5-0.8,1.1-1.1,1.6-1.1h0.8c1.1,0,1.7,0.7,1.7,2v15.7c0,1.4-0.6,2-1.7,2h-0.8c-0.7-0.1-1.3-0.5-1.6-1.1c-0.6-0.7-1-1.5-1.4-2.3
			c-0.4-0.9-1.1-1.7-1.8-2.3c-0.8-0.7-1.8-1.1-2.9-1.1h-12.6l-0.1,20.4c0,1.5,0.4,3,1.3,4.2c0.9,1.2,2.4,1.9,3.9,1.8h14.3
			c1.5,0,3-0.7,4-1.8c1.2-1.1,2.2-2.4,3-3.9c0.7-1.4,1.7-2.7,2.8-3.9c0.8-1,2-1.7,3.3-1.8h0.8c0.6,0,1.2,0.3,1.5,0.8
			c0.3,0.5,0.4,1.2,0.3,1.8l-2.1,11.8c-0.4,1.9-1.4,2.8-3.1,2.8L405.9,352.4z"/>
		<path class="st0" d="M526.8,283.1c1.5,0,2.2,0.5,2.2,1.6v0.4c0,0.6-0.7,1.7-2.1,3.1c-1.3,1.1-2,2.7-2.1,4.3v56
			c0.1,1.1-0.3,2.1-1,2.9c-0.8,0.7-1.8,1.1-2.8,1h-4.6c-1.6,0-3.1-1-4.5-3l-37-49.5v42.9c0.1,1.7,0.9,3.3,2.2,4.4
			c1.5,1.5,2.2,2.5,2.2,3.2v0.3c0,1.1-0.8,1.7-2.2,1.7h-11.3c-1.5,0-2.2-0.5-2.2-1.7v-0.3c0-0.6,0.6-1.7,2-3.2
			c1.2-1.2,1.9-2.8,2-4.4v-50.2c0-1.7-0.7-3.3-2-4.4c-1.3-1.4-2-2.4-2-3.1v-0.4c0-1,0.8-1.6,2.2-1.6h20.1c1.3,0,2,0.5,2,1.6v0.4
			c0,0.4-0.4,1-1.2,1.9c-0.7,0.7-1.2,1.5-1.6,2.3c-0.3,0.7,0,1.8,0.9,3.3l31.2,42.2v-42.3c-0.1-1.7-0.8-3.2-2.1-4.3
			c-1.4-1.4-2.1-2.4-2.1-3.1v-0.4c0-1,0.7-1.6,2.2-1.6L526.8,283.1z"/>
		<path class="st0" d="M537.7,352.4c-1.5,0-2.2-0.5-2.2-1.7v-0.3c0-0.6,0.6-1.7,1.9-3.1c1.2-1.2,1.8-2.7,1.9-4.3v-50.5
			c-0.1-1.6-0.7-3.2-1.9-4.3c-1.3-1.4-1.9-2.4-1.9-3.1v-0.4c0-1,0.8-1.6,2.2-1.6h22.2c12.8,0,23,3.2,30.6,9.8
			c7.5,6.1,11.7,15.3,11.5,25c0,10.4-3.5,18.8-10.4,25.1c-6.9,6.3-16,9.5-27.2,9.5L537.7,352.4z M561,346.4h5c6.1,0,11.1-2,15-6
			s5.8-9.4,5.8-16.4c0-9.7-2.6-17.9-7.8-24.8c-5.2-6.8-11.7-10.2-19.4-10.2h-1.8c-2.6,0-3.9,1.4-3.9,4.1V338
			c-0.1,2.2,0.5,4.4,1.9,6.2C557.1,345.7,559,346.5,561,346.4z"/>
		<path class="st0" d="M1.7,395.2c-0.4,0-0.6-0.1-0.6-0.4v-0.1c0-0.1,0.2-0.4,0.5-0.7c0.3-0.3,0.5-0.6,0.5-1v-14.7
			c0-0.4-0.2-0.8-0.5-1c-0.3-0.3-0.5-0.6-0.5-0.7v-0.1c0-0.2,0.2-0.4,0.6-0.4h5.6c2.2-0.1,4.3,0.4,6.2,1.5c1.6,1,2.5,2.8,2.4,4.7
			c0.1,1.8-0.7,3.6-2.1,4.8c-1.6,1.2-3.7,1.8-5.7,1.7H5.4v4.2c0,0.4,0.2,0.8,0.5,1c0.4,0.3,0.6,0.5,0.6,0.7v0.1
			c0,0.3-0.2,0.4-0.6,0.4L1.7,395.2z M6.4,387.5H8c1.2,0.1,2.4-0.4,3.3-1.2c0.8-0.9,1.3-2,1.2-3.2c0.1-1.5-0.5-3.1-1.5-4.2
			c-1-1-2.3-1.5-3.7-1.5H6.2c-0.5,0-0.8,0.3-0.8,1v8c-0.1,0.5,0.2,1,0.8,1.1C6.2,387.5,6.3,387.5,6.4,387.5z"/>
		<path class="st0" d="M33.5,393c0.2,0.3,0.5,0.6,0.8,0.8l0.8,0.5c0.2,0.1,0.3,0.3,0.3,0.4v0.1c0,0.3-0.2,0.4-0.6,0.4H30
			c-0.4,0-0.6-0.1-0.6-0.4v-0.1c0-0.2,0.1-0.4,0.3-0.5c0.2-0.1,0.3-0.3,0.4-0.5c0.1-0.1,0-0.4-0.1-0.8l-3.4-5.1h-0.2l-3.2,0v5.1
			c0,0.4,0.2,0.8,0.5,1.1c0.4,0.3,0.5,0.5,0.5,0.7v0.1c0,0.3-0.2,0.4-0.6,0.4h-4.2c-0.4,0-0.6-0.1-0.6-0.4v-0.1
			c0-0.2,0.2-0.4,0.5-0.7c0.3-0.3,0.5-0.7,0.5-1.1v-14.7c0-0.4-0.2-0.8-0.5-1.1c-0.3-0.3-0.5-0.6-0.5-0.7v-0.1
			c0-0.2,0.2-0.4,0.6-0.4h6.1c2.1-0.1,4.1,0.4,5.9,1.5c2.4,1.8,3,5.2,1.2,7.6c-0.8,1-1.8,1.7-3,2.1L33.5,393z M26,386.5
			c1.1,0.1,2.3-0.3,3.2-1c0.8-0.8,1.3-1.9,1.2-3c0.1-1.4-0.5-2.7-1.5-3.7c-1-0.9-2.2-1.3-3.5-1.3h-1.4c-0.5,0-0.8,0.4-0.8,1.1v6.5
			c0,1,0.4,1.5,1.3,1.5L26,386.5z"/>
		<path class="st0" d="M46.7,395.5c-2.6,0.1-5.1-1-6.9-2.9c-3.6-4-3.6-10,0-14c1.8-1.9,4.2-2.9,6.8-2.8c2.6-0.1,5.1,1,6.8,2.9
			c1.7,1.9,2.7,4.4,2.6,7c0.1,2.6-0.9,5.1-2.7,6.9C51.6,394.5,49.2,395.5,46.7,395.5z M47.5,394c1.4,0,2.8-0.6,3.7-1.7
			c1-1.2,1.5-2.7,1.5-4.2c0.1-2.7-0.6-5.4-2.1-7.7c-1.1-1.9-3.1-3.1-5.3-3.1c-1.4,0-2.8,0.6-3.7,1.7c-1,1.2-1.5,2.8-1.4,4.3
			c-0.1,2.7,0.6,5.4,2,7.7C43.4,392.8,45.4,394,47.5,394L47.5,394z"/>
		<path class="st0" d="M59.9,395.2c-0.4,0-0.6-0.1-0.6-0.4v-0.1c0-0.2,0.2-0.4,0.5-0.7c0.3-0.3,0.5-0.7,0.5-1.1v-14.7
			c0-0.4-0.2-0.8-0.5-1.1c-0.3-0.3-0.5-0.6-0.5-0.7v-0.1c0-0.2,0.2-0.4,0.5-0.4h11.8c0.4,0,0.7,0.2,0.8,0.7l0.7,2.9
			c0.1,0.4-0.1,0.6-0.5,0.6h-0.1c-0.3,0-0.6-0.2-1-0.7s-0.8-1-1.2-1.4c-0.3-0.4-0.8-0.7-1.3-0.7h-4.5c-0.6,0-0.9,0.3-0.9,1v7.1h4.2
			c0.4,0,0.8-0.3,1.1-0.9s0.6-0.9,0.8-0.9H70c0.3,0,0.4,0.2,0.4,0.5v3.8c0,0.3-0.1,0.5-0.4,0.5h-0.2c-0.2,0-0.4-0.3-0.8-0.9
			s-0.7-0.9-1.1-0.9h-4.2v6.1c0,0.4,0.2,0.8,0.6,1c0.4,0.3,0.6,0.5,0.6,0.7v0.1c0,0.3-0.2,0.4-0.6,0.4L59.9,395.2z"/>
		<path class="st0" d="M76.6,395.2c-0.4,0-0.6-0.1-0.6-0.4v-0.1c0-0.2,0.2-0.4,0.5-0.7c0.3-0.3,0.5-0.7,0.5-1.1v-14.6
			c0-0.4-0.2-0.8-0.5-1.1c-0.3-0.3-0.5-0.6-0.5-0.7v-0.1c0-0.2,0.2-0.4,0.5-0.4h11.7c0.4,0,0.7,0.3,0.7,0.6c0,0,0,0,0,0l0.7,2.9
			c0.1,0.4,0,0.6-0.4,0.6h-0.1c-0.3,0-0.6-0.2-0.8-0.4c-0.3-0.3-0.5-0.6-0.8-1c-0.2-0.4-0.5-0.7-0.8-1c-0.3-0.3-0.6-0.4-1-0.5h-4.6
			c-0.6,0-0.9,0.4-0.9,1v6.3h4.2c0.3,0,0.5-0.1,0.7-0.3c0.2-0.2,0.3-0.4,0.4-0.6c0.1-0.2,0.2-0.4,0.3-0.6c0.1-0.2,0.3-0.3,0.4-0.3
			h0.2c0.3,0,0.4,0.2,0.4,0.5v3.8c0,0.3-0.1,0.5-0.4,0.5h-0.2c-0.1,0-0.3-0.1-0.4-0.3c-0.1-0.2-0.3-0.4-0.3-0.6
			c-0.1-0.2-0.3-0.4-0.4-0.6c-0.2-0.2-0.4-0.3-0.7-0.3h-4.2v6.3c0,0.4,0.1,0.7,0.3,1c0.2,0.3,0.6,0.4,0.9,0.4h5.1
			c0.4,0,0.7-0.2,1-0.5c0.3-0.3,0.6-0.6,0.8-1c0.2-0.4,0.4-0.7,0.7-1c0.2-0.3,0.5-0.4,0.8-0.5H90c0.1,0,0.3,0.1,0.3,0.2
			c0.1,0.1,0.1,0.3,0.1,0.4l-0.6,3c0,0.4-0.4,0.7-0.8,0.7L76.6,395.2z"/>
		<path class="st0" d="M100.7,395.5c-2,0.1-4-0.4-5.7-1.5c-1.4-1-2.1-2.1-2.1-3.3c0-0.4,0.1-0.7,0.3-1c0.3-0.3,0.6-0.4,1-0.4
			c0.4,0,0.7,0.2,1,0.4c0.3,0.2,0.5,0.6,0.7,0.9c0.2,0.4,0.4,0.8,0.6,1.2c0.3,0.4,0.6,0.8,0.9,1.2c0.4,0.4,0.8,0.7,1.3,0.9
			c0.7,0.3,1.4,0.4,2.1,0.4c1,0,1.9-0.3,2.7-0.9c0.7-0.6,1-1.5,1-2.4c0-0.7-0.2-1.5-0.6-2c-0.4-0.5-1-0.9-1.6-1.2
			c-0.7-0.3-1.4-0.5-2.2-0.6c-0.8-0.2-1.6-0.4-2.4-0.6c-0.8-0.2-1.5-0.5-2.2-0.9c-0.7-0.4-1.2-0.9-1.6-1.6c-0.4-0.8-0.7-1.8-0.6-2.8
			c0-1.5,0.7-3,1.9-3.9c1.5-1.1,3.3-1.6,5.1-1.5c1.9-0.1,3.7,0.4,5.2,1.4c1.2,0.6,1.9,1.8,2,3.1c0.1,0.7-0.4,1.3-1.1,1.4
			c-0.1,0-0.2,0-0.3,0c-0.4,0-0.7-0.1-1-0.3c-0.3-0.2-0.5-0.5-0.6-0.9c-0.1-0.3-0.3-0.7-0.6-1.1c-0.2-0.4-0.5-0.8-0.7-1.1
			c-0.3-0.4-0.7-0.7-1.2-0.9c-0.6-0.2-1.2-0.4-1.8-0.3c-1-0.1-1.9,0.3-2.7,0.9c-0.6,0.6-1,1.4-0.9,2.3c0,0.7,0.2,1.4,0.6,2
			c0.4,0.5,1,0.9,1.6,1.1c0.7,0.3,1.4,0.5,2.2,0.7c0.8,0.2,1.6,0.4,2.4,0.6c0.8,0.2,1.5,0.5,2.2,0.9c0.7,0.4,1.2,1,1.6,1.7
			c0.4,0.8,0.6,1.8,0.6,2.7c0,1.6-0.7,3.1-2.1,4C104.2,395.1,102.5,395.6,100.7,395.5z"/>
		<path class="st0" d="M118.3,395.5c-2,0.1-4-0.4-5.7-1.5c-1.4-1-2.1-2.1-2.1-3.3c0-0.4,0.1-0.7,0.4-1c0.3-0.3,0.6-0.4,1-0.4
			c0.4,0,0.7,0.2,1,0.4c0.3,0.3,0.5,0.6,0.7,0.9c0.2,0.4,0.4,0.8,0.6,1.2c0.3,0.4,0.5,0.8,0.9,1.2c0.4,0.4,0.8,0.7,1.3,0.9
			c0.7,0.3,1.4,0.4,2.1,0.4c1,0,1.9-0.3,2.7-0.9c0.7-0.6,1-1.5,1-2.4c0-0.7-0.2-1.5-0.6-2c-0.4-0.5-1-0.9-1.6-1.2
			c-0.7-0.3-1.4-0.5-2.2-0.6c-0.8-0.2-1.6-0.4-2.4-0.6c-0.8-0.2-1.5-0.5-2.2-0.9c-0.7-0.4-1.2-1-1.6-1.6c-0.4-0.8-0.7-1.8-0.6-2.8
			c0-1.5,0.7-3,1.9-3.9c1.5-1.1,3.3-1.6,5.1-1.5c1.9-0.1,3.7,0.4,5.2,1.4c1.2,0.6,1.9,1.8,2,3.1c0.1,0.7-0.4,1.3-1.1,1.4
			c-0.1,0-0.2,0-0.3,0c-0.4,0-0.7-0.1-1-0.3c-0.3-0.2-0.5-0.5-0.6-0.9c-0.1-0.3-0.3-0.7-0.6-1.1c-0.2-0.4-0.5-0.8-0.7-1.1
			c-0.3-0.4-0.7-0.7-1.2-0.9c-0.6-0.2-1.2-0.4-1.8-0.3c-1-0.1-1.9,0.3-2.6,0.9c-0.6,0.6-1,1.4-1,2.3c0,0.7,0.2,1.4,0.6,2
			c0.4,0.5,1,0.9,1.6,1.1c0.7,0.3,1.4,0.5,2.2,0.7c0.8,0.2,1.6,0.4,2.4,0.6c0.8,0.2,1.5,0.5,2.2,0.9c0.7,0.4,1.2,1,1.6,1.7
			c0.4,0.8,0.6,1.8,0.6,2.7c0,1.6-0.7,3.1-2.1,4C121.9,395,120.1,395.5,118.3,395.5z"/>
		<path class="st0" d="M128.8,394.8L128.8,394.8c0-0.2,0.2-0.4,0.5-0.8c0.3-0.3,0.5-0.7,0.5-1.1v-14.7c0-0.4-0.2-0.8-0.5-1.1
			c-0.3-0.3-0.5-0.6-0.5-0.7v-0.1c0-0.2,0.2-0.4,0.6-0.4h4.2c0.4,0,0.6,0.1,0.6,0.4v0.1c0,0.2-0.2,0.4-0.5,0.7
			c-0.3,0.3-0.5,0.6-0.5,1.1V393c0,0.4,0.2,0.8,0.5,1.1c0.4,0.3,0.5,0.6,0.5,0.7v0.1c0,0.3-0.2,0.4-0.6,0.4h-4.2
			C129,395.2,128.8,395.1,128.8,394.8z"/>
		<path class="st0" d="M147.1,395.5c-2.6,0.1-5.1-1-6.9-2.9c-3.6-4-3.6-10-0.1-14c1.8-1.9,4.2-2.9,6.8-2.8c2.6-0.1,5.1,1,6.8,2.9
			c1.7,1.9,2.7,4.4,2.6,7c0.1,2.6-0.9,5.1-2.7,6.9C152,394.5,149.6,395.5,147.1,395.5z M147.9,394c1.4,0,2.8-0.6,3.7-1.7
			c1-1.2,1.5-2.7,1.5-4.2c0.1-2.7-0.6-5.4-2.1-7.7c-1.1-1.9-3.1-3.1-5.3-3.1c-1.4,0-2.8,0.6-3.7,1.7c-1,1.2-1.5,2.8-1.4,4.3
			c-0.1,2.7,0.6,5.4,2,7.7C143.8,392.8,145.8,394,147.9,394L147.9,394z"/>
		<path class="st0" d="M176.8,376c0.4,0,0.6,0.1,0.6,0.4v0.1c0,0.1-0.2,0.4-0.6,0.7c-0.3,0.2-0.6,0.6-0.6,1.1v16
			c0,0.6-0.3,0.9-0.9,0.9h-1c-0.3,0-0.6-0.2-1-0.8l-10.9-14.8v13.3c0,0.4,0.2,0.8,0.6,1.1c0.4,0.3,0.6,0.6,0.6,0.7v0.1
			c0,0.3-0.2,0.4-0.6,0.4h-2.8c-0.4,0-0.6-0.1-0.6-0.4v-0.1c0-0.2,0.2-0.4,0.5-0.7c0.3-0.3,0.5-0.7,0.5-1.1v-14.6
			c0-0.4-0.2-0.8-0.5-1c-0.4-0.3-0.5-0.5-0.5-0.7v-0.1c0-0.3,0.2-0.4,0.6-0.4h2.7c0.5,0,0.9,0.3,1.1,0.6l10.4,14.5v-12.9
			c0-0.4-0.2-0.8-0.6-1.1c-0.4-0.3-0.6-0.5-0.6-0.7v-0.1c0-0.3,0.2-0.4,0.6-0.4L176.8,376z"/>
		<path class="st0" d="M196.7,393c0.2,0.4,0.5,0.7,0.8,1c0.4,0.3,0.6,0.5,0.6,0.7v0.1c0,0.3-0.2,0.4-0.6,0.4h-4.8
			c-0.4,0-0.6-0.1-0.6-0.4v-0.1c0-0.1,0.1-0.3,0.3-0.5c0.2-0.2,0.4-0.3,0.6-0.5c0.2-0.2,0.2-0.5,0.1-0.8l-1.1-2.7h-8.2l-1,2.7
			c-0.1,0.2-0.1,0.5,0.1,0.8c0.2,0.2,0.4,0.4,0.6,0.5c0.2,0.2,0.3,0.3,0.3,0.5v0.1c0,0.3-0.2,0.4-0.6,0.4h-3.1
			c-0.4,0-0.6-0.1-0.6-0.4v-0.1c0-0.2,0.2-0.4,0.6-0.7c0.4-0.3,0.6-0.6,0.8-1.1l5.7-14.5c0.1-0.4,0-0.9-0.4-1.1
			c-0.4-0.4-0.5-0.7-0.5-0.8v-0.1c0-0.2,0.2-0.4,0.5-0.4h2.1c0.7,0,1.2,0.4,1.4,1L196.7,393z M184.4,388.9h7.1l-3.6-9.2L184.4,388.9
			z"/>
		<path class="st0" d="M201.1,395.2c-0.4,0-0.6-0.1-0.6-0.4v-0.1c0-0.2,0.2-0.4,0.5-0.7c0.3-0.3,0.5-0.7,0.5-1.1v-14.7
			c0-0.4-0.2-0.8-0.5-1.1c-0.3-0.3-0.5-0.6-0.5-0.7v-0.1c0-0.2,0.2-0.4,0.6-0.4h4.2c0.4,0,0.6,0.1,0.6,0.4v0.1
			c0,0.2-0.2,0.4-0.6,0.7c-0.3,0.3-0.5,0.6-0.6,1.1v14.3c0,0.3,0.1,0.6,0.2,0.9c0.2,0.2,0.5,0.4,0.8,0.4h4.9c0.4,0,0.8-0.2,1.1-0.5
			c0.3-0.3,0.6-0.7,0.8-1.1c0.2-0.4,0.4-0.8,0.6-1.1c0.2-0.3,0.5-0.5,0.7-0.5h0.3c0.3,0,0.5,0.2,0.4,0.5l-0.7,3.4
			c0,0.4-0.4,0.7-0.8,0.7L201.1,395.2z"/>
		<path class="st0" d="M224.1,395.2c-0.4,0-0.6-0.1-0.6-0.4v-0.1c0-0.2,0.2-0.4,0.5-0.7c0.3-0.3,0.5-0.7,0.5-1.1v-14.7
			c0-0.4-0.2-0.8-0.5-1.1c-0.3-0.3-0.5-0.6-0.5-0.7v-0.1c0-0.2,0.2-0.4,0.6-0.4h4.2c0.4,0,0.6,0.1,0.6,0.4v0.1
			c0,0.2-0.2,0.4-0.6,0.7c-0.3,0.3-0.5,0.6-0.6,1.1v14.3c0,0.3,0.1,0.6,0.2,0.9c0.2,0.2,0.4,0.4,0.7,0.4h5c0.4,0,0.8-0.2,1.1-0.5
			c0.3-0.3,0.6-0.7,0.8-1.1c0.2-0.4,0.4-0.8,0.6-1.1c0.2-0.3,0.5-0.5,0.7-0.5h0.3c0.3,0,0.5,0.2,0.4,0.5l-0.7,3.4
			c0,0.4-0.4,0.7-0.8,0.7L224.1,395.2z"/>
		<path class="st0" d="M240.5,394.8L240.5,394.8c0-0.2,0.2-0.4,0.5-0.8c0.3-0.3,0.5-0.7,0.5-1.1v-14.7c0-0.4-0.2-0.8-0.5-1.1
			c-0.3-0.3-0.5-0.6-0.5-0.7v-0.1c0-0.2,0.2-0.4,0.6-0.4h4.2c0.4,0,0.6,0.1,0.6,0.4v0.1c0,0.2-0.2,0.4-0.5,0.7
			c-0.3,0.3-0.5,0.6-0.5,1.1V393c0,0.4,0.2,0.8,0.5,1.1c0.4,0.3,0.5,0.6,0.5,0.7v0.1c0,0.3-0.2,0.4-0.6,0.4H241
			C240.6,395.2,240.5,395.1,240.5,394.8z"/>
		<path class="st0" d="M250.4,395.2c-0.4,0-0.6-0.1-0.6-0.4v-0.1c0-0.2,0.2-0.4,0.5-0.7c0.3-0.3,0.5-0.7,0.5-1.1v-14.7
			c0-0.4-0.2-0.8-0.5-1.1c-0.4-0.3-0.5-0.6-0.5-0.7v-0.1c0-0.2,0.2-0.4,0.5-0.4h11.8c0.4,0,0.7,0.3,0.8,0.7l0.6,2.9
			c0.1,0.4-0.1,0.6-0.5,0.6h-0.1c-0.3,0-0.6-0.2-1-0.7s-0.8-1-1.2-1.4c-0.3-0.4-0.8-0.7-1.3-0.7H255c-0.6,0-0.9,0.3-0.9,1v7.1h4.2
			c0.4,0,0.8-0.3,1.1-0.9s0.6-0.9,0.8-0.9h0.2c0.3,0,0.4,0.2,0.4,0.5v3.8c0,0.3-0.1,0.5-0.4,0.5h-0.2c-0.2,0-0.5-0.3-0.8-0.9
			s-0.7-0.9-1.1-0.9h-4.2v6.1c0,0.4,0.2,0.8,0.6,1.1c0.4,0.3,0.6,0.5,0.6,0.7v0.1c0,0.3-0.2,0.4-0.6,0.4L250.4,395.2z"/>
		<path class="st0" d="M267,395.2c-0.4,0-0.6-0.1-0.6-0.4v-0.1c0-0.2,0.2-0.4,0.5-0.7c0.3-0.3,0.5-0.7,0.5-1.1v-14.6
			c0-0.4-0.2-0.8-0.5-1.1c-0.3-0.3-0.5-0.6-0.5-0.7v-0.1c0-0.2,0.2-0.4,0.5-0.4h11.8c0.4,0,0.7,0.3,0.7,0.6c0,0,0,0,0,0l0.6,2.9
			c0.1,0.4,0,0.6-0.4,0.6h-0.1c-0.3,0-0.6-0.2-0.8-0.4c-0.3-0.3-0.5-0.6-0.8-1c-0.2-0.4-0.5-0.7-0.8-1c-0.3-0.3-0.6-0.4-1-0.5h-4.6
			c-0.6,0-0.9,0.4-0.9,1v6.3h4.2c0.3,0,0.5-0.1,0.7-0.3c0.2-0.2,0.3-0.4,0.4-0.6c0.1-0.2,0.2-0.4,0.4-0.6c0.1-0.2,0.3-0.3,0.4-0.3
			h0.2c0.3,0,0.4,0.2,0.4,0.5v3.8c0,0.3-0.1,0.5-0.4,0.5h-0.2c-0.1,0-0.3-0.1-0.4-0.3c-0.1-0.2-0.2-0.3-0.3-0.5
			c-0.1-0.2-0.3-0.4-0.4-0.6c-0.2-0.2-0.4-0.3-0.7-0.3h-4.2v6.3c0,0.4,0.1,0.7,0.3,1c0.2,0.3,0.6,0.4,0.9,0.4h5.1
			c0.4,0,0.7-0.2,1-0.5c0.3-0.3,0.6-0.6,0.8-1c0.2-0.4,0.4-0.7,0.7-1c0.2-0.3,0.5-0.4,0.8-0.5h0.2c0.1,0,0.3,0.1,0.3,0.2
			c0.1,0.1,0.1,0.3,0.1,0.4l-0.6,3c0,0.4-0.4,0.7-0.8,0.7L267,395.2z"/>
		<path class="st0" d="M305.5,393c0.2,0.4,0.5,0.7,0.8,1c0.4,0.3,0.6,0.5,0.6,0.7v0.1c0,0.3-0.2,0.4-0.6,0.4h-4.8
			c-0.4,0-0.6-0.1-0.6-0.4v-0.1c0-0.1,0.1-0.3,0.3-0.5c0.2-0.2,0.4-0.3,0.6-0.5c0.2-0.2,0.2-0.5,0.1-0.7l-1-2.7h-8.2l-1,2.7
			c-0.1,0.2-0.1,0.5,0.1,0.8c0.2,0.2,0.4,0.4,0.6,0.5c0.2,0.2,0.3,0.3,0.3,0.5v0.1c0,0.3-0.2,0.4-0.6,0.4h-3c-0.4,0-0.6-0.1-0.6-0.4
			v-0.1c0-0.2,0.2-0.4,0.6-0.7c0.4-0.3,0.6-0.6,0.8-1.1l5.7-14.5c0.1-0.4,0-0.9-0.4-1.1c-0.4-0.4-0.5-0.7-0.5-0.8v-0.1
			c0-0.2,0.1-0.4,0.5-0.4h2.1c0.7,0,1.3,0.4,1.5,1L305.5,393z M293.3,388.9h7l-3.6-9.2L293.3,388.9z"/>
		<path class="st0" d="M326.4,376c0.4,0,0.6,0.1,0.6,0.4v0.1c0,0.1-0.2,0.4-0.6,0.7c-0.3,0.2-0.6,0.6-0.6,1.1v16
			c0,0.6-0.3,0.9-0.9,0.9h-1c-0.3,0-0.6-0.2-1-0.8l-10.9-14.8v13.3c0,0.4,0.2,0.8,0.6,1.1c0.4,0.3,0.6,0.6,0.6,0.7v0.1
			c0,0.3-0.2,0.4-0.6,0.4h-2.8c-0.4,0-0.6-0.1-0.6-0.4v-0.1c0-0.2,0.2-0.4,0.5-0.7c0.3-0.3,0.5-0.7,0.5-1.1v-14.6
			c0-0.4-0.2-0.8-0.5-1c-0.4-0.3-0.5-0.5-0.5-0.7v-0.1c0-0.3,0.2-0.4,0.6-0.4h2.7c0.5,0,0.9,0.3,1.1,0.6l10.4,14.5v-12.9
			c0-0.4-0.2-0.8-0.6-1.1c-0.4-0.3-0.6-0.5-0.6-0.7v-0.1c0-0.3,0.2-0.4,0.6-0.4L326.4,376z"/>
		<path class="st0" d="M331.4,395.2c-0.4,0-0.6-0.1-0.6-0.4v-0.1c0-0.2,0.2-0.4,0.5-0.7c0.3-0.3,0.5-0.7,0.5-1.1v-14.7
			c0-0.4-0.2-0.8-0.5-1.1c-0.3-0.3-0.5-0.6-0.5-0.7v-0.1c0-0.2,0.2-0.4,0.6-0.4h5.9c3-0.1,5.9,0.8,8.2,2.7c2.1,1.6,3.2,4.2,3.2,6.8
			c0.1,2.6-0.9,5.2-2.9,7c-2,1.8-4.6,2.7-7.3,2.6L331.4,395.2z M336.6,393.8h1.7c3.7,0.2,6.8-2.6,7-6.2c0-0.3,0-0.6,0-0.8
			c0.1-2.5-0.8-4.9-2.5-6.7c-1.6-1.7-3.8-2.7-6.2-2.7h-0.8c-0.6,0-0.9,0.3-0.9,1v13.5c0,0.5,0.1,1,0.4,1.4
			C335.7,393.7,336.2,393.9,336.6,393.8L336.6,393.8z"/>
		<path class="st0" d="M369.7,384.9c1.4,0.1,2.8,0.7,3.9,1.7c0.9,0.8,1.4,2,1.4,3.3c0,1.6-0.8,3.1-2.1,3.9c-1.7,1.1-3.7,1.6-5.7,1.5
			h-7.6c-0.4,0-0.6-0.1-0.6-0.4v-0.1c0-0.1,0.2-0.4,0.5-0.7c0.3-0.3,0.5-0.6,0.5-1v-14.7c0-0.4-0.2-0.8-0.5-1.1
			c-0.3-0.3-0.5-0.6-0.5-0.7v-0.1c0-0.2,0.2-0.4,0.6-0.4h6.6c1.8-0.1,3.6,0.4,5.2,1.3c1.2,0.8,1.9,2.1,1.9,3.5c0,1-0.3,1.9-0.9,2.6
			C371.6,384.2,370.7,384.7,369.7,384.9z M363.3,378.5v4.7c0,0.6,0.4,1.1,1,1.2c0.1,0,0.1,0,0.2,0h2.4c0.9,0,1.8-0.3,2.4-0.9
			c0.6-0.6,1-1.3,0.9-2.2c0.1-1.1-0.4-2.1-1.1-2.9c-0.9-0.7-2-1.1-3.1-1h-1.8C363.6,377.4,363.3,377.8,363.3,378.5z M366.9,393.8
			c3.1,0,4.7-1.2,4.7-3.5c0-1.3-0.6-2.5-1.5-3.2c-1.2-1-2.7-1.5-4.2-1.4h-2.6v6.5c0,0.4,0.1,0.8,0.4,1.2c0.3,0.3,0.7,0.5,1.1,0.5
			L366.9,393.8z"/>
		<path class="st0" d="M386.7,395.5c-2.1,0.1-4.1-0.6-5.7-2c-1.5-1.5-2.3-3.5-2.2-5.6v-9.6c0-0.4-0.2-0.8-0.5-1.1
			c-0.4-0.3-0.5-0.5-0.5-0.7v-0.1c0-0.2,0.2-0.4,0.6-0.4h4.2c0.4,0,0.6,0.1,0.6,0.4v0.1c0,0.1-0.2,0.4-0.5,0.7
			c-0.3,0.3-0.5,0.6-0.5,1.1v9.6c-0.1,1.6,0.4,3.2,1.4,4.5c0.9,1.1,2.3,1.7,3.8,1.6c1.3,0,2.6-0.6,3.5-1.6c1.1-1.3,1.6-2.9,1.5-4.6
			v-9.6c0-0.4-0.2-0.8-0.5-1.1c-0.4-0.3-0.5-0.5-0.5-0.7v-0.1c0-0.2,0.2-0.4,0.6-0.4h2.7c0.4,0,0.6,0.1,0.6,0.4v0.1
			c0,0.1-0.2,0.4-0.6,0.7c-0.3,0.2-0.5,0.6-0.6,1.1v9.6c0.1,2-0.6,4.1-2,5.6C390.6,394.8,388.7,395.6,386.7,395.5z"/>
		<path class="st0" d="M405.9,395.5c-2,0.1-4-0.4-5.7-1.5c-1.4-1-2.1-2.1-2.1-3.3c0-0.4,0.1-0.7,0.4-1c0.3-0.3,0.6-0.4,1-0.4
			c0.4,0,0.7,0.2,1,0.4c0.3,0.2,0.5,0.6,0.7,0.9c0.2,0.4,0.4,0.8,0.6,1.2c0.3,0.4,0.5,0.8,0.9,1.2c0.4,0.4,0.8,0.7,1.4,0.9
			c0.7,0.3,1.4,0.4,2.1,0.4c1,0,1.9-0.3,2.7-0.9c0.7-0.6,1-1.5,1-2.4c0-0.7-0.2-1.5-0.6-2c-0.4-0.5-1-0.9-1.6-1.2
			c-0.7-0.3-1.4-0.5-2.2-0.6c-0.8-0.2-1.6-0.4-2.4-0.6c-0.8-0.2-1.5-0.5-2.2-0.9c-0.7-0.4-1.2-1-1.6-1.6c-0.4-0.8-0.7-1.8-0.6-2.8
			c0-1.5,0.7-3,1.9-3.9c1.5-1.1,3.3-1.6,5.1-1.5c1.9-0.1,3.7,0.4,5.2,1.4c1.2,0.6,1.9,1.8,2,3.1c0.1,0.7-0.4,1.3-1.1,1.4
			c-0.1,0-0.2,0-0.4,0c-0.4,0-0.7-0.1-1-0.3c-0.3-0.2-0.5-0.5-0.6-0.9c-0.1-0.3-0.3-0.7-0.6-1.1c-0.2-0.4-0.5-0.8-0.7-1.1
			c-0.3-0.4-0.7-0.7-1.2-0.9c-0.6-0.2-1.2-0.4-1.8-0.3c-1-0.1-1.9,0.3-2.6,0.9c-0.6,0.6-1,1.4-1,2.3c0,0.7,0.2,1.4,0.6,2
			c0.4,0.5,1,0.9,1.6,1.1c0.7,0.3,1.4,0.5,2.2,0.7c0.8,0.2,1.6,0.4,2.4,0.6c0.8,0.2,1.5,0.5,2.2,0.9c0.7,0.4,1.2,1,1.6,1.7
			c0.4,0.8,0.7,1.8,0.6,2.7c0.1,1.6-0.7,3.1-2.1,4C409.4,395,407.7,395.5,405.9,395.5z"/>
		<path class="st0" d="M416.3,394.8L416.3,394.8c0-0.2,0.2-0.4,0.5-0.8c0.3-0.3,0.5-0.7,0.5-1.1v-14.7c0-0.4-0.2-0.8-0.5-1.1
			c-0.3-0.3-0.5-0.6-0.5-0.7v-0.1c0-0.2,0.2-0.4,0.6-0.4h4.2c0.4,0,0.6,0.1,0.6,0.4v0.1c0,0.2-0.2,0.4-0.5,0.7
			c-0.3,0.3-0.5,0.6-0.5,1.1V393c0,0.4,0.2,0.8,0.5,1.1c0.4,0.3,0.5,0.6,0.5,0.7v0.1c0,0.3-0.2,0.4-0.6,0.4h-4.2
			C416.5,395.2,416.3,395.1,416.3,394.8z"/>
		<path class="st0" d="M442.7,376c0.4,0,0.6,0.1,0.6,0.4v0.1c0,0.1-0.2,0.4-0.6,0.7c-0.3,0.2-0.6,0.6-0.6,1.1v16
			c0,0.6-0.3,0.9-0.9,0.9h-1c-0.3,0-0.6-0.2-1-0.8l-10.9-14.8v13.3c0,0.4,0.3,0.8,0.6,1.1c0.4,0.3,0.6,0.6,0.6,0.7v0.1
			c0,0.3-0.2,0.4-0.6,0.4h-2.8c-0.4,0-0.6-0.1-0.6-0.4v-0.1c0-0.2,0.2-0.4,0.5-0.7c0.3-0.3,0.5-0.7,0.5-1.1v-14.6
			c0-0.4-0.2-0.8-0.5-1c-0.4-0.3-0.5-0.5-0.5-0.7v-0.1c0-0.3,0.2-0.4,0.6-0.4h2.7c0.5,0,0.9,0.3,1.1,0.6l10.4,14.5v-12.9
			c0-0.4-0.2-0.8-0.6-1.1c-0.4-0.3-0.6-0.5-0.6-0.7v-0.1c0-0.3,0.2-0.4,0.6-0.4L442.7,376z"/>
		<path class="st0" d="M447.6,395.2c-0.4,0-0.6-0.1-0.6-0.4v-0.1c0-0.2,0.2-0.4,0.5-0.7c0.3-0.3,0.5-0.7,0.5-1.1v-14.6
			c0-0.4-0.2-0.8-0.5-1.1c-0.3-0.3-0.5-0.6-0.5-0.7v-0.1c0-0.2,0.2-0.4,0.5-0.4h11.7c0.4,0,0.7,0.3,0.8,0.6c0,0,0,0,0,0l0.6,2.9
			c0.1,0.4-0.1,0.6-0.4,0.6h-0.1c-0.3,0-0.6-0.2-0.8-0.4c-0.3-0.3-0.5-0.6-0.8-1c-0.2-0.4-0.5-0.7-0.8-1c-0.3-0.3-0.6-0.4-1-0.5
			h-4.5c-0.6,0-0.9,0.4-0.9,1v6.3h4.1c0.3,0,0.5-0.1,0.7-0.3c0.2-0.2,0.3-0.4,0.4-0.6c0.1-0.2,0.2-0.4,0.4-0.6
			c0.1-0.2,0.3-0.3,0.4-0.3h0.2c0.3,0,0.4,0.2,0.4,0.5v3.8c0,0.3-0.1,0.5-0.4,0.5h-0.2c-0.1,0-0.2-0.1-0.4-0.3
			c-0.1-0.2-0.3-0.4-0.4-0.6c-0.1-0.2-0.3-0.4-0.4-0.6c-0.2-0.2-0.4-0.3-0.7-0.3h-4.1v6.3c0,0.4,0.1,0.7,0.3,1
			c0.2,0.3,0.5,0.4,0.9,0.4h5.1c0.4,0,0.7-0.2,1-0.5c0.3-0.3,0.6-0.6,0.8-1c0.2-0.4,0.4-0.7,0.7-1c0.2-0.3,0.5-0.4,0.8-0.5h0.2
			c0.1,0,0.3,0.1,0.3,0.2c0.1,0.1,0.1,0.3,0.1,0.4l-0.6,3c0,0.4-0.4,0.7-0.8,0.7L447.6,395.2z"/>
		<path class="st0" d="M471.7,395.5c-2,0.1-4-0.4-5.7-1.5c-1.4-1-2.1-2.1-2.1-3.3c0-0.4,0.1-0.7,0.4-1c0.3-0.3,0.6-0.4,1-0.4
			c0.4,0,0.7,0.2,1,0.4c0.3,0.2,0.5,0.6,0.7,0.9c0.2,0.4,0.4,0.8,0.6,1.2c0.3,0.4,0.5,0.8,0.9,1.2c0.4,0.4,0.8,0.7,1.4,0.9
			c0.7,0.3,1.4,0.4,2.1,0.4c1,0,1.9-0.3,2.7-0.9c0.7-0.6,1-1.5,1-2.4c0-0.7-0.2-1.5-0.6-2c-0.4-0.5-1-0.9-1.6-1.2
			c-0.7-0.3-1.4-0.5-2.2-0.6c-0.8-0.2-1.6-0.4-2.4-0.6c-0.8-0.2-1.5-0.5-2.2-0.9c-0.7-0.4-1.2-1-1.6-1.6c-0.4-0.8-0.7-1.8-0.6-2.8
			c0-1.5,0.7-3,1.9-3.9c1.5-1.1,3.3-1.6,5.1-1.5c1.9-0.1,3.7,0.4,5.2,1.4c1.2,0.6,1.9,1.8,2,3.1c0.1,0.7-0.4,1.3-1.1,1.4
			c-0.1,0-0.2,0-0.3,0c-0.4,0-0.7-0.1-1-0.3c-0.3-0.2-0.5-0.5-0.6-0.9c-0.1-0.3-0.3-0.7-0.5-1.1c-0.2-0.4-0.5-0.8-0.7-1.1
			c-0.3-0.4-0.7-0.7-1.2-0.9c-0.6-0.2-1.2-0.4-1.8-0.3c-1-0.1-1.9,0.3-2.6,0.9c-0.6,0.6-1,1.4-1,2.3c0,0.7,0.2,1.4,0.6,2
			c0.4,0.5,1,0.9,1.6,1.1c0.7,0.3,1.4,0.5,2.2,0.7c0.8,0.2,1.6,0.4,2.4,0.6c0.8,0.2,1.5,0.5,2.2,0.9c0.7,0.4,1.2,1,1.6,1.7
			c0.4,0.8,0.7,1.8,0.6,2.7c0.1,1.6-0.7,3.1-2.1,4C475.3,395,473.5,395.6,471.7,395.5z"/>
		<path class="st0" d="M489.4,395.5c-2,0.1-4-0.4-5.7-1.5c-1.4-1-2.1-2.1-2.1-3.3c0-0.4,0.1-0.7,0.4-1c0.3-0.3,0.6-0.4,1-0.4
			c0.4,0,0.7,0.2,1,0.4c0.3,0.2,0.5,0.6,0.7,0.9c0.2,0.4,0.4,0.8,0.6,1.2c0.3,0.4,0.5,0.8,0.9,1.2c0.4,0.4,0.8,0.7,1.4,0.9
			c0.7,0.3,1.4,0.4,2.1,0.4c1,0,1.9-0.3,2.7-0.9c0.7-0.6,1-1.5,1-2.4c0-0.7-0.2-1.5-0.6-2c-0.4-0.5-1-0.9-1.6-1.2
			c-0.7-0.3-1.4-0.5-2.2-0.6c-0.8-0.2-1.6-0.4-2.4-0.6c-0.8-0.2-1.5-0.5-2.2-0.9c-0.7-0.4-1.2-0.9-1.6-1.6c-0.4-0.8-0.7-1.8-0.6-2.8
			c0-1.5,0.7-3,1.9-3.9c1.5-1.1,3.3-1.6,5.1-1.5c1.9-0.1,3.7,0.4,5.3,1.4c1.2,0.6,1.9,1.8,2,3.1c0.1,0.7-0.4,1.3-1.1,1.4
			c-0.1,0-0.2,0-0.3,0c-0.4,0-0.7-0.1-1-0.3c-0.3-0.2-0.5-0.5-0.6-0.9c-0.1-0.3-0.3-0.7-0.5-1.1c-0.2-0.4-0.5-0.8-0.7-1.1
			c-0.3-0.4-0.7-0.7-1.2-0.9c-0.6-0.2-1.2-0.4-1.8-0.3c-1-0.1-1.9,0.3-2.6,0.9c-0.6,0.6-1,1.4-1,2.3c0,0.7,0.2,1.4,0.6,2
			c0.4,0.5,1,0.9,1.6,1.1c0.7,0.3,1.4,0.5,2.2,0.7c0.8,0.2,1.6,0.4,2.4,0.6c0.8,0.2,1.5,0.5,2.2,0.9c0.7,0.4,1.2,1,1.6,1.7
			c0.4,0.8,0.7,1.8,0.6,2.7c0.1,1.6-0.7,3.1-2.1,4C492.9,395.1,491.2,395.6,489.4,395.5z"/>
		<path class="st0" d="M515.2,395.5c-2.5,0-4.8-1.2-6.4-3.1c-1.8-1.9-2.8-4.4-2.8-7c-0.1-2.5,0.8-5,2.5-6.9c1.7-1.8,4-2.8,6.5-2.7
			c1.9,0,3.8,0.5,5.3,1.6c1.5,1.1,2.2,2.2,2.2,3.4c0,0.4-0.1,0.8-0.4,1.1c-0.3,0.3-0.7,0.4-1.1,0.4c-0.5,0-0.9-0.2-1.2-0.5
			c-0.4-0.4-0.7-0.8-1-1.3c-0.3-0.5-0.6-1-1-1.5c-0.4-0.5-0.9-1-1.4-1.3c-0.6-0.4-1.4-0.5-2.1-0.5c-1.4,0-2.7,0.7-3.5,1.8
			c-1,1.3-1.5,2.9-1.5,4.6c-0.1,2.3,0.6,4.6,2,6.5c1.1,1.6,2.8,2.5,4.7,2.6c1.2,0,2.5-0.4,3.4-1.2c0.9-0.7,1.7-1.7,2.2-2.8
			c0.1-0.2,0.3-0.3,0.5-0.3c0.2,0,0.4,0,0.5,0.1c0.2,0.2,0.2,0.4,0.2,0.6c-0.2,1.8-1.1,3.4-2.4,4.6
			C518.9,394.9,517.1,395.5,515.2,395.5z"/>
		<path class="st0" d="M535.1,395.5c-2.6,0.1-5.1-1-6.9-2.9c-3.6-4-3.6-10,0-14c1.8-1.9,4.2-2.9,6.8-2.8c2.6-0.1,5.1,1,6.8,2.9
			c1.7,1.9,2.7,4.4,2.6,7c0.1,2.6-0.9,5.1-2.7,6.9C540,394.5,537.6,395.5,535.1,395.5z M535.9,394c1.4,0,2.8-0.6,3.7-1.7
			c1-1.2,1.5-2.7,1.5-4.2c0.1-2.7-0.6-5.4-2.1-7.7c-1.1-1.9-3.1-3.1-5.3-3.1c-1.4,0-2.8,0.6-3.7,1.7c-1,1.2-1.5,2.8-1.4,4.3
			c-0.1,2.7,0.6,5.4,2,7.7C531.7,392.8,533.7,394,535.9,394L535.9,394z"/>
		<path class="st0" d="M562.7,393c0.2,0.4,0.5,0.7,0.8,1c0.4,0.3,0.6,0.5,0.6,0.7v0.1c0,0.3-0.2,0.4-0.6,0.4h-4.8
			c-0.4,0-0.6-0.1-0.6-0.4v-0.1c0-0.1,0.1-0.3,0.3-0.5c0.2-0.2,0.4-0.3,0.6-0.5c0.2-0.2,0.2-0.5,0.1-0.8l-1.1-2.7h-8.2l-1,2.7
			c-0.1,0.2-0.1,0.5,0.1,0.8c0.2,0.2,0.4,0.4,0.6,0.5c0.2,0.2,0.3,0.3,0.3,0.5v0.1c0,0.3-0.2,0.4-0.6,0.4h-3c-0.4,0-0.6-0.1-0.6-0.4
			v-0.1c0-0.2,0.2-0.4,0.6-0.7c0.4-0.3,0.6-0.7,0.8-1.1l5.7-14.5c0.1-0.4,0-0.9-0.3-1.1c-0.4-0.4-0.5-0.7-0.5-0.8v-0.1
			c0-0.2,0.2-0.4,0.5-0.4h2.1c0.7,0,1.3,0.4,1.5,1L562.7,393z M550.4,388.9h7l-3.6-9.2L550.4,388.9z"/>
		<path class="st0" d="M574.1,395.5c-2.5,0-4.8-1.2-6.4-3.1c-1.8-1.9-2.8-4.4-2.8-7c-0.1-2.5,0.8-5,2.5-6.9c1.7-1.8,4-2.8,6.5-2.7
			c1.9,0,3.8,0.5,5.3,1.6c1.5,1.1,2.2,2.2,2.2,3.4c0,0.4-0.1,0.8-0.4,1.1c-0.3,0.3-0.7,0.4-1.1,0.4c-0.5,0-0.9-0.2-1.2-0.5
			c-0.4-0.4-0.7-0.8-1-1.3c-0.3-0.5-0.6-1-1-1.5c-0.4-0.5-0.9-1-1.4-1.3c-0.6-0.4-1.4-0.5-2.1-0.5c-1.4,0-2.7,0.7-3.5,1.8
			c-1,1.3-1.5,2.9-1.5,4.6c-0.1,2.3,0.6,4.6,2,6.5c1.1,1.6,2.8,2.5,4.7,2.6c1.2,0,2.5-0.4,3.4-1.2c0.9-0.7,1.7-1.7,2.2-2.8
			c0.1-0.2,0.3-0.3,0.5-0.3c0.2,0,0.4,0,0.5,0.1c0.2,0.2,0.2,0.4,0.2,0.6c-0.2,1.8-1.1,3.4-2.4,4.6
			C577.9,394.9,576,395.6,574.1,395.5z"/>
		<path class="st0" d="M585.5,395.2c-0.4,0-0.6-0.1-0.6-0.4v-0.1c0-0.2,0.2-0.4,0.5-0.7c0.3-0.3,0.5-0.7,0.5-1.1v-14.7
			c0-0.4-0.2-0.8-0.5-1.1c-0.3-0.3-0.5-0.6-0.5-0.7v-0.1c0-0.2,0.2-0.4,0.6-0.4h4.2c0.4,0,0.6,0.1,0.6,0.4v0.1
			c0,0.2-0.2,0.4-0.5,0.7c-0.3,0.3-0.5,0.6-0.5,1.1v6.5h9.4v-6.5c0-0.4-0.2-0.8-0.5-1.1c-0.3-0.3-0.5-0.6-0.5-0.7v-0.1
			c0-0.2,0.2-0.4,0.6-0.4h4.2c0.4,0,0.6,0.1,0.6,0.4v0.1c0,0.2-0.2,0.4-0.5,0.7c-0.3,0.2-0.5,0.6-0.6,1.1V393c0,0.4,0.2,0.8,0.6,1.1
			c0.4,0.3,0.5,0.5,0.5,0.7v0.1c0,0.3-0.2,0.4-0.6,0.4h-4.2c-0.4,0-0.6-0.1-0.6-0.4v-0.1c0-0.2,0.2-0.4,0.5-0.7
			c0.3-0.3,0.5-0.7,0.5-1.1v-6.8h-9.4v6.8c0,0.4,0.2,0.8,0.5,1.1c0.4,0.3,0.5,0.5,0.5,0.7v0.1c0,0.3-0.2,0.4-0.6,0.4L585.5,395.2z"
			/>
	</g>
</g>
</svg>
