<?xml version="1.0" encoding="UTF-8"?>
<svg width="434px" height="264px" viewBox="0 0 434 264" version="1.1" xmlns="http://www.w3.org/2000/svg" xmlns:xlink="http://www.w3.org/1999/xlink">
    <!-- Generator: Sketch 57.1 (83088) - https://sketch.com -->
    <title>transcend/logo</title>
    <desc>Created with Sketch.</desc>
    <defs>
        <polygon id="path-1" points="0.0249964758 0.336092511 146.376934 0.336092511 146.376934 146.688451 0.0249964758 146.688451"></polygon>
        <polygon id="path-3" points="0.424470588 0.424607143 43.5282941 0.424607143 43.5282941 44.9411786 0.424470588 44.9411786"></polygon>
    </defs>
    <g id="transcend/logo" stroke="none" stroke-width="1" fill="none" fill-rule="evenodd">
        <g id="Group-87">
            <g id="Group-3" transform="translate(147.000000, 0.000000)">
                <mask id="mask-2" fill="white">
                    <use xlink:href="#path-1"></use>
                </mask>
                <g id="Clip-2"></g>
                <path d="M42.060033,38.898337 C42.060033,39.8826542 42.1131344,40.8585529 42.2122137,41.8247379 C42.2523634,42.211989 42.3002841,42.5985925 42.3559758,42.9826057 C42.5599626,44.3891432 41.3723062,45.5755044 39.9664163,45.37087 C39.5882313,45.315826 39.2087511,45.2685529 38.8286233,45.2290507 C36.2940066,44.9654868 33.7308965,45.0451388 31.2137643,45.467359 C30.2016013,45.6370242 29.4562401,46.5093106 29.4562401,47.5350727 L29.4562401,48.9377247 C29.4562401,49.7847555 29.5216454,50.6155969 29.6459802,51.4276586 C29.8234163,52.5829361 30.9145837,53.3956454 32.0627379,53.1767643 C33.3138568,52.9384559 34.596707,52.8154163 35.8976894,52.8154163 C37.927196,52.8154163 39.9113722,53.1107115 41.8010022,53.6805793 C44.9715396,54.6357555 47.8759229,56.3641388 50.2855573,58.7698877 C50.2887952,58.7731256 50.292033,58.777011 50.2952709,58.7802489 C50.2985088,58.7834868 50.3017467,58.7860771 50.304337,58.789315 C51.7762797,60.259315 53.3861564,61.5395749 55.0989978,62.6320374 C56.3073767,63.4033018 57.5675617,64.0767819 58.8724295,64.6505352 C58.8944471,64.6596013 58.9164648,64.669315 58.9378348,64.6790286 C60.6429053,65.4224471 62.4101432,63.6597423 61.669315,61.9533767 C61.6602489,61.9307115 61.6498877,61.9080463 61.640174,61.8853811 C61.0716013,60.5863414 60.4020066,59.3222709 59.6287996,58.104826 C58.5473458,56.4023458 57.2722665,54.7885837 55.7886674,53.304337 C55.7854295,53.3010991 55.7828392,53.2972137 55.7796013,53.2939758 C55.7763634,53.2913855 55.7731256,53.2881476 55.7698877,53.2849097 C53.3641388,50.8765705 51.6364031,47.9708921 50.6812269,44.8003546 C50.1120066,42.9107247 49.8167115,40.927196 49.8167115,38.898337 C49.8167115,36.9212841 50.0997026,34.9889141 50.6404295,33.1433194 C51.0063106,31.8934956 51.4932885,30.6851167 52.0929449,29.5311344 C53.0442357,27.6997863 54.27787,26.0031344 55.7796013,24.5020507 L57.1297996,23.1512048 L60.0484295,20.2325749 L68.7013546,11.5796498 C69.515359,10.7649978 70.8370639,10.7649978 71.6517159,11.5796498 L79.2743458,19.2022797 C79.8752974,19.8032313 80.7832004,19.9884383 81.5609405,19.6465176 C82.6838392,19.1517687 83.8410595,18.72113 85.0267731,18.3571916 C86.5433987,17.8915837 87.0433282,16.0026013 85.9204295,14.8803502 L71.6517159,0.610988987 C70.8370639,-0.203662996 69.515359,-0.203662996 68.7013546,0.610988987 L51.8177247,17.4939714 L50.2952709,19.0170727 C49.6761872,19.6361564 49.0920727,20.2811432 48.5390419,20.9462048 C46.6150903,23.2561123 45.0978172,25.8295837 44.0150683,28.5779009 C43.5183767,29.8367907 43.113641,31.1312974 42.8047467,32.4562401 C42.3171211,34.5440286 42.060033,36.7011079 42.060033,38.898337 L42.060033,38.898337 Z M79.6266278,25.0395396 C76.9443634,26.7044604 74.5625749,28.8071432 72.580989,31.2485088 C72.3368524,31.5496322 72.0985441,31.8559361 71.8667115,32.1674207 C71.0170903,33.3084515 69.3359802,33.3084515 68.486359,32.1674207 C68.2545264,31.8559361 68.0162181,31.5496322 67.7714339,31.2485088 C66.1615573,29.2656278 64.2874692,27.5055132 62.2029185,26.0219141 C61.3733722,25.4313238 60.2342841,25.5310507 59.5141784,26.2511564 L58.5220903,27.2438921 C57.926967,27.8383678 57.3836498,28.4710507 56.8934339,29.1361123 C56.1985837,30.0789846 56.3896189,31.4324207 57.3577467,32.0910066 C60.0782181,33.9411344 62.3279009,36.4323634 63.891152,39.3451652 C65.423967,42.2029229 66.2969009,45.4660639 66.298196,48.9286586 L66.298196,48.9383722 L66.298196,48.9474383 C66.2988436,51.0514163 66.5390947,53.0990551 66.9794471,55.0715749 C67.2941696,56.4787599 67.7144471,57.8464427 68.2318612,59.1655573 C68.2376894,59.179804 68.24287,59.1934031 68.2480507,59.2076498 C68.9286542,60.936033 71.4237687,60.936033 72.1043722,59.2076498 C72.1095529,59.1934031 72.1147335,59.179804 72.1205617,59.1655573 C72.6379758,57.8464427 73.0582533,56.4787599 73.3729758,55.0715749 C73.8133282,53.0990551 74.0535793,51.0514163 74.0542269,48.9474383 L74.0542269,48.9377247 L74.0542269,48.9286586 C74.0561696,45.4660639 74.9284559,42.2029229 76.4619185,39.3451652 C78.3360066,35.8521344 81.1982974,32.9652357 84.6751388,31.0633018 C85.8071035,30.4442181 87.0044736,29.9306894 88.2542974,29.5337247 C90.1983238,28.914641 92.2673326,28.5779009 94.4146982,28.5779009 L96.3244031,28.5779009 L100.452059,28.5779009 L112.688029,28.5779009 C113.840716,28.5779009 114.774522,29.5123546 114.774522,30.6650419 L114.774522,41.4277731 C114.774522,42.2760991 115.284813,43.0506013 116.075504,43.3582004 C117.224306,43.8056762 118.346557,44.3198524 119.437077,44.8987863 C120.839729,45.6441476 122.5312,44.6624207 122.5312,43.0739141 L122.5312,22.9083634 C122.5312,21.7563238 121.596747,20.82187 120.444059,20.82187 L96.5685396,20.82187 L94.4146982,20.82187 C93.5359361,20.82187 92.6681828,20.867848 91.8107907,20.9468524 C88.784663,21.2259581 85.8971167,21.9868612 83.2232709,23.1518524 C81.9747423,23.6951696 80.7728392,24.3272048 79.6266278,25.0395396 L79.6266278,25.0395396 Z M120.20057,86.2232709 C119.656606,84.9747423 119.025866,83.7734868 118.313531,82.6266278 C116.647963,79.945011 114.54528,77.5632225 112.103267,75.580989 C111.802143,75.3368524 111.496487,75.0985441 111.185002,74.8667115 C110.043324,74.0170903 110.043324,72.3359802 111.185002,71.486359 C111.496487,71.2545264 111.802143,71.0162181 112.103267,70.7720815 C114.087443,69.1615573 115.84691,67.2881167 117.330509,65.2035661 C117.921099,64.3733722 117.821372,63.2349317 117.101267,62.514826 L116.108531,61.5220903 C115.514055,60.926967 114.880725,60.3836498 114.216311,59.8934339 C113.273438,59.1985837 111.920002,59.3896189 111.261416,60.3583943 C109.411289,63.0782181 106.920059,65.3285485 104.00661,66.891152 C101.1495,68.423967 97.8870066,69.2969009 94.4231167,69.298196 C94.4198789,69.298196 94.4172885,69.298196 94.4140507,69.298196 C94.4108128,69.298196 94.4075749,69.298196 94.4049846,69.298196 C92.3048921,69.2988436 90.2611388,69.5384471 88.2912093,69.9775044 C86.8833767,70.2915793 85.5156938,70.7112093 84.1959317,71.2286233 C84.1790947,71.2350991 84.1629053,71.2415749 84.1454207,71.2480507 C82.4163899,71.9286542 82.4163899,74.4237687 84.1454207,75.1050198 C84.1629053,75.1114956 84.1790947,75.1179714 84.1959317,75.1244471 C85.5156938,75.6412137 86.8833767,76.0614912 88.2912093,76.3755661 C90.2611388,76.8146233 92.3048921,77.0535793 94.4049846,77.0548744 L94.4146982,77.0548744 L94.4231167,77.0548744 C97.886359,77.0561696 101.148852,77.9284559 104.00661,79.4619185 C107.502879,81.3373018 110.391073,84.2021828 112.292359,87.6822621 C112.911443,88.8142269 113.424324,90.0115969 113.820641,91.2601256 C114.439077,93.2028568 114.773874,95.2699229 114.773874,97.4146982 L114.773874,99.3244031 L114.773874,103.469544 L114.773874,115.688676 C114.773874,116.840716 113.840068,117.774522 112.687381,117.774522 L101.907813,117.774522 C101.058192,117.774522 100.284337,118.286108 99.9773855,119.077447 C99.5325,120.221716 99.0189714,121.343967 98.4380947,122.440315 C97.6940286,123.842319 98.6770507,125.5312 100.264262,125.5312 L120.444059,125.5312 C121.596099,125.5312 122.530553,124.596747 122.530553,123.444707 L122.530553,99.5776057 L122.530553,97.4146982 C122.530553,96.5365837 122.483927,95.669478 122.404923,94.8114383 C122.126465,91.784663 121.365562,88.8971167 120.20057,86.2232709 L120.20057,86.2232709 Z M125.857804,54.8177247 L124.33535,53.2952709 C123.714324,52.6742445 123.068689,52.0933678 122.40557,51.5422797 C120.068465,49.600196 117.489165,48.096522 114.774522,47.029315 C113.507214,46.5313282 112.210764,46.1278877 110.896183,45.8209361 C107.822782,45.1021256 104.651597,44.9052621 101.5238,45.2296982 C101.137844,45.269848 100.753183,45.3184163 100.36917,45.3741079 C98.961337,45.5800374 97.7723855,44.3923811 97.9789626,42.985196 C98.0359493,42.5927643 98.0858128,42.1990374 98.1259626,41.804663 C98.3862885,39.2778172 98.3053414,36.722478 97.8850639,34.2137643 C97.7147511,33.2022489 96.8431123,32.4562401 95.8173502,32.4562401 L94.4146982,32.4562401 C93.5663722,32.4562401 92.7342357,32.5216454 91.9208789,32.6466278 C90.7643062,32.8240639 89.9457687,33.9158789 90.1646498,35.0653282 C90.7779053,38.2915573 90.6088877,41.6382357 89.6575969,44.7984119 C88.721848,47.9061344 87.0310242,50.8338304 84.5818877,53.2855573 L84.572174,53.2952709 L84.5631079,53.3049846 C83.0801564,54.7892313 81.8050771,56.4023458 80.7236233,58.104826 C79.9504163,59.3222709 79.280174,60.5863414 78.7122489,61.8853811 C78.7018877,61.9080463 78.692174,61.9307115 78.6824604,61.9540242 C77.9416322,63.6597423 79.70887,65.4230947 81.4139405,64.6796762 C81.4359581,64.6699626 81.4573282,64.6602489 81.4793458,64.6505352 C82.7842137,64.0774295 84.0450463,63.4033018 85.2534251,62.632685 C86.9682093,61.5382797 88.5800286,60.2567247 90.0526189,58.7841344 C90.0545617,58.7828392 90.0565044,58.7815441 90.0577996,58.7796013 C90.0597423,58.7783062 90.0610374,58.7763634 90.0623326,58.7750683 C92.4726145,56.3667291 95.3789405,54.6370507 98.5514207,53.6812269 C100.441051,53.1120066 102.424579,52.8167115 104.454086,52.8167115 C106.430491,52.8167115 108.363509,53.0997026 110.209104,53.6410771 C111.458927,54.0069581 112.666659,54.4939361 113.821289,55.0929449 C115.653284,56.0448833 117.349289,57.2785176 118.850372,58.7802489 L120.20057,60.1304471 L123.119848,63.0490771 L131.772126,71.7013546 C132.587425,72.5160066 132.587425,73.8377115 131.772126,74.6517159 L124.150143,82.2743458 C123.549192,82.8752974 123.363985,83.783848 123.705905,84.5609405 C124.200654,85.6844868 124.631293,86.8410595 124.995231,88.0274207 C125.460839,89.5440463 127.349822,90.0433282 128.472073,88.9217247 L142.741434,74.6517159 C143.555438,73.8370639 143.555438,72.5160066 142.741434,71.7013546 L125.857804,54.8177247 Z M98.125315,104.548407 C98.0851652,104.154681 98.0359493,103.760954 97.9789626,103.368522 C97.7723855,101.961337 98.961337,100.773033 100.368522,100.978963 C100.752535,101.035302 101.137844,101.083222 101.523152,101.123372 C102.497108,101.225042 103.475597,101.280086 104.454086,101.280086 C106.023813,101.280086 107.59354,101.146685 109.145782,100.885064 C110.154059,100.714751 110.896183,99.8411696 110.896183,98.8186454 L110.896183,97.4146982 C110.896183,96.568315 110.830778,95.736826 110.706443,94.9247643 C110.529007,93.7694868 109.437839,92.9574251 108.289037,93.1756586 C107.038566,93.413967 105.755716,93.5370066 104.454086,93.5370066 C102.424579,93.5370066 100.440403,93.2410639 98.5507731,92.6718436 C95.3802357,91.7166674 92.4758524,89.9889317 90.0668656,87.5825352 C90.0636278,87.5792974 90.0603899,87.5754119 90.057152,87.5728216 C90.0539141,87.5695837 90.0506762,87.5669934 90.0480859,87.5637555 C88.5638392,86.080804 86.9494295,84.8050771 85.2469493,83.7242709 C84.030152,82.9504163 82.7654339,82.280174 81.4670419,81.7122489 C81.4502048,81.7051256 81.4340154,81.6980022 81.4165308,81.6908789 C79.7134031,80.9500507 77.9487555,82.7140507 78.6895837,84.417826 C78.6973546,84.4340154 78.704478,84.4508524 78.7122489,84.4676894 C79.280174,85.7667291 79.9497687,87.0307996 80.7229758,88.2482445 C81.8044295,89.9500771 83.0801564,91.5638392 84.5631079,93.0487335 C84.5663458,93.0519714 84.5695837,93.0552093 84.572174,93.0584471 C84.5754119,93.061685 84.5786498,93.0642753 84.5818877,93.0675132 C86.9908744,95.4790903 88.7199053,98.3886542 89.6737863,101.563725 C90.2410639,103.449469 90.5357115,105.429112 90.5357115,107.454086 C90.5357115,109.431139 90.2527203,111.363509 89.7113458,113.209104 C89.3454648,114.458927 88.8591344,115.667306 88.259478,116.821936 C87.3075396,118.653284 86.0739053,120.349289 84.572174,121.85102 L83.2219758,123.201218 L80.3033458,126.119848 L71.6504207,134.772773 C70.8364163,135.587425 69.5147115,135.587425 68.7000595,134.772773 L61.0780771,127.150143 C60.4771256,126.549839 59.5685749,126.363985 58.7914824,126.705905 C57.6685837,127.200654 56.5107159,127.631293 55.3250022,127.995231 C53.8083767,128.461487 53.3090947,130.350469 54.4313458,131.472073 L68.700707,145.741434 C69.5147115,146.556086 70.8364163,146.556086 71.6504207,145.741434 L88.5346982,128.858452 L90.057152,127.33535 C90.6781784,126.714324 91.2597026,126.068689 91.8094956,125.40557 C93.7522269,123.068465 95.2559009,120.489165 96.3231079,117.774522 C96.8210947,116.507214 97.2245352,115.211412 97.5314868,113.896183 C98.2490022,110.830553 98.4471608,107.668434 98.125315,104.548407 L98.125315,104.548407 Z M25.5779009,99.3231079 C26.8452093,99.8217423 28.141011,100.224535 29.4555925,100.531487 C31.572522,101.026236 33.7354295,101.278791 35.8976894,101.278791 C36.8761784,101.278791 37.8546674,101.223747 38.8286233,101.122725 C39.2139317,101.082575 39.5992401,101.034654 39.9832533,100.978315 C41.3910859,100.772385 42.5793899,101.960689 42.3728128,103.368522 C42.3171211,103.752535 42.2685529,104.137844 42.2290507,104.5238 C41.9654868,107.058416 42.0451388,109.621526 42.467359,112.138659 C42.6370242,113.150174 43.508663,113.896183 44.5344251,113.896183 L45.9377247,113.896183 C46.7847555,113.896183 47.6162445,113.830778 48.4289537,113.706443 C49.586174,113.529007 50.405359,112.435896 50.1871256,111.2858 C49.5732225,108.055685 49.7435352,104.705769 50.6980639,101.543002 C51.6344604,98.4391652 53.323989,95.5160022 55.7698877,93.0668656 L55.7796013,93.057152 C55.7821916,93.0539141 55.7854295,93.0513238 55.7880198,93.0480859 C57.2716189,91.5638392 58.5466982,89.9500771 59.628152,88.2475969 C60.401359,87.030152 61.0716013,85.7660815 61.6395264,84.4670419 C61.6466498,84.4508524 61.6544207,84.4340154 61.6615441,84.417826 C62.4023722,82.7140507 60.6377247,80.9500507 58.9345969,81.6908789 C58.9177599,81.6980022 58.9015705,81.7051256 58.8847335,81.7122489 C57.5863414,82.280174 56.3216233,82.9504163 55.104826,83.7236233 C53.4023458,84.8050771 51.7885837,86.0801564 50.3036894,87.5631079 L50.2946233,87.5728216 L50.2849097,87.5818877 C47.8759229,89.9882841 44.9708921,91.7160198 41.8010022,92.671196 C39.9113722,93.2404163 37.927196,93.536359 35.8976894,93.536359 C33.9212841,93.536359 31.9882665,93.2527203 30.1433194,92.7119934 C28.8934956,92.3454648 27.6851167,91.8591344 26.5311344,91.259478 C24.6991388,90.3081872 23.0024868,89.0739053 21.5014031,87.5728216 L20.1512048,86.2226233 L17.2319273,83.3033458 L8.57964978,74.6510683 C7.7649978,73.8364163 7.7649978,72.515359 8.57964978,71.7000595 L16.2016322,64.0780771 C16.8025837,63.4777731 16.9884383,62.5692225 16.64587,61.7914824 C16.1517687,60.6685837 15.7204824,59.5113634 15.3571916,58.3256498 C14.8909361,56.8083767 13.0019537,56.3090947 11.8803502,57.4313458 L-2.38901101,71.700707 C-3.203663,72.515359 -3.203663,73.8364163 -2.38901101,74.6510683 L14.4939714,91.5346982 L16.0170727,93.057152 C16.6380991,93.6781784 17.2837335,94.2590551 17.9468524,94.8101432 C20.2839581,96.7522269 22.8626101,98.2565485 25.5779009,99.3231079 L25.5779009,99.3231079 Z M60.7251476,121.313531 C63.4074119,119.647963 65.7892004,117.54528 67.7707863,115.103914 C68.0155705,114.802791 68.2532313,114.496487 68.4857115,114.185002 C69.3353326,113.043971 71.0164427,113.043971 71.8654163,114.185002 C72.0978965,114.496487 72.3362048,114.802791 72.5803414,115.103914 C74.1902181,117.087443 76.0643062,118.84691 78.1488568,120.331156 C78.9790507,120.921747 80.1174912,120.821372 80.8375969,120.101267 L81.8303326,119.108531 C82.4254559,118.514055 82.9687731,117.881372 83.458989,117.216311 C84.1538392,116.273438 83.962804,114.92065 82.9940286,114.261416 C80.2742048,112.411936 78.0238744,109.920059 76.4612709,107.007258 C74.9278084,104.1495 74.055522,100.887007 74.0535793,97.4237643 C74.0535793,97.4205264 74.0542269,97.4172885 74.0542269,97.4140507 C74.0542269,97.4108128 74.0535793,97.4082225 74.0535793,97.4049846 C74.0529317,95.3016542 73.8126806,93.2540154 73.3723282,91.280848 C73.0582533,89.8769009 72.6399185,88.5131035 72.1237996,87.1959317 C72.1173238,87.1790947 72.110848,87.1629053 72.1043722,87.1460683 C71.4237687,85.4170374 68.9280066,85.4170374 68.2474031,87.1460683 C68.2409273,87.1629053 68.2344515,87.1790947 68.2279758,87.1959317 C67.7118568,88.5131035 67.293522,89.8769009 66.9794471,91.280848 C66.5384471,93.2540154 66.2988436,95.3016542 66.2975485,97.4049846 L66.2975485,97.4146982 L66.2975485,97.4237643 C66.2962533,100.887007 65.4233194,104.1495 63.8905044,107.007258 C62.0157687,110.500289 59.153478,113.387187 55.6766366,115.289121 C54.5446718,115.908205 53.3473018,116.421733 52.0981256,116.819346 C50.1534515,117.437782 48.0844427,117.774522 45.9377247,117.774522 L44.0280198,117.774522 L39.9003634,117.774522 L27.6643943,117.774522 C26.511707,117.774522 25.5779009,116.840068 25.5779009,115.688029 L25.5779009,104.90846 C25.5779009,104.058839 25.066315,103.284985 24.2743282,102.977385 C23.1313546,102.533148 22.0078084,102.019619 20.9121079,101.438095 C19.5101035,100.694676 17.8212225,101.677698 17.8212225,103.264262 L17.8212225,123.444059 C17.8212225,124.596099 18.7556762,125.530553 19.9077159,125.530553 L43.7838833,125.530553 L45.9377247,125.530553 C46.8158392,125.530553 47.6835925,125.484575 48.5409846,125.40557 C51.5677599,125.126465 54.4553062,124.365562 57.129152,123.201218 C58.377033,122.657253 59.5789361,122.025866 60.7251476,121.313531 L60.7251476,121.313531 Z M17.9468524,51.5409846 C17.867848,50.6835925 17.82187,49.8158392 17.82187,48.9377247 L17.82187,46.7838833 L17.82187,22.9083634 C17.82187,21.7556762 18.7563238,20.8212225 19.9083634,20.8212225 L40.0881608,20.8212225 C41.6747247,20.8212225 42.6577467,22.5101035 41.9136806,23.9121079 C41.332804,25.0084559 40.8199229,26.1313546 40.3750374,27.2749758 C40.0674383,28.066315 39.2935837,28.5779009 38.4439626,28.5779009 L27.6650419,28.5779009 C26.5123546,28.5779009 25.5779009,29.511707 25.5779009,30.6643943 L25.5779009,42.9003634 L25.5779009,47.0280198 L25.5779009,48.9377247 C25.5779009,51.0825 25.9133458,53.1495661 26.5311344,55.0922974 C26.9280991,56.340826 27.4409802,57.538196 28.0594163,58.6701608 C29.9607026,62.1502401 32.8495441,65.0151211 36.3451652,66.8905044 C39.2029229,68.423967 42.4654163,69.2962533 45.9286586,69.2975485 L45.9377247,69.2975485 L45.9474383,69.2975485 C48.0468833,69.2988436 50.0906366,69.5377996 52.0605661,69.9768568 C53.4683987,70.2909317 54.8360815,70.7112093 56.1564912,71.2279758 C56.1726806,71.2350991 56.1895176,71.2415749 56.2063546,71.2480507 C57.9353855,71.9286542 57.9353855,74.4237687 56.2063546,75.1043722 C56.1895176,75.110848 56.1726806,75.1173238 56.1564912,75.1237996 C54.8360815,75.6412137 53.4683987,76.0608436 52.0599185,76.3749185 C50.0906366,76.8139758 48.0468833,77.0535793 45.9474383,77.0542269 C45.9442004,77.0542269 45.9409626,77.0542269 45.9377247,77.0542269 C45.9344868,77.0542269 45.9318965,77.0542269 45.9286586,77.0542269 C42.4654163,77.055522 39.2029229,77.9284559 36.3451652,79.4612709 C33.4323634,81.024522 30.9404868,83.2742048 29.0910066,85.9946762 C28.4317731,86.962804 27.078337,87.1538392 26.1354648,86.458989 C25.4710507,85.9687731 24.8383678,85.4254559 24.2432445,84.8303326 L23.2505088,83.8375969 C22.5310507,83.1174912 22.4306762,81.9790507 23.0219141,81.1488568 C24.5055132,79.0643062 26.2649802,77.1908656 28.2485088,75.5803414 C28.5496322,75.3362048 28.8559361,75.0978965 29.1674207,74.8660639 C30.3084515,74.0164427 30.3084515,72.3353326 29.1674207,71.4857115 C28.8559361,71.2538789 28.5496322,71.0155705 28.2485088,70.7714339 C25.8064956,68.7892004 23.7038128,66.4074119 22.0388921,63.7257952 C21.3265573,62.5789361 20.6951696,61.3776806 20.1512048,60.129152 C18.9862137,57.4553062 18.2259581,54.5677599 17.9468524,51.5409846 L17.9468524,51.5409846 Z" id="Fill-1" fill="#D1A27E" mask="url(#mask-2)"></path>
            </g>
            <path d="M13.1038937,221 C12.1912727,221 11.7362368,220.641289 11.7362368,219.922568 L11.7362368,219.732815 C11.7362368,219.310421 12.1498479,218.644986 12.9796192,217.735862 C13.8074787,216.827389 14.2223643,215.888372 14.2223643,214.915564 L14.2223643,180.119325 L9.24947205,180.119325 C8.37955049,180.119325 7.5924786,180.50013 6.88761908,181.260441 C6.18275955,182.021401 5.63340249,182.866191 5.2401852,183.79546 C4.84633061,184.725378 4.37982322,185.570168 3.84193765,186.330479 C3.30277748,187.09079 2.7636173,187.471595 2.22636904,187.471595 L1.35517286,187.471595 C0.277489816,187.471595 -0.157789617,186.923131 0.0506091744,185.823605 L1.16907975,177.774058 C1.33414179,176.592003 1.99693917,176 3.15874651,176 L34.67285,176 C35.8321081,176 36.4949055,176.592003 36.6618795,177.774058 L37.9670805,185.887289 C38.0499301,186.394163 37.9760027,186.785366 37.7497594,187.059597 C37.5209669,187.334479 37.178734,187.471595 36.7243354,187.471595 L35.7913206,187.471595 C35.2521604,187.471595 34.704078,187.09079 34.1438867,186.330479 C33.5849701,185.570168 33.0967943,184.725378 32.6838206,183.79546 C32.2682976,182.866191 31.6985468,182.021401 30.9739308,181.260441 C30.2486775,180.50013 29.4507714,180.119325 28.5808499,180.119325 L23.546139,180.119325 L23.546139,214.915564 C23.546139,215.888372 23.9807811,216.827389 24.8519773,217.735862 C25.7218989,218.644986 26.156541,219.310421 26.156541,219.732815 L26.156541,219.922568 C26.156541,220.641289 25.6791994,221 24.7270655,221 L13.1038937,221 Z" id="Fill-4" fill="#D1A27E"></path>
            <path d="M66.0917843,200.021271 C68.470475,200.021271 70.3799743,199.260311 71.8196406,197.739039 C73.2593068,196.217768 73.9794608,194.063554 73.9794608,191.274448 C73.9794608,187.810161 72.9980745,185.042499 71.0372272,182.972115 C69.0744544,180.90173 66.8003851,179.865888 64.2130937,179.865888 L62.0853659,179.865888 C60.6655969,179.865888 59.9563543,180.816601 59.9563543,182.718028 L59.9563543,195.584826 C59.9563543,198.542889 61.1245186,200.021271 63.4621309,200.021271 L66.0917843,200.021271 Z M84.4338896,215.29572 C84.4749679,216.09892 84.9127086,216.922915 85.7483954,217.767704 C86.5827985,218.613144 87,219.268181 87,219.732815 L87,219.922568 C87,220.641289 86.5404365,221 85.6232349,221 L74.2297818,221 C73.3112965,221 72.8523748,220.641289 72.8523748,219.922568 L72.8523748,219.732815 C72.8523748,219.268181 73.1655969,218.676828 73.7913992,217.958107 C74.4178434,217.240036 74.7304236,216.49987 74.7304236,215.738909 C74.6887035,212.993343 74.114249,210.542153 73.0089859,208.387289 C71.9030809,206.232425 70.3273427,204.669564 68.2824134,203.696757 L67.343389,203.696757 L59.9563543,203.696757 L59.9563543,214.915564 C59.9563543,215.888372 60.4050064,216.827389 61.3023107,217.735862 C62.1996149,218.644986 62.648267,219.31107 62.648267,219.732815 L62.648267,219.922568 C62.648267,220.641289 62.1469833,221 61.1456996,221 L49.3767651,221 C48.4582798,221 48,220.641289 48,219.922568 L48,219.732815 C48,219.31107 48.3960205,218.644986 49.1893453,217.735862 C49.9813864,216.827389 50.3786906,215.888372 50.3786906,214.915564 L50.3786906,182.083786 C50.3786906,181.112927 49.9813864,180.173261 49.1893453,179.264138 C48.3960205,178.355664 48,177.690229 48,177.267185 L48,177.014398 C48,176.338566 48.4582798,176 49.3767651,176 L64.8395379,176 C70.639923,176 75.2516046,177.20415 78.6745828,179.612451 C82.0962773,182.021401 83.8080873,185.549373 83.8080873,190.197017 C83.8080873,192.35188 83.1501926,194.44371 81.8356868,196.471855 C80.5205392,198.5 78.7156611,200.14734 76.4210526,201.415824 C81.4293967,204.416128 84.0994865,209.042976 84.4338896,215.29572 L84.4338896,215.29572 Z" id="Fill-6" fill="#D1A27E"></path>
            <path d="M108.000237,205.724902 L122.7307,205.724902 L115.17473,186.267445 L108.000237,205.724902 Z M97.3970114,221 C96.4654535,221 96,220.641289 96,219.922568 L96,219.732815 C96,219.225292 96.4654535,218.559857 97.3970114,217.735213 C98.3279183,216.911867 99.0049416,215.972201 99.4287321,214.915564 L112.063678,182.528275 C112.359225,181.639946 112.041545,180.616451 111.111289,179.45389 C110.179731,178.29198 109.714277,177.563511 109.714277,177.267185 L109.714277,177.013748 C109.714277,176.337916 110.158899,176 111.048143,176 L123.301613,176 C124.190857,176 124.635479,176.337916 124.635479,177.013748 L124.635479,177.267185 C124.635479,177.60575 124.359461,178.027495 123.80938,178.534369 C123.258648,179.041243 122.80361,179.611801 122.444267,180.246043 C122.084924,180.880285 122.053026,181.556767 122.349223,182.274188 L136.508123,214.915564 C136.930611,215.929312 137.619352,216.859231 138.571741,217.70467 C139.524131,218.54946 140,219.225292 140,219.732815 L140,219.922568 C140,220.641289 139.513064,221 138.539843,221 L125.016304,221 C124.042432,221 123.556147,220.641289 123.556147,219.922568 L123.556147,219.732815 C123.556147,219.310421 123.841278,218.876329 124.412842,218.433139 C124.984406,217.989299 125.492173,217.482425 125.936795,216.911867 C126.380766,216.341309 126.454979,215.675875 126.159432,214.915564 L124.12706,209.844876 L106.54008,209.844876 L104.63465,214.915564 C104.338452,215.675875 104.402249,216.341309 104.825388,216.911867 C105.247877,217.482425 105.74588,217.989299 106.317443,218.433139 C106.889007,218.876329 107.174138,219.310421 107.174138,219.732815 L107.174138,219.922568 C107.174138,220.641289 106.687202,221 105.713981,221 L97.3970114,221 Z" id="Fill-8" fill="#D1A27E"></path>
            <path d="M189.55989,176 C190.519322,176 191,176.338566 191,177.014398 L191,177.267185 C191,177.690229 190.550768,178.355664 189.653587,179.263488 C188.756406,180.173261 188.308457,181.112927 188.308457,182.083786 L188.308457,218.464981 C188.308457,219.268181 188.088975,219.890726 187.650653,220.334566 C187.212973,220.777755 186.618061,221 185.867201,221 L182.925372,221 C181.924226,221 180.96287,220.344963 180.046436,219.035539 L156.323126,186.901037 L156.323126,214.788196 C156.323126,215.761654 156.792895,216.722115 157.73179,217.672828 C158.670685,218.623541 159.140454,219.310421 159.140454,219.732815 L159.140454,219.922568 C159.140454,220.641289 158.660417,221 157.700344,221 L150.439468,221 C149.479395,221 149,220.641289 149,219.922568 L149,219.732815 C149,219.310421 149.416502,218.623541 150.252074,217.672828 C151.086363,216.722115 151.503507,215.761654 151.503507,214.788196 L151.503507,182.14747 C151.503507,181.133072 151.086363,180.173261 150.252074,179.263488 C149.416502,178.355664 149,177.690229 149,177.267185 L149,177.014398 C149,176.338566 149.479395,176 150.439468,176 L163.333715,176 C164.21036,176 164.648682,176.338566 164.648682,177.014398 L164.648682,177.267185 C164.648682,177.520622 164.397754,177.922871 163.897181,178.471985 C163.395966,179.021098 163.061609,179.528622 162.895393,179.993256 C162.727894,180.45789 162.915929,181.175962 163.458859,182.14747 L183.488838,209.591439 L183.488838,182.083786 C183.488838,181.112927 183.039606,180.173261 182.142425,179.263488 C181.245244,178.355664 180.797295,177.690229 180.797295,177.267185 L180.797295,177.014398 C180.797295,176.338566 181.27669,176 182.236764,176 L189.55989,176 Z" id="Fill-10" fill="#D1A27E"></path>
            <path d="M218.826897,221 C213.187305,221 208.639374,219.811538 205.183755,217.434615 C201.727484,215.058339 200,212.460803 200,209.64136 C200,208.464544 200.318238,207.528396 200.954061,206.83421 C201.589885,206.139377 202.543946,205.792608 203.816245,205.792608 C204.96138,205.835307 205.947395,206.256477 206.774292,207.054823 C207.600536,207.854463 208.321788,208.821665 208.936744,209.957723 C209.550395,211.093134 210.218825,212.219487 210.940077,213.332902 C211.660677,214.448257 212.721035,215.405755 214.119846,216.204101 C215.519962,217.003741 217.21484,217.402914 219.208391,217.402914 C221.455619,217.402914 223.247011,216.825181 224.583219,215.667773 C225.918774,214.511659 226.586552,212.96543 226.586552,211.030379 C226.586552,209.222132 226.109847,207.727659 225.155134,206.550195 C224.201072,205.372732 222.970509,204.478636 221.466705,203.868555 C219.960945,203.259121 218.296718,202.732497 216.474024,202.290625 C214.650025,201.848752 212.826679,201.334421 211.003985,200.744395 C209.179987,200.156311 207.505326,199.409721 205.978697,198.504627 C204.452721,197.600827 203.212376,196.27521 202.258315,194.529718 C201.304253,192.784225 200.826897,190.648617 200.826897,188.124835 C200.826897,184.254733 202.343091,181.100166 205.374828,178.659841 C208.405913,176.22081 212.508441,175 217.681762,175 C222.770306,175 227,176.126354 230.370843,178.375826 C233.741685,180.62724 235.405913,183.139377 235.363524,185.916121 C235.363524,188.525302 234.006449,189.828275 231.29295,189.828275 C230.021303,189.828275 228.972031,189.4401 228.145134,188.661163 C227.318238,187.883519 226.638722,186.947371 226.109847,185.853366 C225.579016,184.75936 225.017535,183.666648 224.4241,182.572642 C223.830012,181.478636 222.950293,180.543135 221.784291,179.764198 C220.617636,178.986555 219.186871,178.596439 217.491341,178.596439 C215.158684,178.596439 213.378378,179.20652 212.148468,180.426683 C210.917904,181.647492 210.304253,183.202779 210.304253,185.095778 C210.304253,186.905319 210.780958,188.419848 211.735019,189.638716 C212.689081,190.859526 213.918991,191.784676 215.4241,192.415459 C216.928556,193.04689 218.593435,193.604568 220.416781,194.087846 C222.239475,194.57177 224.062822,195.119097 225.88682,195.727884 C227.709514,196.338612 229.374393,197.085202 230.879501,197.968299 C232.38461,198.852044 233.615173,200.156311 234.569234,201.880453 C235.523295,203.60589 236,205.688448 236,208.127479 C236,212.082332 234.346207,215.216843 231.039273,217.529718 C227.731034,219.843239 223.660459,221 218.826897,221" id="Fill-12" fill="#D1A27E"></path>
            <path d="M266.31186,221 C260.50269,221 255.499438,218.613372 251.299534,213.838176 C247.098988,209.064274 245,203.584541 245,197.40027 C245,190.880228 246.932534,185.516947 250.797602,181.30978 C254.662671,177.103907 259.667208,175 265.810571,175 C270.615235,175 274.794573,176.230514 278.3473,178.691542 C281.898098,181.151923 283.675104,183.896965 283.675104,186.926022 C283.675104,188.18759 283.276643,189.207842 282.483578,189.986133 C281.68987,190.765717 280.603101,191.153245 279.224556,191.153245 C277.97069,191.153245 276.862712,190.734016 275.902551,189.891677 C274.940461,189.050631 274.104979,188.030379 273.39482,186.831566 C272.684017,185.632106 271.942366,184.423589 271.169867,183.202779 C270.395439,181.983263 269.383221,180.953307 268.129355,180.110967 C266.876132,179.269922 265.434604,178.849399 263.804772,178.849399 C261.171718,178.849399 258.915274,180.038508 257.034797,182.414137 C255.15432,184.791061 254.214081,187.893871 254.214081,191.721274 C254.214081,197.737982 255.707666,202.700796 258.695478,206.61295 C261.68329,210.525752 265.162109,212.481505 269.132576,212.481505 C274.063205,212.481505 278.011822,209.830919 280.979068,204.53104 C281.481,203.815504 282.128177,203.574189 282.922528,203.805153 C283.715593,204.036764 284.071637,204.615791 283.988089,205.540294 C283.612122,209.873618 281.898098,213.533459 278.848589,216.519817 C275.797794,219.506821 271.618456,221 266.31186,221" id="Fill-14" fill="#D1A27E"></path>
            <path d="M295.464613,221 C294.487769,221 294,220.641289 294,219.922568 L294,219.732815 C294,219.310421 294.413983,218.644986 295.24195,217.735862 C296.069917,216.827389 296.483901,215.866278 296.483901,214.85188 L296.483901,182.14747 C296.483901,181.092133 296.069917,180.119325 295.24195,179.232296 C294.413983,178.344616 294,177.690229 294,177.267185 L294,177.013748 C294,176.337916 294.466874,176 295.400622,176 L323.804849,176 C324.951465,176 325.609007,176.592003 325.779432,177.774058 L327.308037,185.190013 C327.520252,186.288889 327.094515,186.838003 326.034091,186.838003 L325.65145,186.838003 C325.015456,186.838003 324.324613,186.468245 323.582839,185.728729 C322.839105,184.989863 322.18091,184.186662 321.607602,183.320428 C321.034947,182.454843 320.312761,181.650994 319.443004,180.912127 C318.571941,180.173261 317.669536,179.802854 316.735788,179.802854 L308.584101,179.802854 C306.885071,179.802854 306.036209,180.711977 306.036209,182.528275 L306.036209,196.154734 L314.251887,196.154734 C314.97342,196.154734 315.599619,195.912344 316.130484,195.426265 C316.661349,194.940186 317.053784,194.411867 317.309096,193.841309 C317.563754,193.270752 317.871304,192.743083 318.232396,192.257004 C318.592836,191.771575 318.942829,191.527885 319.283679,191.527885 L319.792996,191.527885 C320.513876,191.527885 320.875622,191.971725 320.875622,192.858754 L320.875622,203.063164 C320.875622,203.950843 320.513876,204.394033 319.792996,204.394033 L319.283679,204.394033 C318.942829,204.394033 318.592836,204.162691 318.232396,203.696757 C317.871304,203.232772 317.563754,202.736945 317.309096,202.207327 C317.053784,201.680308 316.661349,201.183832 316.130484,200.717898 C315.599619,200.253264 314.97342,200.021271 314.251887,200.021271 L306.036209,200.021271 L305.972871,213.267575 C305.972871,214.324212 306.249078,215.243733 306.800838,216.024838 C307.351945,216.807244 308.202113,217.197146 309.34873,217.197146 L318.710371,217.197146 C319.643466,217.197146 320.52563,216.816991 321.352944,216.05668 C322.18091,215.29572 322.839105,214.45093 323.327527,213.521011 C323.815296,212.592393 324.419947,211.746303 325.142133,210.985992 C325.864318,210.225032 326.585198,209.844876 327.308037,209.844876 L327.817354,209.844876 C328.241132,209.844876 328.559781,210.014484 328.77265,210.35175 C328.984865,210.690966 329.048204,211.071121 328.96397,211.492866 L327.562695,219.162257 C327.308037,220.388502 326.628294,221 325.524773,221 L295.464613,221 Z" id="Fill-16" fill="#D1A27E"></path>
            <path d="M379.55989,176 C380.519322,176 381,176.338566 381,177.014398 L381,177.267185 C381,177.690229 380.550768,178.355664 379.653587,179.263488 C378.756406,180.173261 378.308457,181.112927 378.308457,182.083786 L378.308457,218.464981 C378.308457,219.268181 378.088975,219.890726 377.650653,220.334566 C377.212973,220.777755 376.618061,221 375.867201,221 L372.925372,221 C371.924226,221 370.96287,220.344963 370.046436,219.035539 L346.323126,186.901037 L346.323126,214.788196 C346.323126,215.761654 346.792895,216.722115 347.73179,217.672828 C348.670685,218.623541 349.140454,219.310421 349.140454,219.732815 L349.140454,219.922568 C349.140454,220.641289 348.660417,221 347.700344,221 L340.439468,221 C339.479395,221 339,220.641289 339,219.922568 L339,219.732815 C339,219.310421 339.416502,218.623541 340.252074,217.672828 C341.086363,216.722115 341.503507,215.761654 341.503507,214.788196 L341.503507,182.14747 C341.503507,181.133072 341.086363,180.173261 340.252074,179.263488 C339.416502,178.355664 339,177.690229 339,177.267185 L339,177.014398 C339,176.338566 339.479395,176 340.439468,176 L353.333715,176 C354.21036,176 354.648682,176.338566 354.648682,177.014398 L354.648682,177.267185 C354.648682,177.520622 354.397754,177.922871 353.897181,178.471985 C353.395966,179.021098 353.061609,179.528622 352.895393,179.993256 C352.727894,180.45789 352.915929,181.175962 353.458859,182.14747 L373.488838,209.591439 L373.488838,182.083786 C373.488838,181.112927 373.039606,180.173261 372.142425,179.263488 C371.245244,178.355664 370.797295,177.690229 370.797295,177.267185 L370.797295,177.014398 C370.797295,176.338566 371.27669,176 372.236764,176 L379.55989,176 Z" id="Fill-18" fill="#D1A27E"></path>
            <g id="Group-22" transform="translate(390.000000, 175.000000)">
                <mask id="mask-4" fill="white">
                    <use xlink:href="#path-3"></use>
                </mask>
                <g id="Clip-21"></g>
                <path d="M16.9594118,41.1168214 L20.1785294,41.1168214 C24.1320588,41.1168214 27.3615294,39.8420357 29.865,37.2918214 C32.3678235,34.7428929 33.6205294,31.2316071 33.6205294,26.7586071 C33.6205294,20.5306071 31.9265294,15.2218929 28.5398235,10.8331071 C25.1524706,6.44303571 20.977,4.24896429 16.0127647,4.24896429 L14.8137647,4.24896429 C13.1307647,4.24896429 12.2889412,5.12710714 12.2889412,6.88275 L12.2889412,35.7245357 C12.2889412,37.4383929 12.6998235,38.76525 13.5202941,39.7063929 C14.3401176,40.6468929 15.4867059,41.1168214 16.9594118,41.1168214 L16.9594118,41.1168214 Z M1.87582353,44.9411786 C0.907823529,44.9411786 0.424470588,44.5863214 0.424470588,43.8753214 L0.424470588,43.6876071 C0.424470588,43.2703929 0.834705882,42.6114643 1.65582353,41.7121071 C2.47564706,40.8133929 2.88588235,39.8844643 2.88588235,38.9221071 L2.88588235,6.44303571 C2.88588235,5.48260714 2.47564706,4.55303571 1.65582353,3.65367857 C0.834705882,2.75496429 0.424470588,2.09667857 0.424470588,1.67817857 L0.424470588,1.42810714 C0.424470588,0.759535714 0.907823529,0.424607143 1.87582353,0.424607143 L16.2651176,0.424607143 C24.5112353,0.424607143 31.1170588,2.51517857 36.0819412,6.69439286 C41.0461765,10.8748929 43.5289412,16.22475 43.5289412,22.7458929 C43.5289412,29.4335357 41.2881765,34.8058929 36.8072941,38.8591071 C32.3264118,42.91425 26.4672941,44.9411786 19.2312353,44.9411786 L1.87582353,44.9411786 Z" id="Fill-20" fill="#D1A27E" mask="url(#mask-4)"></path>
            </g>
            <path d="M28.6327806,259.166197 L29.6785811,259.166197 C30.6204132,259.166197 31.3638217,258.912676 31.9081272,258.405634 C32.4524327,257.898592 32.7242457,257.228169 32.7242457,256.394366 C32.7242457,255.267606 32.3783637,254.394366 31.6879587,253.774648 C30.9968742,253.15493 30.1678445,252.84507 29.2015493,252.84507 L28.4493069,252.84507 C28.0945909,252.84507 27.9172329,253.059155 27.9172329,253.487324 L27.9172329,258.490141 C27.9172329,258.940845 28.1564284,259.166197 28.6327806,259.166197 L28.6327806,259.166197 Z M25.4036423,264 C25.1345474,264 25,263.915493 25,263.746479 L25,263.695775 C25,263.605634 25.1162001,263.462285 25.3486002,263.265102 C25.5810003,263.067919 25.6972003,262.84507 25.6972003,262.597183 L25.6972003,253.402817 C25.6972003,253.166197 25.5810003,252.946479 25.3486002,252.743662 C25.1162001,252.540845 25,252.394992 25,252.304225 L25,252.23662 C25,252.078873 25.1345474,252 25.4036423,252 L29.2015493,252 C30.9139712,252 32.3083718,252.318623 33.3847513,252.955243 C34.4611307,253.591862 35,254.575274 35,255.904225 C35,257.188732 34.5250068,258.194679 33.577059,258.92144 C32.6291112,259.6482 31.3298451,260.011268 29.6785811,260.011268 L27.9172329,260.011268 L27.9172329,262.597183 C27.9172329,262.84507 28.0422669,263.067919 28.2930144,263.265102 C28.5437619,263.462285 28.6701549,263.605634 28.6701549,263.695775 L28.6701549,263.746479 C28.6701549,263.915493 28.5410438,264 28.2841805,264 L25.4036423,264 Z" id="Fill-23" fill="#D1A27E"></path>
            <path d="M41.7684729,258.540845 C42.6468406,258.540845 43.3519431,258.321127 43.8817734,257.88169 C44.4116037,257.442254 44.6765189,256.816901 44.6765189,256.005634 C44.6765189,255.01471 44.3480508,254.242254 43.6924527,253.690141 C43.0361856,253.138654 42.244116,252.861972 41.316913,252.861972 L40.4137931,252.861972 C40.0532141,252.861972 39.8719212,253.08795 39.8719212,253.538028 L39.8719212,257.577465 C39.8719212,258.219718 40.1662714,258.540845 40.7569787,258.540845 L41.7684729,258.540845 Z M46.7898194,262.597183 C46.9343186,262.8 47.1115976,262.972144 47.3229946,263.112989 C47.5330536,263.253834 47.69896,263.364006 47.819376,263.442254 C47.939792,263.521753 48,263.611268 48,263.712676 L48,263.76338 C48,263.921753 47.8735632,264 47.6206897,264 L44.4778325,264 C44.2249589,264 44.0985222,263.921753 44.0985222,263.76338 L44.0985222,263.712676 C44.0985222,263.622535 44.164751,263.521753 44.2972085,263.408451 C44.4296661,263.296401 44.522654,263.194992 44.5768412,263.104225 C44.6310284,263.014085 44.5975795,262.84507 44.4778325,262.597183 L42.183908,259.385915 L42.0213465,259.385915 L39.8719212,259.419718 L39.8719212,262.597183 C39.8719212,262.84507 39.9956821,263.067919 40.2425348,263.265102 C40.4887186,263.462285 40.6124795,263.611268 40.6124795,263.712676 L40.6124795,263.76338 C40.6124795,263.921753 40.4800219,264 40.2151067,264 L37.3793103,264 C37.1271058,264 37,263.921753 37,263.76338 L37,263.712676 C37,263.611268 37.1110503,263.462285 37.3338199,263.265102 C37.5565894,263.067919 37.6683087,262.84507 37.6683087,262.597183 L37.6683087,253.402817 C37.6683087,253.15493 37.5565894,252.932707 37.3338199,252.735524 C37.1110503,252.538341 37,252.388732 37,252.287324 L37,252.23662 C37,252.078873 37.1271058,252 37.3793103,252 L41.4614122,252 C43.1111111,252 44.4296661,252.318623 45.4170772,252.955243 C46.4044882,253.591862 46.9042146,254.523944 46.9162562,255.752113 C46.9162562,256.473239 46.6847899,257.12989 46.2205194,257.72144 C45.7575868,258.312989 45.091954,258.75493 44.2249589,259.047887 L46.7898194,262.597183 Z" id="Fill-25" fill="#D1A27E"></path>
            <path d="M55.6530114,263.038356 C56.61645,263.038356 57.4073229,262.658447 58.0262669,261.89863 C58.6445742,261.138813 58.9546829,260.218721 58.9546829,259.138356 C58.9546829,257.120091 58.518493,255.419736 57.6480233,254.036631 C56.776917,252.653526 55.6593791,251.961644 54.2947731,251.961644 C53.3205094,251.961644 52.5353675,252.326383 51.9393473,253.057179 C51.3433271,253.787316 51.0459538,254.73379 51.0459538,255.89726 C51.0459538,257.903653 51.4751393,259.595434 52.3347838,260.972603 C53.195065,262.349772 54.3005041,263.038356 55.6530114,263.038356 M55.1034757,264 C53.3262404,264 51.8648448,263.362202 50.7186522,262.085946 C49.5724595,260.809691 49,259.280822 49,257.5 C49,255.612329 49.5616344,254.057078 50.6842664,252.834247 C51.8075352,251.611416 53.2517379,251 55.0168745,251 C56.771186,251 58.2064739,251.644394 59.3240117,252.931862 C60.4415495,254.220649 61,255.766667 61,257.571233 C61,259.387671 60.4332714,260.913242 59.2985407,262.147945 C58.1631733,263.382648 56.7648183,264 55.1034757,264" id="Fill-27" fill="#D1A27E"></path>
            <path d="M64.3889454,264 C64.1300843,264 64,263.921753 64,263.76338 L64,263.712676 C64,263.611268 64.1117809,263.462285 64.3359965,263.265102 C64.5595584,263.067919 64.6713393,262.84507 64.6713393,262.597183 L64.6713393,253.402817 C64.6713393,253.15493 64.5595584,252.932707 64.3359965,252.734898 C64.1117809,252.538341 64,252.388732 64,252.287324 L64,252.23662 C64,252.078873 64.1176641,252 64.3529924,252 L72.0658774,252 C72.3365049,252 72.5012347,252.146479 72.5607205,252.439437 L72.9836578,254.264789 C73.0424898,254.523944 72.9424753,254.653521 72.6836142,254.653521 L72.6136694,254.653521 C72.4254067,254.653521 72.2136113,254.504538 71.9776293,254.205947 C71.742301,253.907355 71.4893231,253.608138 71.2186955,253.309546 C70.948068,253.011581 70.6663277,252.861972 70.3715137,252.861972 L67.4246804,252.861972 C67.0239686,252.861972 66.8245933,253.070423 66.8245933,253.487324 L66.8245933,257.949296 L69.595584,257.949296 C69.8426787,257.949296 70.0832365,257.76338 70.3185648,257.391549 C70.5545468,257.019718 70.7303893,256.833803 70.8487071,256.833803 L70.9716008,256.833803 C71.1487507,256.833803 71.2369988,256.940845 71.2369988,257.15493 L71.2369988,259.55493 C71.2369988,259.769014 71.1487507,259.876056 70.9716008,259.876056 L70.8487071,259.876056 C70.7303893,259.876056 70.5545468,259.698279 70.3185648,259.343975 C70.0832365,258.989045 69.8426787,258.811268 69.595584,258.811268 L66.8245933,258.811268 L66.8245933,262.597183 C66.8245933,262.84507 66.9448722,263.067919 67.1860837,263.265102 C67.4266415,263.462285 67.5482278,263.611268 67.5482278,263.712676 L67.5482278,263.76338 C67.5482278,263.921753 67.4187972,264 67.1592824,264 L64.3889454,264 Z" id="Fill-29" fill="#D1A27E"></path>
            <path d="M74.4114087,264 C74.1375972,264 74,263.921753 74,263.76338 L74,263.712676 C74,263.611268 74.1182368,263.462285 74.3554018,263.265102 C74.5918754,263.067919 74.7101122,262.839437 74.7101122,262.580282 L74.7101122,253.419718 C74.7101122,253.160563 74.5918754,252.929577 74.3554018,252.726761 C74.1182368,252.523944 74,252.377465 74,252.287324 L74,252.23662 C74,252.078873 74.1244598,252 74.3733793,252 L82.4943802,252 C82.7937751,252 82.9673274,252.140845 83.0171113,252.422535 L83.465858,254.247887 C83.5280879,254.507042 83.42852,254.63662 83.1671545,254.63662 L83.0731182,254.63662 C82.9120119,254.63662 82.734311,254.543975 82.5413984,254.358059 C82.3484857,254.171518 82.174242,253.966197 82.0186673,253.740845 C81.8624011,253.515493 81.6701799,253.309546 81.4399293,253.123631 C81.2096787,252.938341 80.9697479,252.84507 80.7215197,252.84507 L77.5851332,252.84507 C77.1619699,252.84507 76.9503883,253.064789 76.9503883,253.504225 L76.9503883,257.442254 L79.8254093,257.442254 C80.012099,257.442254 80.1732053,257.383412 80.310111,257.265102 C80.4470168,257.146166 80.5500418,257.019718 80.6191861,256.884507 C80.6869476,256.749296 80.7678464,256.622222 80.8611913,256.503912 C80.9545361,256.385603 81.0451152,256.326761 81.132237,256.326761 L81.2442508,256.326761 C81.4302491,256.326761 81.5235939,256.433803 81.5235939,256.647887 L81.5235939,259.047887 C81.5235939,259.261972 81.4302491,259.369014 81.2442508,259.369014 L81.132237,259.369014 C81.0451152,259.369014 80.9545361,259.312676 80.8611913,259.2 C80.7678464,259.087324 80.6869476,258.965884 80.6191861,258.836307 C80.5500418,258.707355 80.4470168,258.585915 80.310111,258.473239 C80.1732053,258.360563 80.012099,258.304225 79.8254093,258.304225 L76.9503883,258.304225 L76.9317193,262.259155 C76.9317193,262.507042 77.002938,262.718623 77.1460667,262.892645 C77.2891955,263.067919 77.4980114,263.15493 77.7711314,263.15493 L81.3002577,263.15493 C81.5484859,263.15493 81.7856509,263.059155 82.0089871,262.867606 C82.2337061,262.676056 82.4134814,262.461972 82.5503871,262.225352 C82.6879843,261.988732 82.8490906,261.774648 83.0364717,261.583099 C83.2224699,261.391549 83.4029366,261.295775 83.5778718,261.295775 L83.7078631,261.295775 C83.8081224,261.295775 83.885564,261.335211 83.9415709,261.414085 C83.9975778,261.492958 84.013481,261.583099 83.9885891,261.684507 L83.5585114,263.560563 C83.4845269,263.853521 83.3033688,264 83.0171113,264 L74.4114087,264 Z" id="Fill-31" fill="#D1A27E"></path>
            <path d="M89.2260398,264 C87.5985533,264 86.3206751,263.658538 85.3924051,262.974293 C84.464135,262.291368 84,261.57476 84,260.825789 C84,260.564243 84.0783605,260.34761 84.2357511,260.174567 C84.3918023,260.002845 84.6088005,259.922268 84.8867457,259.934156 C85.1392405,259.946045 85.3622664,260.032566 85.5558235,260.1924 C85.748041,260.353554 85.9014132,260.552355 86.0166097,260.790123 C86.1311366,261.027892 86.275802,261.283493 86.4499364,261.556927 C86.6247405,261.830361 86.8176278,262.085963 87.029268,262.323731 C87.2395687,262.5615 87.5409551,262.757659 87.9334271,262.912209 C88.3245596,263.066758 88.7860157,263.144033 89.3171254,263.144033 C90.0518385,263.144033 90.6485835,262.947874 91.1073605,262.555556 C91.5647981,262.163237 91.7938517,261.646091 91.7938517,261.004115 C91.7938517,260.457247 91.655214,260.005487 91.3779385,259.648834 C91.1006631,259.292181 90.7423481,259.030636 90.3016543,258.864198 C89.8616302,258.697759 89.374054,258.558401 88.8375862,258.4448 C88.3011185,258.33186 87.763981,258.201748 87.228183,258.053142 C86.6917152,257.904537 86.2027995,257.71102 85.7634452,257.473251 C85.3234211,257.235482 84.9651062,256.872885 84.6878307,256.38546 C84.4098855,255.898034 84.2719175,255.291724 84.2719175,254.566529 C84.2719175,253.532236 84.6878307,252.679571 85.5196571,252.007214 C86.3508137,251.336178 87.4900542,251 88.9367089,251 C90.3840332,251 91.5560914,251.312402 92.4542228,251.935884 C93.3516844,252.560687 93.7950573,253.246914 93.7836716,253.995885 C93.7836716,254.602195 93.46956,254.90535 92.8426763,254.90535 C92.5774563,254.90535 92.3517514,254.831377 92.1648918,254.682772 C91.9773625,254.533506 91.8360458,254.346594 91.7396022,254.120713 C91.6431585,253.894833 91.519925,253.648478 91.3692318,253.380328 C91.2185386,253.113499 91.0551202,252.866484 90.8809859,252.640604 C90.7061818,252.414723 90.4469895,252.227811 90.103409,252.079205 C89.7598285,251.9306 89.3526221,251.855967 88.8824593,251.855967 C88.1236354,251.855967 87.5329181,252.05807 87.1109772,252.462277 C86.6883665,252.866484 86.477396,253.371742 86.477396,253.978052 C86.477396,254.501143 86.6167035,254.932429 86.893979,255.271249 C87.1712544,255.609409 87.5295694,255.862369 87.9695935,256.028807 C88.4089478,256.195245 88.8978635,256.340548 89.4343313,256.465376 C89.9701293,256.590205 90.5072668,256.733526 91.0437345,256.89402 C91.5802023,257.053854 92.0677784,257.259259 92.5078026,257.508916 C92.9484964,257.758573 93.3068113,258.127115 93.5847565,258.61454 C93.8613623,259.101966 94,259.702332 94,260.415638 C94,261.509374 93.5365347,262.380531 92.6082647,263.02779 C91.6793249,263.67637 90.5521398,264 89.2260398,264" id="Fill-33" fill="#D1A27E"></path>
            <path d="M102.22604,264 C100.598553,264 99.3206751,263.658538 98.3924051,262.974293 C97.464135,262.291368 97,261.57476 97,260.825789 C97,260.564243 97.0783605,260.34761 97.2357511,260.174567 C97.3918023,260.002845 97.6088005,259.922268 97.8867457,259.934156 C98.1392405,259.946045 98.3622664,260.032566 98.5558235,260.1924 C98.748041,260.353554 98.9014132,260.552355 99.0166097,260.790123 C99.1311366,261.027892 99.275802,261.283493 99.4499364,261.556927 C99.6247405,261.830361 99.8176278,262.085963 100.029268,262.323731 C100.239569,262.5615 100.540955,262.757659 100.933427,262.912209 C101.32456,263.066758 101.786016,263.144033 102.317125,263.144033 C103.051838,263.144033 103.648583,262.947874 104.107361,262.555556 C104.564798,262.163237 104.793852,261.646091 104.793852,261.004115 C104.793852,260.457247 104.655214,260.005487 104.377939,259.648834 C104.100663,259.292181 103.742348,259.030636 103.301654,258.864198 C102.86163,258.697759 102.374054,258.558401 101.837586,258.4448 C101.301118,258.33186 100.763981,258.201748 100.228183,258.053142 C99.6917152,257.904537 99.2027995,257.71102 98.7634452,257.473251 C98.3234211,257.235482 97.9651062,256.872885 97.6878307,256.38546 C97.4098855,255.898034 97.2719175,255.291724 97.2719175,254.566529 C97.2719175,253.532236 97.6878307,252.679571 98.5196571,252.007214 C99.3508137,251.336178 100.490054,251 101.936709,251 C103.384033,251 104.556091,251.312402 105.454223,251.935884 C106.351684,252.560687 106.795057,253.246914 106.783672,253.995885 C106.783672,254.602195 106.46956,254.90535 105.842676,254.90535 C105.577456,254.90535 105.351751,254.831377 105.164892,254.682772 C104.977363,254.533506 104.836046,254.346594 104.739602,254.120713 C104.643159,253.894833 104.519925,253.648478 104.369232,253.380328 C104.218539,253.113499 104.05512,252.866484 103.880986,252.640604 C103.706182,252.414723 103.446989,252.227811 103.103409,252.079205 C102.759829,251.9306 102.352622,251.855967 101.882459,251.855967 C101.123635,251.855967 100.532918,252.05807 100.110977,252.462277 C99.6883665,252.866484 99.477396,253.371742 99.477396,253.978052 C99.477396,254.501143 99.6167035,254.932429 99.893979,255.271249 C100.171254,255.609409 100.529569,255.862369 100.969593,256.028807 C101.408948,256.195245 101.897864,256.340548 102.434331,256.465376 C102.970129,256.590205 103.507267,256.733526 104.043735,256.89402 C104.580202,257.053854 105.067778,257.259259 105.507803,257.508916 C105.948496,257.758573 106.306811,258.127115 106.584757,258.61454 C106.861362,259.101966 107,259.702332 107,260.415638 C107,261.509374 106.536535,262.380531 105.608265,263.02779 C104.679325,263.67637 103.55214,264 102.22604,264" id="Fill-35" fill="#D1A27E"></path>
            <path d="M108,263.76338 L108,263.712676 C108,263.622535 108.093154,263.47856 108.280022,263.281377 C108.466891,263.08482 108.560606,262.861972 108.560606,262.614085 L108.560606,253.402817 C108.560606,253.15493 108.466891,252.932707 108.280022,252.734898 C108.093154,252.538341 108,252.388732 108,252.287324 L108,252.23662 C108,252.078873 108.106061,252 108.318182,252 L110.681818,252 C110.893939,252 111,252.078873 111,252.23662 L111,252.287324 C111,252.388732 110.89899,252.538341 110.69697,252.734898 C110.494388,252.932707 110.393939,253.15493 110.393939,253.402817 L110.393939,262.614085 C110.393939,262.861972 110.494388,263.08482 110.69697,263.281377 C110.89899,263.47856 111,263.622535 111,263.712676 L111,263.76338 C111,263.921127 110.893939,264 110.681818,264 L108.318182,264 C108.106061,264 108,263.921127 108,263.76338" id="Fill-37" fill="#D1A27E"></path>
            <path d="M120.653011,263.038356 C121.61645,263.038356 122.407323,262.658447 123.026267,261.89863 C123.644574,261.138813 123.954683,260.218721 123.954683,259.138356 C123.954683,257.120091 123.518493,255.419736 122.648023,254.036631 C121.776917,252.653526 120.659379,251.961644 119.294773,251.961644 C118.320509,251.961644 117.535367,252.326383 116.939347,253.057179 C116.343327,253.787316 116.045954,254.73379 116.045954,255.89726 C116.045954,257.903653 116.475139,259.595434 117.334784,260.972603 C118.195065,262.349772 119.300504,263.038356 120.653011,263.038356 M120.103476,264 C118.32624,264 116.864845,263.362202 115.718652,262.085946 C114.57246,260.809691 114,259.280822 114,257.5 C114,255.612329 114.561634,254.057078 115.684266,252.834247 C116.807535,251.611416 118.251738,251 120.016875,251 C121.771186,251 123.206474,251.644394 124.324012,252.931862 C125.441549,254.220649 126,255.766667 126,257.571233 C126,259.387671 125.433271,260.913242 124.298541,262.147945 C123.163173,263.382648 121.764818,264 120.103476,264" id="Fill-39" fill="#D1A27E"></path>
            <path d="M139.630534,252 C139.876845,252 140,252.084507 140,252.253521 L140,252.304225 C140,252.394366 139.882443,252.538341 139.647328,252.734898 C139.411592,252.932707 139.294656,253.15493 139.294656,253.402817 L139.294656,263.425352 C139.294656,263.808451 139.115522,264 138.757252,264 L138.152672,264 C137.961719,264 137.754594,263.842254 137.531298,263.526761 L130.729149,254.230986 L130.729149,262.56338 C130.729149,262.811268 130.852926,263.03975 131.099237,263.247574 C131.345547,263.456651 131.468702,263.611268 131.468702,263.712676 L131.468702,263.76338 C131.468702,263.921127 131.345547,264 131.099237,264 L129.369466,264 C129.122533,264 129,263.921127 129,263.76338 L129,263.712676 C129,263.611268 129.108849,263.456651 129.327792,263.247574 C129.545491,263.03975 129.654962,262.811268 129.654962,262.56338 L129.654962,253.419718 C129.654962,253.171831 129.545491,252.952113 129.327792,252.760563 C129.108849,252.569014 129,252.422535 129,252.321127 L129,252.253521 C129,252.084507 129.122533,252 129.369466,252 L131.032061,252 C131.311959,252 131.547074,252.135211 131.737405,252.405634 L138.219225,261.48169 L138.219225,253.402817 C138.219225,253.15493 138.10229,252.932707 137.867176,252.734898 C137.632061,252.538341 137.514504,252.394366 137.514504,252.304225 L137.514504,252.253521 C137.514504,252.084507 137.637659,252 137.883347,252 L139.630534,252 Z" id="Fill-41" fill="#D1A27E"></path>
            <path d="M144.106052,260.011268 L148.712185,260.011268 L146.34735,254.230986 L144.106052,260.011268 Z M152.099951,262.597183 C152.206493,262.84507 152.382973,263.064789 152.630045,263.256338 C152.877117,263.447887 153,263.6 153,263.712676 L153,263.76338 C153,263.921753 152.877117,264 152.630045,264 L149.488044,264 C149.240972,264 149.118089,263.921753 149.118089,263.76338 L149.118089,263.712676 C149.118089,263.622535 149.191296,263.526761 149.338363,263.425352 C149.485429,263.323944 149.614848,263.208764 149.727273,263.07856 C149.83839,262.949609 149.85277,262.788732 149.771066,262.597183 L149.08214,260.923944 L143.753091,260.923944 L143.100114,262.597183 C143.017757,262.788732 143.031483,262.949609 143.143908,263.07856 C143.255678,263.208764 143.384444,263.323944 143.532164,263.425352 C143.679231,263.526761 143.753091,263.622535 143.753091,263.712676 L143.753091,263.76338 C143.753091,263.921753 143.623672,264 143.364181,264 L141.369955,264 C141.123536,264 141,263.921753 141,263.76338 L141,263.712676 C141,263.6 141.123536,263.451017 141.369955,263.265102 C141.617027,263.07856 141.794161,262.856338 141.900049,262.597183 L145.606133,253.487324 C145.687837,253.273239 145.612016,253.03662 145.376055,252.777465 C145.140748,252.51831 145.023095,252.35493 145.023095,252.287324 L145.023095,252.23662 C145.023095,252.078873 145.123754,252 145.323111,252 L146.717958,252 C147.176153,252 147.494471,252.214085 147.670952,252.642254 L152.099951,262.597183 Z" id="Fill-43" fill="#D1A27E"></path>
            <path d="M154.361373,264 C154.120458,264 154,263.921753 154,263.76338 L154,263.712676 C154,263.611268 154.105799,263.462285 154.318034,263.265102 C154.530269,263.067919 154.636706,262.84507 154.636706,262.597183 L154.636706,253.402817 C154.636706,253.15493 154.530269,252.932707 154.318034,252.734898 C154.105799,252.538341 154,252.388732 154,252.287324 L154,252.23662 C154,252.078873 154.120458,252 154.361373,252 L157.062433,252 C157.315458,252 157.441652,252.078873 157.441652,252.23662 L157.441652,252.287324 C157.441652,252.388732 157.323106,252.538341 157.088564,252.734898 C156.853385,252.932707 156.736113,253.15493 156.736113,253.402817 L156.736113,262.343662 C156.736113,262.580282 156.790288,262.771831 156.899273,262.91831 C157.008259,263.064789 157.165683,263.138028 157.372819,263.138028 L160.521931,263.138028 C160.785153,263.138028 161.02352,263.034116 161.235755,262.825665 C161.44799,262.617214 161.61115,262.383099 161.726509,262.123944 C161.840593,261.864789 161.972523,261.631299 162.122299,261.422222 C162.2708,261.214397 162.420576,261.109859 162.569714,261.109859 L162.741159,261.109859 C162.95913,261.109859 163.039436,261.222535 162.982075,261.447887 L162.552506,263.560563 C162.483035,263.853521 162.316689,264 162.052829,264 L154.361373,264 Z" id="Fill-45" fill="#D1A27E"></path>
            <path d="M170.361373,264 C170.120458,264 170,263.921753 170,263.76338 L170,263.712676 C170,263.611268 170.105799,263.462285 170.318034,263.265102 C170.530269,263.067919 170.636706,262.84507 170.636706,262.597183 L170.636706,253.402817 C170.636706,253.15493 170.530269,252.932707 170.318034,252.734898 C170.105799,252.538341 170,252.388732 170,252.287324 L170,252.23662 C170,252.078873 170.120458,252 170.361373,252 L173.062433,252 C173.315458,252 173.441652,252.078873 173.441652,252.23662 L173.441652,252.287324 C173.441652,252.388732 173.323106,252.538341 173.088564,252.734898 C172.853385,252.932707 172.736113,253.15493 172.736113,253.402817 L172.736113,262.343662 C172.736113,262.580282 172.790288,262.771831 172.899273,262.91831 C173.008259,263.064789 173.165683,263.138028 173.372819,263.138028 L176.521931,263.138028 C176.785153,263.138028 177.02352,263.034116 177.235755,262.825665 C177.44799,262.617214 177.61115,262.383099 177.726509,262.123944 C177.840593,261.864789 177.972523,261.631299 178.122299,261.422222 C178.2708,261.214397 178.420576,261.109859 178.569714,261.109859 L178.741159,261.109859 C178.95913,261.109859 179.039436,261.222535 178.982075,261.447887 L178.552506,263.560563 C178.483035,263.853521 178.316689,264 178.052829,264 L170.361373,264 Z" id="Fill-47" fill="#D1A27E"></path>
            <path d="M180,263.76338 L180,263.712676 C180,263.622535 180.093154,263.47856 180.280022,263.281377 C180.466891,263.08482 180.560606,262.861972 180.560606,262.614085 L180.560606,253.402817 C180.560606,253.15493 180.466891,252.932707 180.280022,252.734898 C180.093154,252.538341 180,252.388732 180,252.287324 L180,252.23662 C180,252.078873 180.106061,252 180.318182,252 L182.681818,252 C182.893939,252 183,252.078873 183,252.23662 L183,252.287324 C183,252.388732 182.89899,252.538341 182.69697,252.734898 C182.494388,252.932707 182.393939,253.15493 182.393939,253.402817 L182.393939,262.614085 C182.393939,262.861972 182.494388,263.08482 182.69697,263.281377 C182.89899,263.47856 183,263.622535 183,263.712676 L183,263.76338 C183,263.921127 182.893939,264 182.681818,264 L180.318182,264 C180.106061,264 180,263.921127 180,263.76338" id="Fill-49" fill="#D1A27E"></path>
            <path d="M186.388945,264 C186.130084,264 186,263.921753 186,263.76338 L186,263.712676 C186,263.611268 186.111781,263.462285 186.335997,263.265102 C186.559558,263.067919 186.671339,262.84507 186.671339,262.597183 L186.671339,253.402817 C186.671339,253.15493 186.559558,252.932707 186.335997,252.734898 C186.111781,252.538341 186,252.388732 186,252.287324 L186,252.23662 C186,252.078873 186.117664,252 186.352992,252 L194.065877,252 C194.336505,252 194.501235,252.146479 194.560721,252.439437 L194.983658,254.264789 C195.04249,254.523944 194.942475,254.653521 194.683614,254.653521 L194.613669,254.653521 C194.425407,254.653521 194.213611,254.504538 193.977629,254.205947 C193.742301,253.907355 193.489323,253.608138 193.218696,253.309546 C192.948068,253.011581 192.666328,252.861972 192.371514,252.861972 L189.42468,252.861972 C189.023969,252.861972 188.824593,253.070423 188.824593,253.487324 L188.824593,257.949296 L191.595584,257.949296 C191.842679,257.949296 192.083236,257.76338 192.318565,257.391549 C192.554547,257.019718 192.730389,256.833803 192.848707,256.833803 L192.971601,256.833803 C193.148751,256.833803 193.236999,256.940845 193.236999,257.15493 L193.236999,259.55493 C193.236999,259.769014 193.148751,259.876056 192.971601,259.876056 L192.848707,259.876056 C192.730389,259.876056 192.554547,259.698279 192.318565,259.343975 C192.083236,258.989045 191.842679,258.811268 191.595584,258.811268 L188.824593,258.811268 L188.824593,262.597183 C188.824593,262.84507 188.944872,263.067919 189.186084,263.265102 C189.426641,263.462285 189.548228,263.611268 189.548228,263.712676 L189.548228,263.76338 C189.548228,263.921753 189.418797,264 189.159282,264 L186.388945,264 Z" id="Fill-51" fill="#D1A27E"></path>
            <path d="M196.411409,264 C196.137597,264 196,263.921753 196,263.76338 L196,263.712676 C196,263.611268 196.118237,263.462285 196.355402,263.265102 C196.591875,263.067919 196.710112,262.839437 196.710112,262.580282 L196.710112,253.419718 C196.710112,253.160563 196.591875,252.929577 196.355402,252.726761 C196.118237,252.523944 196,252.377465 196,252.287324 L196,252.23662 C196,252.078873 196.12446,252 196.373379,252 L204.49438,252 C204.793775,252 204.967327,252.140845 205.017111,252.422535 L205.465858,254.247887 C205.528088,254.507042 205.42852,254.63662 205.167154,254.63662 L205.073118,254.63662 C204.912012,254.63662 204.734311,254.543975 204.541398,254.358059 C204.348486,254.171518 204.174242,253.966197 204.018667,253.740845 C203.862401,253.515493 203.67018,253.309546 203.439929,253.123631 C203.209679,252.938341 202.969748,252.84507 202.72152,252.84507 L199.585133,252.84507 C199.16197,252.84507 198.950388,253.064789 198.950388,253.504225 L198.950388,257.442254 L201.825409,257.442254 C202.012099,257.442254 202.173205,257.383412 202.310111,257.265102 C202.447017,257.146166 202.550042,257.019718 202.619186,256.884507 C202.686948,256.749296 202.767846,256.622222 202.861191,256.503912 C202.954536,256.385603 203.045115,256.326761 203.132237,256.326761 L203.244251,256.326761 C203.430249,256.326761 203.523594,256.433803 203.523594,256.647887 L203.523594,259.047887 C203.523594,259.261972 203.430249,259.369014 203.244251,259.369014 L203.132237,259.369014 C203.045115,259.369014 202.954536,259.312676 202.861191,259.2 C202.767846,259.087324 202.686948,258.965884 202.619186,258.836307 C202.550042,258.707355 202.447017,258.585915 202.310111,258.473239 C202.173205,258.360563 202.012099,258.304225 201.825409,258.304225 L198.950388,258.304225 L198.931719,262.259155 C198.931719,262.507042 199.002938,262.718623 199.146067,262.892645 C199.289195,263.067919 199.498011,263.15493 199.771131,263.15493 L203.300258,263.15493 C203.548486,263.15493 203.785651,263.059155 204.008987,262.867606 C204.233706,262.676056 204.413481,262.461972 204.550387,262.225352 C204.687984,261.988732 204.849091,261.774648 205.036472,261.583099 C205.22247,261.391549 205.402937,261.295775 205.577872,261.295775 L205.707863,261.295775 C205.808122,261.295775 205.885564,261.335211 205.941571,261.414085 C205.997578,261.492958 206.013481,261.583099 205.988589,261.684507 L205.558511,263.560563 C205.484527,263.853521 205.303369,264 205.017111,264 L196.411409,264 Z" id="Fill-53" fill="#D1A27E"></path>
            <path d="M214.106052,260.011268 L218.712185,260.011268 L216.34735,254.230986 L214.106052,260.011268 Z M222.099951,262.597183 C222.206493,262.84507 222.382973,263.064789 222.630045,263.256338 C222.877117,263.447887 223,263.6 223,263.712676 L223,263.76338 C223,263.921753 222.877117,264 222.630045,264 L219.488044,264 C219.240972,264 219.118089,263.921753 219.118089,263.76338 L219.118089,263.712676 C219.118089,263.622535 219.191296,263.526761 219.338363,263.425352 C219.485429,263.323944 219.614848,263.208764 219.727273,263.07856 C219.83839,262.949609 219.85277,262.788732 219.771066,262.597183 L219.08214,260.923944 L213.753091,260.923944 L213.100114,262.597183 C213.017757,262.788732 213.031483,262.949609 213.143908,263.07856 C213.255678,263.208764 213.384444,263.323944 213.532164,263.425352 C213.679231,263.526761 213.753091,263.622535 213.753091,263.712676 L213.753091,263.76338 C213.753091,263.921753 213.623672,264 213.364181,264 L211.369955,264 C211.123536,264 211,263.921753 211,263.76338 L211,263.712676 C211,263.6 211.123536,263.451017 211.369955,263.265102 C211.617027,263.07856 211.794161,262.856338 211.900049,262.597183 L215.606133,253.487324 C215.687837,253.273239 215.612016,253.03662 215.376055,252.777465 C215.140748,252.51831 215.023095,252.35493 215.023095,252.287324 L215.023095,252.23662 C215.023095,252.078873 215.123754,252 215.323111,252 L216.717958,252 C217.176153,252 217.494471,252.214085 217.670952,252.642254 L222.099951,262.597183 Z" id="Fill-55" fill="#D1A27E"></path>
            <path d="M235.630534,252 C235.876845,252 236,252.084507 236,252.253521 L236,252.304225 C236,252.394366 235.882443,252.538341 235.647328,252.734898 C235.411592,252.932707 235.294656,253.15493 235.294656,253.402817 L235.294656,263.425352 C235.294656,263.808451 235.115522,264 234.757252,264 L234.152672,264 C233.961719,264 233.754594,263.842254 233.531298,263.526761 L226.729149,254.230986 L226.729149,262.56338 C226.729149,262.811268 226.852926,263.03975 227.099237,263.247574 C227.345547,263.456651 227.468702,263.611268 227.468702,263.712676 L227.468702,263.76338 C227.468702,263.921127 227.345547,264 227.099237,264 L225.369466,264 C225.122533,264 225,263.921127 225,263.76338 L225,263.712676 C225,263.611268 225.108849,263.456651 225.327792,263.247574 C225.545491,263.03975 225.654962,262.811268 225.654962,262.56338 L225.654962,253.419718 C225.654962,253.171831 225.545491,252.952113 225.327792,252.760563 C225.108849,252.569014 225,252.422535 225,252.321127 L225,252.253521 C225,252.084507 225.122533,252 225.369466,252 L227.032061,252 C227.311959,252 227.547074,252.135211 227.737405,252.405634 L234.219225,261.48169 L234.219225,253.402817 C234.219225,253.15493 234.10229,252.932707 233.867176,252.734898 C233.632061,252.538341 233.514504,252.394366 233.514504,252.304225 L233.514504,252.253521 C233.514504,252.084507 233.637659,252 233.883347,252 L235.630534,252 Z" id="Fill-57" fill="#D1A27E"></path>
            <path d="M242.600302,263.138028 L243.645551,263.138028 C244.906486,263.138028 245.938216,262.738028 246.739512,261.938028 C247.541422,261.138028 247.942685,260.061972 247.942685,258.709859 C247.942685,257.030986 247.433886,255.636933 246.41629,254.527074 C245.398693,253.417214 244.137758,252.861972 242.633484,252.861972 L242.168929,252.861972 C241.792861,252.861972 241.604827,253.070423 241.604827,253.487324 L241.604827,261.938028 C241.604827,262.321127 241.692699,262.616588 241.870287,262.825039 C242.04726,263.03349 242.290598,263.138028 242.600302,263.138028 L242.600302,263.138028 Z M239.365008,264 C239.121669,264 239,263.921127 239,263.76338 L239,263.712676 C239,263.611268 239.105078,263.462285 239.315234,263.265102 C239.52539,263.067919 239.630468,262.84507 239.630468,262.597183 L239.630468,253.402817 C239.630468,253.15493 239.52539,252.932707 239.315234,252.734898 C239.105078,252.538341 239,252.388732 239,252.287324 L239,252.23662 C239,252.078873 239.121669,252 239.365008,252 L243.015083,252 C245.049662,252 246.722921,252.565884 248.034244,253.698279 C249.344953,254.830673 250,256.247887 250,257.949296 C250,259.785915 249.416848,261.253208 248.249316,262.352426 C247.082398,263.451017 245.586727,264 243.761689,264 L239.365008,264 Z" id="Fill-59" fill="#D1A27E"></path>
            <path d="M261.453966,263.138028 C263.617552,263.138028 264.700375,262.411268 264.700375,260.957746 C264.700375,260.169014 264.347908,259.489828 263.642973,258.92144 C262.937352,258.3518 261.966521,258.067606 260.729794,258.067606 L258.930356,258.067606 L258.930356,262.123944 C258.930356,262.416901 259.023798,262.659155 259.20862,262.850704 C259.394816,263.042254 259.635978,263.138028 259.932105,263.138028 L261.453966,263.138028 Z M258.930356,253.538028 L258.930356,256.495775 C258.930356,256.709859 259.005247,256.884507 259.152967,257.019718 C259.301374,257.15493 259.49925,257.222535 259.747283,257.222535 L261.416177,257.222535 C262.108745,257.222535 262.668707,257.045383 263.095378,256.689828 C263.522049,256.334898 263.735041,255.88169 263.735041,255.329577 C263.735041,254.552113 263.475328,253.946166 262.95659,253.512989 C262.437164,253.079186 261.726046,252.861972 260.822548,252.861972 L259.598876,252.861972 C259.152967,252.861972 258.930356,253.087324 258.930356,253.538028 L258.930356,253.538028 Z M263.346159,257.543662 C264.507995,257.690141 265.408057,258.036933 266.044972,258.583412 C266.681199,259.12989 267,259.814085 267,260.63662 C267,261.650704 266.508745,262.465102 265.525547,263.07856 C264.542349,263.693271 263.246533,264 261.639475,264 L256.389569,264 C256.129856,264 256,263.921127 256,263.76338 L256,263.695775 C256,263.605634 256.114054,263.462285 256.342848,263.265102 C256.571643,263.067919 256.686384,262.84507 256.686384,262.597183 L256.686384,253.402817 C256.686384,253.15493 256.571643,252.932707 256.342848,252.734898 C256.114054,252.538341 256,252.388732 256,252.287324 L256,252.23662 C256,252.078873 256.129856,252 256.389569,252 L260.896752,252 C262.417926,252 263.605871,252.27856 264.458526,252.836307 C265.311868,253.394679 265.738538,254.11831 265.738538,255.008451 C265.738538,255.650704 265.525547,256.194679 265.098876,256.63975 C264.672205,257.08482 264.088195,257.385915 263.346159,257.543662 L263.346159,257.543662 Z" id="Fill-61" fill="#D1A27E"></path>
            <path d="M274.628395,264 C273.141049,264 271.939732,263.577778 271.024442,262.733333 C270.109153,261.888889 269.651508,260.738889 269.651508,259.283333 L269.651508,253.383333 C269.651508,253.138889 269.542818,252.919753 269.325436,252.724691 C269.108055,252.530864 269,252.388889 269,252.3 L269,252.233333 C269,252.077778 269.125217,252 269.376921,252 L272.07194,252 C272.311568,252 272.4317,252.077778 272.4317,252.233333 L272.4317,252.3 C272.4317,252.388889 272.317289,252.530864 272.088466,252.724691 C271.859644,252.919753 271.745233,253.138889 271.745233,253.383333 L271.745233,259.283333 C271.745233,260.472222 272.042702,261.405556 272.63764,262.083333 C273.232578,262.761111 274.039177,263.1 275.057437,263.1 C275.915521,263.1 276.65093,262.775309 277.26303,262.124691 C277.874494,261.475309 278.180862,260.527778 278.180862,259.283333 L278.180862,253.383333 C278.180862,253.138889 278.069629,252.919753 277.845892,252.724691 C277.623425,252.530864 277.511557,252.388889 277.511557,252.3 L277.511557,252.233333 C277.511557,252.077778 277.637409,252 277.889114,252 L279.622443,252 C279.874148,252 280,252.077778 280,252.233333 L280,252.3 C280,252.388889 279.879868,252.530864 279.639605,252.724691 C279.399341,252.919753 279.27921,253.138889 279.27921,253.383333 L279.27921,259.3 C279.27921,260.744444 278.85271,261.888889 278.000982,262.733333 C277.148619,263.577778 276.024211,264 274.628395,264" id="Fill-63" fill="#D1A27E"></path>
            <path d="M287.22604,264 C285.598553,264 284.320675,263.658538 283.392405,262.974293 C282.464135,262.291368 282,261.57476 282,260.825789 C282,260.564243 282.07836,260.34761 282.235751,260.174567 C282.391802,260.002845 282.6088,259.922268 282.886746,259.934156 C283.139241,259.946045 283.362266,260.032566 283.555823,260.1924 C283.748041,260.353554 283.901413,260.552355 284.01661,260.790123 C284.131137,261.027892 284.275802,261.283493 284.449936,261.556927 C284.62474,261.830361 284.817628,262.085963 285.029268,262.323731 C285.239569,262.5615 285.540955,262.757659 285.933427,262.912209 C286.32456,263.066758 286.786016,263.144033 287.317125,263.144033 C288.051838,263.144033 288.648583,262.947874 289.107361,262.555556 C289.564798,262.163237 289.793852,261.646091 289.793852,261.004115 C289.793852,260.457247 289.655214,260.005487 289.377939,259.648834 C289.100663,259.292181 288.742348,259.030636 288.301654,258.864198 C287.86163,258.697759 287.374054,258.558401 286.837586,258.4448 C286.301118,258.33186 285.763981,258.201748 285.228183,258.053142 C284.691715,257.904537 284.2028,257.71102 283.763445,257.473251 C283.323421,257.235482 282.965106,256.872885 282.687831,256.38546 C282.409885,255.898034 282.271917,255.291724 282.271917,254.566529 C282.271917,253.532236 282.687831,252.679571 283.519657,252.007214 C284.350814,251.336178 285.490054,251 286.936709,251 C288.384033,251 289.556091,251.312402 290.454223,251.935884 C291.351684,252.560687 291.795057,253.246914 291.783672,253.995885 C291.783672,254.602195 291.46956,254.90535 290.842676,254.90535 C290.577456,254.90535 290.351751,254.831377 290.164892,254.682772 C289.977363,254.533506 289.836046,254.346594 289.739602,254.120713 C289.643159,253.894833 289.519925,253.648478 289.369232,253.380328 C289.218539,253.113499 289.05512,252.866484 288.880986,252.640604 C288.706182,252.414723 288.446989,252.227811 288.103409,252.079205 C287.759829,251.9306 287.352622,251.855967 286.882459,251.855967 C286.123635,251.855967 285.532918,252.05807 285.110977,252.462277 C284.688366,252.866484 284.477396,253.371742 284.477396,253.978052 C284.477396,254.501143 284.616704,254.932429 284.893979,255.271249 C285.171254,255.609409 285.529569,255.862369 285.969593,256.028807 C286.408948,256.195245 286.897864,256.340548 287.434331,256.465376 C287.970129,256.590205 288.507267,256.733526 289.043735,256.89402 C289.580202,257.053854 290.067778,257.259259 290.507803,257.508916 C290.948496,257.758573 291.306811,258.127115 291.584757,258.61454 C291.861362,259.101966 292,259.702332 292,260.415638 C292,261.509374 291.536535,262.380531 290.608265,263.02779 C289.679325,263.67637 288.55214,264 287.22604,264" id="Fill-65" fill="#D1A27E"></path>
            <path d="M294,263.76338 L294,263.712676 C294,263.622535 294.093154,263.47856 294.280022,263.281377 C294.466891,263.08482 294.560606,262.861972 294.560606,262.614085 L294.560606,253.402817 C294.560606,253.15493 294.466891,252.932707 294.280022,252.734898 C294.093154,252.538341 294,252.388732 294,252.287324 L294,252.23662 C294,252.078873 294.106061,252 294.318182,252 L296.681818,252 C296.893939,252 297,252.078873 297,252.23662 L297,252.287324 C297,252.388732 296.89899,252.538341 296.69697,252.734898 C296.494388,252.932707 296.393939,253.15493 296.393939,253.402817 L296.393939,262.614085 C296.393939,262.861972 296.494388,263.08482 296.69697,263.281377 C296.89899,263.47856 297,263.622535 297,263.712676 L297,263.76338 C297,263.921127 296.893939,264 296.681818,264 L294.318182,264 C294.106061,264 294,263.921127 294,263.76338" id="Fill-67" fill="#D1A27E"></path>
            <path d="M310.630534,252 C310.876845,252 311,252.084507 311,252.253521 L311,252.304225 C311,252.394366 310.882443,252.538341 310.647328,252.734898 C310.411592,252.932707 310.294656,253.15493 310.294656,253.402817 L310.294656,263.425352 C310.294656,263.808451 310.115522,264 309.757252,264 L309.152672,264 C308.961719,264 308.754594,263.842254 308.531298,263.526761 L301.729149,254.230986 L301.729149,262.56338 C301.729149,262.811268 301.852926,263.03975 302.099237,263.247574 C302.345547,263.456651 302.468702,263.611268 302.468702,263.712676 L302.468702,263.76338 C302.468702,263.921127 302.345547,264 302.099237,264 L300.369466,264 C300.122533,264 300,263.921127 300,263.76338 L300,263.712676 C300,263.611268 300.108849,263.456651 300.327792,263.247574 C300.545491,263.03975 300.654962,262.811268 300.654962,262.56338 L300.654962,253.419718 C300.654962,253.171831 300.545491,252.952113 300.327792,252.760563 C300.108849,252.569014 300,252.422535 300,252.321127 L300,252.253521 C300,252.084507 300.122533,252 300.369466,252 L302.032061,252 C302.311959,252 302.547074,252.135211 302.737405,252.405634 L309.219225,261.48169 L309.219225,253.402817 C309.219225,253.15493 309.10229,252.932707 308.867176,252.734898 C308.632061,252.538341 308.514504,252.394366 308.514504,252.304225 L308.514504,252.253521 C308.514504,252.084507 308.637659,252 308.883347,252 L310.630534,252 Z" id="Fill-69" fill="#D1A27E"></path>
            <path d="M313.411409,264 C313.137597,264 313,263.921753 313,263.76338 L313,263.712676 C313,263.611268 313.118237,263.462285 313.355402,263.265102 C313.591875,263.067919 313.710112,262.839437 313.710112,262.580282 L313.710112,253.419718 C313.710112,253.160563 313.591875,252.929577 313.355402,252.726761 C313.118237,252.523944 313,252.377465 313,252.287324 L313,252.23662 C313,252.078873 313.12446,252 313.373379,252 L321.49438,252 C321.793775,252 321.967327,252.140845 322.017111,252.422535 L322.465858,254.247887 C322.528088,254.507042 322.42852,254.63662 322.167154,254.63662 L322.073118,254.63662 C321.912012,254.63662 321.734311,254.543975 321.541398,254.358059 C321.348486,254.171518 321.174242,253.966197 321.018667,253.740845 C320.862401,253.515493 320.67018,253.309546 320.439929,253.123631 C320.209679,252.938341 319.969748,252.84507 319.72152,252.84507 L316.585133,252.84507 C316.16197,252.84507 315.950388,253.064789 315.950388,253.504225 L315.950388,257.442254 L318.825409,257.442254 C319.012099,257.442254 319.173205,257.383412 319.310111,257.265102 C319.447017,257.146166 319.550042,257.019718 319.619186,256.884507 C319.686948,256.749296 319.767846,256.622222 319.861191,256.503912 C319.954536,256.385603 320.045115,256.326761 320.132237,256.326761 L320.244251,256.326761 C320.430249,256.326761 320.523594,256.433803 320.523594,256.647887 L320.523594,259.047887 C320.523594,259.261972 320.430249,259.369014 320.244251,259.369014 L320.132237,259.369014 C320.045115,259.369014 319.954536,259.312676 319.861191,259.2 C319.767846,259.087324 319.686948,258.965884 319.619186,258.836307 C319.550042,258.707355 319.447017,258.585915 319.310111,258.473239 C319.173205,258.360563 319.012099,258.304225 318.825409,258.304225 L315.950388,258.304225 L315.931719,262.259155 C315.931719,262.507042 316.002938,262.718623 316.146067,262.892645 C316.289195,263.067919 316.498011,263.15493 316.771131,263.15493 L320.300258,263.15493 C320.548486,263.15493 320.785651,263.059155 321.008987,262.867606 C321.233706,262.676056 321.413481,262.461972 321.550387,262.225352 C321.687984,261.988732 321.849091,261.774648 322.036472,261.583099 C322.22247,261.391549 322.402937,261.295775 322.577872,261.295775 L322.707863,261.295775 C322.808122,261.295775 322.885564,261.335211 322.941571,261.414085 C322.997578,261.492958 323.013481,261.583099 322.988589,261.684507 L322.558511,263.560563 C322.484527,263.853521 322.303369,264 322.017111,264 L313.411409,264 Z" id="Fill-71" fill="#D1A27E"></path>
            <path d="M329.22604,264 C327.598553,264 326.320675,263.658538 325.392405,262.974293 C324.464135,262.291368 324,261.57476 324,260.825789 C324,260.564243 324.07836,260.34761 324.235751,260.174567 C324.391802,260.002845 324.6088,259.922268 324.886746,259.934156 C325.139241,259.946045 325.362266,260.032566 325.555823,260.1924 C325.748041,260.353554 325.901413,260.552355 326.01661,260.790123 C326.131137,261.027892 326.275802,261.283493 326.449936,261.556927 C326.62474,261.830361 326.817628,262.085963 327.029268,262.323731 C327.239569,262.5615 327.540955,262.757659 327.933427,262.912209 C328.32456,263.066758 328.786016,263.144033 329.317125,263.144033 C330.051838,263.144033 330.648583,262.947874 331.107361,262.555556 C331.564798,262.163237 331.793852,261.646091 331.793852,261.004115 C331.793852,260.457247 331.655214,260.005487 331.377939,259.648834 C331.100663,259.292181 330.742348,259.030636 330.301654,258.864198 C329.86163,258.697759 329.374054,258.558401 328.837586,258.4448 C328.301118,258.33186 327.763981,258.201748 327.228183,258.053142 C326.691715,257.904537 326.2028,257.71102 325.763445,257.473251 C325.323421,257.235482 324.965106,256.872885 324.687831,256.38546 C324.409885,255.898034 324.271917,255.291724 324.271917,254.566529 C324.271917,253.532236 324.687831,252.679571 325.519657,252.007214 C326.350814,251.336178 327.490054,251 328.936709,251 C330.384033,251 331.556091,251.312402 332.454223,251.935884 C333.351684,252.560687 333.795057,253.246914 333.783672,253.995885 C333.783672,254.602195 333.46956,254.90535 332.842676,254.90535 C332.577456,254.90535 332.351751,254.831377 332.164892,254.682772 C331.977363,254.533506 331.836046,254.346594 331.739602,254.120713 C331.643159,253.894833 331.519925,253.648478 331.369232,253.380328 C331.218539,253.113499 331.05512,252.866484 330.880986,252.640604 C330.706182,252.414723 330.446989,252.227811 330.103409,252.079205 C329.759829,251.9306 329.352622,251.855967 328.882459,251.855967 C328.123635,251.855967 327.532918,252.05807 327.110977,252.462277 C326.688366,252.866484 326.477396,253.371742 326.477396,253.978052 C326.477396,254.501143 326.616704,254.932429 326.893979,255.271249 C327.171254,255.609409 327.529569,255.862369 327.969593,256.028807 C328.408948,256.195245 328.897864,256.340548 329.434331,256.465376 C329.970129,256.590205 330.507267,256.733526 331.043735,256.89402 C331.580202,257.053854 332.067778,257.259259 332.507803,257.508916 C332.948496,257.758573 333.306811,258.127115 333.584757,258.61454 C333.861362,259.101966 334,259.702332 334,260.415638 C334,261.509374 333.536535,262.380531 332.608265,263.02779 C331.679325,263.67637 330.55214,264 329.22604,264" id="Fill-73" fill="#D1A27E"></path>
            <path d="M340.22604,264 C338.598553,264 337.320675,263.658538 336.392405,262.974293 C335.464135,262.291368 335,261.57476 335,260.825789 C335,260.564243 335.07836,260.34761 335.235751,260.174567 C335.391802,260.002845 335.6088,259.922268 335.886746,259.934156 C336.139241,259.946045 336.362266,260.032566 336.555823,260.1924 C336.748041,260.353554 336.901413,260.552355 337.01661,260.790123 C337.131137,261.027892 337.275802,261.283493 337.449936,261.556927 C337.62474,261.830361 337.817628,262.085963 338.029268,262.323731 C338.239569,262.5615 338.540955,262.757659 338.933427,262.912209 C339.32456,263.066758 339.786016,263.144033 340.317125,263.144033 C341.051838,263.144033 341.648583,262.947874 342.107361,262.555556 C342.564798,262.163237 342.793852,261.646091 342.793852,261.004115 C342.793852,260.457247 342.655214,260.005487 342.377939,259.648834 C342.100663,259.292181 341.742348,259.030636 341.301654,258.864198 C340.86163,258.697759 340.374054,258.558401 339.837586,258.4448 C339.301118,258.33186 338.763981,258.201748 338.228183,258.053142 C337.691715,257.904537 337.2028,257.71102 336.763445,257.473251 C336.323421,257.235482 335.965106,256.872885 335.687831,256.38546 C335.409885,255.898034 335.271917,255.291724 335.271917,254.566529 C335.271917,253.532236 335.687831,252.679571 336.519657,252.007214 C337.350814,251.336178 338.490054,251 339.936709,251 C341.384033,251 342.556091,251.312402 343.454223,251.935884 C344.351684,252.560687 344.795057,253.246914 344.783672,253.995885 C344.783672,254.602195 344.46956,254.90535 343.842676,254.90535 C343.577456,254.90535 343.351751,254.831377 343.164892,254.682772 C342.977363,254.533506 342.836046,254.346594 342.739602,254.120713 C342.643159,253.894833 342.519925,253.648478 342.369232,253.380328 C342.218539,253.113499 342.05512,252.866484 341.880986,252.640604 C341.706182,252.414723 341.446989,252.227811 341.103409,252.079205 C340.759829,251.9306 340.352622,251.855967 339.882459,251.855967 C339.123635,251.855967 338.532918,252.05807 338.110977,252.462277 C337.688366,252.866484 337.477396,253.371742 337.477396,253.978052 C337.477396,254.501143 337.616704,254.932429 337.893979,255.271249 C338.171254,255.609409 338.529569,255.862369 338.969593,256.028807 C339.408948,256.195245 339.897864,256.340548 340.434331,256.465376 C340.970129,256.590205 341.507267,256.733526 342.043735,256.89402 C342.580202,257.053854 343.067778,257.259259 343.507803,257.508916 C343.948496,257.758573 344.306811,258.127115 344.584757,258.61454 C344.861362,259.101966 345,259.702332 345,260.415638 C345,261.509374 344.536535,262.380531 343.608265,263.02779 C342.679325,263.67637 341.55214,264 340.22604,264" id="Fill-75" fill="#D1A27E"></path>
            <path d="M358.000966,264 C356.41959,264 355.024413,263.319718 353.814123,261.958492 C352.605145,260.597267 352,259.060357 352,257.348422 C352,255.493827 352.549416,253.972108 353.646283,252.783265 C354.743804,251.594422 356.154061,251 357.877707,251 C359.2106,251 360.366472,251.359955 361.347292,252.079205 C362.326145,252.798456 362.8159,253.550069 362.8159,254.334705 C362.8159,254.631916 362.72739,254.869684 362.55037,255.048011 C362.37335,255.226337 362.125523,255.315501 361.806888,255.315501 C361.511855,255.315501 361.246326,255.199258 361.010299,254.968094 C360.773618,254.73627 360.558571,254.453589 360.36385,254.120713 C360.169784,253.787837 359.956705,253.451659 359.727235,253.113499 C359.496454,252.774018 359.184375,252.488696 358.789031,252.257532 C358.393687,252.025707 357.930813,251.909465 357.399099,251.909465 C356.490398,251.909465 355.71479,252.299141 355.070963,253.077173 C354.428447,253.856526 354.107189,254.86374 354.107189,256.100137 C354.107189,257.82396 354.554983,259.253874 355.451883,260.389219 C356.348127,261.523904 357.381397,262.091907 358.549726,262.091907 C359.423023,262.091907 360.172406,261.830361 360.798531,261.30727 C361.423345,260.784179 361.901298,260.177869 362.231735,259.48834 C362.314344,259.369456 362.420556,259.294823 362.55037,259.265762 C362.680185,259.236041 362.792297,259.265762 362.886707,259.354265 C362.981118,259.444089 363.016522,259.571559 362.992919,259.737997 C362.827701,260.938729 362.311066,261.949246 361.444325,262.769547 C360.576929,263.589849 359.428924,264 358.000966,264" id="Fill-77" fill="#D1A27E"></path>
            <path d="M370.653011,263.038356 C371.61645,263.038356 372.407323,262.658447 373.026267,261.89863 C373.644574,261.138813 373.954683,260.218721 373.954683,259.138356 C373.954683,257.120091 373.518493,255.419736 372.648023,254.036631 C371.776917,252.653526 370.659379,251.961644 369.294773,251.961644 C368.320509,251.961644 367.535367,252.326383 366.939347,253.057179 C366.343327,253.787316 366.045954,254.73379 366.045954,255.89726 C366.045954,257.903653 366.475139,259.595434 367.334784,260.972603 C368.195065,262.349772 369.300504,263.038356 370.653011,263.038356 M370.103476,264 C368.32624,264 366.864845,263.362202 365.718652,262.085946 C364.57246,260.809691 364,259.280822 364,257.5 C364,255.612329 364.561634,254.057078 365.684266,252.834247 C366.807535,251.611416 368.251738,251 370.016875,251 C371.771186,251 373.206474,251.644394 374.324012,252.931862 C375.441549,254.220649 376,255.766667 376,257.571233 C376,259.387671 375.433271,260.913242 374.298541,262.147945 C373.163173,263.382648 371.764818,264 370.103476,264" id="Fill-79" fill="#D1A27E"></path>
            <path d="M380.106052,260.011268 L384.712185,260.011268 L382.34735,254.230986 L380.106052,260.011268 Z M388.099951,262.597183 C388.206493,262.84507 388.382973,263.064789 388.630045,263.256338 C388.877117,263.447887 389,263.6 389,263.712676 L389,263.76338 C389,263.921753 388.877117,264 388.630045,264 L385.488044,264 C385.240972,264 385.118089,263.921753 385.118089,263.76338 L385.118089,263.712676 C385.118089,263.622535 385.191296,263.526761 385.338363,263.425352 C385.485429,263.323944 385.614848,263.208764 385.727273,263.07856 C385.83839,262.949609 385.85277,262.788732 385.771066,262.597183 L385.08214,260.923944 L379.753091,260.923944 L379.100114,262.597183 C379.017757,262.788732 379.031483,262.949609 379.143908,263.07856 C379.255678,263.208764 379.384444,263.323944 379.532164,263.425352 C379.679231,263.526761 379.753091,263.622535 379.753091,263.712676 L379.753091,263.76338 C379.753091,263.921753 379.623672,264 379.364181,264 L377.369955,264 C377.123536,264 377,263.921753 377,263.76338 L377,263.712676 C377,263.6 377.123536,263.451017 377.369955,263.265102 C377.617027,263.07856 377.794161,262.856338 377.900049,262.597183 L381.606133,253.487324 C381.687837,253.273239 381.612016,253.03662 381.376055,252.777465 C381.140748,252.51831 381.023095,252.35493 381.023095,252.287324 L381.023095,252.23662 C381.023095,252.078873 381.123754,252 381.323111,252 L382.717958,252 C383.176153,252 383.494471,252.214085 383.670952,252.642254 L388.099951,262.597183 Z" id="Fill-81" fill="#D1A27E"></path>
            <path d="M396.000966,264 C394.41959,264 393.024413,263.319718 391.814123,261.958492 C390.605145,260.597267 390,259.060357 390,257.348422 C390,255.493827 390.549416,253.972108 391.646283,252.783265 C392.743804,251.594422 394.154061,251 395.877707,251 C397.2106,251 398.366472,251.359955 399.347292,252.079205 C400.326145,252.798456 400.8159,253.550069 400.8159,254.334705 C400.8159,254.631916 400.72739,254.869684 400.55037,255.048011 C400.37335,255.226337 400.125523,255.315501 399.806888,255.315501 C399.511855,255.315501 399.246326,255.199258 399.010299,254.968094 C398.773618,254.73627 398.558571,254.453589 398.36385,254.120713 C398.169784,253.787837 397.956705,253.451659 397.727235,253.113499 C397.496454,252.774018 397.184375,252.488696 396.789031,252.257532 C396.393687,252.025707 395.930813,251.909465 395.399099,251.909465 C394.490398,251.909465 393.71479,252.299141 393.070963,253.077173 C392.428447,253.856526 392.107189,254.86374 392.107189,256.100137 C392.107189,257.82396 392.554983,259.253874 393.451883,260.389219 C394.348127,261.523904 395.381397,262.091907 396.549726,262.091907 C397.423023,262.091907 398.172406,261.830361 398.798531,261.30727 C399.423345,260.784179 399.901298,260.177869 400.231735,259.48834 C400.314344,259.369456 400.420556,259.294823 400.55037,259.265762 C400.680185,259.236041 400.792297,259.265762 400.886707,259.354265 C400.981118,259.444089 401.016522,259.571559 400.992919,259.737997 C400.827701,260.938729 400.311066,261.949246 399.444325,262.769547 C398.576929,263.589849 397.428924,264 396.000966,264" id="Fill-83" fill="#D1A27E"></path>
            <path d="M403.345291,264 C403.115097,264 403,263.921753 403,263.76338 L403,263.712676 C403,263.611268 403.101091,263.462285 403.303881,263.265102 C403.506671,263.067919 403.608371,262.84507 403.608371,262.597183 L403.608371,253.402817 C403.608371,253.15493 403.506671,252.932707 403.303881,252.734898 C403.101091,252.538341 403,252.388732 403,252.287324 L403,252.23662 C403,252.078873 403.115097,252 403.345291,252 L405.910314,252 C406.140508,252 406.254996,252.078873 406.254996,252.23662 L406.254996,252.287324 C406.254996,252.388732 406.149034,252.538341 405.934673,252.734898 C405.720921,252.932707 405.61435,253.15493 405.61435,253.402817 L405.597298,257.442254 L411.336323,257.442254 L411.336323,253.402817 C411.336323,253.15493 411.234623,252.932707 411.031833,252.734898 C410.829043,252.538341 410.727952,252.388732 410.727952,252.287324 L410.727952,252.23662 C410.727952,252.078873 410.843049,252 411.072635,252 L413.637657,252 C413.878813,252 414,252.078873 414,252.23662 L414,252.287324 C414,252.388732 413.887339,252.538341 413.662625,252.734898 C413.437912,252.932707 413.325859,253.15493 413.325859,253.402817 L413.325859,262.597183 C413.325859,262.84507 413.437912,263.067919 413.662625,263.265102 C413.887339,263.462285 414,263.611268 414,263.712676 L414,263.76338 C414,263.921753 413.878813,264 413.637657,264 L411.072635,264 C410.843049,264 410.727952,263.921753 410.727952,263.76338 L410.727952,263.712676 C410.727952,263.611268 410.829043,263.462285 411.031833,263.265102 C411.234623,263.067919 411.336323,262.84507 411.336323,262.597183 L411.336323,258.371831 L405.61435,258.371831 L405.597298,262.597183 C405.597298,262.84507 405.706915,263.067919 405.926147,263.265102 C406.145989,263.462285 406.254996,263.611268 406.254996,263.712676 L406.254996,263.76338 C406.254996,263.921753 406.140508,264 405.910314,264 L403.345291,264 Z" id="Fill-85" fill="#D1A27E"></path>
        </g>
    </g>
</svg>