<?xml version="1.0" encoding="UTF-8"?>
<svg width="123px" height="123px" viewBox="0 0 123 123" version="1.1" xmlns="http://www.w3.org/2000/svg" xmlns:xlink="http://www.w3.org/1999/xlink">
    <!-- Generator: Sketch 55.2 (78181) - https://sketchapp.com -->
    <title>contact-me</title>
    <desc>Created with Sketch.</desc>
    <g id="contact-me" stroke="none" stroke-width="1" fill="none" fill-rule="evenodd">
        <g id="Untitled-1" fill="#FFFFFF" fill-rule="nonzero">
            <path d="M64.0354201,9.07878223 C63.3097967,8.57294313 62.7684587,7.92024753 62.4171649,7.12613454 C62.065871,6.33202155 61.933416,5.46176073 62.0313175,4.53166949 C62.1292191,3.59613912 62.4344416,2.76939135 62.9412262,2.05686531 C63.4537696,1.33890014 64.1160449,0.800426266 64.9338109,0.436004551 C65.7515768,0.0715828368 66.6442087,-0.0643954149 67.6174654,0.0280697962 C68.7404539,0.131413268 69.6964339,0.506713242 70.4854053,1.15396972 C71.2686178,1.8012262 71.7754023,2.63885223 72,3.66684781 L70.2435308,4.04214779 C70.0822812,3.34050001 69.7597819,2.78026961 69.2702741,2.35601747 C68.7865252,1.93176532 68.1760802,1.68700447 67.4504569,1.61629578 C66.828494,1.55646535 66.2583614,1.65436969 65.740059,1.89913054 C65.2217566,2.14933052 64.7955969,2.51375224 64.4615798,3.00327394 C64.1333216,3.49279565 63.9317596,4.05302605 63.8684115,4.6948434 C63.7993045,5.33666074 63.8799294,5.92952592 64.1045271,6.4679998 C64.3291248,7.00647367 64.6689008,7.44704321 65.129614,7.78426927 C65.5903272,8.12149534 66.1316653,8.32274315 66.7478692,8.37713445 C67.4734925,8.44240401 68.12425,8.31730402 68.6828648,7.98551709 C69.2472385,7.65916928 69.6791571,7.16420845 69.9843796,6.51151284 L71.6314294,7.1914041 C71.1879929,8.17044751 70.5141998,8.89929094 69.615809,9.39425177 C68.7174183,9.88377348 67.7038492,10.0795822 66.5808607,9.97079956 C65.607604,9.88377348 64.7610434,9.58462133 64.0354201,9.07878223 Z" id="Path"></path>
            <path d="M74.2524158,11.429475 C73.6598008,10.8060243 73.276012,10.0741475 73.1010495,9.22842315 C72.926087,8.38269881 72.9768826,7.50986792 73.2647241,6.60450917 C73.5525657,5.69915042 74.0153698,4.94558834 74.6474924,4.33840164 C75.2796151,3.73121493 76.0302607,3.330038 76.8824975,3.12944953 C77.7347342,2.92886107 78.6151908,2.96138893 79.5182231,3.22703311 C80.4212555,3.4926773 81.1662572,3.93722471 81.7532282,4.56067534 C82.3401992,5.18412598 82.723988,5.91600281 82.8989505,6.76172715 C83.073913,7.6074515 83.0231174,8.48028239 82.7352759,9.38564114 C82.4474343,10.2909999 81.9846302,11.044562 81.3525076,11.6517487 C80.714741,12.2589354 79.9753833,12.6601123 79.1231465,12.8661221 C78.2709097,13.0721319 77.3960971,13.039604 76.4930648,12.7739598 C75.5900324,12.497473 74.8450307,12.0529256 74.2524158,11.429475 Z M78.7280698,11.2397291 C79.2868211,11.1041964 79.766557,10.8331309 80.1785655,10.4211113 C80.590574,10.0090918 80.8897035,9.49948865 81.0815979,8.89230194 C81.2734922,8.28511523 81.3186439,7.69961376 81.2170527,7.14121885 C81.1154616,6.58282393 80.8727716,6.09490604 80.4889829,5.68288649 C80.1051942,5.27086694 79.6141703,4.98353751 79.0215553,4.80463429 C78.4176525,4.62573106 77.8363254,4.60946713 77.2832181,4.73957857 C76.7244668,4.87511132 76.2390869,5.14617681 75.8327224,5.55819636 C75.4207139,5.97021591 75.1215844,6.47981904 74.92969,7.08700575 C74.7377957,7.69419245 74.692644,8.27427261 74.7942352,8.83808884 C74.8958263,9.40190507 75.1385163,9.88440165 75.522305,10.2964212 C75.9060938,10.7084407 76.4027615,11.0011915 77.0066644,11.1746734 C77.5936354,11.3535766 78.1693186,11.3752619 78.7280698,11.2397291 Z" id="Shape"></path>
            <polygon id="Path" points="87.4171454 7.5944206 83.5395493 14.5296137 82 13.7150215 86.8771542 5 88.7384004 5.98197425 89.9849757 15.2158798 89.7551922 15.093133 93.4604507 8.47038627 95 9.28497854 90.1228458 18 88.5315952 17.1630901 87.1931065 7.47167382"></polygon>
            <polygon id="Path" points="98.2311978 14.2607346 95.7743733 12.2405587 96.7493036 11 103 16.1386446 102.02507 17.3792033 99.5682451 15.3590274 94.3314763 22 93 20.9017072"></polygon>
            <path d="M106.849851,20 L108,21.3085918 L103.481169,31 L102.26561,29.6187087 L103.524777,26.9400102 L100.951933,24.0208439 L98.21556,25.027453 L97,23.6461617 L106.849851,20 Z M106.849851,20 L108,21.3085918 L103.481169,31 L102.26561,29.6187087 L103.524777,26.9400102 L100.951933,24.0208439 L98.21556,25.027453 L97,23.6461617 L106.849851,20 Z M105.841427,22.1194713 L102.516353,23.366548 L104.309713,25.396543 L105.841427,22.1194713 Z M105.841427,22.1194713 L102.516353,23.366548 L104.309713,25.396543 L105.841427,22.1194713 Z" id="Shape"></path>
            <path d="M105.000398,32.1774409 C104.989528,31.3066611 105.201488,30.4913449 105.630844,29.7314924 C106.0602,28.9716399 106.679776,28.3393539 107.478703,27.8346344 C108.277631,27.3354612 109.109168,27.0581428 109.967879,27.0082254 C110.82659,26.9583081 111.636387,27.1357919 112.391836,27.5351305 C113.147284,27.9400154 113.76686,28.5390232 114.250565,29.3377002 C114.810358,30.2639438 115.054927,31.2290119 114.989709,32.2329046 C114.92449,33.2367973 114.544048,34.1408554 113.853819,34.9450788 L112.549447,33.8302588 C113.011412,33.2756219 113.277721,32.6821605 113.337505,32.0443281 C113.397289,31.4120421 113.250547,30.7963952 112.88641,30.191841 C112.576622,29.6815751 112.17444,29.2988757 111.679866,29.0548354 C111.185292,28.8107952 110.652674,28.7109606 110.071142,28.7553315 C109.489609,28.7997025 108.929817,28.9993718 108.380894,29.3432466 C107.831971,29.6871215 107.40805,30.1141918 107.103697,30.613365 C106.799343,31.1125382 106.647167,31.6505359 106.641732,32.2107191 C106.636297,32.7709024 106.783039,33.3089001 107.092827,33.819166 C107.456964,34.4181738 107.924364,34.8341515 108.505896,35.067099 C109.087428,35.3000464 109.728744,35.3277783 110.424409,35.1558409 L110.821155,36.8419369 C109.788528,37.1026162 108.821119,37.0416062 107.918929,36.6533604 C107.016739,36.2651146 106.28303,35.6106431 105.723237,34.6788532 C105.261272,33.8801761 105.011268,33.0482208 105.000398,32.1774409 Z" id="Path"></path>
            <polygon id="Path" points="116.758481 38.4355828 115.59443 35.5616905 117.042532 35 120 42.3019768 118.551899 42.8636673 117.387848 39.9897751 109.629367 43 109 41.4403545"></polygon>
            <polygon id="Path" points="121.766097 49 122.004024 51.0894386 115.264588 55.4224548 115.236922 55.1655566 122.762072 57.7288297 123 59.8182683 113.22837 61 113.034708 59.2702188 120.222334 58.4024738 120.25 58.6479543 113.759557 56.3358706 113.560362 54.5946717 119.353622 50.7982873 119.381288 51.0437678 112.193662 51.9115128 112 50.1817317"></polygon>
            <polygon id="Path" points="118.658747 64.1591468 118.37797 68.2018048 116.87149 68.0869565 117.152268 64.0442986 114.814255 63.8605414 114.506479 68.3396226 113 68.2247744 113.426566 62 123 62.7465135 122.568035 69 121.061555 68.8851518 121.37473 64.3773585"></polygon>
            <path d="M112.831224,76.6491274 C113.163135,76.354251 113.544218,76.1576666 113.974474,76.0593745 C114.404729,75.9610823 114.834985,75.9856554 115.271387,76.1269503 C115.707788,76.2682453 116.070432,76.5016892 116.365465,76.8334252 C116.660497,77.1651613 116.851039,77.5460434 116.943236,77.9822149 C117.035434,78.4183863 117.016994,78.8484145 116.875625,79.2722995 C116.734255,79.6961844 116.500688,80.0586368 116.168776,80.3535133 C115.836865,80.6483897 115.455782,80.8449741 115.025526,80.9432662 C114.595271,81.0354151 114.158869,81.0169853 113.728613,80.8756904 C113.292212,80.7343954 112.929568,80.5009515 112.634535,80.1692154 C112.339503,79.8374794 112.148961,79.4565973 112.056764,79.0204258 C111.964566,78.5842544 111.983006,78.1542262 112.124375,77.7303412 C112.265745,77.3125995 112.499312,76.9501472 112.831224,76.6491274 Z" id="Path"></path>
            <path d="M104.973876,90.3683165 C105.763567,90.0321529 106.580489,89.9274462 107.44098,90.0486855 C108.296024,90.1699249 109.102054,90.5115994 109.859068,91.0792199 C110.616082,91.6413295 111.182481,92.3191676 111.547372,93.1127342 C111.91771,93.9007899 112.05931,94.7274217 111.977618,95.5871188 C111.895926,96.4468159 111.580049,97.2514042 111.035435,98.0063946 C110.403682,98.8771135 109.613991,99.4722884 108.682701,99.7808976 C107.75141,100.089507 106.781996,100.072974 105.785352,99.7257888 L106.308182,98.0835469 C106.98895,98.3150038 107.631595,98.3370473 108.230671,98.1606992 C108.829746,97.9788402 109.336238,97.6096113 109.744699,97.0475017 C110.093252,96.5680552 110.289313,96.0500326 110.327436,95.4934338 C110.365559,94.9368351 110.256636,94.3967689 109.995221,93.8732355 C109.733806,93.349702 109.34713,92.892299 108.8243,92.5065375 C108.30147,92.120776 107.756856,91.8782973 107.185011,91.7846124 C106.613166,91.6909274 106.068551,91.7405253 105.556614,91.9444279 C105.044676,92.1483304 104.608985,92.4900049 104.260431,92.9694513 C103.851971,93.531561 103.650463,94.1322468 103.661356,94.7659978 C103.672248,95.3997489 103.884648,96.0114565 104.304001,96.6011205 L102.92068,97.6041004 C102.294373,96.7333816 101.989389,95.8020431 102.000282,94.8100849 C102.011174,93.8181267 102.337943,92.8867881 102.969695,92.0105584 C103.519756,91.2500571 104.184185,90.7044801 104.973876,90.3683165 Z" id="Path"></path>
            <path d="M98.8659009,99.0984821 C99.7015803,98.9230604 100.53726,98.9833616 101.356445,99.2684218 C102.181129,99.553482 102.917846,100.052337 103.5611,100.754024 C104.204353,101.455711 104.638686,102.234144 104.853104,103.078361 C105.067522,103.922578 105.04553,104.750348 104.798125,105.567156 C104.55072,106.383963 104.088897,107.102095 103.407159,107.721553 C102.72542,108.34101 101.972209,108.735709 101.13653,108.905649 C100.30085,109.075589 99.4706689,109.015287 98.6459852,108.730227 C97.8213016,108.445167 97.0845842,107.946312 96.441331,107.244625 C95.7925799,106.537457 95.3637444,105.764505 95.1493266,104.920288 C94.9349089,104.076071 94.9514026,103.248301 95.1988077,102.431493 C95.4407149,101.620168 95.9025377,100.902036 96.5842762,100.282578 C97.2660146,99.6631205 98.0302215,99.2684218 98.8659009,99.0984821 Z M96.8151876,102.930349 C96.6557487,103.467578 96.6557487,104.010288 96.8096897,104.563963 C96.9636306,105.117638 97.2605167,105.632939 97.6948501,106.104384 C98.1291835,106.57583 98.6129979,106.915709 99.1572891,107.118541 C99.6960824,107.321372 100.245871,107.370709 100.790163,107.261071 C101.339952,107.151432 101.834762,106.893782 102.285589,106.482637 C102.736416,106.071493 103.044298,105.594565 103.203737,105.057336 C103.363176,104.520108 103.363176,103.977397 103.209235,103.423722 C103.055294,102.870048 102.758408,102.354746 102.324074,101.883301 C101.889741,101.411855 101.405926,101.071976 100.861635,100.869144 C100.322842,100.666313 99.7730529,100.616976 99.2287617,100.726614 C98.6789726,100.836253 98.1786645,101.099385 97.7278375,101.51053 C97.2770104,101.927156 96.9746264,102.398602 96.8151876,102.930349 Z" id="Shape"></path>
            <polygon id="Path" points="94.4600959 111.5755 90.3327519 104.868141 91.8124727 104 97 112.427052 95.2084605 113.477669 86.5002181 109.861336 86.7213258 109.728626 90.6672481 116.131859 89.1875273 117 84 108.572948 85.5307457 107.677159 94.6868731 111.44279"></polygon>
            <polygon id="Path" points="83.5255878 117.820487 86.4578147 116.710446 87 118.171907 79.5421853 121 79 119.53854 81.9322268 118.428499 79.0165975 110.602434 80.6099585 110"></polygon>
            <path d="M74.9217041,121.644615 L73.1427749,122 L67,112.985641 L68.8767991,112.613333 L70.5693725,115.112308 L74.5417386,114.322564 L75.1232009,111.372308 L77,111 L74.9217041,121.644615 Z M74.9217041,121.644615 L73.1427749,122 L67,112.985641 L68.8767991,112.613333 L70.5693725,115.112308 L74.5417386,114.322564 L75.1232009,111.372308 L77,111 L74.9217041,121.644615 Z M73.5860679,119.658974 L74.2711572,116.06 L71.507772,116.607179 L73.5860679,119.658974 Z M73.5860679,119.658974 L74.2711572,116.06 L71.507772,116.607179 L73.5860679,119.658974 Z" id="Shape"></path>
            <path d="M65.4232952,113.625055 C66.2176053,114.048934 66.8425405,114.641278 67.2922602,115.391218 C67.7478204,116.141159 67.981441,116.988917 67.9989625,117.92906 C68.0164841,118.869202 67.812066,119.716961 67.3857084,120.483204 C66.9593508,121.249447 66.3577777,121.858094 65.5751486,122.303711 C64.79836,122.754762 63.9106017,122.983005 62.9235546,122.999308 C61.7788135,123.015611 60.7684043,122.743893 59.8981675,122.18959 C59.0279307,121.629852 58.4146766,120.85274 58.0642457,119.858254 L59.7930383,119.293081 C60.0441804,119.972375 60.435495,120.494073 60.9786629,120.863608 C61.5218308,121.233144 62.158447,121.412478 62.9001925,121.401609 C63.5309682,121.39074 64.0974982,121.238578 64.5881015,120.934255 C65.0845453,120.629931 65.4641788,120.222355 65.738683,119.700658 C66.0131873,119.17896 66.1416786,118.597485 66.1299976,117.956231 C66.1183165,117.314978 65.9664631,116.733503 65.6744374,116.222674 C65.3824116,115.711845 64.9852565,115.315137 64.4829722,115.027117 C63.9806879,114.739096 63.4083174,114.603238 62.7775417,114.608672 C62.0357962,114.619541 61.39918,114.820612 60.8735336,115.201016 C60.3478872,115.586855 59.9682537,116.119421 59.7463141,116.804149 L58,116.304189 C58.3270689,115.287966 58.9169609,114.489116 59.7638357,113.902207 C60.6107104,113.320731 61.6035981,113.016408 62.7541796,113.000104 C63.7412267,112.99467 64.6289851,113.201175 65.4232952,113.625055 Z" id="Path"></path>
            <polygon id="Path" points="52.9440655 120.883721 56 121.395349 55.7653479 123 48 121.697674 48.2346521 120.093023 51.2905866 120.604651 52.5620737 112 54.2210095 112.27907"></polygon>
            <polygon id="Path" points="41.905071 120 39.9910751 119.192244 39.7979716 111.412844 40.0365112 111.515847 33.9139959 116.622602 32 115.814846 36.0892495 107 37.6738337 107.666806 34.6636917 114.150542 34.4365112 114.052961 39.8036511 109.694329 41.3995943 110.371977 41.6267748 117.094245 41.4052738 117.002085 44.4154158 110.518349 46 111.185154"></polygon>
            <polygon id="Path" points="30.2988506 109.280769 26.9712644 106.95 27.8908046 105.628846 31.2183908 107.959615 32.6494253 105.905769 28.9597701 103.321154 29.8793103 102 35 105.588462 29.1494253 114 24 110.394231 24.9195402 109.073077 28.6321839 111.675"></polygon>
            <path d="M22.9497333,98.0131027 C23.0359048,98.4491482 23.0112844,98.8790522 22.875872,99.2966732 C22.7404596,99.7142942 22.5004103,100.076642 22.1557243,100.377575 C21.8110382,100.678507 21.4232663,100.875035 20.9862536,100.954874 C20.555396,101.034714 20.1245384,101.010148 19.6998359,100.868893 C19.2751334,100.727639 18.9181371,100.488121 18.6226918,100.15034 C18.3272466,99.8125579 18.1364382,99.4256444 18.0502667,98.9895989 C17.9640952,98.5535534 17.9887156,98.1236494 18.124128,97.7060284 C18.2595404,97.2884074 18.4995897,96.9260598 18.8442757,96.625127 C19.1889618,96.3241942 19.5767337,96.1276667 20.0137464,96.0478274 C20.444604,95.9618466 20.8754616,95.992554 21.3001641,96.1338082 C21.7248666,96.2750623 22.0818629,96.5145803 22.3773082,96.8462205 C22.6727534,97.1901437 22.8635618,97.5770572 22.9497333,98.0131027 Z" id="Path"></path>
            <path d="M13.9589185,84.5690772 C13.8449887,85.437705 13.519475,86.222272 12.9823774,86.9171743 C12.4452798,87.6120765 11.7454254,88.1500653 10.8828141,88.5311408 C10.0202028,88.9122162 9.1630167,89.0579215 8.30583064,88.9794648 C7.44864457,88.9010081 6.67826215,88.5983894 5.98925816,88.0828167 C5.30025417,87.5672441 4.77943226,86.8723419 4.41594196,85.99811 C3.99819939,84.9837769 3.89512005,83.9862559 4.10670395,82.994339 C4.31828785,82.0024221 4.82283408,81.1562105 5.62034264,80.4557042 L6.74879012,81.772656 C6.21169252,82.2602084 5.86447791,82.8094053 5.71257152,83.437059 C5.56066513,84.0591086 5.62034264,84.6979703 5.89160405,85.3536442 C6.12488887,85.9140492 6.46125302,86.3511652 6.9169722,86.6762001 C7.36726614,86.995631 7.88266283,87.1805646 8.45773703,87.219793 C9.03281122,87.2590213 9.61873588,87.1525444 10.2100858,86.889154 C10.8014356,86.6313677 11.284281,86.2671044 11.6531965,85.8131763 C12.022112,85.3536442 12.2553968,84.8492797 12.3422005,84.2888746 C12.4290041,83.7284696 12.3584762,83.1680646 12.1306166,82.6132636 C11.8593552,81.9575897 11.452463,81.4700373 10.9153654,81.1506064 C10.3728426,80.8311756 9.74894136,80.7078865 9.03823645,80.769531 L8.88633006,79.0266714 C9.94424957,78.9201944 10.8882393,79.1331483 11.7237244,79.654325 C12.5592096,80.1811057 13.1885361,80.9488606 13.6062787,81.9575897 C13.948068,82.8262175 14.0728483,83.7004494 13.9589185,84.5690772 Z" id="Path"></path>
            <path d="M10.7539846,74.5758377 C10.476941,75.4082269 10.0097693,76.1160409 9.35246967,76.6936171 C8.69517003,77.2711933 7.89663244,77.6619066 6.9731536,77.865757 C6.04967476,78.0696075 5.16965374,78.0412949 4.34395501,77.7808194 C3.51825628,77.5260063 2.81749881,77.0730054 2.24711482,76.4218165 C1.67673083,75.7706277 1.29647484,74.9835386 1.11177907,74.0548866 C0.927083299,73.1262347 0.970541127,72.2485454 1.24758478,71.4161561 C1.52462843,70.5894294 1.99180008,69.8816155 2.64909973,69.3040393 C3.30639937,68.7264631 4.10493696,68.3357498 5.0284158,68.1318993 C5.95732687,67.9337114 6.83191566,67.9563615 7.65761439,68.216837 C8.48331311,68.47165 9.18407059,68.924651 9.75445458,69.5701773 C10.3248386,70.2157037 10.7050946,71.0027928 10.8897903,71.9314447 C11.0744861,72.8600966 11.025596,73.7434485 10.7539846,74.5758377 Z M8.52133871,70.7366547 C8.14651495,70.3119664 7.6793433,70.0231783 7.13068822,69.8702904 C6.58203315,69.7174026 5.98992024,69.7060776 5.3706462,69.8419779 C4.75137215,69.9778782 4.21358153,70.2270287 3.76813879,70.6007545 C3.32269606,70.9744802 3.00762681,71.4274812 2.82293104,71.9710823 C2.63823527,72.5146834 2.61107413,73.0922596 2.73058315,73.7038109 C2.85552441,74.3210247 3.10540692,74.8419758 3.48023068,75.2666641 C3.85505445,75.6913525 4.3222261,75.9801406 4.87088118,76.1330284 C5.41953625,76.2859163 6.01164916,76.2972413 6.6309232,76.161341 C7.25019725,76.0254407 7.78798787,75.7762902 8.2334306,75.4025644 C8.67887334,75.0288386 8.99394259,74.5758377 9.17863836,74.0322366 C9.36333413,73.4886354 9.39049527,72.9053967 9.26555402,72.288183 C9.14604499,71.6709692 8.89616248,71.1556806 8.52133871,70.7366547 Z" id="Shape"></path>
            <polygon id="Path" points="2.1286031 65.2891198 9.97228381 65.1625917 10 66.8404645 0.144124169 67 0.110864745 64.9755501 7.51108647 59.4633252 7.51662971 59.7163814 0.0277161863 59.8374083 0 58.1595355 9.85587583 58 9.88359202 59.7328851 2.13414634 65.5476773"></polygon>
            <polygon id="Path" points="2.15720294 51.9549795 1.59043113 55 0 54.7380628 1.44006309 47 3.03049422 47.2619372 2.4637224 50.3069577 11 51.7203274 10.6934805 53.3738063"></polygon>
            <path d="M3,42.172043 L3.5603363,40.5698925 L14,40 L13.4070227,41.688172 L10.5182987,41.8387097 L9.26706231,45.4139785 L11.4376855,47.311828 L10.8447082,49 L3,42.172043 Z M3,42.172043 L3.5603363,40.5698925 L14,40 L13.4070227,41.688172 L10.5182987,41.8387097 L9.26706231,45.4139785 L11.4376855,47.311828 L10.8447082,49 L3,42.172043 Z M5.29030663,42.0591398 L7.95054402,44.3602151 L8.8264095,41.8709677 L5.29030663,42.0591398 Z M5.29030663,42.0591398 L7.95054402,44.3602151 L8.8264095,41.8709677 L5.29030663,42.0591398 Z" id="Shape"></path>
            <path d="M15.5317326,37.387846 C14.7878749,37.8152162 13.989721,38.0205759 13.1264117,37.9983749 C12.2631024,37.9761738 11.4269412,37.726412 10.6124985,37.2546397 C9.79805574,36.7828674 9.1627904,36.1667882 8.70670247,35.4175027 C8.25061453,34.6682173 8.01714095,33.8634292 8.00085209,32.992038 C7.98456324,32.1206467 8.20174797,31.2770068 8.6578359,30.4611182 C9.18450888,29.5120233 9.89578887,28.8293409 10.7916759,28.407521 C11.6821333,27.985701 12.6431757,27.8913466 13.6693736,28.1244576 L13.3381669,29.8283882 C12.6377461,29.6785311 12.0024808,29.7284835 11.4269412,29.9782453 C10.8514017,30.2280071 10.3953138,30.6609276 10.0532478,31.2714565 C9.76004841,31.7931812 9.62973758,32.337107 9.65145605,32.8976835 C9.67860414,33.45826 9.84692231,33.985535 10.1618402,34.4795084 C10.476758,34.9734817 10.9165571,35.3842012 11.4758078,35.7116667 C12.0350585,36.0391322 12.6051684,36.2167406 13.1807079,36.2444919 C13.7562475,36.2722432 14.2883501,36.1556877 14.7770157,35.8948253 C15.2602517,35.633963 15.6511842,35.2398943 15.9443836,34.7181696 C16.2864496,34.1076408 16.4167604,33.4860113 16.3353161,32.8532814 C16.2538719,32.2205514 15.9715317,31.6377739 15.4937253,31.0938481 L16.7479671,29.928293 C17.4646767,30.7275308 17.8773277,31.6211231 17.9750609,32.6201704 C18.0782236,33.6136674 17.8610389,34.5849633 17.3289363,35.5340583 C16.8728484,36.3388463 16.2701607,36.9604758 15.5317326,37.387846 Z" id="Path"></path>
            <polygon id="Path" points="15.2954309 23.7094632 13.2279335 26.1223022 12 25.1372441 17.248702 19 18.4766355 19.9850581 16.4091381 22.3978971 23 27.6884339 21.8805815 29"></polygon>
            <polygon id="Path" points="22 15.0712329 23.6235021 13.8986301 30.4043293 17.7342466 30.2040974 17.8821918 28.7808272 10.1726027 30.4043293 9 36 16.9232877 34.6579049 17.8931507 30.5396212 12.0630137 30.7290298 11.9260274 31.8763046 18.6219178 30.5233862 19.6027397 24.6354851 16.3369863 24.8248937 16.2 28.9431774 22.030137 27.6010823 23"></polygon>
            <polygon id="Path" points="36.4953704 10.0318687 40.2106481 8.3341381 40.8819444 9.80589087 37.1666667 11.5036214 38.2083333 13.7923708 42.3287037 11.9092226 43 13.3809754 37.2766204 16 33 6.63061323 38.7523148 4 39.4236111 5.47175278 35.2800926 7.36648962"></polygon>
            <path d="M50.6825181,9.86007644 C50.2645575,9.71237935 49.9080616,9.47237157 49.6130305,9.14620716 C49.3179995,8.81388871 49.1336051,8.42618384 49.0475543,7.97693852 C48.9615036,7.5276932 48.992236,7.09075598 49.1397516,6.67843493 C49.2872671,6.25995984 49.5269798,5.90917924 49.8650362,5.61378506 C50.2030927,5.31839088 50.5903209,5.13376951 51.026721,5.04761288 C51.4631211,4.96145624 51.8933747,4.99222647 52.3174819,5.13992356 C52.7354425,5.28762065 53.0919384,5.52762843 53.3869695,5.85379284 C53.675854,6.18611129 53.8663949,6.57381616 53.9524457,7.02306148 C54.0384964,7.4723068 54.007764,7.90924402 53.8602484,8.32156507 C53.7127329,8.74004016 53.4730202,9.09082076 53.1349638,9.38621494 C52.7969073,9.68160912 52.4096791,9.86623049 51.973279,9.95238712 C51.5307324,10.0385438 51.1004788,10.0077735 50.6825181,9.86007644 Z" id="Path"></path>
        </g>
    </g>
</svg>