<?xml version="1.0" encoding="UTF-8"?>
<svg width="123px" height="123px" viewBox="0 0 123 123" version="1.1" xmlns="http://www.w3.org/2000/svg" xmlns:xlink="http://www.w3.org/1999/xlink">
    <!-- Generator: Sketch 55.2 (78181) - https://sketchapp.com -->
    <title>smile</title>
    <desc>Created with Sketch.</desc>
    <g id="smile" stroke="none" stroke-width="1" fill="none" fill-rule="evenodd">
        <g transform="translate(29.000000, 29.000000)" fill="#8EECA3" fill-rule="nonzero">
            <path d="M61.5751067,16.4355247 C58.6242988,11.3798196 54.6213262,7.37681495 49.5656614,4.42598349 C44.5084144,1.47515203 38.9881095,0 33.0010548,0 C27.0140001,0 21.492113,1.47515203 16.4364482,4.42598349 C11.380256,7.37628755 7.37728341,11.3792922 4.42647552,16.4355247 C1.47514024,21.4917573 0,27.0136886 0,33.0002637 C0,38.9873663 1.47566764,44.5082427 4.42594812,49.5650027 C7.37675601,54.6201804 11.3797286,58.6237125 16.4359208,61.5745439 C21.492113,64.524848 27.0134727,66 33.0005274,66 C38.9875821,66 44.5094692,64.524848 49.565134,61.5745439 C54.6207988,58.6237125 58.6237714,54.6201804 61.5745793,49.5650027 C64.5248598,44.5082427 66,38.9868388 66,33.0002637 C66,27.0131612 64.5248598,21.4912299 61.5751067,16.4355247 Z M58.3094405,43.6781071 C56.8480127,47.0724862 54.893465,49.9948378 52.4442154,52.4435796 C49.9954931,54.8928489 47.0731649,56.8479395 43.6788129,58.3083242 C40.2839335,59.7697637 36.7250324,60.5002198 33.0010548,60.5002198 C29.2770772,60.5002198 25.7181762,59.7692363 22.3232967,58.3083242 C18.9289447,56.8474121 16.0066165,54.8923215 13.5573668,52.4435796 C11.1086446,49.9943104 9.15356954,47.0730136 7.69214173,43.6781071 C6.23124131,40.283728 5.5007911,36.7237436 5.5007911,33.0002637 C5.5007911,29.2762564 6.23124131,25.7173269 7.69214173,22.3224203 C9.15304214,18.9280412 11.1081172,16.006217 13.5573668,13.5564204 C16.0066165,11.1076785 18.9289447,9.15258788 22.3232967,7.69114838 C25.7176488,6.2307637 29.2770772,5.50030765 33.0010548,5.50030765 C36.724505,5.50030765 40.2844609,6.23023629 43.6788129,7.69114838 C47.0731649,9.15206048 49.9949657,11.1071511 52.4442154,13.5564204 C54.893465,16.0056896 56.8485401,18.9275138 58.3094405,22.3224203 C59.7703409,25.7167995 60.5013188,29.275729 60.5013188,33.0002637 C60.5013188,36.724271 59.7703409,40.2842554 58.3094405,43.6781071 Z" id="Shape"></path>
            <path d="M47.1436664,36.1458283 C46.4444074,35.9021496 45.7585461,35.9646027 45.0865978,36.3276115 C44.4141342,36.6900627 43.9663405,37.2666389 43.7437318,38.0539943 C43.0449881,40.4773986 41.7495295,42.4385382 39.8599326,43.9374132 C37.9713663,45.4362882 35.8509161,46.1862833 33.4996124,46.1862833 C31.148824,46.1862833 29.0288891,45.4357306 27.1392922,43.9374132 C25.2502106,42.4379806 23.9557826,40.4773986 23.2560083,38.0539943 C23.032369,37.2666389 22.5912742,36.6906203 21.9337542,36.3276115 C21.2762343,35.9646027 20.5975871,35.9021496 19.8978128,36.1458283 C19.1702124,36.3878342 18.6384251,36.8645969 18.3024509,37.5755588 C17.9664768,38.2870783 17.9103093,39.023133 18.1344639,39.7792619 C19.1696971,43.4444796 21.1010331,46.3970626 23.9279565,48.6386836 C26.75488,50.8803047 29.9456038,52 33.5001277,52 C37.0541363,52 40.2458906,50.8797471 43.0722988,48.6386836 C45.8976765,46.396505 47.8290124,43.4450372 48.8647609,39.7792619 C49.0899461,39.023133 49.0337786,38.2870783 48.6972892,37.5755588 C48.3602844,36.8645969 47.8424102,36.3883918 47.1436664,36.1458283 Z" id="Path"></path>
            <path d="M23,28 C24.3798063,28 25.558251,27.510979 26.5348547,26.5348547 C27.5114584,25.5587305 28,24.3802857 28,23 C28,21.6197143 27.5114584,20.441749 26.5348547,19.4651453 C25.558251,18.4885416 24.3798063,18 23,18 C21.6197143,18 20.4412695,18.4885416 19.4646658,19.4651453 C18.4885416,20.441749 18,21.6197143 18,23 C18,24.3802857 18.4880621,25.5587305 19.4646658,26.5348547 C20.441749,27.5114584 21.6197143,28 23,28 Z" id="Path"></path>
            <path d="M43.0004794,18 C41.620326,18 40.4415149,18.4885416 39.4650048,19.4651453 C38.4894535,20.441749 38,21.6197143 38,23 C38,24.3802857 38.4894535,25.5587305 39.4650048,26.5348547 C40.4415149,27.5114584 41.620326,28 43.0004794,28 C44.379674,28 45.5584851,27.510979 46.5349952,26.5348547 C47.5115053,25.5587305 48,24.3802857 48,23 C48,21.6197143 47.5115053,20.441749 46.5349952,19.4651453 C45.5584851,18.4885416 44.379674,18 43.0004794,18 Z" id="Path"></path>
        </g>
    </g>
</svg>